<?xml version="1.0" encoding="utf-8" standalone="no"?>
<!DOCTYPE svg PUBLIC "-//W3C//DTD SVG 1.1//EN"
  "http://www.w3.org/Graphics/SVG/1.1/DTD/svg11.dtd">
<svg xmlns:xlink="http://www.w3.org/1999/xlink" width="829.405pt" height="145.104562pt" viewBox="0 0 829.405 145.104562" xmlns="http://www.w3.org/2000/svg" version="1.1">
 <metadata>
  <rdf:RDF xmlns:dc="http://purl.org/dc/elements/1.1/" xmlns:cc="http://creativecommons.org/ns#" xmlns:rdf="http://www.w3.org/1999/02/22-rdf-syntax-ns#">
   <cc:Work>
    <dc:type rdf:resource="http://purl.org/dc/dcmitype/StillImage"/>
    <dc:format>image/svg+xml</dc:format>
    <dc:creator>
     <cc:Agent>
      <dc:title>Matplotlib, https://matplotlib.org/</dc:title>
     </cc:Agent>
    </dc:creator>
   </cc:Work>
  </rdf:RDF>
 </metadata>
 <defs>
  <style type="text/css">*{stroke-linejoin: round; stroke-linecap: butt}</style>
 </defs>
 <g id="figure_1">
  <g id="patch_1">
   <path d="M 0 145.104562 
L 829.405 145.104562 
L 829.405 0 
L 0 0 
z
" style="fill: #ffffff"/>
  </g>
  <g id="axes_1">
   <g id="patch_2">
    <path d="M 10.7 121.226437 
L 822.205 121.226437 
L 822.205 19.866437 
L 10.7 19.866437 
z
" style="fill: #ffffff"/>
   </g>
   <g id="matplotlib.axis_1">
    <g id="xtick_1">
     <g id="line2d_1">
      <defs>
       <path id="m8f1de1206a" d="M 0 0 
L 0 3.5 
" style="stroke: #000000; stroke-width: 0.8"/>
      </defs>
      <g>
       <use xlink:href="#m8f1de1206a" x="120.844516" y="121.226437" style="stroke: #000000; stroke-width: 0.8"/>
      </g>
     </g>
     <g id="text_1">
      <!-- −2 -->
      <g transform="translate(113.473422 135.824875) scale(0.1 -0.1)">
       <defs>
        <path id="DejaVuSans-2212" d="M 678 2272 
L 4684 2272 
L 4684 1741 
L 678 1741 
L 678 2272 
z
" transform="scale(0.015625)"/>
        <path id="DejaVuSans-32" d="M 1228 531 
L 3431 531 
L 3431 0 
L 469 0 
L 469 531 
Q 828 903 1448 1529 
Q 2069 2156 2228 2338 
Q 2531 2678 2651 2914 
Q 2772 3150 2772 3378 
Q 2772 3750 2511 3984 
Q 2250 4219 1831 4219 
Q 1534 4219 1204 4116 
Q 875 4013 500 3803 
L 500 4441 
Q 881 4594 1212 4672 
Q 1544 4750 1819 4750 
Q 2544 4750 2975 4387 
Q 3406 4025 3406 3419 
Q 3406 3131 3298 2873 
Q 3191 2616 2906 2266 
Q 2828 2175 2409 1742 
Q 1991 1309 1228 531 
z
" transform="scale(0.015625)"/>
       </defs>
       <use xlink:href="#DejaVuSans-2212"/>
       <use xlink:href="#DejaVuSans-32" x="83.789062"/>
      </g>
     </g>
    </g>
    <g id="xtick_2">
     <g id="line2d_2">
      <g>
       <use xlink:href="#m8f1de1206a" x="268.570509" y="121.226437" style="stroke: #000000; stroke-width: 0.8"/>
      </g>
     </g>
     <g id="text_2">
      <!-- −1 -->
      <g transform="translate(261.199415 135.824875) scale(0.1 -0.1)">
       <defs>
        <path id="DejaVuSans-31" d="M 794 531 
L 1825 531 
L 1825 4091 
L 703 3866 
L 703 4441 
L 1819 4666 
L 2450 4666 
L 2450 531 
L 3481 531 
L 3481 0 
L 794 0 
L 794 531 
z
" transform="scale(0.015625)"/>
       </defs>
       <use xlink:href="#DejaVuSans-2212"/>
       <use xlink:href="#DejaVuSans-31" x="83.789062"/>
      </g>
     </g>
    </g>
    <g id="xtick_3">
     <g id="line2d_3">
      <g>
       <use xlink:href="#m8f1de1206a" x="416.296501" y="121.226437" style="stroke: #000000; stroke-width: 0.8"/>
      </g>
     </g>
     <g id="text_3">
      <!-- 0 -->
      <g transform="translate(413.115251 135.824875) scale(0.1 -0.1)">
       <defs>
        <path id="DejaVuSans-30" d="M 2034 4250 
Q 1547 4250 1301 3770 
Q 1056 3291 1056 2328 
Q 1056 1369 1301 889 
Q 1547 409 2034 409 
Q 2525 409 2770 889 
Q 3016 1369 3016 2328 
Q 3016 3291 2770 3770 
Q 2525 4250 2034 4250 
z
M 2034 4750 
Q 2819 4750 3233 4129 
Q 3647 3509 3647 2328 
Q 3647 1150 3233 529 
Q 2819 -91 2034 -91 
Q 1250 -91 836 529 
Q 422 1150 422 2328 
Q 422 3509 836 4129 
Q 1250 4750 2034 4750 
z
" transform="scale(0.015625)"/>
       </defs>
       <use xlink:href="#DejaVuSans-30"/>
      </g>
     </g>
    </g>
    <g id="xtick_4">
     <g id="line2d_4">
      <g>
       <use xlink:href="#m8f1de1206a" x="564.022494" y="121.226437" style="stroke: #000000; stroke-width: 0.8"/>
      </g>
     </g>
     <g id="text_4">
      <!-- 1 -->
      <g transform="translate(560.841244 135.824875) scale(0.1 -0.1)">
       <use xlink:href="#DejaVuSans-31"/>
      </g>
     </g>
    </g>
    <g id="xtick_5">
     <g id="line2d_5">
      <g>
       <use xlink:href="#m8f1de1206a" x="711.748487" y="121.226437" style="stroke: #000000; stroke-width: 0.8"/>
      </g>
     </g>
     <g id="text_5">
      <!-- 2 -->
      <g transform="translate(708.567237 135.824875) scale(0.1 -0.1)">
       <use xlink:href="#DejaVuSans-32"/>
      </g>
     </g>
    </g>
   </g>
   <g id="matplotlib.axis_2"/>
   <g id="line2d_6">
    <path d="M 40.220222 121.226437 
L 40.220222 19.866437 
" clip-path="url(#p35fb0c7fe3)" style="fill: none; stroke: #000000; stroke-width: 1.5; stroke-linecap: square"/>
   </g>
   <g id="line2d_7">
    <path d="M 200.753718 121.226437 
L 200.753718 19.866437 
" clip-path="url(#p35fb0c7fe3)" style="fill: none; stroke: #000000; stroke-width: 1.5; stroke-linecap: square"/>
   </g>
   <g id="line2d_8">
    <path d="M 361.287214 121.226437 
L 361.287214 19.866437 
" clip-path="url(#p35fb0c7fe3)" style="fill: none; stroke: #000000; stroke-width: 1.5; stroke-linecap: square"/>
   </g>
   <g id="line2d_9">
    <path d="M 521.82071 121.226437 
L 521.82071 19.866437 
" clip-path="url(#p35fb0c7fe3)" style="fill: none; stroke: #000000; stroke-width: 1.5; stroke-linecap: square"/>
   </g>
   <g id="line2d_10">
    <path d="M 682.354206 121.226437 
L 682.354206 19.866437 
" clip-path="url(#p35fb0c7fe3)" style="fill: none; stroke: #000000; stroke-width: 1.5; stroke-linecap: square"/>
   </g>
   <g id="patch_3">
    <path d="M 10.7 121.226437 
L 10.7 19.866437 
" style="fill: none; stroke: #000000; stroke-width: 0.8; stroke-linejoin: miter; stroke-linecap: square"/>
   </g>
   <g id="patch_4">
    <path d="M 822.205 121.226437 
L 822.205 19.866437 
" style="fill: none; stroke: #000000; stroke-width: 0.8; stroke-linejoin: miter; stroke-linecap: square"/>
   </g>
   <g id="patch_5">
    <path d="M 10.7 121.226437 
L 822.205 121.226437 
" style="fill: none; stroke: #000000; stroke-width: 0.8; stroke-linejoin: miter; stroke-linecap: square"/>
   </g>
   <g id="patch_6">
    <path d="M 10.7 19.866437 
L 822.205 19.866437 
" style="fill: none; stroke: #000000; stroke-width: 0.8; stroke-linejoin: miter; stroke-linecap: square"/>
   </g>
   <g id="text_6">
    <g id="patch_7">
     <path d="M 105.427038 100.282375 
L 105.427038 40.8105 
Q 105.427038 37.8105 102.427038 37.8105 
L 92.748913 37.8105 
Q 89.748913 37.8105 89.748913 40.8105 
L 89.748913 100.282375 
Q 89.748913 103.282375 92.748913 103.282375 
L 102.427038 103.282375 
Q 105.427038 103.282375 105.427038 100.282375 
z
" style="fill: #ffffff"/>
    </g>
    <!-- min=-2.118 -->
    <g transform="translate(100.347351 100.282375) rotate(-90) scale(0.1 -0.1)">
     <defs>
      <path id="DejaVuSans-6d" d="M 3328 2828 
Q 3544 3216 3844 3400 
Q 4144 3584 4550 3584 
Q 5097 3584 5394 3201 
Q 5691 2819 5691 2113 
L 5691 0 
L 5113 0 
L 5113 2094 
Q 5113 2597 4934 2840 
Q 4756 3084 4391 3084 
Q 3944 3084 3684 2787 
Q 3425 2491 3425 1978 
L 3425 0 
L 2847 0 
L 2847 2094 
Q 2847 2600 2669 2842 
Q 2491 3084 2119 3084 
Q 1678 3084 1418 2786 
Q 1159 2488 1159 1978 
L 1159 0 
L 581 0 
L 581 3500 
L 1159 3500 
L 1159 2956 
Q 1356 3278 1631 3431 
Q 1906 3584 2284 3584 
Q 2666 3584 2933 3390 
Q 3200 3197 3328 2828 
z
" transform="scale(0.015625)"/>
      <path id="DejaVuSans-69" d="M 603 3500 
L 1178 3500 
L 1178 0 
L 603 0 
L 603 3500 
z
M 603 4863 
L 1178 4863 
L 1178 4134 
L 603 4134 
L 603 4863 
z
" transform="scale(0.015625)"/>
      <path id="DejaVuSans-6e" d="M 3513 2113 
L 3513 0 
L 2938 0 
L 2938 2094 
Q 2938 2591 2744 2837 
Q 2550 3084 2163 3084 
Q 1697 3084 1428 2787 
Q 1159 2491 1159 1978 
L 1159 0 
L 581 0 
L 581 3500 
L 1159 3500 
L 1159 2956 
Q 1366 3272 1645 3428 
Q 1925 3584 2291 3584 
Q 2894 3584 3203 3211 
Q 3513 2838 3513 2113 
z
" transform="scale(0.015625)"/>
      <path id="DejaVuSans-3d" d="M 678 2906 
L 4684 2906 
L 4684 2381 
L 678 2381 
L 678 2906 
z
M 678 1631 
L 4684 1631 
L 4684 1100 
L 678 1100 
L 678 1631 
z
" transform="scale(0.015625)"/>
      <path id="DejaVuSans-2d" d="M 313 2009 
L 1997 2009 
L 1997 1497 
L 313 1497 
L 313 2009 
z
" transform="scale(0.015625)"/>
      <path id="DejaVuSans-2e" d="M 684 794 
L 1344 794 
L 1344 0 
L 684 0 
L 684 794 
z
" transform="scale(0.015625)"/>
      <path id="DejaVuSans-38" d="M 2034 2216 
Q 1584 2216 1326 1975 
Q 1069 1734 1069 1313 
Q 1069 891 1326 650 
Q 1584 409 2034 409 
Q 2484 409 2743 651 
Q 3003 894 3003 1313 
Q 3003 1734 2745 1975 
Q 2488 2216 2034 2216 
z
M 1403 2484 
Q 997 2584 770 2862 
Q 544 3141 544 3541 
Q 544 4100 942 4425 
Q 1341 4750 2034 4750 
Q 2731 4750 3128 4425 
Q 3525 4100 3525 3541 
Q 3525 3141 3298 2862 
Q 3072 2584 2669 2484 
Q 3125 2378 3379 2068 
Q 3634 1759 3634 1313 
Q 3634 634 3220 271 
Q 2806 -91 2034 -91 
Q 1263 -91 848 271 
Q 434 634 434 1313 
Q 434 1759 690 2068 
Q 947 2378 1403 2484 
z
M 1172 3481 
Q 1172 3119 1398 2916 
Q 1625 2713 2034 2713 
Q 2441 2713 2670 2916 
Q 2900 3119 2900 3481 
Q 2900 3844 2670 4047 
Q 2441 4250 2034 4250 
Q 1625 4250 1398 4047 
Q 1172 3844 1172 3481 
z
" transform="scale(0.015625)"/>
     </defs>
     <use xlink:href="#DejaVuSans-6d"/>
     <use xlink:href="#DejaVuSans-69" x="97.412109"/>
     <use xlink:href="#DejaVuSans-6e" x="125.195312"/>
     <use xlink:href="#DejaVuSans-3d" x="188.574219"/>
     <use xlink:href="#DejaVuSans-2d" x="272.363281"/>
     <use xlink:href="#DejaVuSans-32" x="308.447266"/>
     <use xlink:href="#DejaVuSans-2e" x="372.070312"/>
     <use xlink:href="#DejaVuSans-31" x="403.857422"/>
     <use xlink:href="#DejaVuSans-31" x="467.480469"/>
     <use xlink:href="#DejaVuSans-38" x="531.103516"/>
    </g>
   </g>
   <g id="text_7">
    <g id="patch_8">
     <path d="M 820.971262 99.944094 
L 820.971262 41.148781 
Q 820.971262 38.148781 817.971262 38.148781 
L 808.293137 38.148781 
Q 805.293137 38.148781 805.293137 41.148781 
L 805.293137 99.944094 
Q 805.293137 102.944094 808.293137 102.944094 
L 817.971262 102.944094 
Q 820.971262 102.944094 820.971262 99.944094 
z
" style="fill: #ffffff"/>
    </g>
    <!-- max=2.640 -->
    <g transform="translate(815.891575 99.944094) rotate(-90) scale(0.1 -0.1)">
     <defs>
      <path id="DejaVuSans-61" d="M 2194 1759 
Q 1497 1759 1228 1600 
Q 959 1441 959 1056 
Q 959 750 1161 570 
Q 1363 391 1709 391 
Q 2188 391 2477 730 
Q 2766 1069 2766 1631 
L 2766 1759 
L 2194 1759 
z
M 3341 1997 
L 3341 0 
L 2766 0 
L 2766 531 
Q 2569 213 2275 61 
Q 1981 -91 1556 -91 
Q 1019 -91 701 211 
Q 384 513 384 1019 
Q 384 1609 779 1909 
Q 1175 2209 1959 2209 
L 2766 2209 
L 2766 2266 
Q 2766 2663 2505 2880 
Q 2244 3097 1772 3097 
Q 1472 3097 1187 3025 
Q 903 2953 641 2809 
L 641 3341 
Q 956 3463 1253 3523 
Q 1550 3584 1831 3584 
Q 2591 3584 2966 3190 
Q 3341 2797 3341 1997 
z
" transform="scale(0.015625)"/>
      <path id="DejaVuSans-78" d="M 3513 3500 
L 2247 1797 
L 3578 0 
L 2900 0 
L 1881 1375 
L 863 0 
L 184 0 
L 1544 1831 
L 300 3500 
L 978 3500 
L 1906 2253 
L 2834 3500 
L 3513 3500 
z
" transform="scale(0.015625)"/>
      <path id="DejaVuSans-36" d="M 2113 2584 
Q 1688 2584 1439 2293 
Q 1191 2003 1191 1497 
Q 1191 994 1439 701 
Q 1688 409 2113 409 
Q 2538 409 2786 701 
Q 3034 994 3034 1497 
Q 3034 2003 2786 2293 
Q 2538 2584 2113 2584 
z
M 3366 4563 
L 3366 3988 
Q 3128 4100 2886 4159 
Q 2644 4219 2406 4219 
Q 1781 4219 1451 3797 
Q 1122 3375 1075 2522 
Q 1259 2794 1537 2939 
Q 1816 3084 2150 3084 
Q 2853 3084 3261 2657 
Q 3669 2231 3669 1497 
Q 3669 778 3244 343 
Q 2819 -91 2113 -91 
Q 1303 -91 875 529 
Q 447 1150 447 2328 
Q 447 3434 972 4092 
Q 1497 4750 2381 4750 
Q 2619 4750 2861 4703 
Q 3103 4656 3366 4563 
z
" transform="scale(0.015625)"/>
      <path id="DejaVuSans-34" d="M 2419 4116 
L 825 1625 
L 2419 1625 
L 2419 4116 
z
M 2253 4666 
L 3047 4666 
L 3047 1625 
L 3713 1625 
L 3713 1100 
L 3047 1100 
L 3047 0 
L 2419 0 
L 2419 1100 
L 313 1100 
L 313 1709 
L 2253 4666 
z
" transform="scale(0.015625)"/>
     </defs>
     <use xlink:href="#DejaVuSans-6d"/>
     <use xlink:href="#DejaVuSans-61" x="97.412109"/>
     <use xlink:href="#DejaVuSans-78" x="158.691406"/>
     <use xlink:href="#DejaVuSans-3d" x="217.871094"/>
     <use xlink:href="#DejaVuSans-32" x="301.660156"/>
     <use xlink:href="#DejaVuSans-2e" x="365.283203"/>
     <use xlink:href="#DejaVuSans-36" x="397.070312"/>
     <use xlink:href="#DejaVuSans-34" x="460.693359"/>
     <use xlink:href="#DejaVuSans-30" x="524.316406"/>
    </g>
   </g>
   <g id="text_8">
    <!-- 10000 samples (μ=-0.372, σ=1.087) of array[196, 196, 3] f32 n=115248 x∈[-2.118, 2.640] μ=-0.388 σ=1.073 -->
    <g transform="translate(10.7 14.798437) scale(0.1 -0.1)">
     <defs>
      <path id="DejaVuSans-20" transform="scale(0.015625)"/>
      <path id="DejaVuSans-73" d="M 2834 3397 
L 2834 2853 
Q 2591 2978 2328 3040 
Q 2066 3103 1784 3103 
Q 1356 3103 1142 2972 
Q 928 2841 928 2578 
Q 928 2378 1081 2264 
Q 1234 2150 1697 2047 
L 1894 2003 
Q 2506 1872 2764 1633 
Q 3022 1394 3022 966 
Q 3022 478 2636 193 
Q 2250 -91 1575 -91 
Q 1294 -91 989 -36 
Q 684 19 347 128 
L 347 722 
Q 666 556 975 473 
Q 1284 391 1588 391 
Q 1994 391 2212 530 
Q 2431 669 2431 922 
Q 2431 1156 2273 1281 
Q 2116 1406 1581 1522 
L 1381 1569 
Q 847 1681 609 1914 
Q 372 2147 372 2553 
Q 372 3047 722 3315 
Q 1072 3584 1716 3584 
Q 2034 3584 2315 3537 
Q 2597 3491 2834 3397 
z
" transform="scale(0.015625)"/>
      <path id="DejaVuSans-70" d="M 1159 525 
L 1159 -1331 
L 581 -1331 
L 581 3500 
L 1159 3500 
L 1159 2969 
Q 1341 3281 1617 3432 
Q 1894 3584 2278 3584 
Q 2916 3584 3314 3078 
Q 3713 2572 3713 1747 
Q 3713 922 3314 415 
Q 2916 -91 2278 -91 
Q 1894 -91 1617 61 
Q 1341 213 1159 525 
z
M 3116 1747 
Q 3116 2381 2855 2742 
Q 2594 3103 2138 3103 
Q 1681 3103 1420 2742 
Q 1159 2381 1159 1747 
Q 1159 1113 1420 752 
Q 1681 391 2138 391 
Q 2594 391 2855 752 
Q 3116 1113 3116 1747 
z
" transform="scale(0.015625)"/>
      <path id="DejaVuSans-6c" d="M 603 4863 
L 1178 4863 
L 1178 0 
L 603 0 
L 603 4863 
z
" transform="scale(0.015625)"/>
      <path id="DejaVuSans-65" d="M 3597 1894 
L 3597 1613 
L 953 1613 
Q 991 1019 1311 708 
Q 1631 397 2203 397 
Q 2534 397 2845 478 
Q 3156 559 3463 722 
L 3463 178 
Q 3153 47 2828 -22 
Q 2503 -91 2169 -91 
Q 1331 -91 842 396 
Q 353 884 353 1716 
Q 353 2575 817 3079 
Q 1281 3584 2069 3584 
Q 2775 3584 3186 3129 
Q 3597 2675 3597 1894 
z
M 3022 2063 
Q 3016 2534 2758 2815 
Q 2500 3097 2075 3097 
Q 1594 3097 1305 2825 
Q 1016 2553 972 2059 
L 3022 2063 
z
" transform="scale(0.015625)"/>
      <path id="DejaVuSans-28" d="M 1984 4856 
Q 1566 4138 1362 3434 
Q 1159 2731 1159 2009 
Q 1159 1288 1364 580 
Q 1569 -128 1984 -844 
L 1484 -844 
Q 1016 -109 783 600 
Q 550 1309 550 2009 
Q 550 2706 781 3412 
Q 1013 4119 1484 4856 
L 1984 4856 
z
" transform="scale(0.015625)"/>
      <path id="DejaVuSans-3bc" d="M 544 -1331 
L 544 3500 
L 1119 3500 
L 1119 1325 
Q 1119 872 1334 640 
Q 1550 409 1972 409 
Q 2434 409 2667 671 
Q 2900 934 2900 1459 
L 2900 3500 
L 3475 3500 
L 3475 806 
Q 3475 619 3529 530 
Q 3584 441 3700 441 
Q 3728 441 3778 458 
Q 3828 475 3916 513 
L 3916 50 
Q 3788 -22 3673 -56 
Q 3559 -91 3450 -91 
Q 3234 -91 3106 31 
Q 2978 153 2931 403 
Q 2775 156 2548 32 
Q 2322 -91 2016 -91 
Q 1697 -91 1473 31 
Q 1250 153 1119 397 
L 1119 -1331 
L 544 -1331 
z
" transform="scale(0.015625)"/>
      <path id="DejaVuSans-33" d="M 2597 2516 
Q 3050 2419 3304 2112 
Q 3559 1806 3559 1356 
Q 3559 666 3084 287 
Q 2609 -91 1734 -91 
Q 1441 -91 1130 -33 
Q 819 25 488 141 
L 488 750 
Q 750 597 1062 519 
Q 1375 441 1716 441 
Q 2309 441 2620 675 
Q 2931 909 2931 1356 
Q 2931 1769 2642 2001 
Q 2353 2234 1838 2234 
L 1294 2234 
L 1294 2753 
L 1863 2753 
Q 2328 2753 2575 2939 
Q 2822 3125 2822 3475 
Q 2822 3834 2567 4026 
Q 2313 4219 1838 4219 
Q 1578 4219 1281 4162 
Q 984 4106 628 3988 
L 628 4550 
Q 988 4650 1302 4700 
Q 1616 4750 1894 4750 
Q 2613 4750 3031 4423 
Q 3450 4097 3450 3541 
Q 3450 3153 3228 2886 
Q 3006 2619 2597 2516 
z
" transform="scale(0.015625)"/>
      <path id="DejaVuSans-37" d="M 525 4666 
L 3525 4666 
L 3525 4397 
L 1831 0 
L 1172 0 
L 2766 4134 
L 525 4134 
L 525 4666 
z
" transform="scale(0.015625)"/>
      <path id="DejaVuSans-2c" d="M 750 794 
L 1409 794 
L 1409 256 
L 897 -744 
L 494 -744 
L 750 256 
L 750 794 
z
" transform="scale(0.015625)"/>
      <path id="DejaVuSans-3c3" d="M 1959 3044 
Q 1484 3044 1228 2700 
Q 959 2341 959 1747 
Q 959 1119 1226 758 
Q 1494 397 1959 397 
Q 2419 397 2687 759 
Q 2956 1122 2956 1747 
Q 2956 2319 2688 2700 
Q 2441 3044 1959 3044 
z
M 1959 3500 
L 3869 3500 
L 3869 2925 
L 3225 2925 
Q 3566 2438 3566 1747 
Q 3566 888 3138 400 
Q 2709 -91 1959 -91 
Q 1206 -91 781 400 
Q 353 888 353 1747 
Q 353 2613 781 3097 
Q 1134 3500 1959 3500 
z
" transform="scale(0.015625)"/>
      <path id="DejaVuSans-29" d="M 513 4856 
L 1013 4856 
Q 1481 4119 1714 3412 
Q 1947 2706 1947 2009 
Q 1947 1309 1714 600 
Q 1481 -109 1013 -844 
L 513 -844 
Q 928 -128 1133 580 
Q 1338 1288 1338 2009 
Q 1338 2731 1133 3434 
Q 928 4138 513 4856 
z
" transform="scale(0.015625)"/>
      <path id="DejaVuSans-6f" d="M 1959 3097 
Q 1497 3097 1228 2736 
Q 959 2375 959 1747 
Q 959 1119 1226 758 
Q 1494 397 1959 397 
Q 2419 397 2687 759 
Q 2956 1122 2956 1747 
Q 2956 2369 2687 2733 
Q 2419 3097 1959 3097 
z
M 1959 3584 
Q 2709 3584 3137 3096 
Q 3566 2609 3566 1747 
Q 3566 888 3137 398 
Q 2709 -91 1959 -91 
Q 1206 -91 779 398 
Q 353 888 353 1747 
Q 353 2609 779 3096 
Q 1206 3584 1959 3584 
z
" transform="scale(0.015625)"/>
      <path id="DejaVuSans-66" d="M 2375 4863 
L 2375 4384 
L 1825 4384 
Q 1516 4384 1395 4259 
Q 1275 4134 1275 3809 
L 1275 3500 
L 2222 3500 
L 2222 3053 
L 1275 3053 
L 1275 0 
L 697 0 
L 697 3053 
L 147 3053 
L 147 3500 
L 697 3500 
L 697 3744 
Q 697 4328 969 4595 
Q 1241 4863 1831 4863 
L 2375 4863 
z
" transform="scale(0.015625)"/>
      <path id="DejaVuSans-72" d="M 2631 2963 
Q 2534 3019 2420 3045 
Q 2306 3072 2169 3072 
Q 1681 3072 1420 2755 
Q 1159 2438 1159 1844 
L 1159 0 
L 581 0 
L 581 3500 
L 1159 3500 
L 1159 2956 
Q 1341 3275 1631 3429 
Q 1922 3584 2338 3584 
Q 2397 3584 2469 3576 
Q 2541 3569 2628 3553 
L 2631 2963 
z
" transform="scale(0.015625)"/>
      <path id="DejaVuSans-79" d="M 2059 -325 
Q 1816 -950 1584 -1140 
Q 1353 -1331 966 -1331 
L 506 -1331 
L 506 -850 
L 844 -850 
Q 1081 -850 1212 -737 
Q 1344 -625 1503 -206 
L 1606 56 
L 191 3500 
L 800 3500 
L 1894 763 
L 2988 3500 
L 3597 3500 
L 2059 -325 
z
" transform="scale(0.015625)"/>
      <path id="DejaVuSans-5b" d="M 550 4863 
L 1875 4863 
L 1875 4416 
L 1125 4416 
L 1125 -397 
L 1875 -397 
L 1875 -844 
L 550 -844 
L 550 4863 
z
" transform="scale(0.015625)"/>
      <path id="DejaVuSans-39" d="M 703 97 
L 703 672 
Q 941 559 1184 500 
Q 1428 441 1663 441 
Q 2288 441 2617 861 
Q 2947 1281 2994 2138 
Q 2813 1869 2534 1725 
Q 2256 1581 1919 1581 
Q 1219 1581 811 2004 
Q 403 2428 403 3163 
Q 403 3881 828 4315 
Q 1253 4750 1959 4750 
Q 2769 4750 3195 4129 
Q 3622 3509 3622 2328 
Q 3622 1225 3098 567 
Q 2575 -91 1691 -91 
Q 1453 -91 1209 -44 
Q 966 3 703 97 
z
M 1959 2075 
Q 2384 2075 2632 2365 
Q 2881 2656 2881 3163 
Q 2881 3666 2632 3958 
Q 2384 4250 1959 4250 
Q 1534 4250 1286 3958 
Q 1038 3666 1038 3163 
Q 1038 2656 1286 2365 
Q 1534 2075 1959 2075 
z
" transform="scale(0.015625)"/>
      <path id="DejaVuSans-5d" d="M 1947 4863 
L 1947 -844 
L 622 -844 
L 622 -397 
L 1369 -397 
L 1369 4416 
L 622 4416 
L 622 4863 
L 1947 4863 
z
" transform="scale(0.015625)"/>
      <path id="DejaVuSans-35" d="M 691 4666 
L 3169 4666 
L 3169 4134 
L 1269 4134 
L 1269 2991 
Q 1406 3038 1543 3061 
Q 1681 3084 1819 3084 
Q 2600 3084 3056 2656 
Q 3513 2228 3513 1497 
Q 3513 744 3044 326 
Q 2575 -91 1722 -91 
Q 1428 -91 1123 -41 
Q 819 9 494 109 
L 494 744 
Q 775 591 1075 516 
Q 1375 441 1709 441 
Q 2250 441 2565 725 
Q 2881 1009 2881 1497 
Q 2881 1984 2565 2268 
Q 2250 2553 1709 2553 
Q 1456 2553 1204 2497 
Q 953 2441 691 2322 
L 691 4666 
z
" transform="scale(0.015625)"/>
      <path id="DejaVuSans-2208" d="M 1072 1959 
Q 1094 1728 1291 1353 
Q 1522 919 1959 675 
Q 2388 438 2850 434 
L 5028 434 
L 5028 -63 
L 2850 -63 
Q 2250 -63 1695 246 
Q 1141 556 844 1106 
Q 547 1656 547 2241 
Q 547 2819 844 3369 
Q 1141 3919 1695 4231 
Q 2250 4544 2850 4544 
L 5028 4544 
L 5028 4047 
L 2850 4047 
Q 2388 4044 1959 3803 
Q 1525 3556 1291 3125 
Q 1091 2750 1063 2459 
L 5028 2459 
L 5028 1959 
L 1072 1959 
z
" transform="scale(0.015625)"/>
     </defs>
     <use xlink:href="#DejaVuSans-31"/>
     <use xlink:href="#DejaVuSans-30" x="63.623047"/>
     <use xlink:href="#DejaVuSans-30" x="127.246094"/>
     <use xlink:href="#DejaVuSans-30" x="190.869141"/>
     <use xlink:href="#DejaVuSans-30" x="254.492188"/>
     <use xlink:href="#DejaVuSans-20" x="318.115234"/>
     <use xlink:href="#DejaVuSans-73" x="349.902344"/>
     <use xlink:href="#DejaVuSans-61" x="402.001953"/>
     <use xlink:href="#DejaVuSans-6d" x="463.28125"/>
     <use xlink:href="#DejaVuSans-70" x="560.693359"/>
     <use xlink:href="#DejaVuSans-6c" x="624.169922"/>
     <use xlink:href="#DejaVuSans-65" x="651.953125"/>
     <use xlink:href="#DejaVuSans-73" x="713.476562"/>
     <use xlink:href="#DejaVuSans-20" x="765.576172"/>
     <use xlink:href="#DejaVuSans-28" x="797.363281"/>
     <use xlink:href="#DejaVuSans-3bc" x="836.376953"/>
     <use xlink:href="#DejaVuSans-3d" x="900"/>
     <use xlink:href="#DejaVuSans-2d" x="983.789062"/>
     <use xlink:href="#DejaVuSans-30" x="1019.873047"/>
     <use xlink:href="#DejaVuSans-2e" x="1083.496094"/>
     <use xlink:href="#DejaVuSans-33" x="1115.283203"/>
     <use xlink:href="#DejaVuSans-37" x="1178.90625"/>
     <use xlink:href="#DejaVuSans-32" x="1242.529297"/>
     <use xlink:href="#DejaVuSans-2c" x="1306.152344"/>
     <use xlink:href="#DejaVuSans-20" x="1337.939453"/>
     <use xlink:href="#DejaVuSans-3c3" x="1369.726562"/>
     <use xlink:href="#DejaVuSans-3d" x="1433.105469"/>
     <use xlink:href="#DejaVuSans-31" x="1516.894531"/>
     <use xlink:href="#DejaVuSans-2e" x="1580.517578"/>
     <use xlink:href="#DejaVuSans-30" x="1612.304688"/>
     <use xlink:href="#DejaVuSans-38" x="1675.927734"/>
     <use xlink:href="#DejaVuSans-37" x="1739.550781"/>
     <use xlink:href="#DejaVuSans-29" x="1803.173828"/>
     <use xlink:href="#DejaVuSans-20" x="1842.1875"/>
     <use xlink:href="#DejaVuSans-6f" x="1873.974609"/>
     <use xlink:href="#DejaVuSans-66" x="1935.15625"/>
     <use xlink:href="#DejaVuSans-20" x="1970.361328"/>
     <use xlink:href="#DejaVuSans-61" x="2002.148438"/>
     <use xlink:href="#DejaVuSans-72" x="2063.427734"/>
     <use xlink:href="#DejaVuSans-72" x="2102.791016"/>
     <use xlink:href="#DejaVuSans-61" x="2143.904297"/>
     <use xlink:href="#DejaVuSans-79" x="2205.183594"/>
     <use xlink:href="#DejaVuSans-5b" x="2264.363281"/>
     <use xlink:href="#DejaVuSans-31" x="2303.376953"/>
     <use xlink:href="#DejaVuSans-39" x="2367"/>
     <use xlink:href="#DejaVuSans-36" x="2430.623047"/>
     <use xlink:href="#DejaVuSans-2c" x="2494.246094"/>
     <use xlink:href="#DejaVuSans-20" x="2526.033203"/>
     <use xlink:href="#DejaVuSans-31" x="2557.820312"/>
     <use xlink:href="#DejaVuSans-39" x="2621.443359"/>
     <use xlink:href="#DejaVuSans-36" x="2685.066406"/>
     <use xlink:href="#DejaVuSans-2c" x="2748.689453"/>
     <use xlink:href="#DejaVuSans-20" x="2780.476562"/>
     <use xlink:href="#DejaVuSans-33" x="2812.263672"/>
     <use xlink:href="#DejaVuSans-5d" x="2875.886719"/>
     <use xlink:href="#DejaVuSans-20" x="2914.900391"/>
     <use xlink:href="#DejaVuSans-66" x="2946.6875"/>
     <use xlink:href="#DejaVuSans-33" x="2981.892578"/>
     <use xlink:href="#DejaVuSans-32" x="3045.515625"/>
     <use xlink:href="#DejaVuSans-20" x="3109.138672"/>
     <use xlink:href="#DejaVuSans-6e" x="3140.925781"/>
     <use xlink:href="#DejaVuSans-3d" x="3204.304688"/>
     <use xlink:href="#DejaVuSans-31" x="3288.09375"/>
     <use xlink:href="#DejaVuSans-31" x="3351.716797"/>
     <use xlink:href="#DejaVuSans-35" x="3415.339844"/>
     <use xlink:href="#DejaVuSans-32" x="3478.962891"/>
     <use xlink:href="#DejaVuSans-34" x="3542.585938"/>
     <use xlink:href="#DejaVuSans-38" x="3606.208984"/>
     <use xlink:href="#DejaVuSans-20" x="3669.832031"/>
     <use xlink:href="#DejaVuSans-78" x="3701.619141"/>
     <use xlink:href="#DejaVuSans-2208" x="3760.798828"/>
     <use xlink:href="#DejaVuSans-5b" x="3847.908203"/>
     <use xlink:href="#DejaVuSans-2d" x="3886.921875"/>
     <use xlink:href="#DejaVuSans-32" x="3923.005859"/>
     <use xlink:href="#DejaVuSans-2e" x="3986.628906"/>
     <use xlink:href="#DejaVuSans-31" x="4018.416016"/>
     <use xlink:href="#DejaVuSans-31" x="4082.039062"/>
     <use xlink:href="#DejaVuSans-38" x="4145.662109"/>
     <use xlink:href="#DejaVuSans-2c" x="4209.285156"/>
     <use xlink:href="#DejaVuSans-20" x="4241.072266"/>
     <use xlink:href="#DejaVuSans-32" x="4272.859375"/>
     <use xlink:href="#DejaVuSans-2e" x="4336.482422"/>
     <use xlink:href="#DejaVuSans-36" x="4368.269531"/>
     <use xlink:href="#DejaVuSans-34" x="4431.892578"/>
     <use xlink:href="#DejaVuSans-30" x="4495.515625"/>
     <use xlink:href="#DejaVuSans-5d" x="4559.138672"/>
     <use xlink:href="#DejaVuSans-20" x="4598.152344"/>
     <use xlink:href="#DejaVuSans-3bc" x="4629.939453"/>
     <use xlink:href="#DejaVuSans-3d" x="4693.5625"/>
     <use xlink:href="#DejaVuSans-2d" x="4777.351562"/>
     <use xlink:href="#DejaVuSans-30" x="4813.435547"/>
     <use xlink:href="#DejaVuSans-2e" x="4877.058594"/>
     <use xlink:href="#DejaVuSans-33" x="4908.845703"/>
     <use xlink:href="#DejaVuSans-38" x="4972.46875"/>
     <use xlink:href="#DejaVuSans-38" x="5036.091797"/>
     <use xlink:href="#DejaVuSans-20" x="5099.714844"/>
     <use xlink:href="#DejaVuSans-3c3" x="5131.501953"/>
     <use xlink:href="#DejaVuSans-3d" x="5194.880859"/>
     <use xlink:href="#DejaVuSans-31" x="5278.669922"/>
     <use xlink:href="#DejaVuSans-2e" x="5342.292969"/>
     <use xlink:href="#DejaVuSans-30" x="5374.080078"/>
     <use xlink:href="#DejaVuSans-37" x="5437.703125"/>
     <use xlink:href="#DejaVuSans-33" x="5501.326172"/>
    </g>
   </g>
   <g id="patch_9">
    <path d="M 10.699983 121.226437 
L 18.815061 121.226437 
L 18.815061 121.226437 
L 10.699983 121.226437 
z
" clip-path="url(#p35fb0c7fe3)" style="fill: #00bfff"/>
   </g>
   <g id="patch_10">
    <path d="M 18.815061 121.226437 
L 26.930138 121.226437 
L 26.930138 121.226437 
L 18.815061 121.226437 
z
" clip-path="url(#p35fb0c7fe3)" style="fill: #00bfff"/>
   </g>
   <g id="patch_11">
    <path d="M 26.930103 121.226437 
L 35.045181 121.226437 
L 35.045181 121.226437 
L 26.930103 121.226437 
z
" clip-path="url(#p35fb0c7fe3)" style="fill: #00bfff"/>
   </g>
   <g id="patch_12">
    <path d="M 35.045146 121.226437 
L 43.160223 121.226437 
L 43.160223 121.226437 
L 35.045146 121.226437 
z
" clip-path="url(#p35fb0c7fe3)" style="fill: #00bfff"/>
   </g>
   <g id="patch_13">
    <path d="M 43.160188 121.226437 
L 51.275266 121.226437 
L 51.275266 121.226437 
L 43.160188 121.226437 
z
" clip-path="url(#p35fb0c7fe3)" style="fill: #00bfff"/>
   </g>
   <g id="patch_14">
    <path d="M 51.275266 121.226437 
L 59.390344 121.226437 
L 59.390344 121.226437 
L 51.275266 121.226437 
z
" clip-path="url(#p35fb0c7fe3)" style="fill: #00bfff"/>
   </g>
   <g id="patch_15">
    <path d="M 59.390308 121.226437 
L 67.505386 121.226437 
L 67.505386 121.226437 
L 59.390308 121.226437 
z
" clip-path="url(#p35fb0c7fe3)" style="fill: #00bfff"/>
   </g>
   <g id="patch_16">
    <path d="M 67.505351 121.226437 
L 75.620428 121.226437 
L 75.620428 121.226437 
L 67.505351 121.226437 
z
" clip-path="url(#p35fb0c7fe3)" style="fill: #00bfff"/>
   </g>
   <g id="patch_17">
    <path d="M 75.620393 121.226437 
L 83.735471 121.226437 
L 83.735471 121.226437 
L 75.620393 121.226437 
z
" clip-path="url(#p35fb0c7fe3)" style="fill: #00bfff"/>
   </g>
   <g id="patch_18">
    <path d="M 83.735436 121.226437 
L 91.850513 121.226437 
L 91.850513 121.226437 
L 83.735436 121.226437 
z
" clip-path="url(#p35fb0c7fe3)" style="fill: #00bfff"/>
   </g>
   <g id="patch_19">
    <path d="M 91.850513 121.226437 
L 99.965591 121.226437 
L 99.965591 121.226437 
L 91.850513 121.226437 
z
" clip-path="url(#p35fb0c7fe3)" style="fill: #00bfff"/>
   </g>
   <g id="patch_20">
    <path d="M 99.965556 121.226437 
L 108.080633 121.226437 
L 108.080633 121.226437 
L 99.965556 121.226437 
z
" clip-path="url(#p35fb0c7fe3)" style="fill: #00bfff"/>
   </g>
   <g id="patch_21">
    <path d="M 108.080598 121.226437 
L 116.195676 121.226437 
L 116.195676 120.857789 
L 108.080598 120.857789 
z
" clip-path="url(#p35fb0c7fe3)" style="fill: #00bfff"/>
   </g>
   <g id="patch_22">
    <path d="M 116.195641 121.226437 
L 124.310718 121.226437 
L 124.310718 119.936167 
L 116.195641 119.936167 
z
" clip-path="url(#p35fb0c7fe3)" style="fill: #00bfff"/>
   </g>
   <g id="patch_23">
    <path d="M 124.310701 121.226437 
L 132.425778 121.226437 
L 132.425778 118.645896 
L 124.310701 118.645896 
z
" clip-path="url(#p35fb0c7fe3)" style="fill: #00bfff"/>
   </g>
   <g id="patch_24">
    <path d="M 132.425743 121.226437 
L 140.540821 121.226437 
L 140.540821 115.881029 
L 132.425743 115.881029 
z
" clip-path="url(#p35fb0c7fe3)" style="fill: #00bfff"/>
   </g>
   <g id="patch_25">
    <path d="M 140.540803 121.226437 
L 148.655881 121.226437 
L 148.655881 112.56319 
L 140.540803 112.56319 
z
" clip-path="url(#p35fb0c7fe3)" style="fill: #00bfff"/>
   </g>
   <g id="patch_26">
    <path d="M 148.655846 121.226437 
L 156.770923 121.226437 
L 156.770923 105.005888 
L 148.655846 105.005888 
z
" clip-path="url(#p35fb0c7fe3)" style="fill: #00bfff"/>
   </g>
   <g id="patch_27">
    <path d="M 156.770906 121.226437 
L 164.885984 121.226437 
L 164.885984 104.084266 
L 156.770906 104.084266 
z
" clip-path="url(#p35fb0c7fe3)" style="fill: #00bfff"/>
   </g>
   <g id="patch_28">
    <path d="M 164.885948 121.226437 
L 173.001026 121.226437 
L 173.001026 95.421018 
L 164.885948 95.421018 
z
" clip-path="url(#p35fb0c7fe3)" style="fill: #00bfff"/>
   </g>
   <g id="patch_29">
    <path d="M 173.001008 121.226437 
L 181.116086 121.226437 
L 181.116086 100.950751 
L 173.001008 100.950751 
z
" clip-path="url(#p35fb0c7fe3)" style="fill: #00bfff"/>
   </g>
   <g id="patch_30">
    <path d="M 181.116051 121.226437 
L 189.231129 121.226437 
L 189.231129 95.973992 
L 181.116051 95.973992 
z
" clip-path="url(#p35fb0c7fe3)" style="fill: #00bfff"/>
   </g>
   <g id="patch_31">
    <path d="M 189.231093 121.226437 
L 197.346171 121.226437 
L 197.346171 94.868045 
L 189.231093 94.868045 
z
" clip-path="url(#p35fb0c7fe3)" style="fill: #00bfff"/>
   </g>
   <g id="patch_32">
    <path d="M 197.346153 121.226437 
L 205.461231 121.226437 
L 205.461231 98.738858 
L 197.346153 98.738858 
z
" clip-path="url(#p35fb0c7fe3)" style="fill: #00bfff"/>
   </g>
   <g id="patch_33">
    <path d="M 205.461196 121.226437 
L 213.576274 121.226437 
L 213.576274 91.73453 
L 205.461196 91.73453 
z
" clip-path="url(#p35fb0c7fe3)" style="fill: #00bfff"/>
   </g>
   <g id="patch_34">
    <path d="M 213.576256 121.226437 
L 221.691334 121.226437 
L 221.691334 83.80858 
L 213.576256 83.80858 
z
" clip-path="url(#p35fb0c7fe3)" style="fill: #00bfff"/>
   </g>
   <g id="patch_35">
    <path d="M 221.691298 121.226437 
L 229.806376 121.226437 
L 229.806376 72.011817 
L 221.691298 72.011817 
z
" clip-path="url(#p35fb0c7fe3)" style="fill: #00bfff"/>
   </g>
   <g id="patch_36">
    <path d="M 229.806358 121.226437 
L 237.921436 121.226437 
L 237.921436 63.901542 
L 229.806358 63.901542 
z
" clip-path="url(#p35fb0c7fe3)" style="fill: #00bfff"/>
   </g>
   <g id="patch_37">
    <path d="M 237.921401 121.226437 
L 246.036479 121.226437 
L 246.036479 64.270191 
L 237.921401 64.270191 
z
" clip-path="url(#p35fb0c7fe3)" style="fill: #00bfff"/>
   </g>
   <g id="patch_38">
    <path d="M 246.036443 121.226437 
L 254.151521 121.226437 
L 254.151521 53.210726 
L 246.036443 53.210726 
z
" clip-path="url(#p35fb0c7fe3)" style="fill: #00bfff"/>
   </g>
   <g id="patch_39">
    <path d="M 254.151503 121.226437 
L 262.266581 121.226437 
L 262.266581 56.71289 
L 254.151503 56.71289 
z
" clip-path="url(#p35fb0c7fe3)" style="fill: #00bfff"/>
   </g>
   <g id="patch_40">
    <path d="M 262.266546 121.226437 
L 270.381624 121.226437 
L 270.381624 62.795596 
L 262.266546 62.795596 
z
" clip-path="url(#p35fb0c7fe3)" style="fill: #00bfff"/>
   </g>
   <g id="patch_41">
    <path d="M 270.381597 121.226437 
L 278.496675 121.226437 
L 278.496675 57.634512 
L 270.381597 57.634512 
z
" clip-path="url(#p35fb0c7fe3)" style="fill: #00bfff"/>
   </g>
   <g id="patch_42">
    <path d="M 278.496648 121.226437 
L 286.611726 121.226437 
L 286.611726 68.878301 
L 278.496648 68.878301 
z
" clip-path="url(#p35fb0c7fe3)" style="fill: #00bfff"/>
   </g>
   <g id="patch_43">
    <path d="M 286.6117 121.226437 
L 294.726777 121.226437 
L 294.726777 62.97992 
L 286.6117 62.97992 
z
" clip-path="url(#p35fb0c7fe3)" style="fill: #00bfff"/>
   </g>
   <g id="patch_44">
    <path d="M 294.726751 121.226437 
L 302.841829 121.226437 
L 302.841829 64.270191 
L 294.726751 64.270191 
z
" clip-path="url(#p35fb0c7fe3)" style="fill: #00bfff"/>
   </g>
   <g id="patch_45">
    <path d="M 302.841802 121.226437 
L 310.95688 121.226437 
L 310.95688 47.865317 
L 302.841802 47.865317 
z
" clip-path="url(#p35fb0c7fe3)" style="fill: #00bfff"/>
   </g>
   <g id="patch_46">
    <path d="M 310.956853 121.226437 
L 319.071931 121.226437 
L 319.071931 60.768027 
L 310.956853 60.768027 
z
" clip-path="url(#p35fb0c7fe3)" style="fill: #00bfff"/>
   </g>
   <g id="patch_47">
    <path d="M 319.071896 121.226437 
L 327.186974 121.226437 
L 327.186974 53.579374 
L 319.071896 53.579374 
z
" clip-path="url(#p35fb0c7fe3)" style="fill: #00bfff"/>
   </g>
   <g id="patch_48">
    <path d="M 327.186947 121.226437 
L 335.302025 121.226437 
L 335.302025 54.316672 
L 327.186947 54.316672 
z
" clip-path="url(#p35fb0c7fe3)" style="fill: #00bfff"/>
   </g>
   <g id="patch_49">
    <path d="M 335.301998 121.226437 
L 343.417076 121.226437 
L 343.417076 43.257207 
L 335.301998 43.257207 
z
" clip-path="url(#p35fb0c7fe3)" style="fill: #00bfff"/>
   </g>
   <g id="patch_50">
    <path d="M 343.41705 121.226437 
L 351.532127 121.226437 
L 351.532127 55.606943 
L 343.41705 55.606943 
z
" clip-path="url(#p35fb0c7fe3)" style="fill: #00bfff"/>
   </g>
   <g id="patch_51">
    <path d="M 351.532101 121.226437 
L 359.647179 121.226437 
L 359.647179 73.855061 
L 351.532101 73.855061 
z
" clip-path="url(#p35fb0c7fe3)" style="fill: #00bfff"/>
   </g>
   <g id="patch_52">
    <path d="M 359.647148 121.226437 
L 367.762226 121.226437 
L 367.762226 78.463171 
L 359.647148 78.463171 
z
" clip-path="url(#p35fb0c7fe3)" style="fill: #00bfff"/>
   </g>
   <g id="patch_53">
    <path d="M 367.762199 121.226437 
L 375.877277 121.226437 
L 375.877277 95.605343 
L 367.762199 95.605343 
z
" clip-path="url(#p35fb0c7fe3)" style="fill: #00bfff"/>
   </g>
   <g id="patch_54">
    <path d="M 375.87725 121.226437 
L 383.992328 121.226437 
L 383.992328 104.452915 
L 375.87725 104.452915 
z
" clip-path="url(#p35fb0c7fe3)" style="fill: #00bfff"/>
   </g>
   <g id="patch_55">
    <path d="M 383.992299 121.226437 
L 392.107377 121.226437 
L 392.107377 109.429674 
L 383.992299 109.429674 
z
" clip-path="url(#p35fb0c7fe3)" style="fill: #00bfff"/>
   </g>
   <g id="patch_56">
    <path d="M 392.107351 121.226437 
L 400.222428 121.226437 
L 400.222428 108.508052 
L 392.107351 108.508052 
z
" clip-path="url(#p35fb0c7fe3)" style="fill: #00bfff"/>
   </g>
   <g id="patch_57">
    <path d="M 400.2224 121.226437 
L 408.337477 121.226437 
L 408.337477 110.90427 
L 400.2224 110.90427 
z
" clip-path="url(#p35fb0c7fe3)" style="fill: #00bfff"/>
   </g>
   <g id="patch_58">
    <path d="M 408.33745 121.226437 
L 416.452528 121.226437 
L 416.452528 114.037785 
L 408.33745 114.037785 
z
" clip-path="url(#p35fb0c7fe3)" style="fill: #00bfff"/>
   </g>
   <g id="patch_59">
    <path d="M 416.4525 121.226437 
L 424.567578 121.226437 
L 424.567578 114.037785 
L 416.4525 114.037785 
z
" clip-path="url(#p35fb0c7fe3)" style="fill: #00bfff"/>
   </g>
   <g id="patch_60">
    <path d="M 424.56755 121.226437 
L 432.682628 121.226437 
L 432.682628 111.825892 
L 424.56755 111.825892 
z
" clip-path="url(#p35fb0c7fe3)" style="fill: #00bfff"/>
   </g>
   <g id="patch_61">
    <path d="M 432.6826 121.226437 
L 440.797678 121.226437 
L 440.797678 113.669136 
L 432.6826 113.669136 
z
" clip-path="url(#p35fb0c7fe3)" style="fill: #00bfff"/>
   </g>
   <g id="patch_62">
    <path d="M 440.797649 121.226437 
L 448.912727 121.226437 
L 448.912727 114.222109 
L 440.797649 114.222109 
z
" clip-path="url(#p35fb0c7fe3)" style="fill: #00bfff"/>
   </g>
   <g id="patch_63">
    <path d="M 448.912701 121.226437 
L 457.027776 121.226437 
L 457.027776 110.535621 
L 448.912701 110.535621 
z
" clip-path="url(#p35fb0c7fe3)" style="fill: #00bfff"/>
   </g>
   <g id="patch_64">
    <path d="M 457.02775 121.226437 
L 465.142827 121.226437 
L 465.142827 112.194541 
L 457.02775 112.194541 
z
" clip-path="url(#p35fb0c7fe3)" style="fill: #00bfff"/>
   </g>
   <g id="patch_65">
    <path d="M 465.142801 121.226437 
L 473.257879 121.226437 
L 473.257879 112.194541 
L 465.142801 112.194541 
z
" clip-path="url(#p35fb0c7fe3)" style="fill: #00bfff"/>
   </g>
   <g id="patch_66">
    <path d="M 473.257848 121.226437 
L 481.372926 121.226437 
L 481.372926 110.90427 
L 473.257848 110.90427 
z
" clip-path="url(#p35fb0c7fe3)" style="fill: #00bfff"/>
   </g>
   <g id="patch_67">
    <path d="M 481.372899 121.226437 
L 489.487977 121.226437 
L 489.487977 114.590758 
L 481.372899 114.590758 
z
" clip-path="url(#p35fb0c7fe3)" style="fill: #00bfff"/>
   </g>
   <g id="patch_68">
    <path d="M 489.48795 121.226437 
L 497.603024 121.226437 
L 497.603024 114.775083 
L 489.48795 114.775083 
z
" clip-path="url(#p35fb0c7fe3)" style="fill: #00bfff"/>
   </g>
   <g id="patch_69">
    <path d="M 497.602997 121.226437 
L 505.718075 121.226437 
L 505.718075 115.328056 
L 497.602997 115.328056 
z
" clip-path="url(#p35fb0c7fe3)" style="fill: #00bfff"/>
   </g>
   <g id="patch_70">
    <path d="M 505.718049 121.226437 
L 513.833126 121.226437 
L 513.833126 115.143732 
L 505.718049 115.143732 
z
" clip-path="url(#p35fb0c7fe3)" style="fill: #00bfff"/>
   </g>
   <g id="patch_71">
    <path d="M 513.8331 121.226437 
L 521.948178 121.226437 
L 521.948178 113.853461 
L 513.8331 113.853461 
z
" clip-path="url(#p35fb0c7fe3)" style="fill: #00bfff"/>
   </g>
   <g id="patch_72">
    <path d="M 521.948151 121.226437 
L 530.063229 121.226437 
L 530.063229 115.51238 
L 521.948151 115.51238 
z
" clip-path="url(#p35fb0c7fe3)" style="fill: #00bfff"/>
   </g>
   <g id="patch_73">
    <path d="M 530.063202 121.226437 
L 538.17828 121.226437 
L 538.17828 116.802651 
L 530.063202 116.802651 
z
" clip-path="url(#p35fb0c7fe3)" style="fill: #00bfff"/>
   </g>
   <g id="patch_74">
    <path d="M 538.178254 121.226437 
L 546.293331 121.226437 
L 546.293331 113.116163 
L 538.178254 113.116163 
z
" clip-path="url(#p35fb0c7fe3)" style="fill: #00bfff"/>
   </g>
   <g id="patch_75">
    <path d="M 546.293296 121.226437 
L 554.408374 121.226437 
L 554.408374 117.908598 
L 546.293296 117.908598 
z
" clip-path="url(#p35fb0c7fe3)" style="fill: #00bfff"/>
   </g>
   <g id="patch_76">
    <path d="M 554.408347 121.226437 
L 562.523425 121.226437 
L 562.523425 115.881029 
L 554.408347 115.881029 
z
" clip-path="url(#p35fb0c7fe3)" style="fill: #00bfff"/>
   </g>
   <g id="patch_77">
    <path d="M 562.523399 121.226437 
L 570.638476 121.226437 
L 570.638476 116.065354 
L 562.523399 116.065354 
z
" clip-path="url(#p35fb0c7fe3)" style="fill: #00bfff"/>
   </g>
   <g id="patch_78">
    <path d="M 570.638459 121.226437 
L 578.753536 121.226437 
L 578.753536 115.696705 
L 570.638459 115.696705 
z
" clip-path="url(#p35fb0c7fe3)" style="fill: #00bfff"/>
   </g>
   <g id="patch_79">
    <path d="M 578.753501 121.226437 
L 586.868579 121.226437 
L 586.868579 114.037785 
L 578.753501 114.037785 
z
" clip-path="url(#p35fb0c7fe3)" style="fill: #00bfff"/>
   </g>
   <g id="patch_80">
    <path d="M 586.868544 121.226437 
L 594.983621 121.226437 
L 594.983621 117.539949 
L 586.868544 117.539949 
z
" clip-path="url(#p35fb0c7fe3)" style="fill: #00bfff"/>
   </g>
   <g id="patch_81">
    <path d="M 594.983604 121.226437 
L 603.098681 121.226437 
L 603.098681 115.328056 
L 594.983604 115.328056 
z
" clip-path="url(#p35fb0c7fe3)" style="fill: #00bfff"/>
   </g>
   <g id="patch_82">
    <path d="M 603.098646 121.226437 
L 611.213724 121.226437 
L 611.213724 113.116163 
L 603.098646 113.116163 
z
" clip-path="url(#p35fb0c7fe3)" style="fill: #00bfff"/>
   </g>
   <g id="patch_83">
    <path d="M 611.213706 121.226437 
L 619.328784 121.226437 
L 619.328784 112.747514 
L 611.213706 112.747514 
z
" clip-path="url(#p35fb0c7fe3)" style="fill: #00bfff"/>
   </g>
   <g id="patch_84">
    <path d="M 619.328749 121.226437 
L 627.443826 121.226437 
L 627.443826 111.272919 
L 619.328749 111.272919 
z
" clip-path="url(#p35fb0c7fe3)" style="fill: #00bfff"/>
   </g>
   <g id="patch_85">
    <path d="M 627.443809 121.226437 
L 635.558886 121.226437 
L 635.558886 109.798323 
L 627.443809 109.798323 
z
" clip-path="url(#p35fb0c7fe3)" style="fill: #00bfff"/>
   </g>
   <g id="patch_86">
    <path d="M 635.558851 121.226437 
L 643.673929 121.226437 
L 643.673929 109.429674 
L 635.558851 109.429674 
z
" clip-path="url(#p35fb0c7fe3)" style="fill: #00bfff"/>
   </g>
   <g id="patch_87">
    <path d="M 643.673894 121.226437 
L 651.788971 121.226437 
L 651.788971 105.92751 
L 643.673894 105.92751 
z
" clip-path="url(#p35fb0c7fe3)" style="fill: #00bfff"/>
   </g>
   <g id="patch_88">
    <path d="M 651.788954 121.226437 
L 659.904031 121.226437 
L 659.904031 104.084266 
L 651.788954 104.084266 
z
" clip-path="url(#p35fb0c7fe3)" style="fill: #00bfff"/>
   </g>
   <g id="patch_89">
    <path d="M 659.903996 121.226437 
L 668.019074 121.226437 
L 668.019074 106.664808 
L 659.903996 106.664808 
z
" clip-path="url(#p35fb0c7fe3)" style="fill: #00bfff"/>
   </g>
   <g id="patch_90">
    <path d="M 668.019056 121.226437 
L 676.134134 121.226437 
L 676.134134 106.111835 
L 668.019056 106.111835 
z
" clip-path="url(#p35fb0c7fe3)" style="fill: #00bfff"/>
   </g>
   <g id="patch_91">
    <path d="M 676.134099 121.226437 
L 684.249176 121.226437 
L 684.249176 105.190213 
L 676.134099 105.190213 
z
" clip-path="url(#p35fb0c7fe3)" style="fill: #00bfff"/>
   </g>
   <g id="patch_92">
    <path d="M 684.249159 121.226437 
L 692.364236 121.226437 
L 692.364236 100.213453 
L 684.249159 100.213453 
z
" clip-path="url(#p35fb0c7fe3)" style="fill: #00bfff"/>
   </g>
   <g id="patch_93">
    <path d="M 692.364201 121.226437 
L 700.479279 121.226437 
L 700.479279 98.738858 
L 692.364201 98.738858 
z
" clip-path="url(#p35fb0c7fe3)" style="fill: #00bfff"/>
   </g>
   <g id="patch_94">
    <path d="M 700.479244 121.226437 
L 708.594321 121.226437 
L 708.594321 103.531293 
L 700.479244 103.531293 
z
" clip-path="url(#p35fb0c7fe3)" style="fill: #00bfff"/>
   </g>
   <g id="patch_95">
    <path d="M 708.594304 121.226437 
L 716.709381 121.226437 
L 716.709381 105.558862 
L 708.594304 105.558862 
z
" clip-path="url(#p35fb0c7fe3)" style="fill: #00bfff"/>
   </g>
   <g id="patch_96">
    <path d="M 716.709346 121.226437 
L 724.824424 121.226437 
L 724.824424 106.664808 
L 716.709346 106.664808 
z
" clip-path="url(#p35fb0c7fe3)" style="fill: #00bfff"/>
   </g>
   <g id="patch_97">
    <path d="M 724.824389 121.226437 
L 732.939466 121.226437 
L 732.939466 111.641568 
L 724.824389 111.641568 
z
" clip-path="url(#p35fb0c7fe3)" style="fill: #00bfff"/>
   </g>
   <g id="patch_98">
    <path d="M 732.939466 121.226437 
L 741.054544 121.226437 
L 741.054544 113.116163 
L 732.939466 113.116163 
z
" clip-path="url(#p35fb0c7fe3)" style="fill: #00bfff"/>
   </g>
   <g id="patch_99">
    <path d="M 741.054509 121.226437 
L 749.169587 121.226437 
L 749.169587 112.747514 
L 741.054509 112.747514 
z
" clip-path="url(#p35fb0c7fe3)" style="fill: #00bfff"/>
   </g>
   <g id="patch_100">
    <path d="M 749.169551 121.226437 
L 757.284629 121.226437 
L 757.284629 114.222109 
L 749.169551 114.222109 
z
" clip-path="url(#p35fb0c7fe3)" style="fill: #00bfff"/>
   </g>
   <g id="patch_101">
    <path d="M 757.284594 121.226437 
L 765.399671 121.226437 
L 765.399671 112.378865 
L 757.284594 112.378865 
z
" clip-path="url(#p35fb0c7fe3)" style="fill: #00bfff"/>
   </g>
   <g id="patch_102">
    <path d="M 765.399636 121.226437 
L 773.514714 121.226437 
L 773.514714 114.590758 
L 765.399636 114.590758 
z
" clip-path="url(#p35fb0c7fe3)" style="fill: #00bfff"/>
   </g>
   <g id="patch_103">
    <path d="M 773.514714 121.226437 
L 781.629792 121.226437 
L 781.629792 115.143732 
L 773.514714 115.143732 
z
" clip-path="url(#p35fb0c7fe3)" style="fill: #00bfff"/>
   </g>
   <g id="patch_104">
    <path d="M 781.629756 121.226437 
L 789.744834 121.226437 
L 789.744834 120.48914 
L 781.629756 120.48914 
z
" clip-path="url(#p35fb0c7fe3)" style="fill: #00bfff"/>
   </g>
   <g id="patch_105">
    <path d="M 789.744799 121.226437 
L 797.859876 121.226437 
L 797.859876 120.673464 
L 789.744799 120.673464 
z
" clip-path="url(#p35fb0c7fe3)" style="fill: #00bfff"/>
   </g>
   <g id="patch_106">
    <path d="M 797.859841 121.226437 
L 805.974919 121.226437 
L 805.974919 121.226437 
L 797.859841 121.226437 
z
" clip-path="url(#p35fb0c7fe3)" style="fill: #00bfff"/>
   </g>
   <g id="patch_107">
    <path d="M 805.974884 121.226437 
L 814.089961 121.226437 
L 814.089961 121.226437 
L 805.974884 121.226437 
z
" clip-path="url(#p35fb0c7fe3)" style="fill: #00bfff"/>
   </g>
   <g id="patch_108">
    <path d="M 814.089961 121.226437 
L 822.205039 121.226437 
L 822.205039 121.226437 
L 814.089961 121.226437 
z
" clip-path="url(#p35fb0c7fe3)" style="fill: #00bfff"/>
   </g>
   <g id="line2d_11">
    <path d="M 103.427038 121.226437 
L 103.427038 19.866437 
" clip-path="url(#p35fb0c7fe3)" style="fill: none; stroke: #ff0000; stroke-width: 1.5; stroke-linecap: square"/>
   </g>
   <g id="line2d_12">
    <path d="M 806.293137 121.226437 
L 806.293137 19.866437 
" clip-path="url(#p35fb0c7fe3)" style="fill: none; stroke: #ff0000; stroke-width: 1.5; stroke-linecap: square"/>
   </g>
   <g id="line2d_13">
    <path d="M 10.7 117.802192 
L 18.89702 117.403232 
L 27.09404 116.968903 
L 35.291061 116.497579 
L 43.488081 115.987753 
L 51.685101 115.438074 
L 59.882121 114.847373 
L 68.079141 114.214695 
L 76.276162 113.539336 
L 84.473182 112.820872 
L 92.670202 112.05919 
L 100.867222 111.254521 
L 109.064242 110.407465 
L 117.261263 109.51902 
L 125.458283 108.590604 
L 133.655303 107.624074 
L 141.852323 106.621741 
L 150.049343 105.586379 
L 158.246364 104.521228 
L 166.443384 103.429997 
L 174.640404 102.316849 
L 182.837424 101.186392 
L 191.034444 100.043655 
L 199.231465 98.894058 
L 207.428485 97.743378 
L 215.625505 96.597705 
L 223.822525 95.463396 
L 232.019545 94.347018 
L 240.216566 93.255286 
L 248.413586 92.195004 
L 256.610606 91.172989 
L 264.807626 90.196004 
L 273.004646 89.270685 
L 281.201667 88.403461 
L 289.398687 87.600488 
L 297.595707 86.86757 
L 305.792727 86.210092 
L 313.989747 85.632954 
L 322.186768 85.140512 
L 330.383788 84.736518 
L 338.580808 84.42408 
L 346.777828 84.205614 
L 354.974848 84.08282 
L 363.171869 84.056655 
L 371.368889 84.127325 
L 379.565909 84.294277 
L 387.762929 84.55621 
L 395.959949 84.911092 
L 404.15697 85.356183 
L 412.35399 85.888076 
L 420.55101 86.502732 
L 428.74803 87.19554 
L 436.945051 87.961368 
L 445.142071 88.794629 
L 453.339091 89.68935 
L 461.536111 90.63924 
L 469.733131 91.637765 
L 477.930152 92.678222 
L 486.127172 93.753813 
L 494.324192 94.85772 
L 502.521212 95.98317 
L 510.718232 97.123508 
L 518.915253 98.272258 
L 527.112273 99.423179 
L 535.309293 100.570319 
L 543.506313 101.708059 
L 551.703333 102.831156 
L 559.900354 103.934772 
L 568.097374 105.0145 
L 576.294394 106.066385 
L 584.491414 107.086934 
L 592.688434 108.073119 
L 600.885455 109.022382 
L 609.082475 109.932621 
L 617.279495 110.802184 
L 625.476515 111.629849 
L 633.673535 112.414803 
L 641.870556 113.156618 
L 650.067576 113.855227 
L 658.264596 114.510889 
L 666.461616 115.124161 
L 674.658636 115.695867 
L 682.855657 116.227063 
L 691.052677 116.719006 
L 699.249697 117.173123 
L 707.446717 117.59098 
L 715.643737 117.97425 
L 723.840758 118.324688 
L 732.037778 118.644107 
L 740.234798 118.934349 
L 748.431818 119.197267 
L 756.628838 119.434703 
L 764.825859 119.648476 
L 773.022879 119.840363 
L 781.219899 120.012085 
L 789.416919 120.165303 
L 797.613939 120.301603 
L 805.81096 120.422495 
L 814.00798 120.529404 
L 822.205 120.623669 
" clip-path="url(#p35fb0c7fe3)" style="fill: none; stroke: #1f77b4; stroke-width: 1.5; stroke-linecap: square"/>
   </g>
   <g id="text_9">
    <g id="patch_109">
     <path d="M 32.066315 37.612562 
L 48.374128 37.612562 
Q 51.374128 37.612562 51.374128 34.612562 
L 51.374128 24.934437 
Q 51.374128 21.934437 48.374128 21.934437 
L 32.066315 21.934437 
Q 29.066315 21.934437 29.066315 24.934437 
L 29.066315 34.612562 
Q 29.066315 37.612562 32.066315 37.612562 
z
" style="fill: #ffffff"/>
    </g>
    <!-- -2σ -->
    <g transform="translate(32.066315 32.532875) scale(0.1 -0.1)">
     <use xlink:href="#DejaVuSans-2d"/>
     <use xlink:href="#DejaVuSans-32" x="36.083984"/>
     <use xlink:href="#DejaVuSans-3c3" x="99.707031"/>
    </g>
   </g>
   <g id="text_10">
    <g id="patch_110">
     <path d="M 195.781061 37.612562 
L 205.726374 37.612562 
Q 208.726374 37.612562 208.726374 34.612562 
L 208.726374 24.934437 
Q 208.726374 21.934437 205.726374 21.934437 
L 195.781061 21.934437 
Q 192.781061 21.934437 192.781061 24.934437 
L 192.781061 34.612562 
Q 192.781061 37.612562 195.781061 37.612562 
z
" style="fill: #ffffff"/>
    </g>
    <!-- -σ -->
    <g transform="translate(195.781061 32.532875) scale(0.1 -0.1)">
     <use xlink:href="#DejaVuSans-2d"/>
     <use xlink:href="#DejaVuSans-3c3" x="36.083984"/>
    </g>
   </g>
   <g id="text_11">
    <g id="patch_111">
     <path d="M 357.608307 37.612562 
L 364.96612 37.612562 
Q 367.96612 37.612562 367.96612 34.612562 
L 367.96612 24.934437 
Q 367.96612 21.934437 364.96612 21.934437 
L 357.608307 21.934437 
Q 354.608307 21.934437 354.608307 24.934437 
L 354.608307 34.612562 
Q 354.608307 37.612562 357.608307 37.612562 
z
" style="fill: #ffffff"/>
    </g>
    <!-- μ -->
    <g transform="translate(357.608307 32.521937) scale(0.1 -0.1)">
     <defs>
      <path id="DejaVuSans-Bold-3bc" d="M 544 -1338 
L 544 3500 
L 1672 3500 
L 1672 1466 
Q 1672 1103 1828 926 
Q 1984 750 2303 750 
Q 2625 750 2781 926 
Q 2938 1103 2938 1466 
L 2938 3500 
L 4063 3500 
L 4063 1159 
Q 4063 938 4114 850 
Q 4166 763 4288 763 
Q 4344 763 4395 778 
Q 4447 794 4506 831 
L 4506 50 
Q 4341 -22 4195 -56 
Q 4050 -91 3909 -91 
Q 3631 -91 3454 26 
Q 3278 144 3169 403 
Q 3022 156 2811 32 
Q 2600 -91 2322 -91 
Q 2091 -91 1928 -17 
Q 1766 56 1672 206 
L 1672 -1338 
L 544 -1338 
z
" transform="scale(0.015625)"/>
     </defs>
     <use xlink:href="#DejaVuSans-Bold-3bc"/>
    </g>
   </g>
   <g id="text_12">
    <g id="patch_112">
     <path d="M 514.462116 37.612562 
L 529.179303 37.612562 
Q 532.179303 37.612562 532.179303 34.612562 
L 532.179303 24.934437 
Q 532.179303 21.934437 529.179303 21.934437 
L 514.462116 21.934437 
Q 511.462116 21.934437 511.462116 24.934437 
L 511.462116 34.612562 
Q 511.462116 37.612562 514.462116 37.612562 
z
" style="fill: #ffffff"/>
    </g>
    <!-- +σ -->
    <g transform="translate(514.462116 32.532875) scale(0.1 -0.1)">
     <defs>
      <path id="DejaVuSans-2b" d="M 2944 4013 
L 2944 2272 
L 4684 2272 
L 4684 1741 
L 2944 1741 
L 2944 0 
L 2419 0 
L 2419 1741 
L 678 1741 
L 678 2272 
L 2419 2272 
L 2419 4013 
L 2944 4013 
z
" transform="scale(0.015625)"/>
     </defs>
     <use xlink:href="#DejaVuSans-2b"/>
     <use xlink:href="#DejaVuSans-3c3" x="83.789062"/>
    </g>
   </g>
   <g id="text_13">
    <g id="patch_113">
     <path d="M 671.814362 37.612562 
L 692.894049 37.612562 
Q 695.894049 37.612562 695.894049 34.612562 
L 695.894049 24.934437 
Q 695.894049 21.934437 692.894049 21.934437 
L 671.814362 21.934437 
Q 668.814362 21.934437 668.814362 24.934437 
L 668.814362 34.612562 
Q 668.814362 37.612562 671.814362 37.612562 
z
" style="fill: #ffffff"/>
    </g>
    <!-- +2σ -->
    <g transform="translate(671.814362 32.532875) scale(0.1 -0.1)">
     <use xlink:href="#DejaVuSans-2b"/>
     <use xlink:href="#DejaVuSans-32" x="83.789062"/>
     <use xlink:href="#DejaVuSans-3c3" x="147.412109"/>
    </g>
   </g>
  </g>
 </g>
 <defs>
  <clipPath id="p35fb0c7fe3">
   <rect x="10.7" y="19.866437" width="811.505" height="101.36"/>
  </clipPath>
 </defs>
</svg>
