<?xml version="1.0" encoding="utf-8" standalone="no"?>
<!DOCTYPE svg PUBLIC "-//W3C//DTD SVG 1.1//EN"
  "http://www.w3.org/Graphics/SVG/1.1/DTD/svg11.dtd">
<svg xmlns:xlink="http://www.w3.org/1999/xlink" width="829.405pt" height="145.104562pt" viewBox="0 0 829.405 145.104562" xmlns="http://www.w3.org/2000/svg" version="1.1">
 <metadata>
  <rdf:RDF xmlns:dc="http://purl.org/dc/elements/1.1/" xmlns:cc="http://creativecommons.org/ns#" xmlns:rdf="http://www.w3.org/1999/02/22-rdf-syntax-ns#">
   <cc:Work>
    <dc:type rdf:resource="http://purl.org/dc/dcmitype/StillImage"/>
    <dc:format>image/svg+xml</dc:format>
    <dc:creator>
     <cc:Agent>
      <dc:title>Matplotlib, https://matplotlib.org/</dc:title>
     </cc:Agent>
    </dc:creator>
   </cc:Work>
  </rdf:RDF>
 </metadata>
 <defs>
  <style type="text/css">*{stroke-linejoin: round; stroke-linecap: butt}</style>
 </defs>
 <g id="figure_1">
  <g id="patch_1">
   <path d="M 0 145.104562 
L 829.405 145.104562 
L 829.405 0 
L 0 0 
z
" style="fill: #ffffff"/>
  </g>
  <g id="axes_1">
   <g id="patch_2">
    <path d="M 10.7 121.226437 
L 822.205 121.226437 
L 822.205 19.866437 
L 10.7 19.866437 
z
" style="fill: #ffffff"/>
   </g>
   <g id="matplotlib.axis_1">
    <g id="xtick_1">
     <g id="line2d_1">
      <defs>
       <path id="m8f1de1206a" d="M 0 0 
L 0 3.5 
" style="stroke: #000000; stroke-width: 0.8"/>
      </defs>
      <g>
       <use xlink:href="#m8f1de1206a" x="120.844516" y="121.226437" style="stroke: #000000; stroke-width: 0.8"/>
      </g>
     </g>
     <g id="text_1">
      <!-- −2 -->
      <g transform="translate(113.473422 135.824875) scale(0.1 -0.1)">
       <defs>
        <path id="DejaVuSans-2212" d="M 678 2272 
L 4684 2272 
L 4684 1741 
L 678 1741 
L 678 2272 
z
" transform="scale(0.015625)"/>
        <path id="DejaVuSans-32" d="M 1228 531 
L 3431 531 
L 3431 0 
L 469 0 
L 469 531 
Q 828 903 1448 1529 
Q 2069 2156 2228 2338 
Q 2531 2678 2651 2914 
Q 2772 3150 2772 3378 
Q 2772 3750 2511 3984 
Q 2250 4219 1831 4219 
Q 1534 4219 1204 4116 
Q 875 4013 500 3803 
L 500 4441 
Q 881 4594 1212 4672 
Q 1544 4750 1819 4750 
Q 2544 4750 2975 4387 
Q 3406 4025 3406 3419 
Q 3406 3131 3298 2873 
Q 3191 2616 2906 2266 
Q 2828 2175 2409 1742 
Q 1991 1309 1228 531 
z
" transform="scale(0.015625)"/>
       </defs>
       <use xlink:href="#DejaVuSans-2212"/>
       <use xlink:href="#DejaVuSans-32" x="83.789062"/>
      </g>
     </g>
    </g>
    <g id="xtick_2">
     <g id="line2d_2">
      <g>
       <use xlink:href="#m8f1de1206a" x="268.570509" y="121.226437" style="stroke: #000000; stroke-width: 0.8"/>
      </g>
     </g>
     <g id="text_2">
      <!-- −1 -->
      <g transform="translate(261.199415 135.824875) scale(0.1 -0.1)">
       <defs>
        <path id="DejaVuSans-31" d="M 794 531 
L 1825 531 
L 1825 4091 
L 703 3866 
L 703 4441 
L 1819 4666 
L 2450 4666 
L 2450 531 
L 3481 531 
L 3481 0 
L 794 0 
L 794 531 
z
" transform="scale(0.015625)"/>
       </defs>
       <use xlink:href="#DejaVuSans-2212"/>
       <use xlink:href="#DejaVuSans-31" x="83.789062"/>
      </g>
     </g>
    </g>
    <g id="xtick_3">
     <g id="line2d_3">
      <g>
       <use xlink:href="#m8f1de1206a" x="416.296501" y="121.226437" style="stroke: #000000; stroke-width: 0.8"/>
      </g>
     </g>
     <g id="text_3">
      <!-- 0 -->
      <g transform="translate(413.115251 135.824875) scale(0.1 -0.1)">
       <defs>
        <path id="DejaVuSans-30" d="M 2034 4250 
Q 1547 4250 1301 3770 
Q 1056 3291 1056 2328 
Q 1056 1369 1301 889 
Q 1547 409 2034 409 
Q 2525 409 2770 889 
Q 3016 1369 3016 2328 
Q 3016 3291 2770 3770 
Q 2525 4250 2034 4250 
z
M 2034 4750 
Q 2819 4750 3233 4129 
Q 3647 3509 3647 2328 
Q 3647 1150 3233 529 
Q 2819 -91 2034 -91 
Q 1250 -91 836 529 
Q 422 1150 422 2328 
Q 422 3509 836 4129 
Q 1250 4750 2034 4750 
z
" transform="scale(0.015625)"/>
       </defs>
       <use xlink:href="#DejaVuSans-30"/>
      </g>
     </g>
    </g>
    <g id="xtick_4">
     <g id="line2d_4">
      <g>
       <use xlink:href="#m8f1de1206a" x="564.022494" y="121.226437" style="stroke: #000000; stroke-width: 0.8"/>
      </g>
     </g>
     <g id="text_4">
      <!-- 1 -->
      <g transform="translate(560.841244 135.824875) scale(0.1 -0.1)">
       <use xlink:href="#DejaVuSans-31"/>
      </g>
     </g>
    </g>
    <g id="xtick_5">
     <g id="line2d_5">
      <g>
       <use xlink:href="#m8f1de1206a" x="711.748487" y="121.226437" style="stroke: #000000; stroke-width: 0.8"/>
      </g>
     </g>
     <g id="text_5">
      <!-- 2 -->
      <g transform="translate(708.567237 135.824875) scale(0.1 -0.1)">
       <use xlink:href="#DejaVuSans-32"/>
      </g>
     </g>
    </g>
   </g>
   <g id="matplotlib.axis_2"/>
   <g id="line2d_6">
    <path d="M 45.212009 121.226437 
L 45.212009 19.866437 
" clip-path="url(#p35fb0c7fe3)" style="fill: none; stroke: #000000; stroke-width: 1.5; stroke-linecap: square"/>
   </g>
   <g id="line2d_7">
    <path d="M 203.074444 121.226437 
L 203.074444 19.866437 
" clip-path="url(#p35fb0c7fe3)" style="fill: none; stroke: #000000; stroke-width: 1.5; stroke-linecap: square"/>
   </g>
   <g id="line2d_8">
    <path d="M 360.936879 121.226437 
L 360.936879 19.866437 
" clip-path="url(#p35fb0c7fe3)" style="fill: none; stroke: #000000; stroke-width: 1.5; stroke-linecap: square"/>
   </g>
   <g id="line2d_9">
    <path d="M 518.799313 121.226437 
L 518.799313 19.866437 
" clip-path="url(#p35fb0c7fe3)" style="fill: none; stroke: #000000; stroke-width: 1.5; stroke-linecap: square"/>
   </g>
   <g id="line2d_10">
    <path d="M 676.661748 121.226437 
L 676.661748 19.866437 
" clip-path="url(#p35fb0c7fe3)" style="fill: none; stroke: #000000; stroke-width: 1.5; stroke-linecap: square"/>
   </g>
   <g id="line2d_11">
    <path d="M 103.427038 121.226437 
L 103.427038 19.866437 
" clip-path="url(#p35fb0c7fe3)" style="fill: none; stroke: #ff0000; stroke-width: 1.5; stroke-linecap: square"/>
   </g>
   <g id="line2d_12">
    <path d="M 806.293137 121.226437 
L 806.293137 19.866437 
" clip-path="url(#p35fb0c7fe3)" style="fill: none; stroke: #ff0000; stroke-width: 1.5; stroke-linecap: square"/>
   </g>
   <g id="patch_3">
    <path d="M 10.7 121.226437 
L 10.7 19.866437 
" style="fill: none; stroke: #000000; stroke-width: 0.8; stroke-linejoin: miter; stroke-linecap: square"/>
   </g>
   <g id="patch_4">
    <path d="M 822.205 121.226437 
L 822.205 19.866437 
" style="fill: none; stroke: #000000; stroke-width: 0.8; stroke-linejoin: miter; stroke-linecap: square"/>
   </g>
   <g id="patch_5">
    <path d="M 10.7 121.226437 
L 822.205 121.226437 
" style="fill: none; stroke: #000000; stroke-width: 0.8; stroke-linejoin: miter; stroke-linecap: square"/>
   </g>
   <g id="patch_6">
    <path d="M 10.7 19.866437 
L 822.205 19.866437 
" style="fill: none; stroke: #000000; stroke-width: 0.8; stroke-linejoin: miter; stroke-linecap: square"/>
   </g>
   <g id="text_6">
    <g id="patch_7">
     <path d="M 102.427038 100.282375 
L 102.427038 40.8105 
Q 102.427038 40.8105 102.427038 40.8105 
L 92.748913 40.8105 
Q 92.748913 40.8105 92.748913 40.8105 
L 92.748913 100.282375 
Q 92.748913 100.282375 92.748913 100.282375 
L 102.427038 100.282375 
Q 102.427038 100.282375 102.427038 100.282375 
z
" style="fill: #ffffff"/>
    </g>
    <!-- min=-2.118 -->
    <g transform="translate(100.347351 100.282375) rotate(-90) scale(0.1 -0.1)">
     <defs>
      <path id="DejaVuSans-6d" d="M 3328 2828 
Q 3544 3216 3844 3400 
Q 4144 3584 4550 3584 
Q 5097 3584 5394 3201 
Q 5691 2819 5691 2113 
L 5691 0 
L 5113 0 
L 5113 2094 
Q 5113 2597 4934 2840 
Q 4756 3084 4391 3084 
Q 3944 3084 3684 2787 
Q 3425 2491 3425 1978 
L 3425 0 
L 2847 0 
L 2847 2094 
Q 2847 2600 2669 2842 
Q 2491 3084 2119 3084 
Q 1678 3084 1418 2786 
Q 1159 2488 1159 1978 
L 1159 0 
L 581 0 
L 581 3500 
L 1159 3500 
L 1159 2956 
Q 1356 3278 1631 3431 
Q 1906 3584 2284 3584 
Q 2666 3584 2933 3390 
Q 3200 3197 3328 2828 
z
" transform="scale(0.015625)"/>
      <path id="DejaVuSans-69" d="M 603 3500 
L 1178 3500 
L 1178 0 
L 603 0 
L 603 3500 
z
M 603 4863 
L 1178 4863 
L 1178 4134 
L 603 4134 
L 603 4863 
z
" transform="scale(0.015625)"/>
      <path id="DejaVuSans-6e" d="M 3513 2113 
L 3513 0 
L 2938 0 
L 2938 2094 
Q 2938 2591 2744 2837 
Q 2550 3084 2163 3084 
Q 1697 3084 1428 2787 
Q 1159 2491 1159 1978 
L 1159 0 
L 581 0 
L 581 3500 
L 1159 3500 
L 1159 2956 
Q 1366 3272 1645 3428 
Q 1925 3584 2291 3584 
Q 2894 3584 3203 3211 
Q 3513 2838 3513 2113 
z
" transform="scale(0.015625)"/>
      <path id="DejaVuSans-3d" d="M 678 2906 
L 4684 2906 
L 4684 2381 
L 678 2381 
L 678 2906 
z
M 678 1631 
L 4684 1631 
L 4684 1100 
L 678 1100 
L 678 1631 
z
" transform="scale(0.015625)"/>
      <path id="DejaVuSans-2d" d="M 313 2009 
L 1997 2009 
L 1997 1497 
L 313 1497 
L 313 2009 
z
" transform="scale(0.015625)"/>
      <path id="DejaVuSans-2e" d="M 684 794 
L 1344 794 
L 1344 0 
L 684 0 
L 684 794 
z
" transform="scale(0.015625)"/>
      <path id="DejaVuSans-38" d="M 2034 2216 
Q 1584 2216 1326 1975 
Q 1069 1734 1069 1313 
Q 1069 891 1326 650 
Q 1584 409 2034 409 
Q 2484 409 2743 651 
Q 3003 894 3003 1313 
Q 3003 1734 2745 1975 
Q 2488 2216 2034 2216 
z
M 1403 2484 
Q 997 2584 770 2862 
Q 544 3141 544 3541 
Q 544 4100 942 4425 
Q 1341 4750 2034 4750 
Q 2731 4750 3128 4425 
Q 3525 4100 3525 3541 
Q 3525 3141 3298 2862 
Q 3072 2584 2669 2484 
Q 3125 2378 3379 2068 
Q 3634 1759 3634 1313 
Q 3634 634 3220 271 
Q 2806 -91 2034 -91 
Q 1263 -91 848 271 
Q 434 634 434 1313 
Q 434 1759 690 2068 
Q 947 2378 1403 2484 
z
M 1172 3481 
Q 1172 3119 1398 2916 
Q 1625 2713 2034 2713 
Q 2441 2713 2670 2916 
Q 2900 3119 2900 3481 
Q 2900 3844 2670 4047 
Q 2441 4250 2034 4250 
Q 1625 4250 1398 4047 
Q 1172 3844 1172 3481 
z
" transform="scale(0.015625)"/>
     </defs>
     <use xlink:href="#DejaVuSans-6d"/>
     <use xlink:href="#DejaVuSans-69" x="97.412109"/>
     <use xlink:href="#DejaVuSans-6e" x="125.195312"/>
     <use xlink:href="#DejaVuSans-3d" x="188.574219"/>
     <use xlink:href="#DejaVuSans-2d" x="272.363281"/>
     <use xlink:href="#DejaVuSans-32" x="308.447266"/>
     <use xlink:href="#DejaVuSans-2e" x="372.070312"/>
     <use xlink:href="#DejaVuSans-31" x="403.857422"/>
     <use xlink:href="#DejaVuSans-31" x="467.480469"/>
     <use xlink:href="#DejaVuSans-38" x="531.103516"/>
    </g>
   </g>
   <g id="text_7">
    <g id="patch_8">
     <path d="M 817.971262 99.944094 
L 817.971262 41.148781 
Q 817.971262 41.148781 817.971262 41.148781 
L 808.293137 41.148781 
Q 808.293137 41.148781 808.293137 41.148781 
L 808.293137 99.944094 
Q 808.293137 99.944094 808.293137 99.944094 
L 817.971262 99.944094 
Q 817.971262 99.944094 817.971262 99.944094 
z
" style="fill: #ffffff"/>
    </g>
    <!-- max=2.640 -->
    <g transform="translate(815.891575 99.944094) rotate(-90) scale(0.1 -0.1)">
     <defs>
      <path id="DejaVuSans-61" d="M 2194 1759 
Q 1497 1759 1228 1600 
Q 959 1441 959 1056 
Q 959 750 1161 570 
Q 1363 391 1709 391 
Q 2188 391 2477 730 
Q 2766 1069 2766 1631 
L 2766 1759 
L 2194 1759 
z
M 3341 1997 
L 3341 0 
L 2766 0 
L 2766 531 
Q 2569 213 2275 61 
Q 1981 -91 1556 -91 
Q 1019 -91 701 211 
Q 384 513 384 1019 
Q 384 1609 779 1909 
Q 1175 2209 1959 2209 
L 2766 2209 
L 2766 2266 
Q 2766 2663 2505 2880 
Q 2244 3097 1772 3097 
Q 1472 3097 1187 3025 
Q 903 2953 641 2809 
L 641 3341 
Q 956 3463 1253 3523 
Q 1550 3584 1831 3584 
Q 2591 3584 2966 3190 
Q 3341 2797 3341 1997 
z
" transform="scale(0.015625)"/>
      <path id="DejaVuSans-78" d="M 3513 3500 
L 2247 1797 
L 3578 0 
L 2900 0 
L 1881 1375 
L 863 0 
L 184 0 
L 1544 1831 
L 300 3500 
L 978 3500 
L 1906 2253 
L 2834 3500 
L 3513 3500 
z
" transform="scale(0.015625)"/>
      <path id="DejaVuSans-36" d="M 2113 2584 
Q 1688 2584 1439 2293 
Q 1191 2003 1191 1497 
Q 1191 994 1439 701 
Q 1688 409 2113 409 
Q 2538 409 2786 701 
Q 3034 994 3034 1497 
Q 3034 2003 2786 2293 
Q 2538 2584 2113 2584 
z
M 3366 4563 
L 3366 3988 
Q 3128 4100 2886 4159 
Q 2644 4219 2406 4219 
Q 1781 4219 1451 3797 
Q 1122 3375 1075 2522 
Q 1259 2794 1537 2939 
Q 1816 3084 2150 3084 
Q 2853 3084 3261 2657 
Q 3669 2231 3669 1497 
Q 3669 778 3244 343 
Q 2819 -91 2113 -91 
Q 1303 -91 875 529 
Q 447 1150 447 2328 
Q 447 3434 972 4092 
Q 1497 4750 2381 4750 
Q 2619 4750 2861 4703 
Q 3103 4656 3366 4563 
z
" transform="scale(0.015625)"/>
      <path id="DejaVuSans-34" d="M 2419 4116 
L 825 1625 
L 2419 1625 
L 2419 4116 
z
M 2253 4666 
L 3047 4666 
L 3047 1625 
L 3713 1625 
L 3713 1100 
L 3047 1100 
L 3047 0 
L 2419 0 
L 2419 1100 
L 313 1100 
L 313 1709 
L 2253 4666 
z
" transform="scale(0.015625)"/>
     </defs>
     <use xlink:href="#DejaVuSans-6d"/>
     <use xlink:href="#DejaVuSans-61" x="97.412109"/>
     <use xlink:href="#DejaVuSans-78" x="158.691406"/>
     <use xlink:href="#DejaVuSans-3d" x="217.871094"/>
     <use xlink:href="#DejaVuSans-32" x="301.660156"/>
     <use xlink:href="#DejaVuSans-2e" x="365.283203"/>
     <use xlink:href="#DejaVuSans-36" x="397.070312"/>
     <use xlink:href="#DejaVuSans-34" x="460.693359"/>
     <use xlink:href="#DejaVuSans-30" x="524.316406"/>
    </g>
   </g>
   <g id="text_8">
    <!-- 10000 samples (μ=-0.375, σ=1.069) of array[196, 196, 3] f32 n=115248 x∈[-2.118, 2.640] μ=-0.388 σ=1.073 -->
    <g transform="translate(10.7 14.798437) scale(0.1 -0.1)">
     <defs>
      <path id="DejaVuSans-20" transform="scale(0.015625)"/>
      <path id="DejaVuSans-73" d="M 2834 3397 
L 2834 2853 
Q 2591 2978 2328 3040 
Q 2066 3103 1784 3103 
Q 1356 3103 1142 2972 
Q 928 2841 928 2578 
Q 928 2378 1081 2264 
Q 1234 2150 1697 2047 
L 1894 2003 
Q 2506 1872 2764 1633 
Q 3022 1394 3022 966 
Q 3022 478 2636 193 
Q 2250 -91 1575 -91 
Q 1294 -91 989 -36 
Q 684 19 347 128 
L 347 722 
Q 666 556 975 473 
Q 1284 391 1588 391 
Q 1994 391 2212 530 
Q 2431 669 2431 922 
Q 2431 1156 2273 1281 
Q 2116 1406 1581 1522 
L 1381 1569 
Q 847 1681 609 1914 
Q 372 2147 372 2553 
Q 372 3047 722 3315 
Q 1072 3584 1716 3584 
Q 2034 3584 2315 3537 
Q 2597 3491 2834 3397 
z
" transform="scale(0.015625)"/>
      <path id="DejaVuSans-70" d="M 1159 525 
L 1159 -1331 
L 581 -1331 
L 581 3500 
L 1159 3500 
L 1159 2969 
Q 1341 3281 1617 3432 
Q 1894 3584 2278 3584 
Q 2916 3584 3314 3078 
Q 3713 2572 3713 1747 
Q 3713 922 3314 415 
Q 2916 -91 2278 -91 
Q 1894 -91 1617 61 
Q 1341 213 1159 525 
z
M 3116 1747 
Q 3116 2381 2855 2742 
Q 2594 3103 2138 3103 
Q 1681 3103 1420 2742 
Q 1159 2381 1159 1747 
Q 1159 1113 1420 752 
Q 1681 391 2138 391 
Q 2594 391 2855 752 
Q 3116 1113 3116 1747 
z
" transform="scale(0.015625)"/>
      <path id="DejaVuSans-6c" d="M 603 4863 
L 1178 4863 
L 1178 0 
L 603 0 
L 603 4863 
z
" transform="scale(0.015625)"/>
      <path id="DejaVuSans-65" d="M 3597 1894 
L 3597 1613 
L 953 1613 
Q 991 1019 1311 708 
Q 1631 397 2203 397 
Q 2534 397 2845 478 
Q 3156 559 3463 722 
L 3463 178 
Q 3153 47 2828 -22 
Q 2503 -91 2169 -91 
Q 1331 -91 842 396 
Q 353 884 353 1716 
Q 353 2575 817 3079 
Q 1281 3584 2069 3584 
Q 2775 3584 3186 3129 
Q 3597 2675 3597 1894 
z
M 3022 2063 
Q 3016 2534 2758 2815 
Q 2500 3097 2075 3097 
Q 1594 3097 1305 2825 
Q 1016 2553 972 2059 
L 3022 2063 
z
" transform="scale(0.015625)"/>
      <path id="DejaVuSans-28" d="M 1984 4856 
Q 1566 4138 1362 3434 
Q 1159 2731 1159 2009 
Q 1159 1288 1364 580 
Q 1569 -128 1984 -844 
L 1484 -844 
Q 1016 -109 783 600 
Q 550 1309 550 2009 
Q 550 2706 781 3412 
Q 1013 4119 1484 4856 
L 1984 4856 
z
" transform="scale(0.015625)"/>
      <path id="DejaVuSans-3bc" d="M 544 -1331 
L 544 3500 
L 1119 3500 
L 1119 1325 
Q 1119 872 1334 640 
Q 1550 409 1972 409 
Q 2434 409 2667 671 
Q 2900 934 2900 1459 
L 2900 3500 
L 3475 3500 
L 3475 806 
Q 3475 619 3529 530 
Q 3584 441 3700 441 
Q 3728 441 3778 458 
Q 3828 475 3916 513 
L 3916 50 
Q 3788 -22 3673 -56 
Q 3559 -91 3450 -91 
Q 3234 -91 3106 31 
Q 2978 153 2931 403 
Q 2775 156 2548 32 
Q 2322 -91 2016 -91 
Q 1697 -91 1473 31 
Q 1250 153 1119 397 
L 1119 -1331 
L 544 -1331 
z
" transform="scale(0.015625)"/>
      <path id="DejaVuSans-33" d="M 2597 2516 
Q 3050 2419 3304 2112 
Q 3559 1806 3559 1356 
Q 3559 666 3084 287 
Q 2609 -91 1734 -91 
Q 1441 -91 1130 -33 
Q 819 25 488 141 
L 488 750 
Q 750 597 1062 519 
Q 1375 441 1716 441 
Q 2309 441 2620 675 
Q 2931 909 2931 1356 
Q 2931 1769 2642 2001 
Q 2353 2234 1838 2234 
L 1294 2234 
L 1294 2753 
L 1863 2753 
Q 2328 2753 2575 2939 
Q 2822 3125 2822 3475 
Q 2822 3834 2567 4026 
Q 2313 4219 1838 4219 
Q 1578 4219 1281 4162 
Q 984 4106 628 3988 
L 628 4550 
Q 988 4650 1302 4700 
Q 1616 4750 1894 4750 
Q 2613 4750 3031 4423 
Q 3450 4097 3450 3541 
Q 3450 3153 3228 2886 
Q 3006 2619 2597 2516 
z
" transform="scale(0.015625)"/>
      <path id="DejaVuSans-37" d="M 525 4666 
L 3525 4666 
L 3525 4397 
L 1831 0 
L 1172 0 
L 2766 4134 
L 525 4134 
L 525 4666 
z
" transform="scale(0.015625)"/>
      <path id="DejaVuSans-35" d="M 691 4666 
L 3169 4666 
L 3169 4134 
L 1269 4134 
L 1269 2991 
Q 1406 3038 1543 3061 
Q 1681 3084 1819 3084 
Q 2600 3084 3056 2656 
Q 3513 2228 3513 1497 
Q 3513 744 3044 326 
Q 2575 -91 1722 -91 
Q 1428 -91 1123 -41 
Q 819 9 494 109 
L 494 744 
Q 775 591 1075 516 
Q 1375 441 1709 441 
Q 2250 441 2565 725 
Q 2881 1009 2881 1497 
Q 2881 1984 2565 2268 
Q 2250 2553 1709 2553 
Q 1456 2553 1204 2497 
Q 953 2441 691 2322 
L 691 4666 
z
" transform="scale(0.015625)"/>
      <path id="DejaVuSans-2c" d="M 750 794 
L 1409 794 
L 1409 256 
L 897 -744 
L 494 -744 
L 750 256 
L 750 794 
z
" transform="scale(0.015625)"/>
      <path id="DejaVuSans-3c3" d="M 1959 3044 
Q 1484 3044 1228 2700 
Q 959 2341 959 1747 
Q 959 1119 1226 758 
Q 1494 397 1959 397 
Q 2419 397 2687 759 
Q 2956 1122 2956 1747 
Q 2956 2319 2688 2700 
Q 2441 3044 1959 3044 
z
M 1959 3500 
L 3869 3500 
L 3869 2925 
L 3225 2925 
Q 3566 2438 3566 1747 
Q 3566 888 3138 400 
Q 2709 -91 1959 -91 
Q 1206 -91 781 400 
Q 353 888 353 1747 
Q 353 2613 781 3097 
Q 1134 3500 1959 3500 
z
" transform="scale(0.015625)"/>
      <path id="DejaVuSans-39" d="M 703 97 
L 703 672 
Q 941 559 1184 500 
Q 1428 441 1663 441 
Q 2288 441 2617 861 
Q 2947 1281 2994 2138 
Q 2813 1869 2534 1725 
Q 2256 1581 1919 1581 
Q 1219 1581 811 2004 
Q 403 2428 403 3163 
Q 403 3881 828 4315 
Q 1253 4750 1959 4750 
Q 2769 4750 3195 4129 
Q 3622 3509 3622 2328 
Q 3622 1225 3098 567 
Q 2575 -91 1691 -91 
Q 1453 -91 1209 -44 
Q 966 3 703 97 
z
M 1959 2075 
Q 2384 2075 2632 2365 
Q 2881 2656 2881 3163 
Q 2881 3666 2632 3958 
Q 2384 4250 1959 4250 
Q 1534 4250 1286 3958 
Q 1038 3666 1038 3163 
Q 1038 2656 1286 2365 
Q 1534 2075 1959 2075 
z
" transform="scale(0.015625)"/>
      <path id="DejaVuSans-29" d="M 513 4856 
L 1013 4856 
Q 1481 4119 1714 3412 
Q 1947 2706 1947 2009 
Q 1947 1309 1714 600 
Q 1481 -109 1013 -844 
L 513 -844 
Q 928 -128 1133 580 
Q 1338 1288 1338 2009 
Q 1338 2731 1133 3434 
Q 928 4138 513 4856 
z
" transform="scale(0.015625)"/>
      <path id="DejaVuSans-6f" d="M 1959 3097 
Q 1497 3097 1228 2736 
Q 959 2375 959 1747 
Q 959 1119 1226 758 
Q 1494 397 1959 397 
Q 2419 397 2687 759 
Q 2956 1122 2956 1747 
Q 2956 2369 2687 2733 
Q 2419 3097 1959 3097 
z
M 1959 3584 
Q 2709 3584 3137 3096 
Q 3566 2609 3566 1747 
Q 3566 888 3137 398 
Q 2709 -91 1959 -91 
Q 1206 -91 779 398 
Q 353 888 353 1747 
Q 353 2609 779 3096 
Q 1206 3584 1959 3584 
z
" transform="scale(0.015625)"/>
      <path id="DejaVuSans-66" d="M 2375 4863 
L 2375 4384 
L 1825 4384 
Q 1516 4384 1395 4259 
Q 1275 4134 1275 3809 
L 1275 3500 
L 2222 3500 
L 2222 3053 
L 1275 3053 
L 1275 0 
L 697 0 
L 697 3053 
L 147 3053 
L 147 3500 
L 697 3500 
L 697 3744 
Q 697 4328 969 4595 
Q 1241 4863 1831 4863 
L 2375 4863 
z
" transform="scale(0.015625)"/>
      <path id="DejaVuSans-72" d="M 2631 2963 
Q 2534 3019 2420 3045 
Q 2306 3072 2169 3072 
Q 1681 3072 1420 2755 
Q 1159 2438 1159 1844 
L 1159 0 
L 581 0 
L 581 3500 
L 1159 3500 
L 1159 2956 
Q 1341 3275 1631 3429 
Q 1922 3584 2338 3584 
Q 2397 3584 2469 3576 
Q 2541 3569 2628 3553 
L 2631 2963 
z
" transform="scale(0.015625)"/>
      <path id="DejaVuSans-79" d="M 2059 -325 
Q 1816 -950 1584 -1140 
Q 1353 -1331 966 -1331 
L 506 -1331 
L 506 -850 
L 844 -850 
Q 1081 -850 1212 -737 
Q 1344 -625 1503 -206 
L 1606 56 
L 191 3500 
L 800 3500 
L 1894 763 
L 2988 3500 
L 3597 3500 
L 2059 -325 
z
" transform="scale(0.015625)"/>
      <path id="DejaVuSans-5b" d="M 550 4863 
L 1875 4863 
L 1875 4416 
L 1125 4416 
L 1125 -397 
L 1875 -397 
L 1875 -844 
L 550 -844 
L 550 4863 
z
" transform="scale(0.015625)"/>
      <path id="DejaVuSans-5d" d="M 1947 4863 
L 1947 -844 
L 622 -844 
L 622 -397 
L 1369 -397 
L 1369 4416 
L 622 4416 
L 622 4863 
L 1947 4863 
z
" transform="scale(0.015625)"/>
      <path id="DejaVuSans-2208" d="M 1072 1959 
Q 1094 1728 1291 1353 
Q 1522 919 1959 675 
Q 2388 438 2850 434 
L 5028 434 
L 5028 -63 
L 2850 -63 
Q 2250 -63 1695 246 
Q 1141 556 844 1106 
Q 547 1656 547 2241 
Q 547 2819 844 3369 
Q 1141 3919 1695 4231 
Q 2250 4544 2850 4544 
L 5028 4544 
L 5028 4047 
L 2850 4047 
Q 2388 4044 1959 3803 
Q 1525 3556 1291 3125 
Q 1091 2750 1063 2459 
L 5028 2459 
L 5028 1959 
L 1072 1959 
z
" transform="scale(0.015625)"/>
     </defs>
     <use xlink:href="#DejaVuSans-31"/>
     <use xlink:href="#DejaVuSans-30" x="63.623047"/>
     <use xlink:href="#DejaVuSans-30" x="127.246094"/>
     <use xlink:href="#DejaVuSans-30" x="190.869141"/>
     <use xlink:href="#DejaVuSans-30" x="254.492188"/>
     <use xlink:href="#DejaVuSans-20" x="318.115234"/>
     <use xlink:href="#DejaVuSans-73" x="349.902344"/>
     <use xlink:href="#DejaVuSans-61" x="402.001953"/>
     <use xlink:href="#DejaVuSans-6d" x="463.28125"/>
     <use xlink:href="#DejaVuSans-70" x="560.693359"/>
     <use xlink:href="#DejaVuSans-6c" x="624.169922"/>
     <use xlink:href="#DejaVuSans-65" x="651.953125"/>
     <use xlink:href="#DejaVuSans-73" x="713.476562"/>
     <use xlink:href="#DejaVuSans-20" x="765.576172"/>
     <use xlink:href="#DejaVuSans-28" x="797.363281"/>
     <use xlink:href="#DejaVuSans-3bc" x="836.376953"/>
     <use xlink:href="#DejaVuSans-3d" x="900"/>
     <use xlink:href="#DejaVuSans-2d" x="983.789062"/>
     <use xlink:href="#DejaVuSans-30" x="1019.873047"/>
     <use xlink:href="#DejaVuSans-2e" x="1083.496094"/>
     <use xlink:href="#DejaVuSans-33" x="1115.283203"/>
     <use xlink:href="#DejaVuSans-37" x="1178.90625"/>
     <use xlink:href="#DejaVuSans-35" x="1242.529297"/>
     <use xlink:href="#DejaVuSans-2c" x="1306.152344"/>
     <use xlink:href="#DejaVuSans-20" x="1337.939453"/>
     <use xlink:href="#DejaVuSans-3c3" x="1369.726562"/>
     <use xlink:href="#DejaVuSans-3d" x="1433.105469"/>
     <use xlink:href="#DejaVuSans-31" x="1516.894531"/>
     <use xlink:href="#DejaVuSans-2e" x="1580.517578"/>
     <use xlink:href="#DejaVuSans-30" x="1612.304688"/>
     <use xlink:href="#DejaVuSans-36" x="1675.927734"/>
     <use xlink:href="#DejaVuSans-39" x="1739.550781"/>
     <use xlink:href="#DejaVuSans-29" x="1803.173828"/>
     <use xlink:href="#DejaVuSans-20" x="1842.1875"/>
     <use xlink:href="#DejaVuSans-6f" x="1873.974609"/>
     <use xlink:href="#DejaVuSans-66" x="1935.15625"/>
     <use xlink:href="#DejaVuSans-20" x="1970.361328"/>
     <use xlink:href="#DejaVuSans-61" x="2002.148438"/>
     <use xlink:href="#DejaVuSans-72" x="2063.427734"/>
     <use xlink:href="#DejaVuSans-72" x="2102.791016"/>
     <use xlink:href="#DejaVuSans-61" x="2143.904297"/>
     <use xlink:href="#DejaVuSans-79" x="2205.183594"/>
     <use xlink:href="#DejaVuSans-5b" x="2264.363281"/>
     <use xlink:href="#DejaVuSans-31" x="2303.376953"/>
     <use xlink:href="#DejaVuSans-39" x="2367"/>
     <use xlink:href="#DejaVuSans-36" x="2430.623047"/>
     <use xlink:href="#DejaVuSans-2c" x="2494.246094"/>
     <use xlink:href="#DejaVuSans-20" x="2526.033203"/>
     <use xlink:href="#DejaVuSans-31" x="2557.820312"/>
     <use xlink:href="#DejaVuSans-39" x="2621.443359"/>
     <use xlink:href="#DejaVuSans-36" x="2685.066406"/>
     <use xlink:href="#DejaVuSans-2c" x="2748.689453"/>
     <use xlink:href="#DejaVuSans-20" x="2780.476562"/>
     <use xlink:href="#DejaVuSans-33" x="2812.263672"/>
     <use xlink:href="#DejaVuSans-5d" x="2875.886719"/>
     <use xlink:href="#DejaVuSans-20" x="2914.900391"/>
     <use xlink:href="#DejaVuSans-66" x="2946.6875"/>
     <use xlink:href="#DejaVuSans-33" x="2981.892578"/>
     <use xlink:href="#DejaVuSans-32" x="3045.515625"/>
     <use xlink:href="#DejaVuSans-20" x="3109.138672"/>
     <use xlink:href="#DejaVuSans-6e" x="3140.925781"/>
     <use xlink:href="#DejaVuSans-3d" x="3204.304688"/>
     <use xlink:href="#DejaVuSans-31" x="3288.09375"/>
     <use xlink:href="#DejaVuSans-31" x="3351.716797"/>
     <use xlink:href="#DejaVuSans-35" x="3415.339844"/>
     <use xlink:href="#DejaVuSans-32" x="3478.962891"/>
     <use xlink:href="#DejaVuSans-34" x="3542.585938"/>
     <use xlink:href="#DejaVuSans-38" x="3606.208984"/>
     <use xlink:href="#DejaVuSans-20" x="3669.832031"/>
     <use xlink:href="#DejaVuSans-78" x="3701.619141"/>
     <use xlink:href="#DejaVuSans-2208" x="3760.798828"/>
     <use xlink:href="#DejaVuSans-5b" x="3847.908203"/>
     <use xlink:href="#DejaVuSans-2d" x="3886.921875"/>
     <use xlink:href="#DejaVuSans-32" x="3923.005859"/>
     <use xlink:href="#DejaVuSans-2e" x="3986.628906"/>
     <use xlink:href="#DejaVuSans-31" x="4018.416016"/>
     <use xlink:href="#DejaVuSans-31" x="4082.039062"/>
     <use xlink:href="#DejaVuSans-38" x="4145.662109"/>
     <use xlink:href="#DejaVuSans-2c" x="4209.285156"/>
     <use xlink:href="#DejaVuSans-20" x="4241.072266"/>
     <use xlink:href="#DejaVuSans-32" x="4272.859375"/>
     <use xlink:href="#DejaVuSans-2e" x="4336.482422"/>
     <use xlink:href="#DejaVuSans-36" x="4368.269531"/>
     <use xlink:href="#DejaVuSans-34" x="4431.892578"/>
     <use xlink:href="#DejaVuSans-30" x="4495.515625"/>
     <use xlink:href="#DejaVuSans-5d" x="4559.138672"/>
     <use xlink:href="#DejaVuSans-20" x="4598.152344"/>
     <use xlink:href="#DejaVuSans-3bc" x="4629.939453"/>
     <use xlink:href="#DejaVuSans-3d" x="4693.5625"/>
     <use xlink:href="#DejaVuSans-2d" x="4777.351562"/>
     <use xlink:href="#DejaVuSans-30" x="4813.435547"/>
     <use xlink:href="#DejaVuSans-2e" x="4877.058594"/>
     <use xlink:href="#DejaVuSans-33" x="4908.845703"/>
     <use xlink:href="#DejaVuSans-38" x="4972.46875"/>
     <use xlink:href="#DejaVuSans-38" x="5036.091797"/>
     <use xlink:href="#DejaVuSans-20" x="5099.714844"/>
     <use xlink:href="#DejaVuSans-3c3" x="5131.501953"/>
     <use xlink:href="#DejaVuSans-3d" x="5194.880859"/>
     <use xlink:href="#DejaVuSans-31" x="5278.669922"/>
     <use xlink:href="#DejaVuSans-2e" x="5342.292969"/>
     <use xlink:href="#DejaVuSans-30" x="5374.080078"/>
     <use xlink:href="#DejaVuSans-37" x="5437.703125"/>
     <use xlink:href="#DejaVuSans-33" x="5501.326172"/>
    </g>
   </g>
   <g id="patch_9">
    <path d="M 116.075891 121.226437 
L 124.165803 121.226437 
L 124.165803 120.236352 
L 116.075891 120.236352 
z
" clip-path="url(#p35fb0c7fe3)" style="fill: #00bfff"/>
   </g>
   <g id="patch_10">
    <path d="M 124.165803 121.226437 
L 132.255716 121.226437 
L 132.255716 116.441024 
L 124.165803 116.441024 
z
" clip-path="url(#p35fb0c7fe3)" style="fill: #00bfff"/>
   </g>
   <g id="patch_11">
    <path d="M 132.255716 121.226437 
L 140.345628 121.226437 
L 140.345628 116.936067 
L 132.255716 116.936067 
z
" clip-path="url(#p35fb0c7fe3)" style="fill: #00bfff"/>
   </g>
   <g id="patch_12">
    <path d="M 140.345628 121.226437 
L 148.435541 121.226437 
L 148.435541 114.790882 
L 140.345628 114.790882 
z
" clip-path="url(#p35fb0c7fe3)" style="fill: #00bfff"/>
   </g>
   <g id="patch_13">
    <path d="M 148.435541 121.226437 
L 156.525453 121.226437 
L 156.525453 110.83054 
L 148.435541 110.83054 
z
" clip-path="url(#p35fb0c7fe3)" style="fill: #00bfff"/>
   </g>
   <g id="patch_14">
    <path d="M 156.525453 121.226437 
L 164.615366 121.226437 
L 164.615366 108.685355 
L 156.525453 108.685355 
z
" clip-path="url(#p35fb0c7fe3)" style="fill: #00bfff"/>
   </g>
   <g id="patch_15">
    <path d="M 164.615366 121.226437 
L 172.705278 121.226437 
L 172.705278 103.404899 
L 164.615366 103.404899 
z
" clip-path="url(#p35fb0c7fe3)" style="fill: #00bfff"/>
   </g>
   <g id="patch_16">
    <path d="M 172.705278 121.226437 
L 180.795191 121.226437 
L 180.795191 102.084785 
L 172.705278 102.084785 
z
" clip-path="url(#p35fb0c7fe3)" style="fill: #00bfff"/>
   </g>
   <g id="patch_17">
    <path d="M 180.795191 121.226437 
L 188.885104 121.226437 
L 188.885104 100.599657 
L 180.795191 100.599657 
z
" clip-path="url(#p35fb0c7fe3)" style="fill: #00bfff"/>
   </g>
   <g id="patch_18">
    <path d="M 188.885104 121.226437 
L 196.975016 121.226437 
L 196.975016 103.569913 
L 188.885104 103.569913 
z
" clip-path="url(#p35fb0c7fe3)" style="fill: #00bfff"/>
   </g>
   <g id="patch_19">
    <path d="M 196.975016 121.226437 
L 205.064929 121.226437 
L 205.064929 95.979258 
L 196.975016 95.979258 
z
" clip-path="url(#p35fb0c7fe3)" style="fill: #00bfff"/>
   </g>
   <g id="patch_20">
    <path d="M 205.064929 121.226437 
L 213.154841 121.226437 
L 213.154841 96.639315 
L 205.064929 96.639315 
z
" clip-path="url(#p35fb0c7fe3)" style="fill: #00bfff"/>
   </g>
   <g id="patch_21">
    <path d="M 213.154841 121.226437 
L 221.244754 121.226437 
L 221.244754 94.164101 
L 213.154841 94.164101 
z
" clip-path="url(#p35fb0c7fe3)" style="fill: #00bfff"/>
   </g>
   <g id="patch_22">
    <path d="M 221.244754 121.226437 
L 229.334666 121.226437 
L 229.334666 86.408432 
L 221.244754 86.408432 
z
" clip-path="url(#p35fb0c7fe3)" style="fill: #00bfff"/>
   </g>
   <g id="patch_23">
    <path d="M 229.334666 121.226437 
L 237.424561 121.226437 
L 237.424561 60.666078 
L 229.334666 60.666078 
z
" clip-path="url(#p35fb0c7fe3)" style="fill: #00bfff"/>
   </g>
   <g id="patch_24">
    <path d="M 237.424561 121.226437 
L 245.514474 121.226437 
L 245.514474 65.946665 
L 237.424561 65.946665 
z
" clip-path="url(#p35fb0c7fe3)" style="fill: #00bfff"/>
   </g>
   <g id="patch_25">
    <path d="M 245.514474 121.226437 
L 253.604386 121.226437 
L 253.604386 65.616637 
L 245.514474 65.616637 
z
" clip-path="url(#p35fb0c7fe3)" style="fill: #00bfff"/>
   </g>
   <g id="patch_26">
    <path d="M 253.604386 121.226437 
L 261.694299 121.226437 
L 261.694299 67.926836 
L 253.604386 67.926836 
z
" clip-path="url(#p35fb0c7fe3)" style="fill: #00bfff"/>
   </g>
   <g id="patch_27">
    <path d="M 261.694299 121.226437 
L 269.78422 121.226437 
L 269.78422 73.372359 
L 261.694299 73.372359 
z
" clip-path="url(#p35fb0c7fe3)" style="fill: #00bfff"/>
   </g>
   <g id="patch_28">
    <path d="M 269.78422 121.226437 
L 277.874133 121.226437 
L 277.874133 70.237036 
L 269.78422 70.237036 
z
" clip-path="url(#p35fb0c7fe3)" style="fill: #00bfff"/>
   </g>
   <g id="patch_29">
    <path d="M 277.874133 121.226437 
L 285.964045 121.226437 
L 285.964045 65.286608 
L 277.874133 65.286608 
z
" clip-path="url(#p35fb0c7fe3)" style="fill: #00bfff"/>
   </g>
   <g id="patch_30">
    <path d="M 285.964045 121.226437 
L 294.053949 121.226437 
L 294.053949 59.841072 
L 285.964045 59.841072 
z
" clip-path="url(#p35fb0c7fe3)" style="fill: #00bfff"/>
   </g>
   <g id="patch_31">
    <path d="M 294.053949 121.226437 
L 302.143862 121.226437 
L 302.143862 63.80148 
L 294.053949 63.80148 
z
" clip-path="url(#p35fb0c7fe3)" style="fill: #00bfff"/>
   </g>
   <g id="patch_32">
    <path d="M 302.143862 121.226437 
L 310.233774 121.226437 
L 310.233774 63.471452 
L 302.143862 63.471452 
z
" clip-path="url(#p35fb0c7fe3)" style="fill: #00bfff"/>
   </g>
   <g id="patch_33">
    <path d="M 310.233774 121.226437 
L 318.323687 121.226437 
L 318.323687 58.686039 
L 310.233774 58.686039 
z
" clip-path="url(#p35fb0c7fe3)" style="fill: #00bfff"/>
   </g>
   <g id="patch_34">
    <path d="M 318.323687 121.226437 
L 326.413599 121.226437 
L 326.413599 46.970027 
L 318.323687 46.970027 
z
" clip-path="url(#p35fb0c7fe3)" style="fill: #00bfff"/>
   </g>
   <g id="patch_35">
    <path d="M 326.413599 121.226437 
L 334.503512 121.226437 
L 334.503512 57.365925 
L 326.413599 57.365925 
z
" clip-path="url(#p35fb0c7fe3)" style="fill: #00bfff"/>
   </g>
   <g id="patch_36">
    <path d="M 334.503512 121.226437 
L 342.593424 121.226437 
L 342.593424 60.501195 
L 334.503512 60.501195 
z
" clip-path="url(#p35fb0c7fe3)" style="fill: #00bfff"/>
   </g>
   <g id="patch_37">
    <path d="M 342.593424 121.226437 
L 350.683337 121.226437 
L 350.683337 63.471452 
L 342.593424 63.471452 
z
" clip-path="url(#p35fb0c7fe3)" style="fill: #00bfff"/>
   </g>
   <g id="patch_38">
    <path d="M 350.683337 121.226437 
L 358.773249 121.226437 
L 358.773249 61.821309 
L 350.683337 61.821309 
z
" clip-path="url(#p35fb0c7fe3)" style="fill: #00bfff"/>
   </g>
   <g id="patch_39">
    <path d="M 358.773249 121.226437 
L 366.863162 121.226437 
L 366.863162 87.233503 
L 358.773249 87.233503 
z
" clip-path="url(#p35fb0c7fe3)" style="fill: #00bfff"/>
   </g>
   <g id="patch_40">
    <path d="M 366.863162 121.226437 
L 374.95307 121.226437 
L 374.95307 95.979244 
L 366.863162 95.979244 
z
" clip-path="url(#p35fb0c7fe3)" style="fill: #00bfff"/>
   </g>
   <g id="patch_41">
    <path d="M 374.95307 121.226437 
L 383.042985 121.226437 
L 383.042985 104.725017 
L 374.95307 104.725017 
z
" clip-path="url(#p35fb0c7fe3)" style="fill: #00bfff"/>
   </g>
   <g id="patch_42">
    <path d="M 383.042985 121.226437 
L 391.132895 121.226437 
L 391.132895 107.365237 
L 383.042985 107.365237 
z
" clip-path="url(#p35fb0c7fe3)" style="fill: #00bfff"/>
   </g>
   <g id="patch_43">
    <path d="M 391.132895 121.226437 
L 399.222808 121.226437 
L 399.222808 109.510426 
L 391.132895 109.510426 
z
" clip-path="url(#p35fb0c7fe3)" style="fill: #00bfff"/>
   </g>
   <g id="patch_44">
    <path d="M 399.222808 121.226437 
L 407.31272 121.226437 
L 407.31272 111.820625 
L 399.222808 111.820625 
z
" clip-path="url(#p35fb0c7fe3)" style="fill: #00bfff"/>
   </g>
   <g id="patch_45">
    <path d="M 407.31272 121.226437 
L 415.402632 121.226437 
L 415.402632 114.295839 
L 407.31272 114.295839 
z
" clip-path="url(#p35fb0c7fe3)" style="fill: #00bfff"/>
   </g>
   <g id="patch_46">
    <path d="M 415.402632 121.226437 
L 423.492544 121.226437 
L 423.492544 113.800796 
L 415.402632 113.800796 
z
" clip-path="url(#p35fb0c7fe3)" style="fill: #00bfff"/>
   </g>
   <g id="patch_47">
    <path d="M 423.492544 121.226437 
L 431.582456 121.226437 
L 431.582456 115.12091 
L 423.492544 115.12091 
z
" clip-path="url(#p35fb0c7fe3)" style="fill: #00bfff"/>
   </g>
   <g id="patch_48">
    <path d="M 431.582456 121.226437 
L 439.672368 121.226437 
L 439.672368 116.606039 
L 431.582456 116.606039 
z
" clip-path="url(#p35fb0c7fe3)" style="fill: #00bfff"/>
   </g>
   <g id="patch_49">
    <path d="M 439.672368 121.226437 
L 447.762279 121.226437 
L 447.762279 114.79088 
L 439.672368 114.79088 
z
" clip-path="url(#p35fb0c7fe3)" style="fill: #00bfff"/>
   </g>
   <g id="patch_50">
    <path d="M 447.762279 121.226437 
L 455.852191 121.226437 
L 455.852191 114.130825 
L 447.762279 114.130825 
z
" clip-path="url(#p35fb0c7fe3)" style="fill: #00bfff"/>
   </g>
   <g id="patch_51">
    <path d="M 455.852191 121.226437 
L 463.942104 121.226437 
L 463.942104 113.140739 
L 455.852191 113.140739 
z
" clip-path="url(#p35fb0c7fe3)" style="fill: #00bfff"/>
   </g>
   <g id="patch_52">
    <path d="M 463.942104 121.226437 
L 472.032016 121.226437 
L 472.032016 113.965811 
L 463.942104 113.965811 
z
" clip-path="url(#p35fb0c7fe3)" style="fill: #00bfff"/>
   </g>
   <g id="patch_53">
    <path d="M 472.032016 121.226437 
L 480.121929 121.226437 
L 480.121929 114.955896 
L 472.032016 114.955896 
z
" clip-path="url(#p35fb0c7fe3)" style="fill: #00bfff"/>
   </g>
   <g id="patch_54">
    <path d="M 480.121929 121.226437 
L 488.211841 121.226437 
L 488.211841 113.140739 
L 480.121929 113.140739 
z
" clip-path="url(#p35fb0c7fe3)" style="fill: #00bfff"/>
   </g>
   <g id="patch_55">
    <path d="M 488.211841 121.226437 
L 496.301754 121.226437 
L 496.301754 114.790882 
L 488.211841 114.790882 
z
" clip-path="url(#p35fb0c7fe3)" style="fill: #00bfff"/>
   </g>
   <g id="patch_56">
    <path d="M 496.301754 121.226437 
L 504.391666 121.226437 
L 504.391666 115.615953 
L 496.301754 115.615953 
z
" clip-path="url(#p35fb0c7fe3)" style="fill: #00bfff"/>
   </g>
   <g id="patch_57">
    <path d="M 504.391666 121.226437 
L 512.481579 121.226437 
L 512.481579 115.945982 
L 504.391666 115.945982 
z
" clip-path="url(#p35fb0c7fe3)" style="fill: #00bfff"/>
   </g>
   <g id="patch_58">
    <path d="M 512.481579 121.226437 
L 520.571483 121.226437 
L 520.571483 116.441019 
L 512.481579 116.441019 
z
" clip-path="url(#p35fb0c7fe3)" style="fill: #00bfff"/>
   </g>
   <g id="patch_59">
    <path d="M 520.571483 121.226437 
L 528.661395 121.226437 
L 528.661395 115.450939 
L 520.571483 115.450939 
z
" clip-path="url(#p35fb0c7fe3)" style="fill: #00bfff"/>
   </g>
   <g id="patch_60">
    <path d="M 528.661395 121.226437 
L 536.751308 121.226437 
L 536.751308 116.441024 
L 528.661395 116.441024 
z
" clip-path="url(#p35fb0c7fe3)" style="fill: #00bfff"/>
   </g>
   <g id="patch_61">
    <path d="M 536.751308 121.226437 
L 544.84122 121.226437 
L 544.84122 116.606039 
L 536.751308 116.606039 
z
" clip-path="url(#p35fb0c7fe3)" style="fill: #00bfff"/>
   </g>
   <g id="patch_62">
    <path d="M 544.84122 121.226437 
L 552.931133 121.226437 
L 552.931133 117.926153 
L 544.84122 117.926153 
z
" clip-path="url(#p35fb0c7fe3)" style="fill: #00bfff"/>
   </g>
   <g id="patch_63">
    <path d="M 552.931133 121.226437 
L 561.021045 121.226437 
L 561.021045 117.761138 
L 552.931133 117.761138 
z
" clip-path="url(#p35fb0c7fe3)" style="fill: #00bfff"/>
   </g>
   <g id="patch_64">
    <path d="M 561.021045 121.226437 
L 569.110958 121.226437 
L 569.110958 115.945982 
L 561.021045 115.945982 
z
" clip-path="url(#p35fb0c7fe3)" style="fill: #00bfff"/>
   </g>
   <g id="patch_65">
    <path d="M 569.110958 121.226437 
L 577.200871 121.226437 
L 577.200871 117.101081 
L 569.110958 117.101081 
z
" clip-path="url(#p35fb0c7fe3)" style="fill: #00bfff"/>
   </g>
   <g id="patch_66">
    <path d="M 577.200871 121.226437 
L 585.290783 121.226437 
L 585.290783 117.101081 
L 577.200871 117.101081 
z
" clip-path="url(#p35fb0c7fe3)" style="fill: #00bfff"/>
   </g>
   <g id="patch_67">
    <path d="M 585.290783 121.226437 
L 593.380696 121.226437 
L 593.380696 116.441024 
L 585.290783 116.441024 
z
" clip-path="url(#p35fb0c7fe3)" style="fill: #00bfff"/>
   </g>
   <g id="patch_68">
    <path d="M 593.380696 121.226437 
L 601.470608 121.226437 
L 601.470608 116.110996 
L 593.380696 116.110996 
z
" clip-path="url(#p35fb0c7fe3)" style="fill: #00bfff"/>
   </g>
   <g id="patch_69">
    <path d="M 601.470608 121.226437 
L 609.560521 121.226437 
L 609.560521 113.470768 
L 601.470608 113.470768 
z
" clip-path="url(#p35fb0c7fe3)" style="fill: #00bfff"/>
   </g>
   <g id="patch_70">
    <path d="M 609.560521 121.226437 
L 617.650433 121.226437 
L 617.650433 114.130825 
L 609.560521 114.130825 
z
" clip-path="url(#p35fb0c7fe3)" style="fill: #00bfff"/>
   </g>
   <g id="patch_71">
    <path d="M 617.650433 121.226437 
L 625.740346 121.226437 
L 625.740346 112.645697 
L 617.650433 112.645697 
z
" clip-path="url(#p35fb0c7fe3)" style="fill: #00bfff"/>
   </g>
   <g id="patch_72">
    <path d="M 625.740346 121.226437 
L 633.830258 121.226437 
L 633.830258 112.315668 
L 625.740346 112.315668 
z
" clip-path="url(#p35fb0c7fe3)" style="fill: #00bfff"/>
   </g>
   <g id="patch_73">
    <path d="M 633.830258 121.226437 
L 641.920171 121.226437 
L 641.920171 112.975725 
L 633.830258 112.975725 
z
" clip-path="url(#p35fb0c7fe3)" style="fill: #00bfff"/>
   </g>
   <g id="patch_74">
    <path d="M 641.920171 121.226437 
L 650.010083 121.226437 
L 650.010083 104.064956 
L 641.920171 104.064956 
z
" clip-path="url(#p35fb0c7fe3)" style="fill: #00bfff"/>
   </g>
   <g id="patch_75">
    <path d="M 650.010083 121.226437 
L 658.099996 121.226437 
L 658.099996 110.170483 
L 650.010083 110.170483 
z
" clip-path="url(#p35fb0c7fe3)" style="fill: #00bfff"/>
   </g>
   <g id="patch_76">
    <path d="M 658.099996 121.226437 
L 666.189909 121.226437 
L 666.189909 108.850369 
L 658.099996 108.850369 
z
" clip-path="url(#p35fb0c7fe3)" style="fill: #00bfff"/>
   </g>
   <g id="patch_77">
    <path d="M 666.189909 121.226437 
L 674.279821 121.226437 
L 674.279821 107.200227 
L 666.189909 107.200227 
z
" clip-path="url(#p35fb0c7fe3)" style="fill: #00bfff"/>
   </g>
   <g id="patch_78">
    <path d="M 674.279821 121.226437 
L 682.369734 121.226437 
L 682.369734 105.055041 
L 674.279821 105.055041 
z
" clip-path="url(#p35fb0c7fe3)" style="fill: #00bfff"/>
   </g>
   <g id="patch_79">
    <path d="M 682.369734 121.226437 
L 690.459629 121.226437 
L 690.459629 102.414773 
L 682.369734 102.414773 
z
" clip-path="url(#p35fb0c7fe3)" style="fill: #00bfff"/>
   </g>
   <g id="patch_80">
    <path d="M 690.459629 121.226437 
L 698.549541 121.226437 
L 698.549541 106.705184 
L 690.459629 106.705184 
z
" clip-path="url(#p35fb0c7fe3)" style="fill: #00bfff"/>
   </g>
   <g id="patch_81">
    <path d="M 698.549541 121.226437 
L 706.639454 121.226437 
L 706.639454 106.210141 
L 698.549541 106.210141 
z
" clip-path="url(#p35fb0c7fe3)" style="fill: #00bfff"/>
   </g>
   <g id="patch_82">
    <path d="M 706.639454 121.226437 
L 714.729384 121.226437 
L 714.729384 104.890063 
L 706.639454 104.890063 
z
" clip-path="url(#p35fb0c7fe3)" style="fill: #00bfff"/>
   </g>
   <g id="patch_83">
    <path d="M 714.729384 121.226437 
L 722.819279 121.226437 
L 722.819279 110.335474 
L 714.729384 110.335474 
z
" clip-path="url(#p35fb0c7fe3)" style="fill: #00bfff"/>
   </g>
   <g id="patch_84">
    <path d="M 722.819279 121.226437 
L 730.909209 121.226437 
L 730.909209 110.335521 
L 722.819279 110.335521 
z
" clip-path="url(#p35fb0c7fe3)" style="fill: #00bfff"/>
   </g>
   <g id="patch_85">
    <path d="M 730.909209 121.226437 
L 738.999104 121.226437 
L 738.999104 110.500488 
L 730.909209 110.500488 
z
" clip-path="url(#p35fb0c7fe3)" style="fill: #00bfff"/>
   </g>
   <g id="patch_86">
    <path d="M 738.999104 121.226437 
L 747.089034 121.226437 
L 747.089034 110.665549 
L 738.999104 110.665549 
z
" clip-path="url(#p35fb0c7fe3)" style="fill: #00bfff"/>
   </g>
   <g id="patch_87">
    <path d="M 747.089034 121.226437 
L 755.178929 121.226437 
L 755.178929 113.965795 
L 747.089034 113.965795 
z
" clip-path="url(#p35fb0c7fe3)" style="fill: #00bfff"/>
   </g>
   <g id="patch_88">
    <path d="M 755.178929 121.226437 
L 763.268859 121.226437 
L 763.268859 116.276021 
L 755.178929 116.276021 
z
" clip-path="url(#p35fb0c7fe3)" style="fill: #00bfff"/>
   </g>
   <g id="patch_89">
    <path d="M 763.268859 121.226437 
L 771.358754 121.226437 
L 771.358754 115.285912 
L 763.268859 115.285912 
z
" clip-path="url(#p35fb0c7fe3)" style="fill: #00bfff"/>
   </g>
   <g id="patch_90">
    <path d="M 771.358754 121.226437 
L 779.448684 121.226437 
L 779.448684 118.256188 
L 771.358754 118.256188 
z
" clip-path="url(#p35fb0c7fe3)" style="fill: #00bfff"/>
   </g>
   <g id="patch_91">
    <path d="M 779.448684 121.226437 
L 787.538579 121.226437 
L 787.538579 119.576291 
L 779.448684 119.576291 
z
" clip-path="url(#p35fb0c7fe3)" style="fill: #00bfff"/>
   </g>
   <g id="patch_92">
    <path d="M 787.538579 121.226437 
L 795.628509 121.226437 
L 795.628509 120.89641 
L 787.538579 120.89641 
z
" clip-path="url(#p35fb0c7fe3)" style="fill: #00bfff"/>
   </g>
   <g id="patch_93">
    <path d="M 795.628509 121.226437 
L 803.718404 121.226437 
L 803.718404 120.896408 
L 795.628509 120.896408 
z
" clip-path="url(#p35fb0c7fe3)" style="fill: #00bfff"/>
   </g>
   <g id="line2d_13">
    <path d="M 10.7 118.347466 
L 18.89702 118.000295 
L 27.09404 117.620994 
L 35.291061 117.207947 
L 43.488081 116.75964 
L 51.685101 116.274688 
L 59.882121 115.751867 
L 68.079141 115.190142 
L 76.276162 114.588702 
L 84.473182 113.946989 
L 92.670202 113.264732 
L 100.867222 112.541979 
L 109.064242 111.779122 
L 117.261263 110.976926 
L 125.458283 110.136555 
L 133.655303 109.25959 
L 141.852323 108.348045 
L 150.049343 107.404383 
L 158.246364 106.431519 
L 166.443384 105.432821 
L 174.640404 104.412103 
L 182.837424 103.373618 
L 191.034444 102.322034 
L 199.231465 101.262408 
L 207.428485 100.200156 
L 215.625505 99.14101 
L 223.822525 98.090975 
L 232.019545 97.056273 
L 240.216566 96.043286 
L 248.413586 95.058494 
L 256.610606 94.108406 
L 264.807626 93.199492 
L 273.004646 92.338107 
L 281.201667 91.530424 
L 289.398687 90.782353 
L 297.595707 90.099475 
L 305.792727 89.486973 
L 313.989747 88.94956 
L 322.186768 88.491428 
L 330.383788 88.116186 
L 338.580808 87.826817 
L 346.777828 87.625635 
L 354.974848 87.51426 
L 363.171869 87.49359 
L 371.368889 87.563791 
L 379.565909 87.724296 
L 387.762929 87.973814 
L 395.959949 88.310342 
L 404.15697 88.731196 
L 412.35399 89.233047 
L 420.55101 89.811962 
L 428.74803 90.463457 
L 436.945051 91.182555 
L 445.142071 91.963848 
L 453.339091 92.801567 
L 461.536111 93.689649 
L 469.733131 94.621813 
L 477.930152 95.591632 
L 486.127172 96.592606 
L 494.324192 97.618233 
L 502.521212 98.662079 
L 510.718232 99.717841 
L 518.915253 100.779408 
L 527.112273 101.84092 
L 535.309293 102.89681 
L 543.506313 103.941854 
L 551.703333 104.971203 
L 559.900354 105.980412 
L 568.097374 106.965468 
L 576.294394 107.922796 
L 584.491414 108.849276 
L 592.688434 109.74224 
L 600.885455 110.599472 
L 609.082475 111.419194 
L 617.279495 112.200056 
L 625.476515 112.941115 
L 633.673535 113.64181 
L 641.870556 114.301942 
L 650.067576 114.921641 
L 658.264596 115.501338 
L 666.461616 116.041733 
L 674.658636 116.543762 
L 682.855657 117.008567 
L 691.052677 117.437466 
L 699.249697 117.831916 
L 707.446717 118.19349 
L 715.643737 118.523847 
L 723.840758 118.824706 
L 732.037778 119.097818 
L 740.234798 119.344954 
L 748.431818 119.567875 
L 756.628838 119.76832 
L 764.825859 119.947992 
L 773.022879 120.108543 
L 781.219899 120.251564 
L 789.416919 120.378575 
L 797.613939 120.491025 
L 805.81096 120.590278 
L 814.00798 120.677618 
L 822.205 120.754241 
" clip-path="url(#p35fb0c7fe3)" style="fill: none; stroke: #1f77b4; stroke-width: 1.5; stroke-linecap: square"/>
   </g>
   <g id="text_9">
    <g id="patch_94">
     <path d="M 37.058103 37.612562 
L 53.365916 37.612562 
Q 56.365916 37.612562 56.365916 34.612562 
L 56.365916 24.934437 
Q 56.365916 21.934437 53.365916 21.934437 
L 37.058103 21.934437 
Q 34.058103 21.934437 34.058103 24.934437 
L 34.058103 34.612562 
Q 34.058103 37.612562 37.058103 37.612562 
z
" style="fill: #ffffff"/>
    </g>
    <!-- -2σ -->
    <g transform="translate(37.058103 32.532875) scale(0.1 -0.1)">
     <use xlink:href="#DejaVuSans-2d"/>
     <use xlink:href="#DejaVuSans-32" x="36.083984"/>
     <use xlink:href="#DejaVuSans-3c3" x="99.707031"/>
    </g>
   </g>
   <g id="text_10">
    <g id="patch_95">
     <path d="M 198.101788 37.612562 
L 208.0471 37.612562 
Q 211.0471 37.612562 211.0471 34.612562 
L 211.0471 24.934437 
Q 211.0471 21.934437 208.0471 21.934437 
L 198.101788 21.934437 
Q 195.101788 21.934437 195.101788 24.934437 
L 195.101788 34.612562 
Q 195.101788 37.612562 198.101788 37.612562 
z
" style="fill: #ffffff"/>
    </g>
    <!-- -σ -->
    <g transform="translate(198.101788 32.532875) scale(0.1 -0.1)">
     <use xlink:href="#DejaVuSans-2d"/>
     <use xlink:href="#DejaVuSans-3c3" x="36.083984"/>
    </g>
   </g>
   <g id="text_11">
    <g id="patch_96">
     <path d="M 357.257972 37.612562 
L 364.615785 37.612562 
Q 367.615785 37.612562 367.615785 34.612562 
L 367.615785 24.934437 
Q 367.615785 21.934437 364.615785 21.934437 
L 357.257972 21.934437 
Q 354.257972 21.934437 354.257972 24.934437 
L 354.257972 34.612562 
Q 354.257972 37.612562 357.257972 37.612562 
z
" style="fill: #ffffff"/>
    </g>
    <!-- μ -->
    <g transform="translate(357.257972 32.521937) scale(0.1 -0.1)">
     <defs>
      <path id="DejaVuSans-Bold-3bc" d="M 544 -1338 
L 544 3500 
L 1672 3500 
L 1672 1466 
Q 1672 1103 1828 926 
Q 1984 750 2303 750 
Q 2625 750 2781 926 
Q 2938 1103 2938 1466 
L 2938 3500 
L 4063 3500 
L 4063 1159 
Q 4063 938 4114 850 
Q 4166 763 4288 763 
Q 4344 763 4395 778 
Q 4447 794 4506 831 
L 4506 50 
Q 4341 -22 4195 -56 
Q 4050 -91 3909 -91 
Q 3631 -91 3454 26 
Q 3278 144 3169 403 
Q 3022 156 2811 32 
Q 2600 -91 2322 -91 
Q 2091 -91 1928 -17 
Q 1766 56 1672 206 
L 1672 -1338 
L 544 -1338 
z
" transform="scale(0.015625)"/>
     </defs>
     <use xlink:href="#DejaVuSans-Bold-3bc"/>
    </g>
   </g>
   <g id="text_12">
    <g id="patch_97">
     <path d="M 511.440719 37.612562 
L 526.157907 37.612562 
Q 529.157907 37.612562 529.157907 34.612562 
L 529.157907 24.934437 
Q 529.157907 21.934437 526.157907 21.934437 
L 511.440719 21.934437 
Q 508.440719 21.934437 508.440719 24.934437 
L 508.440719 34.612562 
Q 508.440719 37.612562 511.440719 37.612562 
z
" style="fill: #ffffff"/>
    </g>
    <!-- +σ -->
    <g transform="translate(511.440719 32.532875) scale(0.1 -0.1)">
     <defs>
      <path id="DejaVuSans-2b" d="M 2944 4013 
L 2944 2272 
L 4684 2272 
L 4684 1741 
L 2944 1741 
L 2944 0 
L 2419 0 
L 2419 1741 
L 678 1741 
L 678 2272 
L 2419 2272 
L 2419 4013 
L 2944 4013 
z
" transform="scale(0.015625)"/>
     </defs>
     <use xlink:href="#DejaVuSans-2b"/>
     <use xlink:href="#DejaVuSans-3c3" x="83.789062"/>
    </g>
   </g>
   <g id="text_13">
    <g id="patch_98">
     <path d="M 666.121904 37.612562 
L 687.201591 37.612562 
Q 690.201591 37.612562 690.201591 34.612562 
L 690.201591 24.934437 
Q 690.201591 21.934437 687.201591 21.934437 
L 666.121904 21.934437 
Q 663.121904 21.934437 663.121904 24.934437 
L 663.121904 34.612562 
Q 663.121904 37.612562 666.121904 37.612562 
z
" style="fill: #ffffff"/>
    </g>
    <!-- +2σ -->
    <g transform="translate(666.121904 32.532875) scale(0.1 -0.1)">
     <use xlink:href="#DejaVuSans-2b"/>
     <use xlink:href="#DejaVuSans-32" x="83.789062"/>
     <use xlink:href="#DejaVuSans-3c3" x="147.412109"/>
    </g>
   </g>
  </g>
 </g>
 <defs>
  <clipPath id="p35fb0c7fe3">
   <rect x="10.7" y="19.866437" width="811.505" height="101.36"/>
  </clipPath>
 </defs>
</svg>
