<?xml version="1.0" encoding="utf-8" standalone="no"?>
<!DOCTYPE svg PUBLIC "-//W3C//DTD SVG 1.1//EN"
  "http://www.w3.org/Graphics/SVG/1.1/DTD/svg11.dtd">
<svg xmlns:xlink="http://www.w3.org/1999/xlink" width="872.39952pt" height="152.406273pt" viewBox="0 0 872.39952 152.406273" xmlns="http://www.w3.org/2000/svg" version="1.1">
 <metadata>
  <rdf:RDF xmlns:dc="http://purl.org/dc/elements/1.1/" xmlns:cc="http://creativecommons.org/ns#" xmlns:rdf="http://www.w3.org/1999/02/22-rdf-syntax-ns#">
   <cc:Work>
    <dc:type rdf:resource="http://purl.org/dc/dcmitype/StillImage"/>
    <dc:format>image/svg+xml</dc:format>
    <dc:creator>
     <cc:Agent>
      <dc:title>Matplotlib, https://matplotlib.org/</dc:title>
     </cc:Agent>
    </dc:creator>
   </cc:Work>
  </rdf:RDF>
 </metadata>
 <defs>
  <style type="text/css">*{stroke-linejoin: round; stroke-linecap: butt}</style>
 </defs>
 <g id="figure_1">
  <g id="patch_1">
   <path d="M 0 152.406273 
L 872.39952 152.406273 
L 872.39952 0 
L 0 0 
z
" style="fill: #ffffff"/>
  </g>
  <g id="axes_1">
   <g id="patch_2">
    <path d="M 10.7 128.528148 
L 865.19952 128.528148 
L 865.19952 20.214138 
L 10.7 20.214138 
z
" style="fill: #ffffff"/>
   </g>
   <g id="matplotlib.axis_1">
    <g id="xtick_1">
     <g id="line2d_1">
      <defs>
       <path id="m8f1de1206a" d="M 0 0 
L 0 3.5 
" style="stroke: #000000; stroke-width: 0.8"/>
      </defs>
      <g>
       <use xlink:href="#m8f1de1206a" x="58.150803" y="128.528148" style="stroke: #000000; stroke-width: 0.8"/>
      </g>
     </g>
     <g id="text_1">
      <!-- −4 -->
      <g transform="translate(50.77971 143.126585) scale(0.1 -0.1)">
       <defs>
        <path id="DejaVuSans-2212" d="M 678 2272 
L 4684 2272 
L 4684 1741 
L 678 1741 
L 678 2272 
z
" transform="scale(0.015625)"/>
        <path id="DejaVuSans-34" d="M 2419 4116 
L 825 1625 
L 2419 1625 
L 2419 4116 
z
M 2253 4666 
L 3047 4666 
L 3047 1625 
L 3713 1625 
L 3713 1100 
L 3047 1100 
L 3047 0 
L 2419 0 
L 2419 1100 
L 313 1100 
L 313 1709 
L 2253 4666 
z
" transform="scale(0.015625)"/>
       </defs>
       <use xlink:href="#DejaVuSans-2212"/>
       <use xlink:href="#DejaVuSans-34" x="83.789062"/>
      </g>
     </g>
    </g>
    <g id="xtick_2">
     <g id="line2d_2">
      <g>
       <use xlink:href="#m8f1de1206a" x="247.96815" y="128.528148" style="stroke: #000000; stroke-width: 0.8"/>
      </g>
     </g>
     <g id="text_2">
      <!-- −2 -->
      <g transform="translate(240.597056 143.126585) scale(0.1 -0.1)">
       <defs>
        <path id="DejaVuSans-32" d="M 1228 531 
L 3431 531 
L 3431 0 
L 469 0 
L 469 531 
Q 828 903 1448 1529 
Q 2069 2156 2228 2338 
Q 2531 2678 2651 2914 
Q 2772 3150 2772 3378 
Q 2772 3750 2511 3984 
Q 2250 4219 1831 4219 
Q 1534 4219 1204 4116 
Q 875 4013 500 3803 
L 500 4441 
Q 881 4594 1212 4672 
Q 1544 4750 1819 4750 
Q 2544 4750 2975 4387 
Q 3406 4025 3406 3419 
Q 3406 3131 3298 2873 
Q 3191 2616 2906 2266 
Q 2828 2175 2409 1742 
Q 1991 1309 1228 531 
z
" transform="scale(0.015625)"/>
       </defs>
       <use xlink:href="#DejaVuSans-2212"/>
       <use xlink:href="#DejaVuSans-32" x="83.789062"/>
      </g>
     </g>
    </g>
    <g id="xtick_3">
     <g id="line2d_3">
      <g>
       <use xlink:href="#m8f1de1206a" x="437.785496" y="128.528148" style="stroke: #000000; stroke-width: 0.8"/>
      </g>
     </g>
     <g id="text_3">
      <!-- 0 -->
      <g transform="translate(434.604246 143.126585) scale(0.1 -0.1)">
       <defs>
        <path id="DejaVuSans-30" d="M 2034 4250 
Q 1547 4250 1301 3770 
Q 1056 3291 1056 2328 
Q 1056 1369 1301 889 
Q 1547 409 2034 409 
Q 2525 409 2770 889 
Q 3016 1369 3016 2328 
Q 3016 3291 2770 3770 
Q 2525 4250 2034 4250 
z
M 2034 4750 
Q 2819 4750 3233 4129 
Q 3647 3509 3647 2328 
Q 3647 1150 3233 529 
Q 2819 -91 2034 -91 
Q 1250 -91 836 529 
Q 422 1150 422 2328 
Q 422 3509 836 4129 
Q 1250 4750 2034 4750 
z
" transform="scale(0.015625)"/>
       </defs>
       <use xlink:href="#DejaVuSans-30"/>
      </g>
     </g>
    </g>
    <g id="xtick_4">
     <g id="line2d_4">
      <g>
       <use xlink:href="#m8f1de1206a" x="627.602843" y="128.528148" style="stroke: #000000; stroke-width: 0.8"/>
      </g>
     </g>
     <g id="text_4">
      <!-- 2 -->
      <g transform="translate(624.421593 143.126585) scale(0.1 -0.1)">
       <use xlink:href="#DejaVuSans-32"/>
      </g>
     </g>
    </g>
    <g id="xtick_5">
     <g id="line2d_5">
      <g>
       <use xlink:href="#m8f1de1206a" x="817.420189" y="128.528148" style="stroke: #000000; stroke-width: 0.8"/>
      </g>
     </g>
     <g id="text_5">
      <!-- 4 -->
      <g transform="translate(814.238939 143.126585) scale(0.1 -0.1)">
       <use xlink:href="#DejaVuSans-34"/>
      </g>
     </g>
    </g>
   </g>
   <g id="matplotlib.axis_2"/>
   <g id="line2d_6">
    <path d="M 68.359405 128.528148 
L 68.359405 20.214138 
" clip-path="url(#p2486563038)" style="fill: none; stroke: #000000; stroke-width: 1.5; stroke-linecap: square"/>
   </g>
   <g id="line2d_7">
    <path d="M 123.653761 128.528148 
L 123.653761 20.214138 
" clip-path="url(#p2486563038)" style="fill: none; stroke: #000000; stroke-width: 1.5; stroke-linecap: square"/>
   </g>
   <g id="line2d_8">
    <path d="M 178.948118 128.528148 
L 178.948118 20.214138 
" clip-path="url(#p2486563038)" style="fill: none; stroke: #000000; stroke-width: 1.5; stroke-linecap: square"/>
   </g>
   <g id="line2d_9">
    <path d="M 234.242475 128.528148 
L 234.242475 20.214138 
" clip-path="url(#p2486563038)" style="fill: none; stroke: #000000; stroke-width: 1.5; stroke-linecap: square"/>
   </g>
   <g id="line2d_10">
    <path d="M 289.536831 128.528148 
L 289.536831 20.214138 
" clip-path="url(#p2486563038)" style="fill: none; stroke: #000000; stroke-width: 1.5; stroke-linecap: square"/>
   </g>
   <g id="line2d_11">
    <path d="M 344.831188 128.528148 
L 344.831188 20.214138 
" clip-path="url(#p2486563038)" style="fill: none; stroke: #000000; stroke-width: 1.5; stroke-linecap: square"/>
   </g>
   <g id="line2d_12">
    <path d="M 400.125545 128.528148 
L 400.125545 20.214138 
" clip-path="url(#p2486563038)" style="fill: none; stroke: #000000; stroke-width: 1.5; stroke-linecap: square"/>
   </g>
   <g id="line2d_13">
    <path d="M 455.419901 128.528148 
L 455.419901 20.214138 
" clip-path="url(#p2486563038)" style="fill: none; stroke: #000000; stroke-width: 1.5; stroke-linecap: square"/>
   </g>
   <g id="line2d_14">
    <path d="M 510.714258 128.528148 
L 510.714258 20.214138 
" clip-path="url(#p2486563038)" style="fill: none; stroke: #000000; stroke-width: 1.5; stroke-linecap: square"/>
   </g>
   <g id="line2d_15">
    <path d="M 566.008614 128.528148 
L 566.008614 20.214138 
" clip-path="url(#p2486563038)" style="fill: none; stroke: #000000; stroke-width: 1.5; stroke-linecap: square"/>
   </g>
   <g id="line2d_16">
    <path d="M 621.302971 128.528148 
L 621.302971 20.214138 
" clip-path="url(#p2486563038)" style="fill: none; stroke: #000000; stroke-width: 1.5; stroke-linecap: square"/>
   </g>
   <g id="line2d_17">
    <path d="M 676.597328 128.528148 
L 676.597328 20.214138 
" clip-path="url(#p2486563038)" style="fill: none; stroke: #000000; stroke-width: 1.5; stroke-linecap: square"/>
   </g>
   <g id="line2d_18">
    <path d="M 731.891684 128.528148 
L 731.891684 20.214138 
" clip-path="url(#p2486563038)" style="fill: none; stroke: #000000; stroke-width: 1.5; stroke-linecap: square"/>
   </g>
   <g id="line2d_19">
    <path d="M 27.126365 128.528148 
L 27.126365 20.214138 
" clip-path="url(#p2486563038)" style="fill: none; stroke: #ff0000; stroke-width: 1.5; stroke-linecap: square"/>
   </g>
   <g id="line2d_20">
    <path d="M 437.785496 128.528148 
L 437.785496 20.214138 
" clip-path="url(#p2486563038)" style="fill: none; stroke: #ff0000; stroke-width: 1.5; stroke-linecap: square"/>
   </g>
   <g id="patch_3">
    <path d="M 10.7 128.528148 
L 10.7 20.214138 
" style="fill: none; stroke: #000000; stroke-width: 0.8; stroke-linejoin: miter; stroke-linecap: square"/>
   </g>
   <g id="patch_4">
    <path d="M 865.19952 128.528148 
L 865.19952 20.214138 
" style="fill: none; stroke: #000000; stroke-width: 0.8; stroke-linejoin: miter; stroke-linecap: square"/>
   </g>
   <g id="patch_5">
    <path d="M 10.7 128.528148 
L 865.19952 128.528148 
" style="fill: none; stroke: #000000; stroke-width: 0.8; stroke-linejoin: miter; stroke-linecap: square"/>
   </g>
   <g id="patch_6">
    <path d="M 10.7 20.214138 
L 865.19952 20.214138 
" style="fill: none; stroke: #000000; stroke-width: 0.8; stroke-linejoin: miter; stroke-linecap: square"/>
   </g>
   <g id="text_6">
    <g id="patch_7">
     <path d="M 26.126365 104.10708 
L 26.126365 44.635205 
Q 26.126365 44.635205 26.126365 44.635205 
L 16.44824 44.635205 
Q 16.44824 44.635205 16.44824 44.635205 
L 16.44824 104.10708 
Q 16.44824 104.10708 16.44824 104.10708 
L 26.126365 104.10708 
Q 26.126365 104.10708 26.126365 104.10708 
z
" style="fill: #ffffff"/>
    </g>
    <!-- min=-4.327 -->
    <g transform="translate(24.046678 104.10708) rotate(-90) scale(0.1 -0.1)">
     <defs>
      <path id="DejaVuSans-6d" d="M 3328 2828 
Q 3544 3216 3844 3400 
Q 4144 3584 4550 3584 
Q 5097 3584 5394 3201 
Q 5691 2819 5691 2113 
L 5691 0 
L 5113 0 
L 5113 2094 
Q 5113 2597 4934 2840 
Q 4756 3084 4391 3084 
Q 3944 3084 3684 2787 
Q 3425 2491 3425 1978 
L 3425 0 
L 2847 0 
L 2847 2094 
Q 2847 2600 2669 2842 
Q 2491 3084 2119 3084 
Q 1678 3084 1418 2786 
Q 1159 2488 1159 1978 
L 1159 0 
L 581 0 
L 581 3500 
L 1159 3500 
L 1159 2956 
Q 1356 3278 1631 3431 
Q 1906 3584 2284 3584 
Q 2666 3584 2933 3390 
Q 3200 3197 3328 2828 
z
" transform="scale(0.015625)"/>
      <path id="DejaVuSans-69" d="M 603 3500 
L 1178 3500 
L 1178 0 
L 603 0 
L 603 3500 
z
M 603 4863 
L 1178 4863 
L 1178 4134 
L 603 4134 
L 603 4863 
z
" transform="scale(0.015625)"/>
      <path id="DejaVuSans-6e" d="M 3513 2113 
L 3513 0 
L 2938 0 
L 2938 2094 
Q 2938 2591 2744 2837 
Q 2550 3084 2163 3084 
Q 1697 3084 1428 2787 
Q 1159 2491 1159 1978 
L 1159 0 
L 581 0 
L 581 3500 
L 1159 3500 
L 1159 2956 
Q 1366 3272 1645 3428 
Q 1925 3584 2291 3584 
Q 2894 3584 3203 3211 
Q 3513 2838 3513 2113 
z
" transform="scale(0.015625)"/>
      <path id="DejaVuSans-3d" d="M 678 2906 
L 4684 2906 
L 4684 2381 
L 678 2381 
L 678 2906 
z
M 678 1631 
L 4684 1631 
L 4684 1100 
L 678 1100 
L 678 1631 
z
" transform="scale(0.015625)"/>
      <path id="DejaVuSans-2d" d="M 313 2009 
L 1997 2009 
L 1997 1497 
L 313 1497 
L 313 2009 
z
" transform="scale(0.015625)"/>
      <path id="DejaVuSans-2e" d="M 684 794 
L 1344 794 
L 1344 0 
L 684 0 
L 684 794 
z
" transform="scale(0.015625)"/>
      <path id="DejaVuSans-33" d="M 2597 2516 
Q 3050 2419 3304 2112 
Q 3559 1806 3559 1356 
Q 3559 666 3084 287 
Q 2609 -91 1734 -91 
Q 1441 -91 1130 -33 
Q 819 25 488 141 
L 488 750 
Q 750 597 1062 519 
Q 1375 441 1716 441 
Q 2309 441 2620 675 
Q 2931 909 2931 1356 
Q 2931 1769 2642 2001 
Q 2353 2234 1838 2234 
L 1294 2234 
L 1294 2753 
L 1863 2753 
Q 2328 2753 2575 2939 
Q 2822 3125 2822 3475 
Q 2822 3834 2567 4026 
Q 2313 4219 1838 4219 
Q 1578 4219 1281 4162 
Q 984 4106 628 3988 
L 628 4550 
Q 988 4650 1302 4700 
Q 1616 4750 1894 4750 
Q 2613 4750 3031 4423 
Q 3450 4097 3450 3541 
Q 3450 3153 3228 2886 
Q 3006 2619 2597 2516 
z
" transform="scale(0.015625)"/>
      <path id="DejaVuSans-37" d="M 525 4666 
L 3525 4666 
L 3525 4397 
L 1831 0 
L 1172 0 
L 2766 4134 
L 525 4134 
L 525 4666 
z
" transform="scale(0.015625)"/>
     </defs>
     <use xlink:href="#DejaVuSans-6d"/>
     <use xlink:href="#DejaVuSans-69" x="97.412109"/>
     <use xlink:href="#DejaVuSans-6e" x="125.195312"/>
     <use xlink:href="#DejaVuSans-3d" x="188.574219"/>
     <use xlink:href="#DejaVuSans-2d" x="272.363281"/>
     <use xlink:href="#DejaVuSans-34" x="308.447266"/>
     <use xlink:href="#DejaVuSans-2e" x="372.070312"/>
     <use xlink:href="#DejaVuSans-33" x="403.857422"/>
     <use xlink:href="#DejaVuSans-32" x="467.480469"/>
     <use xlink:href="#DejaVuSans-37" x="531.103516"/>
    </g>
   </g>
   <g id="text_7">
    <g id="patch_8">
     <path d="M 449.463621 94.225049 
L 449.463621 54.517237 
Q 449.463621 54.517237 449.463621 54.517237 
L 439.785496 54.517237 
Q 439.785496 54.517237 439.785496 54.517237 
L 439.785496 94.225049 
Q 439.785496 94.225049 439.785496 94.225049 
L 449.463621 94.225049 
Q 449.463621 94.225049 449.463621 94.225049 
z
" style="fill: #ffffff"/>
    </g>
    <!-- max=0. -->
    <g transform="translate(447.383934 94.225049) rotate(-90) scale(0.1 -0.1)">
     <defs>
      <path id="DejaVuSans-61" d="M 2194 1759 
Q 1497 1759 1228 1600 
Q 959 1441 959 1056 
Q 959 750 1161 570 
Q 1363 391 1709 391 
Q 2188 391 2477 730 
Q 2766 1069 2766 1631 
L 2766 1759 
L 2194 1759 
z
M 3341 1997 
L 3341 0 
L 2766 0 
L 2766 531 
Q 2569 213 2275 61 
Q 1981 -91 1556 -91 
Q 1019 -91 701 211 
Q 384 513 384 1019 
Q 384 1609 779 1909 
Q 1175 2209 1959 2209 
L 2766 2209 
L 2766 2266 
Q 2766 2663 2505 2880 
Q 2244 3097 1772 3097 
Q 1472 3097 1187 3025 
Q 903 2953 641 2809 
L 641 3341 
Q 956 3463 1253 3523 
Q 1550 3584 1831 3584 
Q 2591 3584 2966 3190 
Q 3341 2797 3341 1997 
z
" transform="scale(0.015625)"/>
      <path id="DejaVuSans-78" d="M 3513 3500 
L 2247 1797 
L 3578 0 
L 2900 0 
L 1881 1375 
L 863 0 
L 184 0 
L 1544 1831 
L 300 3500 
L 978 3500 
L 1906 2253 
L 2834 3500 
L 3513 3500 
z
" transform="scale(0.015625)"/>
     </defs>
     <use xlink:href="#DejaVuSans-6d"/>
     <use xlink:href="#DejaVuSans-61" x="97.412109"/>
     <use xlink:href="#DejaVuSans-78" x="158.691406"/>
     <use xlink:href="#DejaVuSans-3d" x="217.871094"/>
     <use xlink:href="#DejaVuSans-30" x="301.660156"/>
     <use xlink:href="#DejaVuSans-2e" x="365.283203"/>
    </g>
   </g>
   <g id="text_8">
    <!-- 10000 samples (μ=-0.397, σ=0.583) of array[100000] x∈[-4.327, 0.] μ=-0.396 σ=0.581 -->
    <g transform="translate(10.7 14.798437) scale(0.1 -0.1)">
     <defs>
      <path id="DejaVuSans-31" d="M 794 531 
L 1825 531 
L 1825 4091 
L 703 3866 
L 703 4441 
L 1819 4666 
L 2450 4666 
L 2450 531 
L 3481 531 
L 3481 0 
L 794 0 
L 794 531 
z
" transform="scale(0.015625)"/>
      <path id="DejaVuSans-20" transform="scale(0.015625)"/>
      <path id="DejaVuSans-73" d="M 2834 3397 
L 2834 2853 
Q 2591 2978 2328 3040 
Q 2066 3103 1784 3103 
Q 1356 3103 1142 2972 
Q 928 2841 928 2578 
Q 928 2378 1081 2264 
Q 1234 2150 1697 2047 
L 1894 2003 
Q 2506 1872 2764 1633 
Q 3022 1394 3022 966 
Q 3022 478 2636 193 
Q 2250 -91 1575 -91 
Q 1294 -91 989 -36 
Q 684 19 347 128 
L 347 722 
Q 666 556 975 473 
Q 1284 391 1588 391 
Q 1994 391 2212 530 
Q 2431 669 2431 922 
Q 2431 1156 2273 1281 
Q 2116 1406 1581 1522 
L 1381 1569 
Q 847 1681 609 1914 
Q 372 2147 372 2553 
Q 372 3047 722 3315 
Q 1072 3584 1716 3584 
Q 2034 3584 2315 3537 
Q 2597 3491 2834 3397 
z
" transform="scale(0.015625)"/>
      <path id="DejaVuSans-70" d="M 1159 525 
L 1159 -1331 
L 581 -1331 
L 581 3500 
L 1159 3500 
L 1159 2969 
Q 1341 3281 1617 3432 
Q 1894 3584 2278 3584 
Q 2916 3584 3314 3078 
Q 3713 2572 3713 1747 
Q 3713 922 3314 415 
Q 2916 -91 2278 -91 
Q 1894 -91 1617 61 
Q 1341 213 1159 525 
z
M 3116 1747 
Q 3116 2381 2855 2742 
Q 2594 3103 2138 3103 
Q 1681 3103 1420 2742 
Q 1159 2381 1159 1747 
Q 1159 1113 1420 752 
Q 1681 391 2138 391 
Q 2594 391 2855 752 
Q 3116 1113 3116 1747 
z
" transform="scale(0.015625)"/>
      <path id="DejaVuSans-6c" d="M 603 4863 
L 1178 4863 
L 1178 0 
L 603 0 
L 603 4863 
z
" transform="scale(0.015625)"/>
      <path id="DejaVuSans-65" d="M 3597 1894 
L 3597 1613 
L 953 1613 
Q 991 1019 1311 708 
Q 1631 397 2203 397 
Q 2534 397 2845 478 
Q 3156 559 3463 722 
L 3463 178 
Q 3153 47 2828 -22 
Q 2503 -91 2169 -91 
Q 1331 -91 842 396 
Q 353 884 353 1716 
Q 353 2575 817 3079 
Q 1281 3584 2069 3584 
Q 2775 3584 3186 3129 
Q 3597 2675 3597 1894 
z
M 3022 2063 
Q 3016 2534 2758 2815 
Q 2500 3097 2075 3097 
Q 1594 3097 1305 2825 
Q 1016 2553 972 2059 
L 3022 2063 
z
" transform="scale(0.015625)"/>
      <path id="DejaVuSans-28" d="M 1984 4856 
Q 1566 4138 1362 3434 
Q 1159 2731 1159 2009 
Q 1159 1288 1364 580 
Q 1569 -128 1984 -844 
L 1484 -844 
Q 1016 -109 783 600 
Q 550 1309 550 2009 
Q 550 2706 781 3412 
Q 1013 4119 1484 4856 
L 1984 4856 
z
" transform="scale(0.015625)"/>
      <path id="DejaVuSans-3bc" d="M 544 -1331 
L 544 3500 
L 1119 3500 
L 1119 1325 
Q 1119 872 1334 640 
Q 1550 409 1972 409 
Q 2434 409 2667 671 
Q 2900 934 2900 1459 
L 2900 3500 
L 3475 3500 
L 3475 806 
Q 3475 619 3529 530 
Q 3584 441 3700 441 
Q 3728 441 3778 458 
Q 3828 475 3916 513 
L 3916 50 
Q 3788 -22 3673 -56 
Q 3559 -91 3450 -91 
Q 3234 -91 3106 31 
Q 2978 153 2931 403 
Q 2775 156 2548 32 
Q 2322 -91 2016 -91 
Q 1697 -91 1473 31 
Q 1250 153 1119 397 
L 1119 -1331 
L 544 -1331 
z
" transform="scale(0.015625)"/>
      <path id="DejaVuSans-39" d="M 703 97 
L 703 672 
Q 941 559 1184 500 
Q 1428 441 1663 441 
Q 2288 441 2617 861 
Q 2947 1281 2994 2138 
Q 2813 1869 2534 1725 
Q 2256 1581 1919 1581 
Q 1219 1581 811 2004 
Q 403 2428 403 3163 
Q 403 3881 828 4315 
Q 1253 4750 1959 4750 
Q 2769 4750 3195 4129 
Q 3622 3509 3622 2328 
Q 3622 1225 3098 567 
Q 2575 -91 1691 -91 
Q 1453 -91 1209 -44 
Q 966 3 703 97 
z
M 1959 2075 
Q 2384 2075 2632 2365 
Q 2881 2656 2881 3163 
Q 2881 3666 2632 3958 
Q 2384 4250 1959 4250 
Q 1534 4250 1286 3958 
Q 1038 3666 1038 3163 
Q 1038 2656 1286 2365 
Q 1534 2075 1959 2075 
z
" transform="scale(0.015625)"/>
      <path id="DejaVuSans-2c" d="M 750 794 
L 1409 794 
L 1409 256 
L 897 -744 
L 494 -744 
L 750 256 
L 750 794 
z
" transform="scale(0.015625)"/>
      <path id="DejaVuSans-3c3" d="M 1959 3044 
Q 1484 3044 1228 2700 
Q 959 2341 959 1747 
Q 959 1119 1226 758 
Q 1494 397 1959 397 
Q 2419 397 2687 759 
Q 2956 1122 2956 1747 
Q 2956 2319 2688 2700 
Q 2441 3044 1959 3044 
z
M 1959 3500 
L 3869 3500 
L 3869 2925 
L 3225 2925 
Q 3566 2438 3566 1747 
Q 3566 888 3138 400 
Q 2709 -91 1959 -91 
Q 1206 -91 781 400 
Q 353 888 353 1747 
Q 353 2613 781 3097 
Q 1134 3500 1959 3500 
z
" transform="scale(0.015625)"/>
      <path id="DejaVuSans-35" d="M 691 4666 
L 3169 4666 
L 3169 4134 
L 1269 4134 
L 1269 2991 
Q 1406 3038 1543 3061 
Q 1681 3084 1819 3084 
Q 2600 3084 3056 2656 
Q 3513 2228 3513 1497 
Q 3513 744 3044 326 
Q 2575 -91 1722 -91 
Q 1428 -91 1123 -41 
Q 819 9 494 109 
L 494 744 
Q 775 591 1075 516 
Q 1375 441 1709 441 
Q 2250 441 2565 725 
Q 2881 1009 2881 1497 
Q 2881 1984 2565 2268 
Q 2250 2553 1709 2553 
Q 1456 2553 1204 2497 
Q 953 2441 691 2322 
L 691 4666 
z
" transform="scale(0.015625)"/>
      <path id="DejaVuSans-38" d="M 2034 2216 
Q 1584 2216 1326 1975 
Q 1069 1734 1069 1313 
Q 1069 891 1326 650 
Q 1584 409 2034 409 
Q 2484 409 2743 651 
Q 3003 894 3003 1313 
Q 3003 1734 2745 1975 
Q 2488 2216 2034 2216 
z
M 1403 2484 
Q 997 2584 770 2862 
Q 544 3141 544 3541 
Q 544 4100 942 4425 
Q 1341 4750 2034 4750 
Q 2731 4750 3128 4425 
Q 3525 4100 3525 3541 
Q 3525 3141 3298 2862 
Q 3072 2584 2669 2484 
Q 3125 2378 3379 2068 
Q 3634 1759 3634 1313 
Q 3634 634 3220 271 
Q 2806 -91 2034 -91 
Q 1263 -91 848 271 
Q 434 634 434 1313 
Q 434 1759 690 2068 
Q 947 2378 1403 2484 
z
M 1172 3481 
Q 1172 3119 1398 2916 
Q 1625 2713 2034 2713 
Q 2441 2713 2670 2916 
Q 2900 3119 2900 3481 
Q 2900 3844 2670 4047 
Q 2441 4250 2034 4250 
Q 1625 4250 1398 4047 
Q 1172 3844 1172 3481 
z
" transform="scale(0.015625)"/>
      <path id="DejaVuSans-29" d="M 513 4856 
L 1013 4856 
Q 1481 4119 1714 3412 
Q 1947 2706 1947 2009 
Q 1947 1309 1714 600 
Q 1481 -109 1013 -844 
L 513 -844 
Q 928 -128 1133 580 
Q 1338 1288 1338 2009 
Q 1338 2731 1133 3434 
Q 928 4138 513 4856 
z
" transform="scale(0.015625)"/>
      <path id="DejaVuSans-6f" d="M 1959 3097 
Q 1497 3097 1228 2736 
Q 959 2375 959 1747 
Q 959 1119 1226 758 
Q 1494 397 1959 397 
Q 2419 397 2687 759 
Q 2956 1122 2956 1747 
Q 2956 2369 2687 2733 
Q 2419 3097 1959 3097 
z
M 1959 3584 
Q 2709 3584 3137 3096 
Q 3566 2609 3566 1747 
Q 3566 888 3137 398 
Q 2709 -91 1959 -91 
Q 1206 -91 779 398 
Q 353 888 353 1747 
Q 353 2609 779 3096 
Q 1206 3584 1959 3584 
z
" transform="scale(0.015625)"/>
      <path id="DejaVuSans-66" d="M 2375 4863 
L 2375 4384 
L 1825 4384 
Q 1516 4384 1395 4259 
Q 1275 4134 1275 3809 
L 1275 3500 
L 2222 3500 
L 2222 3053 
L 1275 3053 
L 1275 0 
L 697 0 
L 697 3053 
L 147 3053 
L 147 3500 
L 697 3500 
L 697 3744 
Q 697 4328 969 4595 
Q 1241 4863 1831 4863 
L 2375 4863 
z
" transform="scale(0.015625)"/>
      <path id="DejaVuSans-72" d="M 2631 2963 
Q 2534 3019 2420 3045 
Q 2306 3072 2169 3072 
Q 1681 3072 1420 2755 
Q 1159 2438 1159 1844 
L 1159 0 
L 581 0 
L 581 3500 
L 1159 3500 
L 1159 2956 
Q 1341 3275 1631 3429 
Q 1922 3584 2338 3584 
Q 2397 3584 2469 3576 
Q 2541 3569 2628 3553 
L 2631 2963 
z
" transform="scale(0.015625)"/>
      <path id="DejaVuSans-79" d="M 2059 -325 
Q 1816 -950 1584 -1140 
Q 1353 -1331 966 -1331 
L 506 -1331 
L 506 -850 
L 844 -850 
Q 1081 -850 1212 -737 
Q 1344 -625 1503 -206 
L 1606 56 
L 191 3500 
L 800 3500 
L 1894 763 
L 2988 3500 
L 3597 3500 
L 2059 -325 
z
" transform="scale(0.015625)"/>
      <path id="DejaVuSans-5b" d="M 550 4863 
L 1875 4863 
L 1875 4416 
L 1125 4416 
L 1125 -397 
L 1875 -397 
L 1875 -844 
L 550 -844 
L 550 4863 
z
" transform="scale(0.015625)"/>
      <path id="DejaVuSans-5d" d="M 1947 4863 
L 1947 -844 
L 622 -844 
L 622 -397 
L 1369 -397 
L 1369 4416 
L 622 4416 
L 622 4863 
L 1947 4863 
z
" transform="scale(0.015625)"/>
      <path id="DejaVuSans-2208" d="M 1072 1959 
Q 1094 1728 1291 1353 
Q 1522 919 1959 675 
Q 2388 438 2850 434 
L 5028 434 
L 5028 -63 
L 2850 -63 
Q 2250 -63 1695 246 
Q 1141 556 844 1106 
Q 547 1656 547 2241 
Q 547 2819 844 3369 
Q 1141 3919 1695 4231 
Q 2250 4544 2850 4544 
L 5028 4544 
L 5028 4047 
L 2850 4047 
Q 2388 4044 1959 3803 
Q 1525 3556 1291 3125 
Q 1091 2750 1063 2459 
L 5028 2459 
L 5028 1959 
L 1072 1959 
z
" transform="scale(0.015625)"/>
      <path id="DejaVuSans-36" d="M 2113 2584 
Q 1688 2584 1439 2293 
Q 1191 2003 1191 1497 
Q 1191 994 1439 701 
Q 1688 409 2113 409 
Q 2538 409 2786 701 
Q 3034 994 3034 1497 
Q 3034 2003 2786 2293 
Q 2538 2584 2113 2584 
z
M 3366 4563 
L 3366 3988 
Q 3128 4100 2886 4159 
Q 2644 4219 2406 4219 
Q 1781 4219 1451 3797 
Q 1122 3375 1075 2522 
Q 1259 2794 1537 2939 
Q 1816 3084 2150 3084 
Q 2853 3084 3261 2657 
Q 3669 2231 3669 1497 
Q 3669 778 3244 343 
Q 2819 -91 2113 -91 
Q 1303 -91 875 529 
Q 447 1150 447 2328 
Q 447 3434 972 4092 
Q 1497 4750 2381 4750 
Q 2619 4750 2861 4703 
Q 3103 4656 3366 4563 
z
" transform="scale(0.015625)"/>
     </defs>
     <use xlink:href="#DejaVuSans-31"/>
     <use xlink:href="#DejaVuSans-30" x="63.623047"/>
     <use xlink:href="#DejaVuSans-30" x="127.246094"/>
     <use xlink:href="#DejaVuSans-30" x="190.869141"/>
     <use xlink:href="#DejaVuSans-30" x="254.492188"/>
     <use xlink:href="#DejaVuSans-20" x="318.115234"/>
     <use xlink:href="#DejaVuSans-73" x="349.902344"/>
     <use xlink:href="#DejaVuSans-61" x="402.001953"/>
     <use xlink:href="#DejaVuSans-6d" x="463.28125"/>
     <use xlink:href="#DejaVuSans-70" x="560.693359"/>
     <use xlink:href="#DejaVuSans-6c" x="624.169922"/>
     <use xlink:href="#DejaVuSans-65" x="651.953125"/>
     <use xlink:href="#DejaVuSans-73" x="713.476562"/>
     <use xlink:href="#DejaVuSans-20" x="765.576172"/>
     <use xlink:href="#DejaVuSans-28" x="797.363281"/>
     <use xlink:href="#DejaVuSans-3bc" x="836.376953"/>
     <use xlink:href="#DejaVuSans-3d" x="900"/>
     <use xlink:href="#DejaVuSans-2d" x="983.789062"/>
     <use xlink:href="#DejaVuSans-30" x="1019.873047"/>
     <use xlink:href="#DejaVuSans-2e" x="1083.496094"/>
     <use xlink:href="#DejaVuSans-33" x="1115.283203"/>
     <use xlink:href="#DejaVuSans-39" x="1178.90625"/>
     <use xlink:href="#DejaVuSans-37" x="1242.529297"/>
     <use xlink:href="#DejaVuSans-2c" x="1306.152344"/>
     <use xlink:href="#DejaVuSans-20" x="1337.939453"/>
     <use xlink:href="#DejaVuSans-3c3" x="1369.726562"/>
     <use xlink:href="#DejaVuSans-3d" x="1433.105469"/>
     <use xlink:href="#DejaVuSans-30" x="1516.894531"/>
     <use xlink:href="#DejaVuSans-2e" x="1580.517578"/>
     <use xlink:href="#DejaVuSans-35" x="1612.304688"/>
     <use xlink:href="#DejaVuSans-38" x="1675.927734"/>
     <use xlink:href="#DejaVuSans-33" x="1739.550781"/>
     <use xlink:href="#DejaVuSans-29" x="1803.173828"/>
     <use xlink:href="#DejaVuSans-20" x="1842.1875"/>
     <use xlink:href="#DejaVuSans-6f" x="1873.974609"/>
     <use xlink:href="#DejaVuSans-66" x="1935.15625"/>
     <use xlink:href="#DejaVuSans-20" x="1970.361328"/>
     <use xlink:href="#DejaVuSans-61" x="2002.148438"/>
     <use xlink:href="#DejaVuSans-72" x="2063.427734"/>
     <use xlink:href="#DejaVuSans-72" x="2102.791016"/>
     <use xlink:href="#DejaVuSans-61" x="2143.904297"/>
     <use xlink:href="#DejaVuSans-79" x="2205.183594"/>
     <use xlink:href="#DejaVuSans-5b" x="2264.363281"/>
     <use xlink:href="#DejaVuSans-31" x="2303.376953"/>
     <use xlink:href="#DejaVuSans-30" x="2367"/>
     <use xlink:href="#DejaVuSans-30" x="2430.623047"/>
     <use xlink:href="#DejaVuSans-30" x="2494.246094"/>
     <use xlink:href="#DejaVuSans-30" x="2557.869141"/>
     <use xlink:href="#DejaVuSans-30" x="2621.492188"/>
     <use xlink:href="#DejaVuSans-5d" x="2685.115234"/>
     <use xlink:href="#DejaVuSans-20" x="2724.128906"/>
     <use xlink:href="#DejaVuSans-78" x="2755.916016"/>
     <use xlink:href="#DejaVuSans-2208" x="2815.095703"/>
     <use xlink:href="#DejaVuSans-5b" x="2902.205078"/>
     <use xlink:href="#DejaVuSans-2d" x="2941.21875"/>
     <use xlink:href="#DejaVuSans-34" x="2977.302734"/>
     <use xlink:href="#DejaVuSans-2e" x="3040.925781"/>
     <use xlink:href="#DejaVuSans-33" x="3072.712891"/>
     <use xlink:href="#DejaVuSans-32" x="3136.335938"/>
     <use xlink:href="#DejaVuSans-37" x="3199.958984"/>
     <use xlink:href="#DejaVuSans-2c" x="3263.582031"/>
     <use xlink:href="#DejaVuSans-20" x="3295.369141"/>
     <use xlink:href="#DejaVuSans-30" x="3327.15625"/>
     <use xlink:href="#DejaVuSans-2e" x="3390.779297"/>
     <use xlink:href="#DejaVuSans-5d" x="3422.566406"/>
     <use xlink:href="#DejaVuSans-20" x="3461.580078"/>
     <use xlink:href="#DejaVuSans-3bc" x="3493.367188"/>
     <use xlink:href="#DejaVuSans-3d" x="3556.990234"/>
     <use xlink:href="#DejaVuSans-2d" x="3640.779297"/>
     <use xlink:href="#DejaVuSans-30" x="3676.863281"/>
     <use xlink:href="#DejaVuSans-2e" x="3740.486328"/>
     <use xlink:href="#DejaVuSans-33" x="3772.273438"/>
     <use xlink:href="#DejaVuSans-39" x="3835.896484"/>
     <use xlink:href="#DejaVuSans-36" x="3899.519531"/>
     <use xlink:href="#DejaVuSans-20" x="3963.142578"/>
     <use xlink:href="#DejaVuSans-3c3" x="3994.929688"/>
     <use xlink:href="#DejaVuSans-3d" x="4058.308594"/>
     <use xlink:href="#DejaVuSans-30" x="4142.097656"/>
     <use xlink:href="#DejaVuSans-2e" x="4205.720703"/>
     <use xlink:href="#DejaVuSans-35" x="4237.507812"/>
     <use xlink:href="#DejaVuSans-38" x="4301.130859"/>
     <use xlink:href="#DejaVuSans-31" x="4364.753906"/>
    </g>
   </g>
   <g id="patch_9">
    <path d="M 93.721947 128.528148 
L 102.113741 128.528148 
L 102.113741 128.513439 
L 93.721947 128.513439 
z
" clip-path="url(#p2486563038)" style="fill: #00bfff"/>
   </g>
   <g id="patch_10">
    <path d="M 102.113741 128.528148 
L 110.505535 128.528148 
L 110.505535 128.498731 
L 102.113741 128.498731 
z
" clip-path="url(#p2486563038)" style="fill: #00bfff"/>
   </g>
   <g id="patch_11">
    <path d="M 110.505535 128.528148 
L 118.897329 128.528148 
L 118.897329 128.498731 
L 110.505535 128.498731 
z
" clip-path="url(#p2486563038)" style="fill: #00bfff"/>
   </g>
   <g id="patch_12">
    <path d="M 118.897329 128.528148 
L 127.289123 128.528148 
L 127.289123 128.528148 
L 118.897329 128.528148 
z
" clip-path="url(#p2486563038)" style="fill: #00bfff"/>
   </g>
   <g id="patch_13">
    <path d="M 127.289123 128.528148 
L 135.680917 128.528148 
L 135.680917 128.498731 
L 127.289123 128.498731 
z
" clip-path="url(#p2486563038)" style="fill: #00bfff"/>
   </g>
   <g id="patch_14">
    <path d="M 135.680917 128.528148 
L 144.072711 128.528148 
L 144.072711 128.484023 
L 135.680917 128.484023 
z
" clip-path="url(#p2486563038)" style="fill: #00bfff"/>
   </g>
   <g id="patch_15">
    <path d="M 144.072711 128.528148 
L 152.464504 128.528148 
L 152.464504 128.498731 
L 144.072711 128.498731 
z
" clip-path="url(#p2486563038)" style="fill: #00bfff"/>
   </g>
   <g id="patch_16">
    <path d="M 152.464504 128.528148 
L 160.856298 128.528148 
L 160.856298 128.469315 
L 152.464504 128.469315 
z
" clip-path="url(#p2486563038)" style="fill: #00bfff"/>
   </g>
   <g id="patch_17">
    <path d="M 160.856298 128.528148 
L 169.248092 128.528148 
L 169.248092 128.439898 
L 160.856298 128.439898 
z
" clip-path="url(#p2486563038)" style="fill: #00bfff"/>
   </g>
   <g id="patch_18">
    <path d="M 169.248092 128.528148 
L 177.639886 128.528148 
L 177.639886 128.336941 
L 169.248092 128.336941 
z
" clip-path="url(#p2486563038)" style="fill: #00bfff"/>
   </g>
   <g id="patch_19">
    <path d="M 177.639886 128.528148 
L 186.03168 128.528148 
L 186.03168 128.410482 
L 177.639886 128.410482 
z
" clip-path="url(#p2486563038)" style="fill: #00bfff"/>
   </g>
   <g id="patch_20">
    <path d="M 186.03168 128.528148 
L 194.423474 128.528148 
L 194.423474 128.336941 
L 186.03168 128.336941 
z
" clip-path="url(#p2486563038)" style="fill: #00bfff"/>
   </g>
   <g id="patch_21">
    <path d="M 194.423474 128.528148 
L 202.815268 128.528148 
L 202.815268 128.248691 
L 194.423474 128.248691 
z
" clip-path="url(#p2486563038)" style="fill: #00bfff"/>
   </g>
   <g id="patch_22">
    <path d="M 202.815268 128.528148 
L 211.207062 128.528148 
L 211.207062 128.278108 
L 202.815268 128.278108 
z
" clip-path="url(#p2486563038)" style="fill: #00bfff"/>
   </g>
   <g id="patch_23">
    <path d="M 211.207062 128.528148 
L 219.598856 128.528148 
L 219.598856 128.233983 
L 211.207062 128.233983 
z
" clip-path="url(#p2486563038)" style="fill: #00bfff"/>
   </g>
   <g id="patch_24">
    <path d="M 219.598856 128.528148 
L 227.990649 128.528148 
L 227.990649 128.160442 
L 219.598856 128.160442 
z
" clip-path="url(#p2486563038)" style="fill: #00bfff"/>
   </g>
   <g id="patch_25">
    <path d="M 227.990649 128.528148 
L 236.382443 128.528148 
L 236.382443 128.072192 
L 227.990649 128.072192 
z
" clip-path="url(#p2486563038)" style="fill: #00bfff"/>
   </g>
   <g id="patch_26">
    <path d="M 236.382443 128.528148 
L 244.774237 128.528148 
L 244.774237 127.910402 
L 236.382443 127.910402 
z
" clip-path="url(#p2486563038)" style="fill: #00bfff"/>
   </g>
   <g id="patch_27">
    <path d="M 244.774237 128.528148 
L 253.166031 128.528148 
L 253.166031 127.895694 
L 244.774237 127.895694 
z
" clip-path="url(#p2486563038)" style="fill: #00bfff"/>
   </g>
   <g id="patch_28">
    <path d="M 253.166031 128.528148 
L 261.557825 128.528148 
L 261.557825 127.792736 
L 253.166031 127.792736 
z
" clip-path="url(#p2486563038)" style="fill: #00bfff"/>
   </g>
   <g id="patch_29">
    <path d="M 261.557825 128.528148 
L 269.949619 128.528148 
L 269.949619 127.513279 
L 261.557825 127.513279 
z
" clip-path="url(#p2486563038)" style="fill: #00bfff"/>
   </g>
   <g id="patch_30">
    <path d="M 269.949619 128.528148 
L 278.341413 128.528148 
L 278.341413 127.336781 
L 269.949619 127.336781 
z
" clip-path="url(#p2486563038)" style="fill: #00bfff"/>
   </g>
   <g id="patch_31">
    <path d="M 278.341413 128.528148 
L 286.733207 128.528148 
L 286.733207 127.366197 
L 278.341413 127.366197 
z
" clip-path="url(#p2486563038)" style="fill: #00bfff"/>
   </g>
   <g id="patch_32">
    <path d="M 286.733207 128.528148 
L 295.125 128.528148 
L 295.125 127.057324 
L 286.733207 127.057324 
z
" clip-path="url(#p2486563038)" style="fill: #00bfff"/>
   </g>
   <g id="patch_33">
    <path d="M 295.125 128.528148 
L 303.516794 128.528148 
L 303.516794 126.454287 
L 295.125 126.454287 
z
" clip-path="url(#p2486563038)" style="fill: #00bfff"/>
   </g>
   <g id="patch_34">
    <path d="M 303.516794 128.528148 
L 311.908588 128.528148 
L 311.908588 126.586661 
L 303.516794 126.586661 
z
" clip-path="url(#p2486563038)" style="fill: #00bfff"/>
   </g>
   <g id="patch_35">
    <path d="M 311.908588 128.528148 
L 320.300382 128.528148 
L 320.300382 126.145414 
L 311.908588 126.145414 
z
" clip-path="url(#p2486563038)" style="fill: #00bfff"/>
   </g>
   <g id="patch_36">
    <path d="M 320.300382 128.528148 
L 328.692176 128.528148 
L 328.692176 125.92479 
L 320.300382 125.92479 
z
" clip-path="url(#p2486563038)" style="fill: #00bfff"/>
   </g>
   <g id="patch_37">
    <path d="M 328.692176 128.528148 
L 337.08397 128.528148 
L 337.08397 125.645334 
L 328.692176 125.645334 
z
" clip-path="url(#p2486563038)" style="fill: #00bfff"/>
   </g>
   <g id="patch_38">
    <path d="M 337.08397 128.528148 
L 345.475764 128.528148 
L 345.475764 125.115837 
L 337.08397 125.115837 
z
" clip-path="url(#p2486563038)" style="fill: #00bfff"/>
   </g>
   <g id="patch_39">
    <path d="M 345.475764 128.528148 
L 353.867558 128.528148 
L 353.867558 125.17467 
L 345.475764 125.17467 
z
" clip-path="url(#p2486563038)" style="fill: #00bfff"/>
   </g>
   <g id="patch_40">
    <path d="M 353.867558 128.528148 
L 362.259351 128.528148 
L 362.259351 125.26292 
L 353.867558 125.26292 
z
" clip-path="url(#p2486563038)" style="fill: #00bfff"/>
   </g>
   <g id="patch_41">
    <path d="M 362.259351 128.528148 
L 370.651145 128.528148 
L 370.651145 124.733423 
L 362.259351 124.733423 
z
" clip-path="url(#p2486563038)" style="fill: #00bfff"/>
   </g>
   <g id="patch_42">
    <path d="M 370.651145 128.528148 
L 379.042939 128.528148 
L 379.042939 124.336301 
L 370.651145 124.336301 
z
" clip-path="url(#p2486563038)" style="fill: #00bfff"/>
   </g>
   <g id="patch_43">
    <path d="M 379.042939 128.528148 
L 387.434733 128.528148 
L 387.434733 123.777388 
L 379.042939 123.777388 
z
" clip-path="url(#p2486563038)" style="fill: #00bfff"/>
   </g>
   <g id="patch_44">
    <path d="M 387.434733 128.528148 
L 395.826527 128.528148 
L 395.826527 124.189219 
L 387.434733 124.189219 
z
" clip-path="url(#p2486563038)" style="fill: #00bfff"/>
   </g>
   <g id="patch_45">
    <path d="M 395.826527 128.528148 
L 404.218321 128.528148 
L 404.218321 123.439099 
L 395.826527 123.439099 
z
" clip-path="url(#p2486563038)" style="fill: #00bfff"/>
   </g>
   <g id="patch_46">
    <path d="M 404.218321 128.528148 
L 412.610115 128.528148 
L 412.610115 124.189219 
L 404.218321 124.189219 
z
" clip-path="url(#p2486563038)" style="fill: #00bfff"/>
   </g>
   <g id="patch_47">
    <path d="M 412.610115 128.528148 
L 421.001909 128.528148 
L 421.001909 123.439099 
L 412.610115 123.439099 
z
" clip-path="url(#p2486563038)" style="fill: #00bfff"/>
   </g>
   <g id="patch_48">
    <path d="M 421.001909 128.528148 
L 429.393702 128.528148 
L 429.393702 123.600889 
L 421.001909 123.600889 
z
" clip-path="url(#p2486563038)" style="fill: #00bfff"/>
   </g>
   <g id="patch_49">
    <path d="M 429.393702 128.528148 
L 437.785496 128.528148 
L 437.785496 49.177225 
L 429.393702 49.177225 
z
" clip-path="url(#p2486563038)" style="fill: #00bfff"/>
   </g>
   <g id="line2d_21">
    <path d="M 10.7 128.528148 
L 19.331308 128.528148 
L 27.962617 128.528148 
L 36.593925 128.528148 
L 45.225233 128.528148 
L 53.856541 128.528148 
L 62.48785 128.528148 
L 71.119158 128.528147 
L 79.750466 128.528147 
L 88.381775 128.528146 
L 97.013083 128.528145 
L 105.644391 128.528141 
L 114.275699 128.528134 
L 122.907008 128.528117 
L 131.538316 128.528081 
L 140.169624 128.528006 
L 148.800933 128.527857 
L 157.432241 128.527564 
L 166.063549 128.527003 
L 174.694857 128.525958 
L 183.326166 128.52406 
L 191.957474 128.520701 
L 200.588782 128.514907 
L 209.220091 128.505173 
L 217.851399 128.489241 
L 226.482707 128.463849 
L 235.114015 128.424442 
L 243.745324 128.364911 
L 252.376632 128.27739 
L 261.00794 128.152218 
L 269.639248 127.97813 
L 278.270557 127.742794 
L 286.901865 127.43376 
L 295.533173 127.039831 
L 304.164482 126.55283 
L 312.79579 125.969582 
L 321.427098 125.293895 
L 330.058406 124.538183 
L 338.689715 123.724379 
L 347.321023 122.883812 
L 355.952331 122.055807 
L 364.58364 121.284993 
L 373.214948 120.617503 
L 381.846256 120.096473 
L 390.477564 119.75746 
L 399.108873 119.624434 
L 407.740181 119.70697 
L 416.371489 119.999116 
L 425.002798 120.480097 
L 433.634106 121.116761 
L 442.265414 121.867353 
L 450.896722 122.686029 
L 459.528031 123.527427 
L 468.159339 124.350685 
L 476.790647 125.122417 
L 485.421956 125.818419 
L 494.053264 126.424082 
L 502.684572 126.933699 
L 511.31588 127.34897 
L 519.947189 127.677076 
L 528.578497 127.928673 
L 537.209805 128.116057 
L 545.841114 128.251687 
L 554.472422 128.347142 
L 563.10373 128.412492 
L 571.735038 128.456027 
L 580.366347 128.484257 
L 588.997655 128.50208 
L 597.628963 128.513038 
L 606.260272 128.519601 
L 614.89158 128.523429 
L 623.522888 128.525605 
L 632.154196 128.526811 
L 640.785505 128.527462 
L 649.416813 128.527804 
L 658.048121 128.52798 
L 666.679429 128.528068 
L 675.310738 128.52811 
L 683.942046 128.528131 
L 692.573354 128.52814 
L 701.204663 128.528144 
L 709.835971 128.528146 
L 718.467279 128.528147 
L 727.098587 128.528147 
L 735.729896 128.528148 
L 744.361204 128.528148 
L 752.992512 128.528148 
L 761.623821 128.528148 
L 770.255129 128.528148 
L 778.886437 128.528148 
L 787.517745 128.528148 
L 796.149054 128.528148 
L 804.780362 128.528148 
L 813.41167 128.528148 
L 822.042979 128.528148 
L 830.674287 128.528148 
L 839.305595 128.528148 
L 847.936903 128.528148 
L 856.568212 128.528148 
L 865.19952 128.528148 
" clip-path="url(#p2486563038)" style="fill: none; stroke: #1f77b4; stroke-width: 1.5; stroke-linecap: square"/>
   </g>
   <g id="text_9">
    <g id="patch_50">
     <path d="M 60.205498 38.307963 
L 76.513311 38.307963 
Q 79.513311 38.307963 79.513311 35.307963 
L 79.513311 25.629838 
Q 79.513311 22.629838 76.513311 22.629838 
L 60.205498 22.629838 
Q 57.205498 22.629838 57.205498 25.629838 
L 57.205498 35.307963 
Q 57.205498 38.307963 60.205498 38.307963 
z
" style="fill: #ffffff"/>
    </g>
    <!-- -6σ -->
    <g transform="translate(60.205498 33.228276) scale(0.1 -0.1)">
     <use xlink:href="#DejaVuSans-2d"/>
     <use xlink:href="#DejaVuSans-36" x="36.083984"/>
     <use xlink:href="#DejaVuSans-3c3" x="99.707031"/>
    </g>
   </g>
   <g id="text_10">
    <g id="patch_51">
     <path d="M 115.499855 38.307963 
L 131.807668 38.307963 
Q 134.807668 38.307963 134.807668 35.307963 
L 134.807668 25.629838 
Q 134.807668 22.629838 131.807668 22.629838 
L 115.499855 22.629838 
Q 112.499855 22.629838 112.499855 25.629838 
L 112.499855 35.307963 
Q 112.499855 38.307963 115.499855 38.307963 
z
" style="fill: #ffffff"/>
    </g>
    <!-- -5σ -->
    <g transform="translate(115.499855 33.228276) scale(0.1 -0.1)">
     <use xlink:href="#DejaVuSans-2d"/>
     <use xlink:href="#DejaVuSans-35" x="36.083984"/>
     <use xlink:href="#DejaVuSans-3c3" x="99.707031"/>
    </g>
   </g>
   <g id="text_11">
    <g id="patch_52">
     <path d="M 170.794212 38.307963 
L 187.102024 38.307963 
Q 190.102024 38.307963 190.102024 35.307963 
L 190.102024 25.629838 
Q 190.102024 22.629838 187.102024 22.629838 
L 170.794212 22.629838 
Q 167.794212 22.629838 167.794212 25.629838 
L 167.794212 35.307963 
Q 167.794212 38.307963 170.794212 38.307963 
z
" style="fill: #ffffff"/>
    </g>
    <!-- -4σ -->
    <g transform="translate(170.794212 33.228276) scale(0.1 -0.1)">
     <use xlink:href="#DejaVuSans-2d"/>
     <use xlink:href="#DejaVuSans-34" x="36.083984"/>
     <use xlink:href="#DejaVuSans-3c3" x="99.707031"/>
    </g>
   </g>
   <g id="text_12">
    <g id="patch_53">
     <path d="M 226.088568 38.307963 
L 242.396381 38.307963 
Q 245.396381 38.307963 245.396381 35.307963 
L 245.396381 25.629838 
Q 245.396381 22.629838 242.396381 22.629838 
L 226.088568 22.629838 
Q 223.088568 22.629838 223.088568 25.629838 
L 223.088568 35.307963 
Q 223.088568 38.307963 226.088568 38.307963 
z
" style="fill: #ffffff"/>
    </g>
    <!-- -3σ -->
    <g transform="translate(226.088568 33.228276) scale(0.1 -0.1)">
     <use xlink:href="#DejaVuSans-2d"/>
     <use xlink:href="#DejaVuSans-33" x="36.083984"/>
     <use xlink:href="#DejaVuSans-3c3" x="99.707031"/>
    </g>
   </g>
   <g id="text_13">
    <g id="patch_54">
     <path d="M 281.382925 38.307963 
L 297.690738 38.307963 
Q 300.690738 38.307963 300.690738 35.307963 
L 300.690738 25.629838 
Q 300.690738 22.629838 297.690738 22.629838 
L 281.382925 22.629838 
Q 278.382925 22.629838 278.382925 25.629838 
L 278.382925 35.307963 
Q 278.382925 38.307963 281.382925 38.307963 
z
" style="fill: #ffffff"/>
    </g>
    <!-- -2σ -->
    <g transform="translate(281.382925 33.228276) scale(0.1 -0.1)">
     <use xlink:href="#DejaVuSans-2d"/>
     <use xlink:href="#DejaVuSans-32" x="36.083984"/>
     <use xlink:href="#DejaVuSans-3c3" x="99.707031"/>
    </g>
   </g>
   <g id="text_14">
    <g id="patch_55">
     <path d="M 339.858532 38.307963 
L 349.803844 38.307963 
Q 352.803844 38.307963 352.803844 35.307963 
L 352.803844 25.629838 
Q 352.803844 22.629838 349.803844 22.629838 
L 339.858532 22.629838 
Q 336.858532 22.629838 336.858532 25.629838 
L 336.858532 35.307963 
Q 336.858532 38.307963 339.858532 38.307963 
z
" style="fill: #ffffff"/>
    </g>
    <!-- -σ -->
    <g transform="translate(339.858532 33.228276) scale(0.1 -0.1)">
     <use xlink:href="#DejaVuSans-2d"/>
     <use xlink:href="#DejaVuSans-3c3" x="36.083984"/>
    </g>
   </g>
   <g id="text_15">
    <g id="patch_56">
     <path d="M 396.446638 38.307963 
L 403.804451 38.307963 
Q 406.804451 38.307963 406.804451 35.307963 
L 406.804451 25.629838 
Q 406.804451 22.629838 403.804451 22.629838 
L 396.446638 22.629838 
Q 393.446638 22.629838 393.446638 25.629838 
L 393.446638 35.307963 
Q 393.446638 38.307963 396.446638 38.307963 
z
" style="fill: #ffffff"/>
    </g>
    <!-- μ -->
    <g transform="translate(396.446638 33.217338) scale(0.1 -0.1)">
     <defs>
      <path id="DejaVuSans-Bold-3bc" d="M 544 -1338 
L 544 3500 
L 1672 3500 
L 1672 1466 
Q 1672 1103 1828 926 
Q 1984 750 2303 750 
Q 2625 750 2781 926 
Q 2938 1103 2938 1466 
L 2938 3500 
L 4063 3500 
L 4063 1159 
Q 4063 938 4114 850 
Q 4166 763 4288 763 
Q 4344 763 4395 778 
Q 4447 794 4506 831 
L 4506 50 
Q 4341 -22 4195 -56 
Q 4050 -91 3909 -91 
Q 3631 -91 3454 26 
Q 3278 144 3169 403 
Q 3022 156 2811 32 
Q 2600 -91 2322 -91 
Q 2091 -91 1928 -17 
Q 1766 56 1672 206 
L 1672 -1338 
L 544 -1338 
z
" transform="scale(0.015625)"/>
     </defs>
     <use xlink:href="#DejaVuSans-Bold-3bc"/>
    </g>
   </g>
   <g id="text_16">
    <g id="patch_57">
     <path d="M 448.061307 38.307963 
L 462.778495 38.307963 
Q 465.778495 38.307963 465.778495 35.307963 
L 465.778495 25.629838 
Q 465.778495 22.629838 462.778495 22.629838 
L 448.061307 22.629838 
Q 445.061307 22.629838 445.061307 25.629838 
L 445.061307 35.307963 
Q 445.061307 38.307963 448.061307 38.307963 
z
" style="fill: #ffffff"/>
    </g>
    <!-- +σ -->
    <g transform="translate(448.061307 33.228276) scale(0.1 -0.1)">
     <defs>
      <path id="DejaVuSans-2b" d="M 2944 4013 
L 2944 2272 
L 4684 2272 
L 4684 1741 
L 2944 1741 
L 2944 0 
L 2419 0 
L 2419 1741 
L 678 1741 
L 678 2272 
L 2419 2272 
L 2419 4013 
L 2944 4013 
z
" transform="scale(0.015625)"/>
     </defs>
     <use xlink:href="#DejaVuSans-2b"/>
     <use xlink:href="#DejaVuSans-3c3" x="83.789062"/>
    </g>
   </g>
   <g id="text_17">
    <g id="patch_58">
     <path d="M 500.174414 38.307963 
L 521.254102 38.307963 
Q 524.254102 38.307963 524.254102 35.307963 
L 524.254102 25.629838 
Q 524.254102 22.629838 521.254102 22.629838 
L 500.174414 22.629838 
Q 497.174414 22.629838 497.174414 25.629838 
L 497.174414 35.307963 
Q 497.174414 38.307963 500.174414 38.307963 
z
" style="fill: #ffffff"/>
    </g>
    <!-- +2σ -->
    <g transform="translate(500.174414 33.228276) scale(0.1 -0.1)">
     <use xlink:href="#DejaVuSans-2b"/>
     <use xlink:href="#DejaVuSans-32" x="83.789062"/>
     <use xlink:href="#DejaVuSans-3c3" x="147.412109"/>
    </g>
   </g>
   <g id="text_18">
    <g id="patch_59">
     <path d="M 555.468771 38.307963 
L 576.548458 38.307963 
Q 579.548458 38.307963 579.548458 35.307963 
L 579.548458 25.629838 
Q 579.548458 22.629838 576.548458 22.629838 
L 555.468771 22.629838 
Q 552.468771 22.629838 552.468771 25.629838 
L 552.468771 35.307963 
Q 552.468771 38.307963 555.468771 38.307963 
z
" style="fill: #ffffff"/>
    </g>
    <!-- +3σ -->
    <g transform="translate(555.468771 33.228276) scale(0.1 -0.1)">
     <use xlink:href="#DejaVuSans-2b"/>
     <use xlink:href="#DejaVuSans-33" x="83.789062"/>
     <use xlink:href="#DejaVuSans-3c3" x="147.412109"/>
    </g>
   </g>
   <g id="text_19">
    <g id="patch_60">
     <path d="M 610.763127 38.307963 
L 631.842815 38.307963 
Q 634.842815 38.307963 634.842815 35.307963 
L 634.842815 25.629838 
Q 634.842815 22.629838 631.842815 22.629838 
L 610.763127 22.629838 
Q 607.763127 22.629838 607.763127 25.629838 
L 607.763127 35.307963 
Q 607.763127 38.307963 610.763127 38.307963 
z
" style="fill: #ffffff"/>
    </g>
    <!-- +4σ -->
    <g transform="translate(610.763127 33.228276) scale(0.1 -0.1)">
     <use xlink:href="#DejaVuSans-2b"/>
     <use xlink:href="#DejaVuSans-34" x="83.789062"/>
     <use xlink:href="#DejaVuSans-3c3" x="147.412109"/>
    </g>
   </g>
   <g id="text_20">
    <g id="patch_61">
     <path d="M 666.057484 38.307963 
L 687.137172 38.307963 
Q 690.137172 38.307963 690.137172 35.307963 
L 690.137172 25.629838 
Q 690.137172 22.629838 687.137172 22.629838 
L 666.057484 22.629838 
Q 663.057484 22.629838 663.057484 25.629838 
L 663.057484 35.307963 
Q 663.057484 38.307963 666.057484 38.307963 
z
" style="fill: #ffffff"/>
    </g>
    <!-- +5σ -->
    <g transform="translate(666.057484 33.228276) scale(0.1 -0.1)">
     <use xlink:href="#DejaVuSans-2b"/>
     <use xlink:href="#DejaVuSans-35" x="83.789062"/>
     <use xlink:href="#DejaVuSans-3c3" x="147.412109"/>
    </g>
   </g>
   <g id="text_21">
    <g id="patch_62">
     <path d="M 721.351841 38.307963 
L 742.431528 38.307963 
Q 745.431528 38.307963 745.431528 35.307963 
L 745.431528 25.629838 
Q 745.431528 22.629838 742.431528 22.629838 
L 721.351841 22.629838 
Q 718.351841 22.629838 718.351841 25.629838 
L 718.351841 35.307963 
Q 718.351841 38.307963 721.351841 38.307963 
z
" style="fill: #ffffff"/>
    </g>
    <!-- +6σ -->
    <g transform="translate(721.351841 33.228276) scale(0.1 -0.1)">
     <use xlink:href="#DejaVuSans-2b"/>
     <use xlink:href="#DejaVuSans-36" x="83.789062"/>
     <use xlink:href="#DejaVuSans-3c3" x="147.412109"/>
    </g>
   </g>
  </g>
 </g>
 <defs>
  <clipPath id="p2486563038">
   <rect x="10.7" y="20.214138" width="854.49952" height="108.31401"/>
  </clipPath>
 </defs>
</svg>
