<?xml version="1.0" encoding="utf-8" standalone="no"?>
<!DOCTYPE svg PUBLIC "-//W3C//DTD SVG 1.1//EN"
  "http://www.w3.org/Graphics/SVG/1.1/DTD/svg11.dtd">
<svg xmlns:xlink="http://www.w3.org/1999/xlink" width="872.39952pt" height="152.406273pt" viewBox="0 0 872.39952 152.406273" xmlns="http://www.w3.org/2000/svg" version="1.1">
 <metadata>
  <rdf:RDF xmlns:dc="http://purl.org/dc/elements/1.1/" xmlns:cc="http://creativecommons.org/ns#" xmlns:rdf="http://www.w3.org/1999/02/22-rdf-syntax-ns#">
   <cc:Work>
    <dc:type rdf:resource="http://purl.org/dc/dcmitype/StillImage"/>
    <dc:format>image/svg+xml</dc:format>
    <dc:creator>
     <cc:Agent>
      <dc:title>Matplotlib, https://matplotlib.org/</dc:title>
     </cc:Agent>
    </dc:creator>
   </cc:Work>
  </rdf:RDF>
 </metadata>
 <defs>
  <style type="text/css">*{stroke-linejoin: round; stroke-linecap: butt}</style>
 </defs>
 <g id="figure_1">
  <g id="patch_1">
   <path d="M 0 152.406273 
L 872.39952 152.406273 
L 872.39952 0 
L 0 0 
z
" style="fill: #ffffff"/>
  </g>
  <g id="axes_1">
   <g id="patch_2">
    <path d="M 7.2 128.528148 
L 865.19952 128.528148 
L 865.19952 20.214138 
L 7.2 20.214138 
z
" style="fill: #ffffff"/>
   </g>
   <g id="matplotlib.axis_1">
    <g id="xtick_1">
     <g id="line2d_1">
      <defs>
       <path id="m8f1de1206a" d="M 0 0 
L 0 3.5 
" style="stroke: #000000; stroke-width: 0.8"/>
      </defs>
      <g>
       <use xlink:href="#m8f1de1206a" x="24.786458" y="128.528148" style="stroke: #000000; stroke-width: 0.8"/>
      </g>
     </g>
     <g id="text_1">
      <!-- 0 -->
      <g transform="translate(21.605208 143.126585) scale(0.1 -0.1)">
       <defs>
        <path id="DejaVuSans-30" d="M 2034 4250 
Q 1547 4250 1301 3770 
Q 1056 3291 1056 2328 
Q 1056 1369 1301 889 
Q 1547 409 2034 409 
Q 2525 409 2770 889 
Q 3016 1369 3016 2328 
Q 3016 3291 2770 3770 
Q 2525 4250 2034 4250 
z
M 2034 4750 
Q 2819 4750 3233 4129 
Q 3647 3509 3647 2328 
Q 3647 1150 3233 529 
Q 2819 -91 2034 -91 
Q 1250 -91 836 529 
Q 422 1150 422 2328 
Q 422 3509 836 4129 
Q 1250 4750 2034 4750 
z
" transform="scale(0.015625)"/>
       </defs>
       <use xlink:href="#DejaVuSans-30"/>
      </g>
     </g>
    </g>
    <g id="xtick_2">
     <g id="line2d_2">
      <g>
       <use xlink:href="#m8f1de1206a" x="189.504366" y="128.528148" style="stroke: #000000; stroke-width: 0.8"/>
      </g>
     </g>
     <g id="text_2">
      <!-- 200 -->
      <g transform="translate(179.960616 143.126585) scale(0.1 -0.1)">
       <defs>
        <path id="DejaVuSans-32" d="M 1228 531 
L 3431 531 
L 3431 0 
L 469 0 
L 469 531 
Q 828 903 1448 1529 
Q 2069 2156 2228 2338 
Q 2531 2678 2651 2914 
Q 2772 3150 2772 3378 
Q 2772 3750 2511 3984 
Q 2250 4219 1831 4219 
Q 1534 4219 1204 4116 
Q 875 4013 500 3803 
L 500 4441 
Q 881 4594 1212 4672 
Q 1544 4750 1819 4750 
Q 2544 4750 2975 4387 
Q 3406 4025 3406 3419 
Q 3406 3131 3298 2873 
Q 3191 2616 2906 2266 
Q 2828 2175 2409 1742 
Q 1991 1309 1228 531 
z
" transform="scale(0.015625)"/>
       </defs>
       <use xlink:href="#DejaVuSans-32"/>
       <use xlink:href="#DejaVuSans-30" transform="translate(63.623047 0)"/>
       <use xlink:href="#DejaVuSans-30" transform="translate(127.246094 0)"/>
      </g>
     </g>
    </g>
    <g id="xtick_3">
     <g id="line2d_3">
      <g>
       <use xlink:href="#m8f1de1206a" x="354.222275" y="128.528148" style="stroke: #000000; stroke-width: 0.8"/>
      </g>
     </g>
     <g id="text_3">
      <!-- 400 -->
      <g transform="translate(344.678525 143.126585) scale(0.1 -0.1)">
       <defs>
        <path id="DejaVuSans-34" d="M 2419 4116 
L 825 1625 
L 2419 1625 
L 2419 4116 
z
M 2253 4666 
L 3047 4666 
L 3047 1625 
L 3713 1625 
L 3713 1100 
L 3047 1100 
L 3047 0 
L 2419 0 
L 2419 1100 
L 313 1100 
L 313 1709 
L 2253 4666 
z
" transform="scale(0.015625)"/>
       </defs>
       <use xlink:href="#DejaVuSans-34"/>
       <use xlink:href="#DejaVuSans-30" transform="translate(63.623047 0)"/>
       <use xlink:href="#DejaVuSans-30" transform="translate(127.246094 0)"/>
      </g>
     </g>
    </g>
    <g id="xtick_4">
     <g id="line2d_4">
      <g>
       <use xlink:href="#m8f1de1206a" x="518.940183" y="128.528148" style="stroke: #000000; stroke-width: 0.8"/>
      </g>
     </g>
     <g id="text_4">
      <!-- 600 -->
      <g transform="translate(509.396433 143.126585) scale(0.1 -0.1)">
       <defs>
        <path id="DejaVuSans-36" d="M 2113 2584 
Q 1688 2584 1439 2293 
Q 1191 2003 1191 1497 
Q 1191 994 1439 701 
Q 1688 409 2113 409 
Q 2538 409 2786 701 
Q 3034 994 3034 1497 
Q 3034 2003 2786 2293 
Q 2538 2584 2113 2584 
z
M 3366 4563 
L 3366 3988 
Q 3128 4100 2886 4159 
Q 2644 4219 2406 4219 
Q 1781 4219 1451 3797 
Q 1122 3375 1075 2522 
Q 1259 2794 1537 2939 
Q 1816 3084 2150 3084 
Q 2853 3084 3261 2657 
Q 3669 2231 3669 1497 
Q 3669 778 3244 343 
Q 2819 -91 2113 -91 
Q 1303 -91 875 529 
Q 447 1150 447 2328 
Q 447 3434 972 4092 
Q 1497 4750 2381 4750 
Q 2619 4750 2861 4703 
Q 3103 4656 3366 4563 
z
" transform="scale(0.015625)"/>
       </defs>
       <use xlink:href="#DejaVuSans-36"/>
       <use xlink:href="#DejaVuSans-30" transform="translate(63.623047 0)"/>
       <use xlink:href="#DejaVuSans-30" transform="translate(127.246094 0)"/>
      </g>
     </g>
    </g>
    <g id="xtick_5">
     <g id="line2d_5">
      <g>
       <use xlink:href="#m8f1de1206a" x="683.658092" y="128.528148" style="stroke: #000000; stroke-width: 0.8"/>
      </g>
     </g>
     <g id="text_5">
      <!-- 800 -->
      <g transform="translate(674.114342 143.126585) scale(0.1 -0.1)">
       <defs>
        <path id="DejaVuSans-38" d="M 2034 2216 
Q 1584 2216 1326 1975 
Q 1069 1734 1069 1313 
Q 1069 891 1326 650 
Q 1584 409 2034 409 
Q 2484 409 2743 651 
Q 3003 894 3003 1313 
Q 3003 1734 2745 1975 
Q 2488 2216 2034 2216 
z
M 1403 2484 
Q 997 2584 770 2862 
Q 544 3141 544 3541 
Q 544 4100 942 4425 
Q 1341 4750 2034 4750 
Q 2731 4750 3128 4425 
Q 3525 4100 3525 3541 
Q 3525 3141 3298 2862 
Q 3072 2584 2669 2484 
Q 3125 2378 3379 2068 
Q 3634 1759 3634 1313 
Q 3634 634 3220 271 
Q 2806 -91 2034 -91 
Q 1263 -91 848 271 
Q 434 634 434 1313 
Q 434 1759 690 2068 
Q 947 2378 1403 2484 
z
M 1172 3481 
Q 1172 3119 1398 2916 
Q 1625 2713 2034 2713 
Q 2441 2713 2670 2916 
Q 2900 3119 2900 3481 
Q 2900 3844 2670 4047 
Q 2441 4250 2034 4250 
Q 1625 4250 1398 4047 
Q 1172 3844 1172 3481 
z
" transform="scale(0.015625)"/>
       </defs>
       <use xlink:href="#DejaVuSans-38"/>
       <use xlink:href="#DejaVuSans-30" transform="translate(63.623047 0)"/>
       <use xlink:href="#DejaVuSans-30" transform="translate(127.246094 0)"/>
      </g>
     </g>
    </g>
    <g id="xtick_6">
     <g id="line2d_6">
      <g>
       <use xlink:href="#m8f1de1206a" x="848.376" y="128.528148" style="stroke: #000000; stroke-width: 0.8"/>
      </g>
     </g>
     <g id="text_6">
      <!-- 1000 -->
      <g transform="translate(835.651 143.126585) scale(0.1 -0.1)">
       <defs>
        <path id="DejaVuSans-31" d="M 794 531 
L 1825 531 
L 1825 4091 
L 703 3866 
L 703 4441 
L 1819 4666 
L 2450 4666 
L 2450 531 
L 3481 531 
L 3481 0 
L 794 0 
L 794 531 
z
" transform="scale(0.015625)"/>
       </defs>
       <use xlink:href="#DejaVuSans-31"/>
       <use xlink:href="#DejaVuSans-30" transform="translate(63.623047 0)"/>
       <use xlink:href="#DejaVuSans-30" transform="translate(127.246094 0)"/>
       <use xlink:href="#DejaVuSans-30" transform="translate(190.869141 0)"/>
      </g>
     </g>
    </g>
   </g>
   <g id="matplotlib.axis_2"/>
   <g id="line2d_7">
    <path d="M 27.343752 128.528148 
L 27.343752 20.214138 
" clip-path="url(#pedb4150c13)" style="fill: none; stroke: #000000; stroke-width: 1.5; stroke-linecap: square"/>
   </g>
   <g id="line2d_8">
    <path d="M 109.863388 128.528148 
L 109.863388 20.214138 
" clip-path="url(#pedb4150c13)" style="fill: none; stroke: #000000; stroke-width: 1.5; stroke-linecap: square"/>
   </g>
   <g id="line2d_9">
    <path d="M 192.383025 128.528148 
L 192.383025 20.214138 
" clip-path="url(#pedb4150c13)" style="fill: none; stroke: #000000; stroke-width: 1.5; stroke-linecap: square"/>
   </g>
   <g id="line2d_10">
    <path d="M 274.902661 128.528148 
L 274.902661 20.214138 
" clip-path="url(#pedb4150c13)" style="fill: none; stroke: #000000; stroke-width: 1.5; stroke-linecap: square"/>
   </g>
   <g id="line2d_11">
    <path d="M 357.422298 128.528148 
L 357.422298 20.214138 
" clip-path="url(#pedb4150c13)" style="fill: none; stroke: #000000; stroke-width: 1.5; stroke-linecap: square"/>
   </g>
   <g id="line2d_12">
    <path d="M 439.941934 128.528148 
L 439.941934 20.214138 
" clip-path="url(#pedb4150c13)" style="fill: none; stroke: #000000; stroke-width: 1.5; stroke-linecap: square"/>
   </g>
   <g id="line2d_13">
    <path d="M 522.461571 128.528148 
L 522.461571 20.214138 
" clip-path="url(#pedb4150c13)" style="fill: none; stroke: #000000; stroke-width: 1.5; stroke-linecap: square"/>
   </g>
   <g id="line2d_14">
    <path d="M 604.981207 128.528148 
L 604.981207 20.214138 
" clip-path="url(#pedb4150c13)" style="fill: none; stroke: #000000; stroke-width: 1.5; stroke-linecap: square"/>
   </g>
   <g id="line2d_15">
    <path d="M 687.500844 128.528148 
L 687.500844 20.214138 
" clip-path="url(#pedb4150c13)" style="fill: none; stroke: #000000; stroke-width: 1.5; stroke-linecap: square"/>
   </g>
   <g id="line2d_16">
    <path d="M 770.020481 128.528148 
L 770.020481 20.214138 
" clip-path="url(#pedb4150c13)" style="fill: none; stroke: #000000; stroke-width: 1.5; stroke-linecap: square"/>
   </g>
   <g id="line2d_17">
    <path d="M 23.693647 128.528148 
L 23.693647 20.214138 
" clip-path="url(#pedb4150c13)" style="fill: none; stroke: #ff0000; stroke-width: 1.5; stroke-linecap: square"/>
   </g>
   <g id="line2d_18">
    <path d="M 848.376 128.528148 
L 848.376 20.214138 
" clip-path="url(#pedb4150c13)" style="fill: none; stroke: #ff0000; stroke-width: 1.5; stroke-linecap: square"/>
   </g>
   <g id="patch_3">
    <path d="M 7.2 128.528148 
L 7.2 20.214138 
" style="fill: none; stroke: #000000; stroke-width: 0.8; stroke-linejoin: miter; stroke-linecap: square"/>
   </g>
   <g id="patch_4">
    <path d="M 865.19952 128.528148 
L 865.19952 20.214138 
" style="fill: none; stroke: #000000; stroke-width: 0.8; stroke-linejoin: miter; stroke-linecap: square"/>
   </g>
   <g id="patch_5">
    <path d="M 7.2 128.528148 
L 865.19952 128.528148 
" style="fill: none; stroke: #000000; stroke-width: 0.8; stroke-linejoin: miter; stroke-linecap: square"/>
   </g>
   <g id="patch_6">
    <path d="M 7.2 20.214138 
L 865.19952 20.214138 
" style="fill: none; stroke: #000000; stroke-width: 0.8; stroke-linejoin: miter; stroke-linecap: square"/>
   </g>
   <g id="text_7">
    <g id="patch_7">
     <path d="M 22.693647 104.10708 
L 22.693647 44.635205 
Q 22.693647 44.635205 22.693647 44.635205 
L 13.015522 44.635205 
Q 13.015522 44.635205 13.015522 44.635205 
L 13.015522 104.10708 
Q 13.015522 104.10708 13.015522 104.10708 
L 22.693647 104.10708 
Q 22.693647 104.10708 22.693647 104.10708 
z
" style="fill: #ffffff"/>
    </g>
    <!-- min=-1.327 -->
    <g transform="translate(20.61396 104.10708) rotate(-90) scale(0.1 -0.1)">
     <defs>
      <path id="DejaVuSans-6d" d="M 3328 2828 
Q 3544 3216 3844 3400 
Q 4144 3584 4550 3584 
Q 5097 3584 5394 3201 
Q 5691 2819 5691 2113 
L 5691 0 
L 5113 0 
L 5113 2094 
Q 5113 2597 4934 2840 
Q 4756 3084 4391 3084 
Q 3944 3084 3684 2787 
Q 3425 2491 3425 1978 
L 3425 0 
L 2847 0 
L 2847 2094 
Q 2847 2600 2669 2842 
Q 2491 3084 2119 3084 
Q 1678 3084 1418 2786 
Q 1159 2488 1159 1978 
L 1159 0 
L 581 0 
L 581 3500 
L 1159 3500 
L 1159 2956 
Q 1356 3278 1631 3431 
Q 1906 3584 2284 3584 
Q 2666 3584 2933 3390 
Q 3200 3197 3328 2828 
z
" transform="scale(0.015625)"/>
      <path id="DejaVuSans-69" d="M 603 3500 
L 1178 3500 
L 1178 0 
L 603 0 
L 603 3500 
z
M 603 4863 
L 1178 4863 
L 1178 4134 
L 603 4134 
L 603 4863 
z
" transform="scale(0.015625)"/>
      <path id="DejaVuSans-6e" d="M 3513 2113 
L 3513 0 
L 2938 0 
L 2938 2094 
Q 2938 2591 2744 2837 
Q 2550 3084 2163 3084 
Q 1697 3084 1428 2787 
Q 1159 2491 1159 1978 
L 1159 0 
L 581 0 
L 581 3500 
L 1159 3500 
L 1159 2956 
Q 1366 3272 1645 3428 
Q 1925 3584 2291 3584 
Q 2894 3584 3203 3211 
Q 3513 2838 3513 2113 
z
" transform="scale(0.015625)"/>
      <path id="DejaVuSans-3d" d="M 678 2906 
L 4684 2906 
L 4684 2381 
L 678 2381 
L 678 2906 
z
M 678 1631 
L 4684 1631 
L 4684 1100 
L 678 1100 
L 678 1631 
z
" transform="scale(0.015625)"/>
      <path id="DejaVuSans-2d" d="M 313 2009 
L 1997 2009 
L 1997 1497 
L 313 1497 
L 313 2009 
z
" transform="scale(0.015625)"/>
      <path id="DejaVuSans-2e" d="M 684 794 
L 1344 794 
L 1344 0 
L 684 0 
L 684 794 
z
" transform="scale(0.015625)"/>
      <path id="DejaVuSans-33" d="M 2597 2516 
Q 3050 2419 3304 2112 
Q 3559 1806 3559 1356 
Q 3559 666 3084 287 
Q 2609 -91 1734 -91 
Q 1441 -91 1130 -33 
Q 819 25 488 141 
L 488 750 
Q 750 597 1062 519 
Q 1375 441 1716 441 
Q 2309 441 2620 675 
Q 2931 909 2931 1356 
Q 2931 1769 2642 2001 
Q 2353 2234 1838 2234 
L 1294 2234 
L 1294 2753 
L 1863 2753 
Q 2328 2753 2575 2939 
Q 2822 3125 2822 3475 
Q 2822 3834 2567 4026 
Q 2313 4219 1838 4219 
Q 1578 4219 1281 4162 
Q 984 4106 628 3988 
L 628 4550 
Q 988 4650 1302 4700 
Q 1616 4750 1894 4750 
Q 2613 4750 3031 4423 
Q 3450 4097 3450 3541 
Q 3450 3153 3228 2886 
Q 3006 2619 2597 2516 
z
" transform="scale(0.015625)"/>
      <path id="DejaVuSans-37" d="M 525 4666 
L 3525 4666 
L 3525 4397 
L 1831 0 
L 1172 0 
L 2766 4134 
L 525 4134 
L 525 4666 
z
" transform="scale(0.015625)"/>
     </defs>
     <use xlink:href="#DejaVuSans-6d"/>
     <use xlink:href="#DejaVuSans-69" transform="translate(97.412109 0)"/>
     <use xlink:href="#DejaVuSans-6e" transform="translate(125.195312 0)"/>
     <use xlink:href="#DejaVuSans-3d" transform="translate(188.574219 0)"/>
     <use xlink:href="#DejaVuSans-2d" transform="translate(272.363281 0)"/>
     <use xlink:href="#DejaVuSans-31" transform="translate(308.447266 0)"/>
     <use xlink:href="#DejaVuSans-2e" transform="translate(372.070312 0)"/>
     <use xlink:href="#DejaVuSans-33" transform="translate(403.857422 0)"/>
     <use xlink:href="#DejaVuSans-32" transform="translate(467.480469 0)"/>
     <use xlink:href="#DejaVuSans-37" transform="translate(531.103516 0)"/>
    </g>
   </g>
   <g id="text_8">
    <g id="patch_8">
     <path d="M 860.054125 113.312549 
L 860.054125 35.429737 
Q 860.054125 35.429737 860.054125 35.429737 
L 850.376 35.429737 
Q 850.376 35.429737 850.376 35.429737 
L 850.376 113.312549 
Q 850.376 113.312549 850.376 113.312549 
L 860.054125 113.312549 
Q 860.054125 113.312549 860.054125 113.312549 
z
" style="fill: #ffffff"/>
    </g>
    <!-- max=1000.000 -->
    <g transform="translate(857.974437 113.312549) rotate(-90) scale(0.1 -0.1)">
     <defs>
      <path id="DejaVuSans-61" d="M 2194 1759 
Q 1497 1759 1228 1600 
Q 959 1441 959 1056 
Q 959 750 1161 570 
Q 1363 391 1709 391 
Q 2188 391 2477 730 
Q 2766 1069 2766 1631 
L 2766 1759 
L 2194 1759 
z
M 3341 1997 
L 3341 0 
L 2766 0 
L 2766 531 
Q 2569 213 2275 61 
Q 1981 -91 1556 -91 
Q 1019 -91 701 211 
Q 384 513 384 1019 
Q 384 1609 779 1909 
Q 1175 2209 1959 2209 
L 2766 2209 
L 2766 2266 
Q 2766 2663 2505 2880 
Q 2244 3097 1772 3097 
Q 1472 3097 1187 3025 
Q 903 2953 641 2809 
L 641 3341 
Q 956 3463 1253 3523 
Q 1550 3584 1831 3584 
Q 2591 3584 2966 3190 
Q 3341 2797 3341 1997 
z
" transform="scale(0.015625)"/>
      <path id="DejaVuSans-78" d="M 3513 3500 
L 2247 1797 
L 3578 0 
L 2900 0 
L 1881 1375 
L 863 0 
L 184 0 
L 1544 1831 
L 300 3500 
L 978 3500 
L 1906 2253 
L 2834 3500 
L 3513 3500 
z
" transform="scale(0.015625)"/>
     </defs>
     <use xlink:href="#DejaVuSans-6d"/>
     <use xlink:href="#DejaVuSans-61" transform="translate(97.412109 0)"/>
     <use xlink:href="#DejaVuSans-78" transform="translate(158.691406 0)"/>
     <use xlink:href="#DejaVuSans-3d" transform="translate(217.871094 0)"/>
     <use xlink:href="#DejaVuSans-31" transform="translate(301.660156 0)"/>
     <use xlink:href="#DejaVuSans-30" transform="translate(365.283203 0)"/>
     <use xlink:href="#DejaVuSans-30" transform="translate(428.90625 0)"/>
     <use xlink:href="#DejaVuSans-30" transform="translate(492.529297 0)"/>
     <use xlink:href="#DejaVuSans-2e" transform="translate(556.152344 0)"/>
     <use xlink:href="#DejaVuSans-30" transform="translate(587.939453 0)"/>
     <use xlink:href="#DejaVuSans-30" transform="translate(651.5625 0)"/>
     <use xlink:href="#DejaVuSans-30" transform="translate(715.185547 0)"/>
    </g>
   </g>
   <g id="text_9">
    <!-- 10000 samples (μ=3.105, σ=10.020) of array[100000] x∈[-1.327, 1000.000] μ=3.015 σ=3.307 -->
    <g transform="translate(7.2 14.798437) scale(0.1 -0.1)">
     <defs>
      <path id="DejaVuSans-20" transform="scale(0.015625)"/>
      <path id="DejaVuSans-73" d="M 2834 3397 
L 2834 2853 
Q 2591 2978 2328 3040 
Q 2066 3103 1784 3103 
Q 1356 3103 1142 2972 
Q 928 2841 928 2578 
Q 928 2378 1081 2264 
Q 1234 2150 1697 2047 
L 1894 2003 
Q 2506 1872 2764 1633 
Q 3022 1394 3022 966 
Q 3022 478 2636 193 
Q 2250 -91 1575 -91 
Q 1294 -91 989 -36 
Q 684 19 347 128 
L 347 722 
Q 666 556 975 473 
Q 1284 391 1588 391 
Q 1994 391 2212 530 
Q 2431 669 2431 922 
Q 2431 1156 2273 1281 
Q 2116 1406 1581 1522 
L 1381 1569 
Q 847 1681 609 1914 
Q 372 2147 372 2553 
Q 372 3047 722 3315 
Q 1072 3584 1716 3584 
Q 2034 3584 2315 3537 
Q 2597 3491 2834 3397 
z
" transform="scale(0.015625)"/>
      <path id="DejaVuSans-70" d="M 1159 525 
L 1159 -1331 
L 581 -1331 
L 581 3500 
L 1159 3500 
L 1159 2969 
Q 1341 3281 1617 3432 
Q 1894 3584 2278 3584 
Q 2916 3584 3314 3078 
Q 3713 2572 3713 1747 
Q 3713 922 3314 415 
Q 2916 -91 2278 -91 
Q 1894 -91 1617 61 
Q 1341 213 1159 525 
z
M 3116 1747 
Q 3116 2381 2855 2742 
Q 2594 3103 2138 3103 
Q 1681 3103 1420 2742 
Q 1159 2381 1159 1747 
Q 1159 1113 1420 752 
Q 1681 391 2138 391 
Q 2594 391 2855 752 
Q 3116 1113 3116 1747 
z
" transform="scale(0.015625)"/>
      <path id="DejaVuSans-6c" d="M 603 4863 
L 1178 4863 
L 1178 0 
L 603 0 
L 603 4863 
z
" transform="scale(0.015625)"/>
      <path id="DejaVuSans-65" d="M 3597 1894 
L 3597 1613 
L 953 1613 
Q 991 1019 1311 708 
Q 1631 397 2203 397 
Q 2534 397 2845 478 
Q 3156 559 3463 722 
L 3463 178 
Q 3153 47 2828 -22 
Q 2503 -91 2169 -91 
Q 1331 -91 842 396 
Q 353 884 353 1716 
Q 353 2575 817 3079 
Q 1281 3584 2069 3584 
Q 2775 3584 3186 3129 
Q 3597 2675 3597 1894 
z
M 3022 2063 
Q 3016 2534 2758 2815 
Q 2500 3097 2075 3097 
Q 1594 3097 1305 2825 
Q 1016 2553 972 2059 
L 3022 2063 
z
" transform="scale(0.015625)"/>
      <path id="DejaVuSans-28" d="M 1984 4856 
Q 1566 4138 1362 3434 
Q 1159 2731 1159 2009 
Q 1159 1288 1364 580 
Q 1569 -128 1984 -844 
L 1484 -844 
Q 1016 -109 783 600 
Q 550 1309 550 2009 
Q 550 2706 781 3412 
Q 1013 4119 1484 4856 
L 1984 4856 
z
" transform="scale(0.015625)"/>
      <path id="DejaVuSans-3bc" d="M 544 -1331 
L 544 3500 
L 1119 3500 
L 1119 1325 
Q 1119 872 1334 640 
Q 1550 409 1972 409 
Q 2434 409 2667 671 
Q 2900 934 2900 1459 
L 2900 3500 
L 3475 3500 
L 3475 806 
Q 3475 619 3529 530 
Q 3584 441 3700 441 
Q 3728 441 3778 458 
Q 3828 475 3916 513 
L 3916 50 
Q 3788 -22 3673 -56 
Q 3559 -91 3450 -91 
Q 3234 -91 3106 31 
Q 2978 153 2931 403 
Q 2775 156 2548 32 
Q 2322 -91 2016 -91 
Q 1697 -91 1473 31 
Q 1250 153 1119 397 
L 1119 -1331 
L 544 -1331 
z
" transform="scale(0.015625)"/>
      <path id="DejaVuSans-35" d="M 691 4666 
L 3169 4666 
L 3169 4134 
L 1269 4134 
L 1269 2991 
Q 1406 3038 1543 3061 
Q 1681 3084 1819 3084 
Q 2600 3084 3056 2656 
Q 3513 2228 3513 1497 
Q 3513 744 3044 326 
Q 2575 -91 1722 -91 
Q 1428 -91 1123 -41 
Q 819 9 494 109 
L 494 744 
Q 775 591 1075 516 
Q 1375 441 1709 441 
Q 2250 441 2565 725 
Q 2881 1009 2881 1497 
Q 2881 1984 2565 2268 
Q 2250 2553 1709 2553 
Q 1456 2553 1204 2497 
Q 953 2441 691 2322 
L 691 4666 
z
" transform="scale(0.015625)"/>
      <path id="DejaVuSans-2c" d="M 750 794 
L 1409 794 
L 1409 256 
L 897 -744 
L 494 -744 
L 750 256 
L 750 794 
z
" transform="scale(0.015625)"/>
      <path id="DejaVuSans-3c3" d="M 1959 3044 
Q 1484 3044 1228 2700 
Q 959 2341 959 1747 
Q 959 1119 1226 758 
Q 1494 397 1959 397 
Q 2419 397 2687 759 
Q 2956 1122 2956 1747 
Q 2956 2319 2688 2700 
Q 2441 3044 1959 3044 
z
M 1959 3500 
L 3869 3500 
L 3869 2925 
L 3225 2925 
Q 3566 2438 3566 1747 
Q 3566 888 3138 400 
Q 2709 -91 1959 -91 
Q 1206 -91 781 400 
Q 353 888 353 1747 
Q 353 2613 781 3097 
Q 1134 3500 1959 3500 
z
" transform="scale(0.015625)"/>
      <path id="DejaVuSans-29" d="M 513 4856 
L 1013 4856 
Q 1481 4119 1714 3412 
Q 1947 2706 1947 2009 
Q 1947 1309 1714 600 
Q 1481 -109 1013 -844 
L 513 -844 
Q 928 -128 1133 580 
Q 1338 1288 1338 2009 
Q 1338 2731 1133 3434 
Q 928 4138 513 4856 
z
" transform="scale(0.015625)"/>
      <path id="DejaVuSans-6f" d="M 1959 3097 
Q 1497 3097 1228 2736 
Q 959 2375 959 1747 
Q 959 1119 1226 758 
Q 1494 397 1959 397 
Q 2419 397 2687 759 
Q 2956 1122 2956 1747 
Q 2956 2369 2687 2733 
Q 2419 3097 1959 3097 
z
M 1959 3584 
Q 2709 3584 3137 3096 
Q 3566 2609 3566 1747 
Q 3566 888 3137 398 
Q 2709 -91 1959 -91 
Q 1206 -91 779 398 
Q 353 888 353 1747 
Q 353 2609 779 3096 
Q 1206 3584 1959 3584 
z
" transform="scale(0.015625)"/>
      <path id="DejaVuSans-66" d="M 2375 4863 
L 2375 4384 
L 1825 4384 
Q 1516 4384 1395 4259 
Q 1275 4134 1275 3809 
L 1275 3500 
L 2222 3500 
L 2222 3053 
L 1275 3053 
L 1275 0 
L 697 0 
L 697 3053 
L 147 3053 
L 147 3500 
L 697 3500 
L 697 3744 
Q 697 4328 969 4595 
Q 1241 4863 1831 4863 
L 2375 4863 
z
" transform="scale(0.015625)"/>
      <path id="DejaVuSans-72" d="M 2631 2963 
Q 2534 3019 2420 3045 
Q 2306 3072 2169 3072 
Q 1681 3072 1420 2755 
Q 1159 2438 1159 1844 
L 1159 0 
L 581 0 
L 581 3500 
L 1159 3500 
L 1159 2956 
Q 1341 3275 1631 3429 
Q 1922 3584 2338 3584 
Q 2397 3584 2469 3576 
Q 2541 3569 2628 3553 
L 2631 2963 
z
" transform="scale(0.015625)"/>
      <path id="DejaVuSans-79" d="M 2059 -325 
Q 1816 -950 1584 -1140 
Q 1353 -1331 966 -1331 
L 506 -1331 
L 506 -850 
L 844 -850 
Q 1081 -850 1212 -737 
Q 1344 -625 1503 -206 
L 1606 56 
L 191 3500 
L 800 3500 
L 1894 763 
L 2988 3500 
L 3597 3500 
L 2059 -325 
z
" transform="scale(0.015625)"/>
      <path id="DejaVuSans-5b" d="M 550 4863 
L 1875 4863 
L 1875 4416 
L 1125 4416 
L 1125 -397 
L 1875 -397 
L 1875 -844 
L 550 -844 
L 550 4863 
z
" transform="scale(0.015625)"/>
      <path id="DejaVuSans-5d" d="M 1947 4863 
L 1947 -844 
L 622 -844 
L 622 -397 
L 1369 -397 
L 1369 4416 
L 622 4416 
L 622 4863 
L 1947 4863 
z
" transform="scale(0.015625)"/>
      <path id="DejaVuSans-2208" d="M 1072 1959 
Q 1094 1728 1291 1353 
Q 1522 919 1959 675 
Q 2388 438 2850 434 
L 5028 434 
L 5028 -63 
L 2850 -63 
Q 2250 -63 1695 246 
Q 1141 556 844 1106 
Q 547 1656 547 2241 
Q 547 2819 844 3369 
Q 1141 3919 1695 4231 
Q 2250 4544 2850 4544 
L 5028 4544 
L 5028 4047 
L 2850 4047 
Q 2388 4044 1959 3803 
Q 1525 3556 1291 3125 
Q 1091 2750 1063 2459 
L 5028 2459 
L 5028 1959 
L 1072 1959 
z
" transform="scale(0.015625)"/>
     </defs>
     <use xlink:href="#DejaVuSans-31"/>
     <use xlink:href="#DejaVuSans-30" transform="translate(63.623047 0)"/>
     <use xlink:href="#DejaVuSans-30" transform="translate(127.246094 0)"/>
     <use xlink:href="#DejaVuSans-30" transform="translate(190.869141 0)"/>
     <use xlink:href="#DejaVuSans-30" transform="translate(254.492188 0)"/>
     <use xlink:href="#DejaVuSans-20" transform="translate(318.115234 0)"/>
     <use xlink:href="#DejaVuSans-73" transform="translate(349.902344 0)"/>
     <use xlink:href="#DejaVuSans-61" transform="translate(402.001953 0)"/>
     <use xlink:href="#DejaVuSans-6d" transform="translate(463.28125 0)"/>
     <use xlink:href="#DejaVuSans-70" transform="translate(560.693359 0)"/>
     <use xlink:href="#DejaVuSans-6c" transform="translate(624.169922 0)"/>
     <use xlink:href="#DejaVuSans-65" transform="translate(651.953125 0)"/>
     <use xlink:href="#DejaVuSans-73" transform="translate(713.476562 0)"/>
     <use xlink:href="#DejaVuSans-20" transform="translate(765.576172 0)"/>
     <use xlink:href="#DejaVuSans-28" transform="translate(797.363281 0)"/>
     <use xlink:href="#DejaVuSans-3bc" transform="translate(836.376953 0)"/>
     <use xlink:href="#DejaVuSans-3d" transform="translate(900 0)"/>
     <use xlink:href="#DejaVuSans-33" transform="translate(983.789062 0)"/>
     <use xlink:href="#DejaVuSans-2e" transform="translate(1047.412109 0)"/>
     <use xlink:href="#DejaVuSans-31" transform="translate(1079.199219 0)"/>
     <use xlink:href="#DejaVuSans-30" transform="translate(1142.822266 0)"/>
     <use xlink:href="#DejaVuSans-35" transform="translate(1206.445312 0)"/>
     <use xlink:href="#DejaVuSans-2c" transform="translate(1270.068359 0)"/>
     <use xlink:href="#DejaVuSans-20" transform="translate(1301.855469 0)"/>
     <use xlink:href="#DejaVuSans-3c3" transform="translate(1333.642578 0)"/>
     <use xlink:href="#DejaVuSans-3d" transform="translate(1397.021484 0)"/>
     <use xlink:href="#DejaVuSans-31" transform="translate(1480.810547 0)"/>
     <use xlink:href="#DejaVuSans-30" transform="translate(1544.433594 0)"/>
     <use xlink:href="#DejaVuSans-2e" transform="translate(1608.056641 0)"/>
     <use xlink:href="#DejaVuSans-30" transform="translate(1639.84375 0)"/>
     <use xlink:href="#DejaVuSans-32" transform="translate(1703.466797 0)"/>
     <use xlink:href="#DejaVuSans-30" transform="translate(1767.089844 0)"/>
     <use xlink:href="#DejaVuSans-29" transform="translate(1830.712891 0)"/>
     <use xlink:href="#DejaVuSans-20" transform="translate(1869.726562 0)"/>
     <use xlink:href="#DejaVuSans-6f" transform="translate(1901.513672 0)"/>
     <use xlink:href="#DejaVuSans-66" transform="translate(1962.695312 0)"/>
     <use xlink:href="#DejaVuSans-20" transform="translate(1997.900391 0)"/>
     <use xlink:href="#DejaVuSans-61" transform="translate(2029.6875 0)"/>
     <use xlink:href="#DejaVuSans-72" transform="translate(2090.966797 0)"/>
     <use xlink:href="#DejaVuSans-72" transform="translate(2130.330078 0)"/>
     <use xlink:href="#DejaVuSans-61" transform="translate(2171.443359 0)"/>
     <use xlink:href="#DejaVuSans-79" transform="translate(2232.722656 0)"/>
     <use xlink:href="#DejaVuSans-5b" transform="translate(2291.902344 0)"/>
     <use xlink:href="#DejaVuSans-31" transform="translate(2330.916016 0)"/>
     <use xlink:href="#DejaVuSans-30" transform="translate(2394.539062 0)"/>
     <use xlink:href="#DejaVuSans-30" transform="translate(2458.162109 0)"/>
     <use xlink:href="#DejaVuSans-30" transform="translate(2521.785156 0)"/>
     <use xlink:href="#DejaVuSans-30" transform="translate(2585.408203 0)"/>
     <use xlink:href="#DejaVuSans-30" transform="translate(2649.03125 0)"/>
     <use xlink:href="#DejaVuSans-5d" transform="translate(2712.654297 0)"/>
     <use xlink:href="#DejaVuSans-20" transform="translate(2751.667969 0)"/>
     <use xlink:href="#DejaVuSans-78" transform="translate(2783.455078 0)"/>
     <use xlink:href="#DejaVuSans-2208" transform="translate(2842.634766 0)"/>
     <use xlink:href="#DejaVuSans-5b" transform="translate(2929.744141 0)"/>
     <use xlink:href="#DejaVuSans-2d" transform="translate(2968.757812 0)"/>
     <use xlink:href="#DejaVuSans-31" transform="translate(3004.841797 0)"/>
     <use xlink:href="#DejaVuSans-2e" transform="translate(3068.464844 0)"/>
     <use xlink:href="#DejaVuSans-33" transform="translate(3100.251953 0)"/>
     <use xlink:href="#DejaVuSans-32" transform="translate(3163.875 0)"/>
     <use xlink:href="#DejaVuSans-37" transform="translate(3227.498047 0)"/>
     <use xlink:href="#DejaVuSans-2c" transform="translate(3291.121094 0)"/>
     <use xlink:href="#DejaVuSans-20" transform="translate(3322.908203 0)"/>
     <use xlink:href="#DejaVuSans-31" transform="translate(3354.695312 0)"/>
     <use xlink:href="#DejaVuSans-30" transform="translate(3418.318359 0)"/>
     <use xlink:href="#DejaVuSans-30" transform="translate(3481.941406 0)"/>
     <use xlink:href="#DejaVuSans-30" transform="translate(3545.564453 0)"/>
     <use xlink:href="#DejaVuSans-2e" transform="translate(3609.1875 0)"/>
     <use xlink:href="#DejaVuSans-30" transform="translate(3640.974609 0)"/>
     <use xlink:href="#DejaVuSans-30" transform="translate(3704.597656 0)"/>
     <use xlink:href="#DejaVuSans-30" transform="translate(3768.220703 0)"/>
     <use xlink:href="#DejaVuSans-5d" transform="translate(3831.84375 0)"/>
     <use xlink:href="#DejaVuSans-20" transform="translate(3870.857422 0)"/>
     <use xlink:href="#DejaVuSans-3bc" transform="translate(3902.644531 0)"/>
     <use xlink:href="#DejaVuSans-3d" transform="translate(3966.267578 0)"/>
     <use xlink:href="#DejaVuSans-33" transform="translate(4050.056641 0)"/>
     <use xlink:href="#DejaVuSans-2e" transform="translate(4113.679688 0)"/>
     <use xlink:href="#DejaVuSans-30" transform="translate(4145.466797 0)"/>
     <use xlink:href="#DejaVuSans-31" transform="translate(4209.089844 0)"/>
     <use xlink:href="#DejaVuSans-35" transform="translate(4272.712891 0)"/>
     <use xlink:href="#DejaVuSans-20" transform="translate(4336.335938 0)"/>
     <use xlink:href="#DejaVuSans-3c3" transform="translate(4368.123047 0)"/>
     <use xlink:href="#DejaVuSans-3d" transform="translate(4431.501953 0)"/>
     <use xlink:href="#DejaVuSans-33" transform="translate(4515.291016 0)"/>
     <use xlink:href="#DejaVuSans-2e" transform="translate(4578.914062 0)"/>
     <use xlink:href="#DejaVuSans-33" transform="translate(4610.701172 0)"/>
     <use xlink:href="#DejaVuSans-30" transform="translate(4674.324219 0)"/>
     <use xlink:href="#DejaVuSans-37" transform="translate(4737.947266 0)"/>
    </g>
   </g>
   <g id="patch_9">
    <path d="M 24.271544 128.528148 
L 32.767466 128.528148 
L 32.767466 49.177225 
L 24.271544 49.177225 
z
" clip-path="url(#pedb4150c13)" style="fill: #00bfff"/>
   </g>
   <g id="patch_10">
    <path d="M 32.767466 128.528148 
L 41.263388 128.528148 
L 41.263388 128.528148 
L 32.767466 128.528148 
z
" clip-path="url(#pedb4150c13)" style="fill: #00bfff"/>
   </g>
   <g id="patch_11">
    <path d="M 41.263388 128.528148 
L 49.759311 128.528148 
L 49.759311 128.528148 
L 41.263388 128.528148 
z
" clip-path="url(#pedb4150c13)" style="fill: #00bfff"/>
   </g>
   <g id="patch_12">
    <path d="M 49.759311 128.528148 
L 58.255233 128.528148 
L 58.255233 128.528148 
L 49.759311 128.528148 
z
" clip-path="url(#pedb4150c13)" style="fill: #00bfff"/>
   </g>
   <g id="patch_13">
    <path d="M 58.255233 128.528148 
L 66.751155 128.528148 
L 66.751155 128.528148 
L 58.255233 128.528148 
z
" clip-path="url(#pedb4150c13)" style="fill: #00bfff"/>
   </g>
   <g id="patch_14">
    <path d="M 66.751155 128.528148 
L 75.247077 128.528148 
L 75.247077 128.528148 
L 66.751155 128.528148 
z
" clip-path="url(#pedb4150c13)" style="fill: #00bfff"/>
   </g>
   <g id="patch_15">
    <path d="M 75.247077 128.528148 
L 83.743 128.528148 
L 83.743 128.528148 
L 75.247077 128.528148 
z
" clip-path="url(#pedb4150c13)" style="fill: #00bfff"/>
   </g>
   <g id="patch_16">
    <path d="M 83.743 128.528148 
L 92.238922 128.528148 
L 92.238922 128.528148 
L 83.743 128.528148 
z
" clip-path="url(#pedb4150c13)" style="fill: #00bfff"/>
   </g>
   <g id="patch_17">
    <path d="M 92.238922 128.528148 
L 100.734844 128.528148 
L 100.734844 128.528148 
L 92.238922 128.528148 
z
" clip-path="url(#pedb4150c13)" style="fill: #00bfff"/>
   </g>
   <g id="patch_18">
    <path d="M 100.734844 128.528148 
L 109.230766 128.528148 
L 109.230766 128.528148 
L 100.734844 128.528148 
z
" clip-path="url(#pedb4150c13)" style="fill: #00bfff"/>
   </g>
   <g id="patch_19">
    <path d="M 109.230766 128.528148 
L 117.726688 128.528148 
L 117.726688 128.528148 
L 109.230766 128.528148 
z
" clip-path="url(#pedb4150c13)" style="fill: #00bfff"/>
   </g>
   <g id="patch_20">
    <path d="M 117.726688 128.528148 
L 126.222611 128.528148 
L 126.222611 128.528148 
L 117.726688 128.528148 
z
" clip-path="url(#pedb4150c13)" style="fill: #00bfff"/>
   </g>
   <g id="patch_21">
    <path d="M 126.222611 128.528148 
L 134.718533 128.528148 
L 134.718533 128.528148 
L 126.222611 128.528148 
z
" clip-path="url(#pedb4150c13)" style="fill: #00bfff"/>
   </g>
   <g id="patch_22">
    <path d="M 134.718533 128.528148 
L 143.214455 128.528148 
L 143.214455 128.528148 
L 134.718533 128.528148 
z
" clip-path="url(#pedb4150c13)" style="fill: #00bfff"/>
   </g>
   <g id="patch_23">
    <path d="M 143.214455 128.528148 
L 151.710377 128.528148 
L 151.710377 128.528148 
L 143.214455 128.528148 
z
" clip-path="url(#pedb4150c13)" style="fill: #00bfff"/>
   </g>
   <g id="patch_24">
    <path d="M 151.710377 128.528148 
L 160.2063 128.528148 
L 160.2063 128.528148 
L 151.710377 128.528148 
z
" clip-path="url(#pedb4150c13)" style="fill: #00bfff"/>
   </g>
   <g id="patch_25">
    <path d="M 160.2063 128.528148 
L 168.702222 128.528148 
L 168.702222 128.528148 
L 160.2063 128.528148 
z
" clip-path="url(#pedb4150c13)" style="fill: #00bfff"/>
   </g>
   <g id="patch_26">
    <path d="M 168.702222 128.528148 
L 177.198144 128.528148 
L 177.198144 128.528148 
L 168.702222 128.528148 
z
" clip-path="url(#pedb4150c13)" style="fill: #00bfff"/>
   </g>
   <g id="patch_27">
    <path d="M 177.198144 128.528148 
L 185.694066 128.528148 
L 185.694066 128.528148 
L 177.198144 128.528148 
z
" clip-path="url(#pedb4150c13)" style="fill: #00bfff"/>
   </g>
   <g id="patch_28">
    <path d="M 185.694066 128.528148 
L 194.189988 128.528148 
L 194.189988 128.528148 
L 185.694066 128.528148 
z
" clip-path="url(#pedb4150c13)" style="fill: #00bfff"/>
   </g>
   <g id="patch_29">
    <path d="M 194.189988 128.528148 
L 202.685911 128.528148 
L 202.685911 128.528148 
L 194.189988 128.528148 
z
" clip-path="url(#pedb4150c13)" style="fill: #00bfff"/>
   </g>
   <g id="patch_30">
    <path d="M 202.685911 128.528148 
L 211.181833 128.528148 
L 211.181833 128.528148 
L 202.685911 128.528148 
z
" clip-path="url(#pedb4150c13)" style="fill: #00bfff"/>
   </g>
   <g id="patch_31">
    <path d="M 211.181833 128.528148 
L 219.677755 128.528148 
L 219.677755 128.528148 
L 211.181833 128.528148 
z
" clip-path="url(#pedb4150c13)" style="fill: #00bfff"/>
   </g>
   <g id="patch_32">
    <path d="M 219.677755 128.528148 
L 228.173677 128.528148 
L 228.173677 128.528148 
L 219.677755 128.528148 
z
" clip-path="url(#pedb4150c13)" style="fill: #00bfff"/>
   </g>
   <g id="patch_33">
    <path d="M 228.173677 128.528148 
L 236.6696 128.528148 
L 236.6696 128.528148 
L 228.173677 128.528148 
z
" clip-path="url(#pedb4150c13)" style="fill: #00bfff"/>
   </g>
   <g id="patch_34">
    <path d="M 236.6696 128.528148 
L 245.165522 128.528148 
L 245.165522 128.528148 
L 236.6696 128.528148 
z
" clip-path="url(#pedb4150c13)" style="fill: #00bfff"/>
   </g>
   <g id="patch_35">
    <path d="M 245.165522 128.528148 
L 253.661444 128.528148 
L 253.661444 128.528148 
L 245.165522 128.528148 
z
" clip-path="url(#pedb4150c13)" style="fill: #00bfff"/>
   </g>
   <g id="patch_36">
    <path d="M 253.661444 128.528148 
L 262.157366 128.528148 
L 262.157366 128.528148 
L 253.661444 128.528148 
z
" clip-path="url(#pedb4150c13)" style="fill: #00bfff"/>
   </g>
   <g id="patch_37">
    <path d="M 262.157366 128.528148 
L 270.653289 128.528148 
L 270.653289 128.528148 
L 262.157366 128.528148 
z
" clip-path="url(#pedb4150c13)" style="fill: #00bfff"/>
   </g>
   <g id="patch_38">
    <path d="M 270.653289 128.528148 
L 279.149211 128.528148 
L 279.149211 128.528148 
L 270.653289 128.528148 
z
" clip-path="url(#pedb4150c13)" style="fill: #00bfff"/>
   </g>
   <g id="patch_39">
    <path d="M 279.149211 128.528148 
L 287.645133 128.528148 
L 287.645133 128.528148 
L 279.149211 128.528148 
z
" clip-path="url(#pedb4150c13)" style="fill: #00bfff"/>
   </g>
   <g id="patch_40">
    <path d="M 287.645133 128.528148 
L 296.141055 128.528148 
L 296.141055 128.528148 
L 287.645133 128.528148 
z
" clip-path="url(#pedb4150c13)" style="fill: #00bfff"/>
   </g>
   <g id="patch_41">
    <path d="M 296.141055 128.528148 
L 304.636977 128.528148 
L 304.636977 128.528148 
L 296.141055 128.528148 
z
" clip-path="url(#pedb4150c13)" style="fill: #00bfff"/>
   </g>
   <g id="patch_42">
    <path d="M 304.636977 128.528148 
L 313.1329 128.528148 
L 313.1329 128.528148 
L 304.636977 128.528148 
z
" clip-path="url(#pedb4150c13)" style="fill: #00bfff"/>
   </g>
   <g id="patch_43">
    <path d="M 313.1329 128.528148 
L 321.628822 128.528148 
L 321.628822 128.528148 
L 313.1329 128.528148 
z
" clip-path="url(#pedb4150c13)" style="fill: #00bfff"/>
   </g>
   <g id="patch_44">
    <path d="M 321.628822 128.528148 
L 330.124744 128.528148 
L 330.124744 128.528148 
L 321.628822 128.528148 
z
" clip-path="url(#pedb4150c13)" style="fill: #00bfff"/>
   </g>
   <g id="patch_45">
    <path d="M 330.124744 128.528148 
L 338.620666 128.528148 
L 338.620666 128.528148 
L 330.124744 128.528148 
z
" clip-path="url(#pedb4150c13)" style="fill: #00bfff"/>
   </g>
   <g id="patch_46">
    <path d="M 338.620666 128.528148 
L 347.116589 128.528148 
L 347.116589 128.528148 
L 338.620666 128.528148 
z
" clip-path="url(#pedb4150c13)" style="fill: #00bfff"/>
   </g>
   <g id="patch_47">
    <path d="M 347.116589 128.528148 
L 355.612511 128.528148 
L 355.612511 128.528148 
L 347.116589 128.528148 
z
" clip-path="url(#pedb4150c13)" style="fill: #00bfff"/>
   </g>
   <g id="patch_48">
    <path d="M 355.612511 128.528148 
L 364.108433 128.528148 
L 364.108433 128.528148 
L 355.612511 128.528148 
z
" clip-path="url(#pedb4150c13)" style="fill: #00bfff"/>
   </g>
   <g id="patch_49">
    <path d="M 364.108433 128.528148 
L 372.604355 128.528148 
L 372.604355 128.528148 
L 364.108433 128.528148 
z
" clip-path="url(#pedb4150c13)" style="fill: #00bfff"/>
   </g>
   <g id="patch_50">
    <path d="M 372.604355 128.528148 
L 381.100277 128.528148 
L 381.100277 128.528148 
L 372.604355 128.528148 
z
" clip-path="url(#pedb4150c13)" style="fill: #00bfff"/>
   </g>
   <g id="patch_51">
    <path d="M 381.100277 128.528148 
L 389.5962 128.528148 
L 389.5962 128.528148 
L 381.100277 128.528148 
z
" clip-path="url(#pedb4150c13)" style="fill: #00bfff"/>
   </g>
   <g id="patch_52">
    <path d="M 389.5962 128.528148 
L 398.092122 128.528148 
L 398.092122 128.528148 
L 389.5962 128.528148 
z
" clip-path="url(#pedb4150c13)" style="fill: #00bfff"/>
   </g>
   <g id="patch_53">
    <path d="M 398.092122 128.528148 
L 406.588044 128.528148 
L 406.588044 128.528148 
L 398.092122 128.528148 
z
" clip-path="url(#pedb4150c13)" style="fill: #00bfff"/>
   </g>
   <g id="patch_54">
    <path d="M 406.588044 128.528148 
L 415.083966 128.528148 
L 415.083966 128.528148 
L 406.588044 128.528148 
z
" clip-path="url(#pedb4150c13)" style="fill: #00bfff"/>
   </g>
   <g id="patch_55">
    <path d="M 415.083966 128.528148 
L 423.579889 128.528148 
L 423.579889 128.528148 
L 415.083966 128.528148 
z
" clip-path="url(#pedb4150c13)" style="fill: #00bfff"/>
   </g>
   <g id="patch_56">
    <path d="M 423.579889 128.528148 
L 432.075811 128.528148 
L 432.075811 128.528148 
L 423.579889 128.528148 
z
" clip-path="url(#pedb4150c13)" style="fill: #00bfff"/>
   </g>
   <g id="patch_57">
    <path d="M 432.075811 128.528148 
L 440.571733 128.528148 
L 440.571733 128.528148 
L 432.075811 128.528148 
z
" clip-path="url(#pedb4150c13)" style="fill: #00bfff"/>
   </g>
   <g id="patch_58">
    <path d="M 440.571733 128.528148 
L 449.067655 128.528148 
L 449.067655 128.528148 
L 440.571733 128.528148 
z
" clip-path="url(#pedb4150c13)" style="fill: #00bfff"/>
   </g>
   <g id="patch_59">
    <path d="M 449.067655 128.528148 
L 457.563578 128.528148 
L 457.563578 128.528148 
L 449.067655 128.528148 
z
" clip-path="url(#pedb4150c13)" style="fill: #00bfff"/>
   </g>
   <g id="patch_60">
    <path d="M 457.563578 128.528148 
L 466.0595 128.528148 
L 466.0595 128.528148 
L 457.563578 128.528148 
z
" clip-path="url(#pedb4150c13)" style="fill: #00bfff"/>
   </g>
   <g id="patch_61">
    <path d="M 466.0595 128.528148 
L 474.555422 128.528148 
L 474.555422 128.528148 
L 466.0595 128.528148 
z
" clip-path="url(#pedb4150c13)" style="fill: #00bfff"/>
   </g>
   <g id="patch_62">
    <path d="M 474.555422 128.528148 
L 483.051344 128.528148 
L 483.051344 128.528148 
L 474.555422 128.528148 
z
" clip-path="url(#pedb4150c13)" style="fill: #00bfff"/>
   </g>
   <g id="patch_63">
    <path d="M 483.051344 128.528148 
L 491.547266 128.528148 
L 491.547266 128.528148 
L 483.051344 128.528148 
z
" clip-path="url(#pedb4150c13)" style="fill: #00bfff"/>
   </g>
   <g id="patch_64">
    <path d="M 491.547266 128.528148 
L 500.043189 128.528148 
L 500.043189 128.528148 
L 491.547266 128.528148 
z
" clip-path="url(#pedb4150c13)" style="fill: #00bfff"/>
   </g>
   <g id="patch_65">
    <path d="M 500.043189 128.528148 
L 508.539111 128.528148 
L 508.539111 128.528148 
L 500.043189 128.528148 
z
" clip-path="url(#pedb4150c13)" style="fill: #00bfff"/>
   </g>
   <g id="patch_66">
    <path d="M 508.539111 128.528148 
L 517.035033 128.528148 
L 517.035033 128.528148 
L 508.539111 128.528148 
z
" clip-path="url(#pedb4150c13)" style="fill: #00bfff"/>
   </g>
   <g id="patch_67">
    <path d="M 517.035033 128.528148 
L 525.530955 128.528148 
L 525.530955 128.528148 
L 517.035033 128.528148 
z
" clip-path="url(#pedb4150c13)" style="fill: #00bfff"/>
   </g>
   <g id="patch_68">
    <path d="M 525.530955 128.528148 
L 534.026878 128.528148 
L 534.026878 128.528148 
L 525.530955 128.528148 
z
" clip-path="url(#pedb4150c13)" style="fill: #00bfff"/>
   </g>
   <g id="patch_69">
    <path d="M 534.026878 128.528148 
L 542.5228 128.528148 
L 542.5228 128.528148 
L 534.026878 128.528148 
z
" clip-path="url(#pedb4150c13)" style="fill: #00bfff"/>
   </g>
   <g id="patch_70">
    <path d="M 542.5228 128.528148 
L 551.018722 128.528148 
L 551.018722 128.528148 
L 542.5228 128.528148 
z
" clip-path="url(#pedb4150c13)" style="fill: #00bfff"/>
   </g>
   <g id="patch_71">
    <path d="M 551.018722 128.528148 
L 559.514644 128.528148 
L 559.514644 128.528148 
L 551.018722 128.528148 
z
" clip-path="url(#pedb4150c13)" style="fill: #00bfff"/>
   </g>
   <g id="patch_72">
    <path d="M 559.514644 128.528148 
L 568.010566 128.528148 
L 568.010566 128.528148 
L 559.514644 128.528148 
z
" clip-path="url(#pedb4150c13)" style="fill: #00bfff"/>
   </g>
   <g id="patch_73">
    <path d="M 568.010566 128.528148 
L 576.506489 128.528148 
L 576.506489 128.528148 
L 568.010566 128.528148 
z
" clip-path="url(#pedb4150c13)" style="fill: #00bfff"/>
   </g>
   <g id="patch_74">
    <path d="M 576.506489 128.528148 
L 585.002411 128.528148 
L 585.002411 128.528148 
L 576.506489 128.528148 
z
" clip-path="url(#pedb4150c13)" style="fill: #00bfff"/>
   </g>
   <g id="patch_75">
    <path d="M 585.002411 128.528148 
L 593.498333 128.528148 
L 593.498333 128.528148 
L 585.002411 128.528148 
z
" clip-path="url(#pedb4150c13)" style="fill: #00bfff"/>
   </g>
   <g id="patch_76">
    <path d="M 593.498333 128.528148 
L 601.994255 128.528148 
L 601.994255 128.528148 
L 593.498333 128.528148 
z
" clip-path="url(#pedb4150c13)" style="fill: #00bfff"/>
   </g>
   <g id="patch_77">
    <path d="M 601.994255 128.528148 
L 610.490178 128.528148 
L 610.490178 128.528148 
L 601.994255 128.528148 
z
" clip-path="url(#pedb4150c13)" style="fill: #00bfff"/>
   </g>
   <g id="patch_78">
    <path d="M 610.490178 128.528148 
L 618.9861 128.528148 
L 618.9861 128.528148 
L 610.490178 128.528148 
z
" clip-path="url(#pedb4150c13)" style="fill: #00bfff"/>
   </g>
   <g id="patch_79">
    <path d="M 618.9861 128.528148 
L 627.482022 128.528148 
L 627.482022 128.528148 
L 618.9861 128.528148 
z
" clip-path="url(#pedb4150c13)" style="fill: #00bfff"/>
   </g>
   <g id="patch_80">
    <path d="M 627.482022 128.528148 
L 635.977944 128.528148 
L 635.977944 128.528148 
L 627.482022 128.528148 
z
" clip-path="url(#pedb4150c13)" style="fill: #00bfff"/>
   </g>
   <g id="patch_81">
    <path d="M 635.977944 128.528148 
L 644.473867 128.528148 
L 644.473867 128.528148 
L 635.977944 128.528148 
z
" clip-path="url(#pedb4150c13)" style="fill: #00bfff"/>
   </g>
   <g id="patch_82">
    <path d="M 644.473867 128.528148 
L 652.969789 128.528148 
L 652.969789 128.528148 
L 644.473867 128.528148 
z
" clip-path="url(#pedb4150c13)" style="fill: #00bfff"/>
   </g>
   <g id="patch_83">
    <path d="M 652.969789 128.528148 
L 661.465711 128.528148 
L 661.465711 128.528148 
L 652.969789 128.528148 
z
" clip-path="url(#pedb4150c13)" style="fill: #00bfff"/>
   </g>
   <g id="patch_84">
    <path d="M 661.465711 128.528148 
L 669.961633 128.528148 
L 669.961633 128.528148 
L 661.465711 128.528148 
z
" clip-path="url(#pedb4150c13)" style="fill: #00bfff"/>
   </g>
   <g id="patch_85">
    <path d="M 669.961633 128.528148 
L 678.457555 128.528148 
L 678.457555 128.528148 
L 669.961633 128.528148 
z
" clip-path="url(#pedb4150c13)" style="fill: #00bfff"/>
   </g>
   <g id="patch_86">
    <path d="M 678.457555 128.528148 
L 686.953478 128.528148 
L 686.953478 128.528148 
L 678.457555 128.528148 
z
" clip-path="url(#pedb4150c13)" style="fill: #00bfff"/>
   </g>
   <g id="patch_87">
    <path d="M 686.953478 128.528148 
L 695.4494 128.528148 
L 695.4494 128.528148 
L 686.953478 128.528148 
z
" clip-path="url(#pedb4150c13)" style="fill: #00bfff"/>
   </g>
   <g id="patch_88">
    <path d="M 695.4494 128.528148 
L 703.945322 128.528148 
L 703.945322 128.528148 
L 695.4494 128.528148 
z
" clip-path="url(#pedb4150c13)" style="fill: #00bfff"/>
   </g>
   <g id="patch_89">
    <path d="M 703.945322 128.528148 
L 712.441244 128.528148 
L 712.441244 128.528148 
L 703.945322 128.528148 
z
" clip-path="url(#pedb4150c13)" style="fill: #00bfff"/>
   </g>
   <g id="patch_90">
    <path d="M 712.441244 128.528148 
L 720.937167 128.528148 
L 720.937167 128.528148 
L 712.441244 128.528148 
z
" clip-path="url(#pedb4150c13)" style="fill: #00bfff"/>
   </g>
   <g id="patch_91">
    <path d="M 720.937167 128.528148 
L 729.433089 128.528148 
L 729.433089 128.528148 
L 720.937167 128.528148 
z
" clip-path="url(#pedb4150c13)" style="fill: #00bfff"/>
   </g>
   <g id="patch_92">
    <path d="M 729.433089 128.528148 
L 737.929011 128.528148 
L 737.929011 128.528148 
L 729.433089 128.528148 
z
" clip-path="url(#pedb4150c13)" style="fill: #00bfff"/>
   </g>
   <g id="patch_93">
    <path d="M 737.929011 128.528148 
L 746.424933 128.528148 
L 746.424933 128.528148 
L 737.929011 128.528148 
z
" clip-path="url(#pedb4150c13)" style="fill: #00bfff"/>
   </g>
   <g id="patch_94">
    <path d="M 746.424933 128.528148 
L 754.920855 128.528148 
L 754.920855 128.528148 
L 746.424933 128.528148 
z
" clip-path="url(#pedb4150c13)" style="fill: #00bfff"/>
   </g>
   <g id="patch_95">
    <path d="M 754.920855 128.528148 
L 763.416778 128.528148 
L 763.416778 128.528148 
L 754.920855 128.528148 
z
" clip-path="url(#pedb4150c13)" style="fill: #00bfff"/>
   </g>
   <g id="patch_96">
    <path d="M 763.416778 128.528148 
L 771.9127 128.528148 
L 771.9127 128.528148 
L 763.416778 128.528148 
z
" clip-path="url(#pedb4150c13)" style="fill: #00bfff"/>
   </g>
   <g id="patch_97">
    <path d="M 771.9127 128.528148 
L 780.408622 128.528148 
L 780.408622 128.528148 
L 771.9127 128.528148 
z
" clip-path="url(#pedb4150c13)" style="fill: #00bfff"/>
   </g>
   <g id="patch_98">
    <path d="M 780.408622 128.528148 
L 788.904544 128.528148 
L 788.904544 128.528148 
L 780.408622 128.528148 
z
" clip-path="url(#pedb4150c13)" style="fill: #00bfff"/>
   </g>
   <g id="patch_99">
    <path d="M 788.904544 128.528148 
L 797.400467 128.528148 
L 797.400467 128.528148 
L 788.904544 128.528148 
z
" clip-path="url(#pedb4150c13)" style="fill: #00bfff"/>
   </g>
   <g id="patch_100">
    <path d="M 797.400467 128.528148 
L 805.896389 128.528148 
L 805.896389 128.528148 
L 797.400467 128.528148 
z
" clip-path="url(#pedb4150c13)" style="fill: #00bfff"/>
   </g>
   <g id="patch_101">
    <path d="M 805.896389 128.528148 
L 814.392311 128.528148 
L 814.392311 128.528148 
L 805.896389 128.528148 
z
" clip-path="url(#pedb4150c13)" style="fill: #00bfff"/>
   </g>
   <g id="patch_102">
    <path d="M 814.392311 128.528148 
L 822.888233 128.528148 
L 822.888233 128.528148 
L 814.392311 128.528148 
z
" clip-path="url(#pedb4150c13)" style="fill: #00bfff"/>
   </g>
   <g id="patch_103">
    <path d="M 822.888233 128.528148 
L 831.384156 128.528148 
L 831.384156 128.528148 
L 822.888233 128.528148 
z
" clip-path="url(#pedb4150c13)" style="fill: #00bfff"/>
   </g>
   <g id="patch_104">
    <path d="M 831.384156 128.528148 
L 839.880078 128.528148 
L 839.880078 128.528148 
L 831.384156 128.528148 
z
" clip-path="url(#pedb4150c13)" style="fill: #00bfff"/>
   </g>
   <g id="patch_105">
    <path d="M 839.880078 128.528148 
L 848.376 128.528148 
L 848.376 128.520212 
L 839.880078 128.520212 
z
" clip-path="url(#pedb4150c13)" style="fill: #00bfff"/>
   </g>
   <g id="line2d_19">
    <path d="M 7.2 126.871615 
L 15.866662 116.137144 
L 24.533324 97.769218 
L 33.199985 103.188873 
L 41.866647 121.600667 
L 50.533309 127.899634 
L 59.199971 128.509224 
L 67.866633 128.527959 
L 76.533295 128.528147 
L 85.199956 128.528148 
L 93.866618 128.528148 
L 102.53328 128.528148 
L 111.199942 128.528148 
L 119.866604 128.528148 
L 128.533265 128.528148 
L 137.199927 128.528148 
L 145.866589 128.528148 
L 154.533251 128.528148 
L 163.199913 128.528148 
L 171.866575 128.528148 
L 180.533236 128.528148 
L 189.199898 128.528148 
L 197.86656 128.528148 
L 206.533222 128.528148 
L 215.199884 128.528148 
L 223.866545 128.528148 
L 232.533207 128.528148 
L 241.199869 128.528148 
L 249.866531 128.528148 
L 258.533193 128.528148 
L 267.199855 128.528148 
L 275.866516 128.528148 
L 284.533178 128.528148 
L 293.19984 128.528148 
L 301.866502 128.528148 
L 310.533164 128.528148 
L 319.199825 128.528148 
L 327.866487 128.528148 
L 336.533149 128.528148 
L 345.199811 128.528148 
L 353.866473 128.528148 
L 362.533135 128.528148 
L 371.199796 128.528148 
L 379.866458 128.528148 
L 388.53312 128.528148 
L 397.199782 128.528148 
L 405.866444 128.528148 
L 414.533105 128.528148 
L 423.199767 128.528148 
L 431.866429 128.528148 
L 440.533091 128.528148 
L 449.199753 128.528148 
L 457.866415 128.528148 
L 466.533076 128.528148 
L 475.199738 128.528148 
L 483.8664 128.528148 
L 492.533062 128.528148 
L 501.199724 128.528148 
L 509.866385 128.528148 
L 518.533047 128.528148 
L 527.199709 128.528148 
L 535.866371 128.528148 
L 544.533033 128.528148 
L 553.199695 128.528148 
L 561.866356 128.528148 
L 570.533018 128.528148 
L 579.19968 128.528148 
L 587.866342 128.528148 
L 596.533004 128.528148 
L 605.199665 128.528148 
L 613.866327 128.528148 
L 622.532989 128.528148 
L 631.199651 128.528148 
L 639.866313 128.528148 
L 648.532975 128.528148 
L 657.199636 128.528148 
L 665.866298 128.528148 
L 674.53296 128.528148 
L 683.199622 128.528148 
L 691.866284 128.528148 
L 700.532945 128.528148 
L 709.199607 128.528148 
L 717.866269 128.528148 
L 726.532931 128.528148 
L 735.199593 128.528148 
L 743.866255 128.528148 
L 752.532916 128.528148 
L 761.199578 128.528148 
L 769.86624 128.528148 
L 778.532902 128.528148 
L 787.199564 128.528148 
L 795.866225 128.528148 
L 804.532887 128.528148 
L 813.199549 128.528148 
L 821.866211 128.528148 
L 830.532873 128.528148 
L 839.199535 128.528148 
L 847.866196 128.528148 
L 856.532858 128.528148 
L 865.19952 128.528148 
" clip-path="url(#pedb4150c13)" style="fill: none; stroke: #1f77b4; stroke-width: 1.5; stroke-linecap: square"/>
   </g>
   <g id="text_10">
    <g id="patch_106">
     <path d="M 23.664846 38.307963 
L 31.022658 38.307963 
Q 34.022658 38.307963 34.022658 35.307963 
L 34.022658 25.629838 
Q 34.022658 22.629838 31.022658 22.629838 
L 23.664846 22.629838 
Q 20.664846 22.629838 20.664846 25.629838 
L 20.664846 35.307963 
Q 20.664846 38.307963 23.664846 38.307963 
z
" style="fill: #ffffff"/>
    </g>
    <!-- μ -->
    <g transform="translate(23.664846 33.217338) scale(0.1 -0.1)">
     <defs>
      <path id="DejaVuSans-Bold-3bc" d="M 544 -1338 
L 544 3500 
L 1672 3500 
L 1672 1466 
Q 1672 1103 1828 926 
Q 1984 750 2303 750 
Q 2625 750 2781 926 
Q 2938 1103 2938 1466 
L 2938 3500 
L 4063 3500 
L 4063 1159 
Q 4063 938 4114 850 
Q 4166 763 4288 763 
Q 4344 763 4395 778 
Q 4447 794 4506 831 
L 4506 50 
Q 4341 -22 4195 -56 
Q 4050 -91 3909 -91 
Q 3631 -91 3454 26 
Q 3278 144 3169 403 
Q 3022 156 2811 32 
Q 2600 -91 2322 -91 
Q 2091 -91 1928 -17 
Q 1766 56 1672 206 
L 1672 -1338 
L 544 -1338 
z
" transform="scale(0.015625)"/>
     </defs>
     <use xlink:href="#DejaVuSans-Bold-3bc"/>
    </g>
   </g>
   <g id="text_11">
    <g id="patch_107">
     <path d="M 96.142295 38.307963 
L 123.584482 38.307963 
Q 126.584482 38.307963 126.584482 35.307963 
L 126.584482 25.629838 
Q 126.584482 22.629838 123.584482 22.629838 
L 96.142295 22.629838 
Q 93.142295 22.629838 93.142295 25.629838 
L 93.142295 35.307963 
Q 93.142295 38.307963 96.142295 38.307963 
z
" style="fill: #ffffff"/>
    </g>
    <!-- +10σ -->
    <g transform="translate(96.142295 33.228276) scale(0.1 -0.1)">
     <defs>
      <path id="DejaVuSans-2b" d="M 2944 4013 
L 2944 2272 
L 4684 2272 
L 4684 1741 
L 2944 1741 
L 2944 0 
L 2419 0 
L 2419 1741 
L 678 1741 
L 678 2272 
L 2419 2272 
L 2419 4013 
L 2944 4013 
z
" transform="scale(0.015625)"/>
     </defs>
     <use xlink:href="#DejaVuSans-2b"/>
     <use xlink:href="#DejaVuSans-31" transform="translate(83.789062 0)"/>
     <use xlink:href="#DejaVuSans-30" transform="translate(147.412109 0)"/>
     <use xlink:href="#DejaVuSans-3c3" transform="translate(211.035156 0)"/>
    </g>
   </g>
   <g id="text_12">
    <g id="patch_108">
     <path d="M 178.661931 38.307963 
L 206.104119 38.307963 
Q 209.104119 38.307963 209.104119 35.307963 
L 209.104119 25.629838 
Q 209.104119 22.629838 206.104119 22.629838 
L 178.661931 22.629838 
Q 175.661931 22.629838 175.661931 25.629838 
L 175.661931 35.307963 
Q 175.661931 38.307963 178.661931 38.307963 
z
" style="fill: #ffffff"/>
    </g>
    <!-- +20σ -->
    <g transform="translate(178.661931 33.228276) scale(0.1 -0.1)">
     <use xlink:href="#DejaVuSans-2b"/>
     <use xlink:href="#DejaVuSans-32" transform="translate(83.789062 0)"/>
     <use xlink:href="#DejaVuSans-30" transform="translate(147.412109 0)"/>
     <use xlink:href="#DejaVuSans-3c3" transform="translate(211.035156 0)"/>
    </g>
   </g>
   <g id="text_13">
    <g id="patch_109">
     <path d="M 261.181568 38.307963 
L 288.623755 38.307963 
Q 291.623755 38.307963 291.623755 35.307963 
L 291.623755 25.629838 
Q 291.623755 22.629838 288.623755 22.629838 
L 261.181568 22.629838 
Q 258.181568 22.629838 258.181568 25.629838 
L 258.181568 35.307963 
Q 258.181568 38.307963 261.181568 38.307963 
z
" style="fill: #ffffff"/>
    </g>
    <!-- +30σ -->
    <g transform="translate(261.181568 33.228276) scale(0.1 -0.1)">
     <use xlink:href="#DejaVuSans-2b"/>
     <use xlink:href="#DejaVuSans-33" transform="translate(83.789062 0)"/>
     <use xlink:href="#DejaVuSans-30" transform="translate(147.412109 0)"/>
     <use xlink:href="#DejaVuSans-3c3" transform="translate(211.035156 0)"/>
    </g>
   </g>
   <g id="text_14">
    <g id="patch_110">
     <path d="M 343.701204 38.307963 
L 371.143392 38.307963 
Q 374.143392 38.307963 374.143392 35.307963 
L 374.143392 25.629838 
Q 374.143392 22.629838 371.143392 22.629838 
L 343.701204 22.629838 
Q 340.701204 22.629838 340.701204 25.629838 
L 340.701204 35.307963 
Q 340.701204 38.307963 343.701204 38.307963 
z
" style="fill: #ffffff"/>
    </g>
    <!-- +40σ -->
    <g transform="translate(343.701204 33.228276) scale(0.1 -0.1)">
     <use xlink:href="#DejaVuSans-2b"/>
     <use xlink:href="#DejaVuSans-34" transform="translate(83.789062 0)"/>
     <use xlink:href="#DejaVuSans-30" transform="translate(147.412109 0)"/>
     <use xlink:href="#DejaVuSans-3c3" transform="translate(211.035156 0)"/>
    </g>
   </g>
   <g id="text_15">
    <g id="patch_111">
     <path d="M 426.220841 38.307963 
L 453.663028 38.307963 
Q 456.663028 38.307963 456.663028 35.307963 
L 456.663028 25.629838 
Q 456.663028 22.629838 453.663028 22.629838 
L 426.220841 22.629838 
Q 423.220841 22.629838 423.220841 25.629838 
L 423.220841 35.307963 
Q 423.220841 38.307963 426.220841 38.307963 
z
" style="fill: #ffffff"/>
    </g>
    <!-- +50σ -->
    <g transform="translate(426.220841 33.228276) scale(0.1 -0.1)">
     <use xlink:href="#DejaVuSans-2b"/>
     <use xlink:href="#DejaVuSans-35" transform="translate(83.789062 0)"/>
     <use xlink:href="#DejaVuSans-30" transform="translate(147.412109 0)"/>
     <use xlink:href="#DejaVuSans-3c3" transform="translate(211.035156 0)"/>
    </g>
   </g>
   <g id="text_16">
    <g id="patch_112">
     <path d="M 508.740477 38.307963 
L 536.182665 38.307963 
Q 539.182665 38.307963 539.182665 35.307963 
L 539.182665 25.629838 
Q 539.182665 22.629838 536.182665 22.629838 
L 508.740477 22.629838 
Q 505.740477 22.629838 505.740477 25.629838 
L 505.740477 35.307963 
Q 505.740477 38.307963 508.740477 38.307963 
z
" style="fill: #ffffff"/>
    </g>
    <!-- +60σ -->
    <g transform="translate(508.740477 33.228276) scale(0.1 -0.1)">
     <use xlink:href="#DejaVuSans-2b"/>
     <use xlink:href="#DejaVuSans-36" transform="translate(83.789062 0)"/>
     <use xlink:href="#DejaVuSans-30" transform="translate(147.412109 0)"/>
     <use xlink:href="#DejaVuSans-3c3" transform="translate(211.035156 0)"/>
    </g>
   </g>
   <g id="text_17">
    <g id="patch_113">
     <path d="M 591.260114 38.307963 
L 618.702301 38.307963 
Q 621.702301 38.307963 621.702301 35.307963 
L 621.702301 25.629838 
Q 621.702301 22.629838 618.702301 22.629838 
L 591.260114 22.629838 
Q 588.260114 22.629838 588.260114 25.629838 
L 588.260114 35.307963 
Q 588.260114 38.307963 591.260114 38.307963 
z
" style="fill: #ffffff"/>
    </g>
    <!-- +70σ -->
    <g transform="translate(591.260114 33.228276) scale(0.1 -0.1)">
     <use xlink:href="#DejaVuSans-2b"/>
     <use xlink:href="#DejaVuSans-37" transform="translate(83.789062 0)"/>
     <use xlink:href="#DejaVuSans-30" transform="translate(147.412109 0)"/>
     <use xlink:href="#DejaVuSans-3c3" transform="translate(211.035156 0)"/>
    </g>
   </g>
   <g id="text_18">
    <g id="patch_114">
     <path d="M 673.77975 38.307963 
L 701.221938 38.307963 
Q 704.221938 38.307963 704.221938 35.307963 
L 704.221938 25.629838 
Q 704.221938 22.629838 701.221938 22.629838 
L 673.77975 22.629838 
Q 670.77975 22.629838 670.77975 25.629838 
L 670.77975 35.307963 
Q 670.77975 38.307963 673.77975 38.307963 
z
" style="fill: #ffffff"/>
    </g>
    <!-- +80σ -->
    <g transform="translate(673.77975 33.228276) scale(0.1 -0.1)">
     <use xlink:href="#DejaVuSans-2b"/>
     <use xlink:href="#DejaVuSans-38" transform="translate(83.789062 0)"/>
     <use xlink:href="#DejaVuSans-30" transform="translate(147.412109 0)"/>
     <use xlink:href="#DejaVuSans-3c3" transform="translate(211.035156 0)"/>
    </g>
   </g>
   <g id="text_19">
    <g id="patch_115">
     <path d="M 756.299387 38.307963 
L 783.741574 38.307963 
Q 786.741574 38.307963 786.741574 35.307963 
L 786.741574 25.629838 
Q 786.741574 22.629838 783.741574 22.629838 
L 756.299387 22.629838 
Q 753.299387 22.629838 753.299387 25.629838 
L 753.299387 35.307963 
Q 753.299387 38.307963 756.299387 38.307963 
z
" style="fill: #ffffff"/>
    </g>
    <!-- +90σ -->
    <g transform="translate(756.299387 33.228276) scale(0.1 -0.1)">
     <defs>
      <path id="DejaVuSans-39" d="M 703 97 
L 703 672 
Q 941 559 1184 500 
Q 1428 441 1663 441 
Q 2288 441 2617 861 
Q 2947 1281 2994 2138 
Q 2813 1869 2534 1725 
Q 2256 1581 1919 1581 
Q 1219 1581 811 2004 
Q 403 2428 403 3163 
Q 403 3881 828 4315 
Q 1253 4750 1959 4750 
Q 2769 4750 3195 4129 
Q 3622 3509 3622 2328 
Q 3622 1225 3098 567 
Q 2575 -91 1691 -91 
Q 1453 -91 1209 -44 
Q 966 3 703 97 
z
M 1959 2075 
Q 2384 2075 2632 2365 
Q 2881 2656 2881 3163 
Q 2881 3666 2632 3958 
Q 2384 4250 1959 4250 
Q 1534 4250 1286 3958 
Q 1038 3666 1038 3163 
Q 1038 2656 1286 2365 
Q 1534 2075 1959 2075 
z
" transform="scale(0.015625)"/>
     </defs>
     <use xlink:href="#DejaVuSans-2b"/>
     <use xlink:href="#DejaVuSans-39" transform="translate(83.789062 0)"/>
     <use xlink:href="#DejaVuSans-30" transform="translate(147.412109 0)"/>
     <use xlink:href="#DejaVuSans-3c3" transform="translate(211.035156 0)"/>
    </g>
   </g>
  </g>
 </g>
 <defs>
  <clipPath id="pedb4150c13">
   <rect x="7.2" y="20.214138" width="857.99952" height="108.31401"/>
  </clipPath>
 </defs>
</svg>
