<?xml version="1.0" encoding="utf-8" standalone="no"?>
<!DOCTYPE svg PUBLIC "-//W3C//DTD SVG 1.1//EN"
  "http://www.w3.org/Graphics/SVG/1.1/DTD/svg11.dtd">
<svg xmlns:xlink="http://www.w3.org/1999/xlink" width="477.136664pt" height="289.374563pt" viewBox="0 0 477.136664 289.374563" xmlns="http://www.w3.org/2000/svg" version="1.1">
 <metadata>
  <rdf:RDF xmlns:dc="http://purl.org/dc/elements/1.1/" xmlns:cc="http://creativecommons.org/ns#" xmlns:rdf="http://www.w3.org/1999/02/22-rdf-syntax-ns#">
   <cc:Work>
    <dc:type rdf:resource="http://purl.org/dc/dcmitype/StillImage"/>
    <dc:format>image/svg+xml</dc:format>
    <dc:creator>
     <cc:Agent>
      <dc:title>Matplotlib, https://matplotlib.org/</dc:title>
     </cc:Agent>
    </dc:creator>
   </cc:Work>
  </rdf:RDF>
 </metadata>
 <defs>
  <style type="text/css">*{stroke-linejoin: round; stroke-linecap: butt}</style>
 </defs>
 <g id="figure_1">
  <g id="patch_1">
   <path d="M 0 289.374563 
L 477.136664 289.374563 
L 477.136664 0 
L 0 0 
z
" style="fill: #ffffff"/>
  </g>
  <g id="axes_1">
   <g id="patch_2">
    <path d="M 15.227289 126.896438 
L 394.732289 126.896438 
L 394.732289 20.136437 
L 15.227289 20.136437 
z
" style="fill: #ffffff"/>
   </g>
   <g id="matplotlib.axis_1">
    <g id="xtick_1">
     <g id="line2d_1">
      <defs>
       <path id="m8f1de1206a" d="M 0 0 
L 0 3.5 
" style="stroke: #000000; stroke-width: 0.8"/>
      </defs>
      <g>
       <use xlink:href="#m8f1de1206a" x="52.244013" y="126.896438" style="stroke: #000000; stroke-width: 0.8"/>
      </g>
     </g>
     <g id="text_1">
      <!-- −6 -->
      <g transform="translate(44.872919 141.494875) scale(0.1 -0.1)">
       <defs>
        <path id="DejaVuSans-2212" d="M 678 2272 
L 4684 2272 
L 4684 1741 
L 678 1741 
L 678 2272 
z
" transform="scale(0.015625)"/>
        <path id="DejaVuSans-36" d="M 2113 2584 
Q 1688 2584 1439 2293 
Q 1191 2003 1191 1497 
Q 1191 994 1439 701 
Q 1688 409 2113 409 
Q 2538 409 2786 701 
Q 3034 994 3034 1497 
Q 3034 2003 2786 2293 
Q 2538 2584 2113 2584 
z
M 3366 4563 
L 3366 3988 
Q 3128 4100 2886 4159 
Q 2644 4219 2406 4219 
Q 1781 4219 1451 3797 
Q 1122 3375 1075 2522 
Q 1259 2794 1537 2939 
Q 1816 3084 2150 3084 
Q 2853 3084 3261 2657 
Q 3669 2231 3669 1497 
Q 3669 778 3244 343 
Q 2819 -91 2113 -91 
Q 1303 -91 875 529 
Q 447 1150 447 2328 
Q 447 3434 972 4092 
Q 1497 4750 2381 4750 
Q 2619 4750 2861 4703 
Q 3103 4656 3366 4563 
z
" transform="scale(0.015625)"/>
       </defs>
       <use xlink:href="#DejaVuSans-2212"/>
       <use xlink:href="#DejaVuSans-36" x="83.789062"/>
      </g>
     </g>
    </g>
    <g id="xtick_2">
     <g id="line2d_2">
      <g>
       <use xlink:href="#m8f1de1206a" x="103.131621" y="126.896438" style="stroke: #000000; stroke-width: 0.8"/>
      </g>
     </g>
     <g id="text_2">
      <!-- −4 -->
      <g transform="translate(95.760527 141.494875) scale(0.1 -0.1)">
       <defs>
        <path id="DejaVuSans-34" d="M 2419 4116 
L 825 1625 
L 2419 1625 
L 2419 4116 
z
M 2253 4666 
L 3047 4666 
L 3047 1625 
L 3713 1625 
L 3713 1100 
L 3047 1100 
L 3047 0 
L 2419 0 
L 2419 1100 
L 313 1100 
L 313 1709 
L 2253 4666 
z
" transform="scale(0.015625)"/>
       </defs>
       <use xlink:href="#DejaVuSans-2212"/>
       <use xlink:href="#DejaVuSans-34" x="83.789062"/>
      </g>
     </g>
    </g>
    <g id="xtick_3">
     <g id="line2d_3">
      <g>
       <use xlink:href="#m8f1de1206a" x="154.019228" y="126.896438" style="stroke: #000000; stroke-width: 0.8"/>
      </g>
     </g>
     <g id="text_3">
      <!-- −2 -->
      <g transform="translate(146.648134 141.494875) scale(0.1 -0.1)">
       <defs>
        <path id="DejaVuSans-32" d="M 1228 531 
L 3431 531 
L 3431 0 
L 469 0 
L 469 531 
Q 828 903 1448 1529 
Q 2069 2156 2228 2338 
Q 2531 2678 2651 2914 
Q 2772 3150 2772 3378 
Q 2772 3750 2511 3984 
Q 2250 4219 1831 4219 
Q 1534 4219 1204 4116 
Q 875 4013 500 3803 
L 500 4441 
Q 881 4594 1212 4672 
Q 1544 4750 1819 4750 
Q 2544 4750 2975 4387 
Q 3406 4025 3406 3419 
Q 3406 3131 3298 2873 
Q 3191 2616 2906 2266 
Q 2828 2175 2409 1742 
Q 1991 1309 1228 531 
z
" transform="scale(0.015625)"/>
       </defs>
       <use xlink:href="#DejaVuSans-2212"/>
       <use xlink:href="#DejaVuSans-32" x="83.789062"/>
      </g>
     </g>
    </g>
    <g id="xtick_4">
     <g id="line2d_4">
      <g>
       <use xlink:href="#m8f1de1206a" x="204.906835" y="126.896438" style="stroke: #000000; stroke-width: 0.8"/>
      </g>
     </g>
     <g id="text_4">
      <!-- 0 -->
      <g transform="translate(201.725585 141.494875) scale(0.1 -0.1)">
       <defs>
        <path id="DejaVuSans-30" d="M 2034 4250 
Q 1547 4250 1301 3770 
Q 1056 3291 1056 2328 
Q 1056 1369 1301 889 
Q 1547 409 2034 409 
Q 2525 409 2770 889 
Q 3016 1369 3016 2328 
Q 3016 3291 2770 3770 
Q 2525 4250 2034 4250 
z
M 2034 4750 
Q 2819 4750 3233 4129 
Q 3647 3509 3647 2328 
Q 3647 1150 3233 529 
Q 2819 -91 2034 -91 
Q 1250 -91 836 529 
Q 422 1150 422 2328 
Q 422 3509 836 4129 
Q 1250 4750 2034 4750 
z
" transform="scale(0.015625)"/>
       </defs>
       <use xlink:href="#DejaVuSans-30"/>
      </g>
     </g>
    </g>
    <g id="xtick_5">
     <g id="line2d_5">
      <g>
       <use xlink:href="#m8f1de1206a" x="255.794443" y="126.896438" style="stroke: #000000; stroke-width: 0.8"/>
      </g>
     </g>
     <g id="text_5">
      <!-- 2 -->
      <g transform="translate(252.613193 141.494875) scale(0.1 -0.1)">
       <use xlink:href="#DejaVuSans-32"/>
      </g>
     </g>
    </g>
    <g id="xtick_6">
     <g id="line2d_6">
      <g>
       <use xlink:href="#m8f1de1206a" x="306.68205" y="126.896438" style="stroke: #000000; stroke-width: 0.8"/>
      </g>
     </g>
     <g id="text_6">
      <!-- 4 -->
      <g transform="translate(303.5008 141.494875) scale(0.1 -0.1)">
       <use xlink:href="#DejaVuSans-34"/>
      </g>
     </g>
    </g>
    <g id="xtick_7">
     <g id="line2d_7">
      <g>
       <use xlink:href="#m8f1de1206a" x="357.569658" y="126.896438" style="stroke: #000000; stroke-width: 0.8"/>
      </g>
     </g>
     <g id="text_7">
      <!-- 6 -->
      <g transform="translate(354.388408 141.494875) scale(0.1 -0.1)">
       <use xlink:href="#DejaVuSans-36"/>
      </g>
     </g>
    </g>
   </g>
   <g id="matplotlib.axis_2"/>
   <g id="line2d_8">
    <path d="M 179.555124 126.896438 
L 179.555124 20.136437 
" clip-path="url(#p3dabcd9bed)" style="fill: none; stroke: #000000; stroke-width: 1.5; stroke-linecap: square"/>
   </g>
   <g id="line2d_9">
    <path d="M 205.011028 126.896438 
L 205.011028 20.136437 
" clip-path="url(#p3dabcd9bed)" style="fill: none; stroke: #000000; stroke-width: 1.5; stroke-linecap: square"/>
   </g>
   <g id="line2d_10">
    <path d="M 230.466932 126.896438 
L 230.466932 20.136437 
" clip-path="url(#p3dabcd9bed)" style="fill: none; stroke: #000000; stroke-width: 1.5; stroke-linecap: square"/>
   </g>
   <g id="line2d_11">
    <path d="M 255.922835 126.896438 
L 255.922835 20.136437 
" clip-path="url(#p3dabcd9bed)" style="fill: none; stroke: #000000; stroke-width: 1.5; stroke-linecap: square"/>
   </g>
   <g id="line2d_12">
    <path d="M 281.378739 126.896438 
L 281.378739 20.136437 
" clip-path="url(#p3dabcd9bed)" style="fill: none; stroke: #000000; stroke-width: 1.5; stroke-linecap: square"/>
   </g>
   <g id="line2d_13">
    <path d="M 306.834642 126.896438 
L 306.834642 20.136437 
" clip-path="url(#p3dabcd9bed)" style="fill: none; stroke: #000000; stroke-width: 1.5; stroke-linecap: square"/>
   </g>
   <g id="line2d_14">
    <path d="M 332.290546 126.896438 
L 332.290546 20.136437 
" clip-path="url(#p3dabcd9bed)" style="fill: none; stroke: #000000; stroke-width: 1.5; stroke-linecap: square"/>
   </g>
   <g id="line2d_15">
    <path d="M 357.74645 126.896438 
L 357.74645 20.136437 
" clip-path="url(#p3dabcd9bed)" style="fill: none; stroke: #000000; stroke-width: 1.5; stroke-linecap: square"/>
   </g>
   <g id="line2d_16">
    <path d="M 383.202353 126.896438 
L 383.202353 20.136437 
" clip-path="url(#p3dabcd9bed)" style="fill: none; stroke: #000000; stroke-width: 1.5; stroke-linecap: square"/>
   </g>
   <g id="line2d_17">
    <path d="M 171.145776 126.896438 
L 171.145776 20.136437 
" clip-path="url(#p3dabcd9bed)" style="fill: none; stroke: #ff0000; stroke-width: 1.5; stroke-linecap: square"/>
   </g>
   <g id="line2d_18">
    <path d="M 387.291015 126.896438 
L 387.291015 20.136437 
" clip-path="url(#p3dabcd9bed)" style="fill: none; stroke: #ff0000; stroke-width: 1.5; stroke-linecap: square"/>
   </g>
   <g id="patch_3">
    <path d="M 15.227289 126.896438 
L 15.227289 20.136437 
" style="fill: none; stroke: #000000; stroke-width: 0.8; stroke-linejoin: miter; stroke-linecap: square"/>
   </g>
   <g id="patch_4">
    <path d="M 394.732289 126.896438 
L 394.732289 20.136437 
" style="fill: none; stroke: #000000; stroke-width: 0.8; stroke-linejoin: miter; stroke-linecap: square"/>
   </g>
   <g id="patch_5">
    <path d="M 15.227289 126.896438 
L 394.732289 126.896438 
" style="fill: none; stroke: #000000; stroke-width: 0.8; stroke-linejoin: miter; stroke-linecap: square"/>
   </g>
   <g id="patch_6">
    <path d="M 15.227289 20.136437 
L 394.732289 20.136437 
" style="fill: none; stroke: #000000; stroke-width: 0.8; stroke-linejoin: miter; stroke-linecap: square"/>
   </g>
   <g id="text_8">
    <g id="patch_7">
     <path d="M 170.145776 103.252375 
L 170.145776 43.7805 
Q 170.145776 43.7805 170.145776 43.7805 
L 160.467651 43.7805 
Q 160.467651 43.7805 160.467651 43.7805 
L 160.467651 103.252375 
Q 160.467651 103.252375 160.467651 103.252375 
L 170.145776 103.252375 
Q 170.145776 103.252375 170.145776 103.252375 
z
" style="fill: #ffffff"/>
    </g>
    <!-- min=-1.327 -->
    <g transform="translate(168.066088 103.252375) rotate(-90) scale(0.1 -0.1)">
     <defs>
      <path id="DejaVuSans-6d" d="M 3328 2828 
Q 3544 3216 3844 3400 
Q 4144 3584 4550 3584 
Q 5097 3584 5394 3201 
Q 5691 2819 5691 2113 
L 5691 0 
L 5113 0 
L 5113 2094 
Q 5113 2597 4934 2840 
Q 4756 3084 4391 3084 
Q 3944 3084 3684 2787 
Q 3425 2491 3425 1978 
L 3425 0 
L 2847 0 
L 2847 2094 
Q 2847 2600 2669 2842 
Q 2491 3084 2119 3084 
Q 1678 3084 1418 2786 
Q 1159 2488 1159 1978 
L 1159 0 
L 581 0 
L 581 3500 
L 1159 3500 
L 1159 2956 
Q 1356 3278 1631 3431 
Q 1906 3584 2284 3584 
Q 2666 3584 2933 3390 
Q 3200 3197 3328 2828 
z
" transform="scale(0.015625)"/>
      <path id="DejaVuSans-69" d="M 603 3500 
L 1178 3500 
L 1178 0 
L 603 0 
L 603 3500 
z
M 603 4863 
L 1178 4863 
L 1178 4134 
L 603 4134 
L 603 4863 
z
" transform="scale(0.015625)"/>
      <path id="DejaVuSans-6e" d="M 3513 2113 
L 3513 0 
L 2938 0 
L 2938 2094 
Q 2938 2591 2744 2837 
Q 2550 3084 2163 3084 
Q 1697 3084 1428 2787 
Q 1159 2491 1159 1978 
L 1159 0 
L 581 0 
L 581 3500 
L 1159 3500 
L 1159 2956 
Q 1366 3272 1645 3428 
Q 1925 3584 2291 3584 
Q 2894 3584 3203 3211 
Q 3513 2838 3513 2113 
z
" transform="scale(0.015625)"/>
      <path id="DejaVuSans-3d" d="M 678 2906 
L 4684 2906 
L 4684 2381 
L 678 2381 
L 678 2906 
z
M 678 1631 
L 4684 1631 
L 4684 1100 
L 678 1100 
L 678 1631 
z
" transform="scale(0.015625)"/>
      <path id="DejaVuSans-2d" d="M 313 2009 
L 1997 2009 
L 1997 1497 
L 313 1497 
L 313 2009 
z
" transform="scale(0.015625)"/>
      <path id="DejaVuSans-31" d="M 794 531 
L 1825 531 
L 1825 4091 
L 703 3866 
L 703 4441 
L 1819 4666 
L 2450 4666 
L 2450 531 
L 3481 531 
L 3481 0 
L 794 0 
L 794 531 
z
" transform="scale(0.015625)"/>
      <path id="DejaVuSans-2e" d="M 684 794 
L 1344 794 
L 1344 0 
L 684 0 
L 684 794 
z
" transform="scale(0.015625)"/>
      <path id="DejaVuSans-33" d="M 2597 2516 
Q 3050 2419 3304 2112 
Q 3559 1806 3559 1356 
Q 3559 666 3084 287 
Q 2609 -91 1734 -91 
Q 1441 -91 1130 -33 
Q 819 25 488 141 
L 488 750 
Q 750 597 1062 519 
Q 1375 441 1716 441 
Q 2309 441 2620 675 
Q 2931 909 2931 1356 
Q 2931 1769 2642 2001 
Q 2353 2234 1838 2234 
L 1294 2234 
L 1294 2753 
L 1863 2753 
Q 2328 2753 2575 2939 
Q 2822 3125 2822 3475 
Q 2822 3834 2567 4026 
Q 2313 4219 1838 4219 
Q 1578 4219 1281 4162 
Q 984 4106 628 3988 
L 628 4550 
Q 988 4650 1302 4700 
Q 1616 4750 1894 4750 
Q 2613 4750 3031 4423 
Q 3450 4097 3450 3541 
Q 3450 3153 3228 2886 
Q 3006 2619 2597 2516 
z
" transform="scale(0.015625)"/>
      <path id="DejaVuSans-37" d="M 525 4666 
L 3525 4666 
L 3525 4397 
L 1831 0 
L 1172 0 
L 2766 4134 
L 525 4134 
L 525 4666 
z
" transform="scale(0.015625)"/>
     </defs>
     <use xlink:href="#DejaVuSans-6d"/>
     <use xlink:href="#DejaVuSans-69" x="97.412109"/>
     <use xlink:href="#DejaVuSans-6e" x="125.195312"/>
     <use xlink:href="#DejaVuSans-3d" x="188.574219"/>
     <use xlink:href="#DejaVuSans-2d" x="272.363281"/>
     <use xlink:href="#DejaVuSans-31" x="308.447266"/>
     <use xlink:href="#DejaVuSans-2e" x="372.070312"/>
     <use xlink:href="#DejaVuSans-33" x="403.857422"/>
     <use xlink:href="#DejaVuSans-32" x="467.480469"/>
     <use xlink:href="#DejaVuSans-37" x="531.103516"/>
    </g>
   </g>
   <g id="text_9">
    <g id="patch_8">
     <path d="M 398.96914 102.914094 
L 398.96914 44.118781 
Q 398.96914 44.118781 398.96914 44.118781 
L 389.291015 44.118781 
Q 389.291015 44.118781 389.291015 44.118781 
L 389.291015 102.914094 
Q 389.291015 102.914094 389.291015 102.914094 
L 398.96914 102.914094 
Q 398.96914 102.914094 398.96914 102.914094 
z
" style="fill: #ffffff"/>
    </g>
    <!-- max=7.168 -->
    <g transform="translate(396.889452 102.914094) rotate(-90) scale(0.1 -0.1)">
     <defs>
      <path id="DejaVuSans-61" d="M 2194 1759 
Q 1497 1759 1228 1600 
Q 959 1441 959 1056 
Q 959 750 1161 570 
Q 1363 391 1709 391 
Q 2188 391 2477 730 
Q 2766 1069 2766 1631 
L 2766 1759 
L 2194 1759 
z
M 3341 1997 
L 3341 0 
L 2766 0 
L 2766 531 
Q 2569 213 2275 61 
Q 1981 -91 1556 -91 
Q 1019 -91 701 211 
Q 384 513 384 1019 
Q 384 1609 779 1909 
Q 1175 2209 1959 2209 
L 2766 2209 
L 2766 2266 
Q 2766 2663 2505 2880 
Q 2244 3097 1772 3097 
Q 1472 3097 1187 3025 
Q 903 2953 641 2809 
L 641 3341 
Q 956 3463 1253 3523 
Q 1550 3584 1831 3584 
Q 2591 3584 2966 3190 
Q 3341 2797 3341 1997 
z
" transform="scale(0.015625)"/>
      <path id="DejaVuSans-78" d="M 3513 3500 
L 2247 1797 
L 3578 0 
L 2900 0 
L 1881 1375 
L 863 0 
L 184 0 
L 1544 1831 
L 300 3500 
L 978 3500 
L 1906 2253 
L 2834 3500 
L 3513 3500 
z
" transform="scale(0.015625)"/>
      <path id="DejaVuSans-38" d="M 2034 2216 
Q 1584 2216 1326 1975 
Q 1069 1734 1069 1313 
Q 1069 891 1326 650 
Q 1584 409 2034 409 
Q 2484 409 2743 651 
Q 3003 894 3003 1313 
Q 3003 1734 2745 1975 
Q 2488 2216 2034 2216 
z
M 1403 2484 
Q 997 2584 770 2862 
Q 544 3141 544 3541 
Q 544 4100 942 4425 
Q 1341 4750 2034 4750 
Q 2731 4750 3128 4425 
Q 3525 4100 3525 3541 
Q 3525 3141 3298 2862 
Q 3072 2584 2669 2484 
Q 3125 2378 3379 2068 
Q 3634 1759 3634 1313 
Q 3634 634 3220 271 
Q 2806 -91 2034 -91 
Q 1263 -91 848 271 
Q 434 634 434 1313 
Q 434 1759 690 2068 
Q 947 2378 1403 2484 
z
M 1172 3481 
Q 1172 3119 1398 2916 
Q 1625 2713 2034 2713 
Q 2441 2713 2670 2916 
Q 2900 3119 2900 3481 
Q 2900 3844 2670 4047 
Q 2441 4250 2034 4250 
Q 1625 4250 1398 4047 
Q 1172 3844 1172 3481 
z
" transform="scale(0.015625)"/>
     </defs>
     <use xlink:href="#DejaVuSans-6d"/>
     <use xlink:href="#DejaVuSans-61" x="97.412109"/>
     <use xlink:href="#DejaVuSans-78" x="158.691406"/>
     <use xlink:href="#DejaVuSans-3d" x="217.871094"/>
     <use xlink:href="#DejaVuSans-37" x="301.660156"/>
     <use xlink:href="#DejaVuSans-2e" x="365.283203"/>
     <use xlink:href="#DejaVuSans-31" x="397.070312"/>
     <use xlink:href="#DejaVuSans-36" x="460.693359"/>
     <use xlink:href="#DejaVuSans-38" x="524.316406"/>
    </g>
   </g>
   <g id="text_10">
    <!-- 10000 samples (μ=3.006, σ=1.000) of array[100000] x∈[-1.327, 7.168] μ=3.005 σ=0.998 -->
    <g transform="translate(15.227289 14.798437) scale(0.1 -0.1)">
     <defs>
      <path id="DejaVuSans-20" transform="scale(0.015625)"/>
      <path id="DejaVuSans-73" d="M 2834 3397 
L 2834 2853 
Q 2591 2978 2328 3040 
Q 2066 3103 1784 3103 
Q 1356 3103 1142 2972 
Q 928 2841 928 2578 
Q 928 2378 1081 2264 
Q 1234 2150 1697 2047 
L 1894 2003 
Q 2506 1872 2764 1633 
Q 3022 1394 3022 966 
Q 3022 478 2636 193 
Q 2250 -91 1575 -91 
Q 1294 -91 989 -36 
Q 684 19 347 128 
L 347 722 
Q 666 556 975 473 
Q 1284 391 1588 391 
Q 1994 391 2212 530 
Q 2431 669 2431 922 
Q 2431 1156 2273 1281 
Q 2116 1406 1581 1522 
L 1381 1569 
Q 847 1681 609 1914 
Q 372 2147 372 2553 
Q 372 3047 722 3315 
Q 1072 3584 1716 3584 
Q 2034 3584 2315 3537 
Q 2597 3491 2834 3397 
z
" transform="scale(0.015625)"/>
      <path id="DejaVuSans-70" d="M 1159 525 
L 1159 -1331 
L 581 -1331 
L 581 3500 
L 1159 3500 
L 1159 2969 
Q 1341 3281 1617 3432 
Q 1894 3584 2278 3584 
Q 2916 3584 3314 3078 
Q 3713 2572 3713 1747 
Q 3713 922 3314 415 
Q 2916 -91 2278 -91 
Q 1894 -91 1617 61 
Q 1341 213 1159 525 
z
M 3116 1747 
Q 3116 2381 2855 2742 
Q 2594 3103 2138 3103 
Q 1681 3103 1420 2742 
Q 1159 2381 1159 1747 
Q 1159 1113 1420 752 
Q 1681 391 2138 391 
Q 2594 391 2855 752 
Q 3116 1113 3116 1747 
z
" transform="scale(0.015625)"/>
      <path id="DejaVuSans-6c" d="M 603 4863 
L 1178 4863 
L 1178 0 
L 603 0 
L 603 4863 
z
" transform="scale(0.015625)"/>
      <path id="DejaVuSans-65" d="M 3597 1894 
L 3597 1613 
L 953 1613 
Q 991 1019 1311 708 
Q 1631 397 2203 397 
Q 2534 397 2845 478 
Q 3156 559 3463 722 
L 3463 178 
Q 3153 47 2828 -22 
Q 2503 -91 2169 -91 
Q 1331 -91 842 396 
Q 353 884 353 1716 
Q 353 2575 817 3079 
Q 1281 3584 2069 3584 
Q 2775 3584 3186 3129 
Q 3597 2675 3597 1894 
z
M 3022 2063 
Q 3016 2534 2758 2815 
Q 2500 3097 2075 3097 
Q 1594 3097 1305 2825 
Q 1016 2553 972 2059 
L 3022 2063 
z
" transform="scale(0.015625)"/>
      <path id="DejaVuSans-28" d="M 1984 4856 
Q 1566 4138 1362 3434 
Q 1159 2731 1159 2009 
Q 1159 1288 1364 580 
Q 1569 -128 1984 -844 
L 1484 -844 
Q 1016 -109 783 600 
Q 550 1309 550 2009 
Q 550 2706 781 3412 
Q 1013 4119 1484 4856 
L 1984 4856 
z
" transform="scale(0.015625)"/>
      <path id="DejaVuSans-3bc" d="M 544 -1331 
L 544 3500 
L 1119 3500 
L 1119 1325 
Q 1119 872 1334 640 
Q 1550 409 1972 409 
Q 2434 409 2667 671 
Q 2900 934 2900 1459 
L 2900 3500 
L 3475 3500 
L 3475 806 
Q 3475 619 3529 530 
Q 3584 441 3700 441 
Q 3728 441 3778 458 
Q 3828 475 3916 513 
L 3916 50 
Q 3788 -22 3673 -56 
Q 3559 -91 3450 -91 
Q 3234 -91 3106 31 
Q 2978 153 2931 403 
Q 2775 156 2548 32 
Q 2322 -91 2016 -91 
Q 1697 -91 1473 31 
Q 1250 153 1119 397 
L 1119 -1331 
L 544 -1331 
z
" transform="scale(0.015625)"/>
      <path id="DejaVuSans-2c" d="M 750 794 
L 1409 794 
L 1409 256 
L 897 -744 
L 494 -744 
L 750 256 
L 750 794 
z
" transform="scale(0.015625)"/>
      <path id="DejaVuSans-3c3" d="M 1959 3044 
Q 1484 3044 1228 2700 
Q 959 2341 959 1747 
Q 959 1119 1226 758 
Q 1494 397 1959 397 
Q 2419 397 2687 759 
Q 2956 1122 2956 1747 
Q 2956 2319 2688 2700 
Q 2441 3044 1959 3044 
z
M 1959 3500 
L 3869 3500 
L 3869 2925 
L 3225 2925 
Q 3566 2438 3566 1747 
Q 3566 888 3138 400 
Q 2709 -91 1959 -91 
Q 1206 -91 781 400 
Q 353 888 353 1747 
Q 353 2613 781 3097 
Q 1134 3500 1959 3500 
z
" transform="scale(0.015625)"/>
      <path id="DejaVuSans-29" d="M 513 4856 
L 1013 4856 
Q 1481 4119 1714 3412 
Q 1947 2706 1947 2009 
Q 1947 1309 1714 600 
Q 1481 -109 1013 -844 
L 513 -844 
Q 928 -128 1133 580 
Q 1338 1288 1338 2009 
Q 1338 2731 1133 3434 
Q 928 4138 513 4856 
z
" transform="scale(0.015625)"/>
      <path id="DejaVuSans-6f" d="M 1959 3097 
Q 1497 3097 1228 2736 
Q 959 2375 959 1747 
Q 959 1119 1226 758 
Q 1494 397 1959 397 
Q 2419 397 2687 759 
Q 2956 1122 2956 1747 
Q 2956 2369 2687 2733 
Q 2419 3097 1959 3097 
z
M 1959 3584 
Q 2709 3584 3137 3096 
Q 3566 2609 3566 1747 
Q 3566 888 3137 398 
Q 2709 -91 1959 -91 
Q 1206 -91 779 398 
Q 353 888 353 1747 
Q 353 2609 779 3096 
Q 1206 3584 1959 3584 
z
" transform="scale(0.015625)"/>
      <path id="DejaVuSans-66" d="M 2375 4863 
L 2375 4384 
L 1825 4384 
Q 1516 4384 1395 4259 
Q 1275 4134 1275 3809 
L 1275 3500 
L 2222 3500 
L 2222 3053 
L 1275 3053 
L 1275 0 
L 697 0 
L 697 3053 
L 147 3053 
L 147 3500 
L 697 3500 
L 697 3744 
Q 697 4328 969 4595 
Q 1241 4863 1831 4863 
L 2375 4863 
z
" transform="scale(0.015625)"/>
      <path id="DejaVuSans-72" d="M 2631 2963 
Q 2534 3019 2420 3045 
Q 2306 3072 2169 3072 
Q 1681 3072 1420 2755 
Q 1159 2438 1159 1844 
L 1159 0 
L 581 0 
L 581 3500 
L 1159 3500 
L 1159 2956 
Q 1341 3275 1631 3429 
Q 1922 3584 2338 3584 
Q 2397 3584 2469 3576 
Q 2541 3569 2628 3553 
L 2631 2963 
z
" transform="scale(0.015625)"/>
      <path id="DejaVuSans-79" d="M 2059 -325 
Q 1816 -950 1584 -1140 
Q 1353 -1331 966 -1331 
L 506 -1331 
L 506 -850 
L 844 -850 
Q 1081 -850 1212 -737 
Q 1344 -625 1503 -206 
L 1606 56 
L 191 3500 
L 800 3500 
L 1894 763 
L 2988 3500 
L 3597 3500 
L 2059 -325 
z
" transform="scale(0.015625)"/>
      <path id="DejaVuSans-5b" d="M 550 4863 
L 1875 4863 
L 1875 4416 
L 1125 4416 
L 1125 -397 
L 1875 -397 
L 1875 -844 
L 550 -844 
L 550 4863 
z
" transform="scale(0.015625)"/>
      <path id="DejaVuSans-5d" d="M 1947 4863 
L 1947 -844 
L 622 -844 
L 622 -397 
L 1369 -397 
L 1369 4416 
L 622 4416 
L 622 4863 
L 1947 4863 
z
" transform="scale(0.015625)"/>
      <path id="DejaVuSans-2208" d="M 1072 1959 
Q 1094 1728 1291 1353 
Q 1522 919 1959 675 
Q 2388 438 2850 434 
L 5028 434 
L 5028 -63 
L 2850 -63 
Q 2250 -63 1695 246 
Q 1141 556 844 1106 
Q 547 1656 547 2241 
Q 547 2819 844 3369 
Q 1141 3919 1695 4231 
Q 2250 4544 2850 4544 
L 5028 4544 
L 5028 4047 
L 2850 4047 
Q 2388 4044 1959 3803 
Q 1525 3556 1291 3125 
Q 1091 2750 1063 2459 
L 5028 2459 
L 5028 1959 
L 1072 1959 
z
" transform="scale(0.015625)"/>
      <path id="DejaVuSans-35" d="M 691 4666 
L 3169 4666 
L 3169 4134 
L 1269 4134 
L 1269 2991 
Q 1406 3038 1543 3061 
Q 1681 3084 1819 3084 
Q 2600 3084 3056 2656 
Q 3513 2228 3513 1497 
Q 3513 744 3044 326 
Q 2575 -91 1722 -91 
Q 1428 -91 1123 -41 
Q 819 9 494 109 
L 494 744 
Q 775 591 1075 516 
Q 1375 441 1709 441 
Q 2250 441 2565 725 
Q 2881 1009 2881 1497 
Q 2881 1984 2565 2268 
Q 2250 2553 1709 2553 
Q 1456 2553 1204 2497 
Q 953 2441 691 2322 
L 691 4666 
z
" transform="scale(0.015625)"/>
      <path id="DejaVuSans-39" d="M 703 97 
L 703 672 
Q 941 559 1184 500 
Q 1428 441 1663 441 
Q 2288 441 2617 861 
Q 2947 1281 2994 2138 
Q 2813 1869 2534 1725 
Q 2256 1581 1919 1581 
Q 1219 1581 811 2004 
Q 403 2428 403 3163 
Q 403 3881 828 4315 
Q 1253 4750 1959 4750 
Q 2769 4750 3195 4129 
Q 3622 3509 3622 2328 
Q 3622 1225 3098 567 
Q 2575 -91 1691 -91 
Q 1453 -91 1209 -44 
Q 966 3 703 97 
z
M 1959 2075 
Q 2384 2075 2632 2365 
Q 2881 2656 2881 3163 
Q 2881 3666 2632 3958 
Q 2384 4250 1959 4250 
Q 1534 4250 1286 3958 
Q 1038 3666 1038 3163 
Q 1038 2656 1286 2365 
Q 1534 2075 1959 2075 
z
" transform="scale(0.015625)"/>
     </defs>
     <use xlink:href="#DejaVuSans-31"/>
     <use xlink:href="#DejaVuSans-30" x="63.623047"/>
     <use xlink:href="#DejaVuSans-30" x="127.246094"/>
     <use xlink:href="#DejaVuSans-30" x="190.869141"/>
     <use xlink:href="#DejaVuSans-30" x="254.492188"/>
     <use xlink:href="#DejaVuSans-20" x="318.115234"/>
     <use xlink:href="#DejaVuSans-73" x="349.902344"/>
     <use xlink:href="#DejaVuSans-61" x="402.001953"/>
     <use xlink:href="#DejaVuSans-6d" x="463.28125"/>
     <use xlink:href="#DejaVuSans-70" x="560.693359"/>
     <use xlink:href="#DejaVuSans-6c" x="624.169922"/>
     <use xlink:href="#DejaVuSans-65" x="651.953125"/>
     <use xlink:href="#DejaVuSans-73" x="713.476562"/>
     <use xlink:href="#DejaVuSans-20" x="765.576172"/>
     <use xlink:href="#DejaVuSans-28" x="797.363281"/>
     <use xlink:href="#DejaVuSans-3bc" x="836.376953"/>
     <use xlink:href="#DejaVuSans-3d" x="900"/>
     <use xlink:href="#DejaVuSans-33" x="983.789062"/>
     <use xlink:href="#DejaVuSans-2e" x="1047.412109"/>
     <use xlink:href="#DejaVuSans-30" x="1079.199219"/>
     <use xlink:href="#DejaVuSans-30" x="1142.822266"/>
     <use xlink:href="#DejaVuSans-36" x="1206.445312"/>
     <use xlink:href="#DejaVuSans-2c" x="1270.068359"/>
     <use xlink:href="#DejaVuSans-20" x="1301.855469"/>
     <use xlink:href="#DejaVuSans-3c3" x="1333.642578"/>
     <use xlink:href="#DejaVuSans-3d" x="1397.021484"/>
     <use xlink:href="#DejaVuSans-31" x="1480.810547"/>
     <use xlink:href="#DejaVuSans-2e" x="1544.433594"/>
     <use xlink:href="#DejaVuSans-30" x="1576.220703"/>
     <use xlink:href="#DejaVuSans-30" x="1639.84375"/>
     <use xlink:href="#DejaVuSans-30" x="1703.466797"/>
     <use xlink:href="#DejaVuSans-29" x="1767.089844"/>
     <use xlink:href="#DejaVuSans-20" x="1806.103516"/>
     <use xlink:href="#DejaVuSans-6f" x="1837.890625"/>
     <use xlink:href="#DejaVuSans-66" x="1899.072266"/>
     <use xlink:href="#DejaVuSans-20" x="1934.277344"/>
     <use xlink:href="#DejaVuSans-61" x="1966.064453"/>
     <use xlink:href="#DejaVuSans-72" x="2027.34375"/>
     <use xlink:href="#DejaVuSans-72" x="2066.707031"/>
     <use xlink:href="#DejaVuSans-61" x="2107.820312"/>
     <use xlink:href="#DejaVuSans-79" x="2169.099609"/>
     <use xlink:href="#DejaVuSans-5b" x="2228.279297"/>
     <use xlink:href="#DejaVuSans-31" x="2267.292969"/>
     <use xlink:href="#DejaVuSans-30" x="2330.916016"/>
     <use xlink:href="#DejaVuSans-30" x="2394.539062"/>
     <use xlink:href="#DejaVuSans-30" x="2458.162109"/>
     <use xlink:href="#DejaVuSans-30" x="2521.785156"/>
     <use xlink:href="#DejaVuSans-30" x="2585.408203"/>
     <use xlink:href="#DejaVuSans-5d" x="2649.03125"/>
     <use xlink:href="#DejaVuSans-20" x="2688.044922"/>
     <use xlink:href="#DejaVuSans-78" x="2719.832031"/>
     <use xlink:href="#DejaVuSans-2208" x="2779.011719"/>
     <use xlink:href="#DejaVuSans-5b" x="2866.121094"/>
     <use xlink:href="#DejaVuSans-2d" x="2905.134766"/>
     <use xlink:href="#DejaVuSans-31" x="2941.21875"/>
     <use xlink:href="#DejaVuSans-2e" x="3004.841797"/>
     <use xlink:href="#DejaVuSans-33" x="3036.628906"/>
     <use xlink:href="#DejaVuSans-32" x="3100.251953"/>
     <use xlink:href="#DejaVuSans-37" x="3163.875"/>
     <use xlink:href="#DejaVuSans-2c" x="3227.498047"/>
     <use xlink:href="#DejaVuSans-20" x="3259.285156"/>
     <use xlink:href="#DejaVuSans-37" x="3291.072266"/>
     <use xlink:href="#DejaVuSans-2e" x="3354.695312"/>
     <use xlink:href="#DejaVuSans-31" x="3386.482422"/>
     <use xlink:href="#DejaVuSans-36" x="3450.105469"/>
     <use xlink:href="#DejaVuSans-38" x="3513.728516"/>
     <use xlink:href="#DejaVuSans-5d" x="3577.351562"/>
     <use xlink:href="#DejaVuSans-20" x="3616.365234"/>
     <use xlink:href="#DejaVuSans-3bc" x="3648.152344"/>
     <use xlink:href="#DejaVuSans-3d" x="3711.775391"/>
     <use xlink:href="#DejaVuSans-33" x="3795.564453"/>
     <use xlink:href="#DejaVuSans-2e" x="3859.1875"/>
     <use xlink:href="#DejaVuSans-30" x="3890.974609"/>
     <use xlink:href="#DejaVuSans-30" x="3954.597656"/>
     <use xlink:href="#DejaVuSans-35" x="4018.220703"/>
     <use xlink:href="#DejaVuSans-20" x="4081.84375"/>
     <use xlink:href="#DejaVuSans-3c3" x="4113.630859"/>
     <use xlink:href="#DejaVuSans-3d" x="4177.009766"/>
     <use xlink:href="#DejaVuSans-30" x="4260.798828"/>
     <use xlink:href="#DejaVuSans-2e" x="4324.421875"/>
     <use xlink:href="#DejaVuSans-39" x="4356.208984"/>
     <use xlink:href="#DejaVuSans-39" x="4419.832031"/>
     <use xlink:href="#DejaVuSans-38" x="4483.455078"/>
    </g>
   </g>
   <g id="patch_9">
    <path d="M 188.999201 126.896438 
L 192.743382 126.896438 
L 192.743382 126.772684 
L 188.999201 126.772684 
z
" clip-path="url(#p3dabcd9bed)" style="fill: #00bfff"/>
   </g>
   <g id="patch_10">
    <path d="M 192.743382 126.896438 
L 196.487563 126.896438 
L 196.487563 126.401422 
L 192.743382 126.401422 
z
" clip-path="url(#p3dabcd9bed)" style="fill: #00bfff"/>
   </g>
   <g id="patch_11">
    <path d="M 196.487563 126.896438 
L 200.231744 126.896438 
L 200.231744 126.64893 
L 196.487563 126.64893 
z
" clip-path="url(#p3dabcd9bed)" style="fill: #00bfff"/>
   </g>
   <g id="patch_12">
    <path d="M 200.231744 126.896438 
L 203.975925 126.896438 
L 203.975925 126.277668 
L 200.231744 126.277668 
z
" clip-path="url(#p3dabcd9bed)" style="fill: #00bfff"/>
   </g>
   <g id="patch_13">
    <path d="M 203.975925 126.896438 
L 207.720105 126.896438 
L 207.720105 126.277668 
L 203.975925 126.277668 
z
" clip-path="url(#p3dabcd9bed)" style="fill: #00bfff"/>
   </g>
   <g id="patch_14">
    <path d="M 207.720105 126.896438 
L 211.464286 126.896438 
L 211.464286 124.668868 
L 207.720105 124.668868 
z
" clip-path="url(#p3dabcd9bed)" style="fill: #00bfff"/>
   </g>
   <g id="patch_15">
    <path d="M 211.464286 126.896438 
L 215.208467 126.896438 
L 215.208467 124.792621 
L 211.464286 124.792621 
z
" clip-path="url(#p3dabcd9bed)" style="fill: #00bfff"/>
   </g>
   <g id="patch_16">
    <path d="M 215.208467 126.896438 
L 218.952648 126.896438 
L 218.952648 123.307575 
L 215.208467 123.307575 
z
" clip-path="url(#p3dabcd9bed)" style="fill: #00bfff"/>
   </g>
   <g id="patch_17">
    <path d="M 218.952648 126.896438 
L 222.696829 126.896438 
L 222.696829 123.060067 
L 218.952648 123.060067 
z
" clip-path="url(#p3dabcd9bed)" style="fill: #00bfff"/>
   </g>
   <g id="patch_18">
    <path d="M 222.696829 126.896438 
L 226.441009 126.896438 
L 226.441009 120.956251 
L 222.696829 120.956251 
z
" clip-path="url(#p3dabcd9bed)" style="fill: #00bfff"/>
   </g>
   <g id="patch_19">
    <path d="M 226.441009 126.896438 
L 230.18519 126.896438 
L 230.18519 119.099943 
L 226.441009 119.099943 
z
" clip-path="url(#p3dabcd9bed)" style="fill: #00bfff"/>
   </g>
   <g id="patch_20">
    <path d="M 230.18519 126.896438 
L 233.929371 126.896438 
L 233.929371 117.367388 
L 230.18519 117.367388 
z
" clip-path="url(#p3dabcd9bed)" style="fill: #00bfff"/>
   </g>
   <g id="patch_21">
    <path d="M 233.929371 126.896438 
L 237.673552 126.896438 
L 237.673552 111.550956 
L 233.929371 111.550956 
z
" clip-path="url(#p3dabcd9bed)" style="fill: #00bfff"/>
   </g>
   <g id="patch_22">
    <path d="M 237.673552 126.896438 
L 241.417733 126.896438 
L 241.417733 110.808433 
L 237.673552 110.808433 
z
" clip-path="url(#p3dabcd9bed)" style="fill: #00bfff"/>
   </g>
   <g id="patch_23">
    <path d="M 241.417733 126.896438 
L 245.161913 126.896438 
L 245.161913 100.413106 
L 241.417733 100.413106 
z
" clip-path="url(#p3dabcd9bed)" style="fill: #00bfff"/>
   </g>
   <g id="patch_24">
    <path d="M 245.161913 126.896438 
L 248.906094 126.896438 
L 248.906094 97.195506 
L 245.161913 97.195506 
z
" clip-path="url(#p3dabcd9bed)" style="fill: #00bfff"/>
   </g>
   <g id="patch_25">
    <path d="M 248.906094 126.896438 
L 252.650275 126.896438 
L 252.650275 90.141534 
L 248.906094 90.141534 
z
" clip-path="url(#p3dabcd9bed)" style="fill: #00bfff"/>
   </g>
   <g id="patch_26">
    <path d="M 252.650275 126.896438 
L 256.394456 126.896438 
L 256.394456 82.592547 
L 252.650275 82.592547 
z
" clip-path="url(#p3dabcd9bed)" style="fill: #00bfff"/>
   </g>
   <g id="patch_27">
    <path d="M 256.394456 126.896438 
L 260.138637 126.896438 
L 260.138637 80.241224 
L 256.394456 80.241224 
z
" clip-path="url(#p3dabcd9bed)" style="fill: #00bfff"/>
   </g>
   <g id="patch_28">
    <path d="M 260.138637 126.896438 
L 263.882817 126.896438 
L 263.882817 75.414822 
L 260.138637 75.414822 
z
" clip-path="url(#p3dabcd9bed)" style="fill: #00bfff"/>
   </g>
   <g id="patch_29">
    <path d="M 263.882817 126.896438 
L 267.626998 126.896438 
L 267.626998 62.91568 
L 263.882817 62.91568 
z
" clip-path="url(#p3dabcd9bed)" style="fill: #00bfff"/>
   </g>
   <g id="patch_30">
    <path d="M 267.626998 126.896438 
L 271.371179 126.896438 
L 271.371179 61.925649 
L 267.626998 61.925649 
z
" clip-path="url(#p3dabcd9bed)" style="fill: #00bfff"/>
   </g>
   <g id="patch_31">
    <path d="M 271.371179 126.896438 
L 275.11536 126.896438 
L 275.11536 63.163188 
L 271.371179 63.163188 
z
" clip-path="url(#p3dabcd9bed)" style="fill: #00bfff"/>
   </g>
   <g id="patch_32">
    <path d="M 275.11536 126.896438 
L 278.859541 126.896438 
L 278.859541 56.109216 
L 275.11536 56.109216 
z
" clip-path="url(#p3dabcd9bed)" style="fill: #00bfff"/>
   </g>
   <g id="patch_33">
    <path d="M 278.859541 126.896438 
L 282.603721 126.896438 
L 282.603721 54.747924 
L 278.859541 54.747924 
z
" clip-path="url(#p3dabcd9bed)" style="fill: #00bfff"/>
   </g>
   <g id="patch_34">
    <path d="M 282.603721 126.896438 
L 286.347902 126.896438 
L 286.347902 48.683983 
L 282.603721 48.683983 
z
" clip-path="url(#p3dabcd9bed)" style="fill: #00bfff"/>
   </g>
   <g id="patch_35">
    <path d="M 286.347902 126.896438 
L 290.092083 126.896438 
L 290.092083 61.925649 
L 286.347902 61.925649 
z
" clip-path="url(#p3dabcd9bed)" style="fill: #00bfff"/>
   </g>
   <g id="patch_36">
    <path d="M 290.092083 126.896438 
L 293.836264 126.896438 
L 293.836264 64.648234 
L 290.092083 64.648234 
z
" clip-path="url(#p3dabcd9bed)" style="fill: #00bfff"/>
   </g>
   <g id="patch_37">
    <path d="M 293.836264 126.896438 
L 297.580445 126.896438 
L 297.580445 59.450571 
L 293.836264 59.450571 
z
" clip-path="url(#p3dabcd9bed)" style="fill: #00bfff"/>
   </g>
   <g id="patch_38">
    <path d="M 297.580445 126.896438 
L 301.324625 126.896438 
L 301.324625 71.578452 
L 297.580445 71.578452 
z
" clip-path="url(#p3dabcd9bed)" style="fill: #00bfff"/>
   </g>
   <g id="patch_39">
    <path d="M 301.324625 126.896438 
L 305.068806 126.896438 
L 305.068806 78.261161 
L 301.324625 78.261161 
z
" clip-path="url(#p3dabcd9bed)" style="fill: #00bfff"/>
   </g>
   <g id="patch_40">
    <path d="M 305.068806 126.896438 
L 308.812987 126.896438 
L 308.812987 81.478762 
L 305.068806 81.478762 
z
" clip-path="url(#p3dabcd9bed)" style="fill: #00bfff"/>
   </g>
   <g id="patch_41">
    <path d="M 308.812987 126.896438 
L 312.557168 126.896438 
L 312.557168 89.399011 
L 308.812987 89.399011 
z
" clip-path="url(#p3dabcd9bed)" style="fill: #00bfff"/>
   </g>
   <g id="patch_42">
    <path d="M 312.557168 126.896438 
L 316.301349 126.896438 
L 316.301349 92.369104 
L 312.557168 92.369104 
z
" clip-path="url(#p3dabcd9bed)" style="fill: #00bfff"/>
   </g>
   <g id="patch_43">
    <path d="M 316.301349 126.896438 
L 320.04553 126.896438 
L 320.04553 100.908122 
L 316.301349 100.908122 
z
" clip-path="url(#p3dabcd9bed)" style="fill: #00bfff"/>
   </g>
   <g id="patch_44">
    <path d="M 320.04553 126.896438 
L 323.78971 126.896438 
L 323.78971 105.363262 
L 320.04553 105.363262 
z
" clip-path="url(#p3dabcd9bed)" style="fill: #00bfff"/>
   </g>
   <g id="patch_45">
    <path d="M 323.78971 126.896438 
L 327.533891 126.896438 
L 327.533891 111.05594 
L 323.78971 111.05594 
z
" clip-path="url(#p3dabcd9bed)" style="fill: #00bfff"/>
   </g>
   <g id="patch_46">
    <path d="M 327.533891 126.896438 
L 331.278072 126.896438 
L 331.278072 115.882342 
L 327.533891 115.882342 
z
" clip-path="url(#p3dabcd9bed)" style="fill: #00bfff"/>
   </g>
   <g id="patch_47">
    <path d="M 331.278072 126.896438 
L 335.022253 126.896438 
L 335.022253 117.491142 
L 331.278072 117.491142 
z
" clip-path="url(#p3dabcd9bed)" style="fill: #00bfff"/>
   </g>
   <g id="patch_48">
    <path d="M 335.022253 126.896438 
L 338.766434 126.896438 
L 338.766434 121.327513 
L 335.022253 121.327513 
z
" clip-path="url(#p3dabcd9bed)" style="fill: #00bfff"/>
   </g>
   <g id="patch_49">
    <path d="M 338.766434 126.896438 
L 342.510614 126.896438 
L 342.510614 123.060067 
L 338.766434 123.060067 
z
" clip-path="url(#p3dabcd9bed)" style="fill: #00bfff"/>
   </g>
   <g id="patch_50">
    <path d="M 342.510614 126.896438 
L 346.254795 126.896438 
L 346.254795 123.926344 
L 342.510614 123.926344 
z
" clip-path="url(#p3dabcd9bed)" style="fill: #00bfff"/>
   </g>
   <g id="patch_51">
    <path d="M 346.254795 126.896438 
L 349.998976 126.896438 
L 349.998976 124.42136 
L 346.254795 124.42136 
z
" clip-path="url(#p3dabcd9bed)" style="fill: #00bfff"/>
   </g>
   <g id="patch_52">
    <path d="M 349.998976 126.896438 
L 353.743157 126.896438 
L 353.743157 125.287637 
L 349.998976 125.287637 
z
" clip-path="url(#p3dabcd9bed)" style="fill: #00bfff"/>
   </g>
   <g id="patch_53">
    <path d="M 353.743157 126.896438 
L 357.487338 126.896438 
L 357.487338 125.040129 
L 353.743157 125.040129 
z
" clip-path="url(#p3dabcd9bed)" style="fill: #00bfff"/>
   </g>
   <g id="patch_54">
    <path d="M 357.487338 126.896438 
L 361.231518 126.896438 
L 361.231518 126.277668 
L 357.487338 126.277668 
z
" clip-path="url(#p3dabcd9bed)" style="fill: #00bfff"/>
   </g>
   <g id="patch_55">
    <path d="M 361.231518 126.896438 
L 364.975699 126.896438 
L 364.975699 126.525176 
L 361.231518 126.525176 
z
" clip-path="url(#p3dabcd9bed)" style="fill: #00bfff"/>
   </g>
   <g id="patch_56">
    <path d="M 364.975699 126.896438 
L 368.71988 126.896438 
L 368.71988 126.525176 
L 364.975699 126.525176 
z
" clip-path="url(#p3dabcd9bed)" style="fill: #00bfff"/>
   </g>
   <g id="patch_57">
    <path d="M 368.71988 126.896438 
L 372.464061 126.896438 
L 372.464061 126.896438 
L 368.71988 126.896438 
z
" clip-path="url(#p3dabcd9bed)" style="fill: #00bfff"/>
   </g>
   <g id="patch_58">
    <path d="M 372.464061 126.896438 
L 376.208242 126.896438 
L 376.208242 126.896438 
L 372.464061 126.896438 
z
" clip-path="url(#p3dabcd9bed)" style="fill: #00bfff"/>
   </g>
   <g id="patch_59">
    <path d="M 376.208242 126.896438 
L 379.952422 126.896438 
L 379.952422 126.896438 
L 376.208242 126.896438 
z
" clip-path="url(#p3dabcd9bed)" style="fill: #00bfff"/>
   </g>
   <g id="patch_60">
    <path d="M 379.952422 126.896438 
L 383.696603 126.896438 
L 383.696603 126.64893 
L 379.952422 126.64893 
z
" clip-path="url(#p3dabcd9bed)" style="fill: #00bfff"/>
   </g>
   <g id="line2d_19">
    <path d="M 15.227289 126.896438 
L 19.060673 126.896438 
L 22.894057 126.896438 
L 26.727441 126.896438 
L 30.560824 126.896438 
L 34.394208 126.896438 
L 38.227592 126.896438 
L 42.060976 126.896438 
L 45.89436 126.896438 
L 49.727744 126.896438 
L 53.561127 126.896438 
L 57.394511 126.896438 
L 61.227895 126.896438 
L 65.061279 126.896438 
L 68.894663 126.896437 
L 72.728047 126.896437 
L 76.56143 126.896437 
L 80.394814 126.896437 
L 84.228198 126.896437 
L 88.061582 126.896437 
L 91.894966 126.896437 
L 95.72835 126.896437 
L 99.561734 126.896437 
L 103.395117 126.896437 
L 107.228501 126.896437 
L 111.061885 126.896437 
L 114.895269 126.896437 
L 118.728653 126.896437 
L 122.562037 126.896437 
L 126.39542 126.896437 
L 130.228804 126.896436 
L 134.062188 126.896434 
L 137.895572 126.896428 
L 141.728956 126.896416 
L 145.56234 126.89639 
L 149.395723 126.896332 
L 153.229107 126.89621 
L 157.062491 126.895956 
L 160.895875 126.895445 
L 164.729259 126.894436 
L 168.562643 126.892493 
L 172.396026 126.888835 
L 176.22941 126.882115 
L 180.062794 126.87006 
L 183.896178 126.848946 
L 187.729562 126.812851 
L 191.562946 126.752621 
L 195.396329 126.654538 
L 199.229713 126.498685 
L 203.063097 126.257083 
L 206.896481 125.891771 
L 210.729865 125.353125 
L 214.563249 124.578844 
L 218.396633 123.494142 
L 222.230016 122.013758 
L 226.0634 120.046353 
L 229.896784 117.50169 
L 233.730168 114.300638 
L 237.563552 110.387549 
L 241.396936 105.743953 
L 245.230319 100.401897 
L 249.063703 94.454793 
L 252.897087 88.063452 
L 256.730471 81.455198 
L 260.563855 74.914673 
L 264.397239 68.766036 
L 268.230622 63.347677 
L 272.064006 58.981969 
L 275.89739 55.943727 
L 279.730774 54.431632 
L 283.564158 54.546738 
L 287.397542 56.281303 
L 291.230925 59.519649 
L 295.064309 64.050923 
L 298.897693 69.591806 
L 302.731077 75.815764 
L 306.564461 82.384657 
L 310.397845 88.978493 
L 314.231228 95.319787 
L 318.064612 101.190184 
L 321.897996 106.438447 
L 325.73138 110.980265 
L 329.564764 114.791411 
L 333.398148 117.8964 
L 337.231532 120.354983 
L 341.064915 122.248548 
L 344.898299 123.668027 
L 348.731683 124.704273 
L 352.565067 125.441283 
L 356.398451 125.952167 
L 360.231835 126.297426 
L 364.065218 126.524966 
L 367.898602 126.671238 
L 371.731986 126.762975 
L 375.56537 126.819115 
L 379.398754 126.852645 
L 383.232138 126.872191 
L 387.065521 126.883314 
L 390.898905 126.889494 
L 394.732289 126.892846 
" clip-path="url(#p3dabcd9bed)" style="fill: none; stroke: #1f77b4; stroke-width: 1.5; stroke-linecap: square"/>
   </g>
   <g id="text_11">
    <g id="patch_61">
     <path d="M 171.401218 38.152563 
L 187.709031 38.152563 
Q 190.709031 38.152563 190.709031 35.152563 
L 190.709031 25.474438 
Q 190.709031 22.474438 187.709031 22.474438 
L 171.401218 22.474438 
Q 168.401218 22.474438 168.401218 25.474438 
L 168.401218 35.152563 
Q 168.401218 38.152563 171.401218 38.152563 
z
" style="fill: #ffffff"/>
    </g>
    <!-- -4σ -->
    <g transform="translate(171.401218 33.072875) scale(0.1 -0.1)">
     <use xlink:href="#DejaVuSans-2d"/>
     <use xlink:href="#DejaVuSans-34" x="36.083984"/>
     <use xlink:href="#DejaVuSans-3c3" x="99.707031"/>
    </g>
   </g>
   <g id="text_12">
    <g id="patch_62">
     <path d="M 196.857122 38.152563 
L 213.164934 38.152563 
Q 216.164934 38.152563 216.164934 35.152563 
L 216.164934 25.474438 
Q 216.164934 22.474438 213.164934 22.474438 
L 196.857122 22.474438 
Q 193.857122 22.474438 193.857122 25.474438 
L 193.857122 35.152563 
Q 193.857122 38.152563 196.857122 38.152563 
z
" style="fill: #ffffff"/>
    </g>
    <!-- -3σ -->
    <g transform="translate(196.857122 33.072875) scale(0.1 -0.1)">
     <use xlink:href="#DejaVuSans-2d"/>
     <use xlink:href="#DejaVuSans-33" x="36.083984"/>
     <use xlink:href="#DejaVuSans-3c3" x="99.707031"/>
    </g>
   </g>
   <g id="text_13">
    <g id="patch_63">
     <path d="M 222.313025 38.152563 
L 238.620838 38.152563 
Q 241.620838 38.152563 241.620838 35.152563 
L 241.620838 25.474438 
Q 241.620838 22.474438 238.620838 22.474438 
L 222.313025 22.474438 
Q 219.313025 22.474438 219.313025 25.474438 
L 219.313025 35.152563 
Q 219.313025 38.152563 222.313025 38.152563 
z
" style="fill: #ffffff"/>
    </g>
    <!-- -2σ -->
    <g transform="translate(222.313025 33.072875) scale(0.1 -0.1)">
     <use xlink:href="#DejaVuSans-2d"/>
     <use xlink:href="#DejaVuSans-32" x="36.083984"/>
     <use xlink:href="#DejaVuSans-3c3" x="99.707031"/>
    </g>
   </g>
   <g id="text_14">
    <g id="patch_64">
     <path d="M 250.950179 38.152563 
L 260.895492 38.152563 
Q 263.895492 38.152563 263.895492 35.152563 
L 263.895492 25.474438 
Q 263.895492 22.474438 260.895492 22.474438 
L 250.950179 22.474438 
Q 247.950179 22.474438 247.950179 25.474438 
L 247.950179 35.152563 
Q 247.950179 38.152563 250.950179 38.152563 
z
" style="fill: #ffffff"/>
    </g>
    <!-- -σ -->
    <g transform="translate(250.950179 33.072875) scale(0.1 -0.1)">
     <use xlink:href="#DejaVuSans-2d"/>
     <use xlink:href="#DejaVuSans-3c3" x="36.083984"/>
    </g>
   </g>
   <g id="text_15">
    <g id="patch_65">
     <path d="M 277.699833 38.152563 
L 285.057645 38.152563 
Q 288.057645 38.152563 288.057645 35.152563 
L 288.057645 25.474438 
Q 288.057645 22.474438 285.057645 22.474438 
L 277.699833 22.474438 
Q 274.699833 22.474438 274.699833 25.474438 
L 274.699833 35.152563 
Q 274.699833 38.152563 277.699833 38.152563 
z
" style="fill: #ffffff"/>
    </g>
    <!-- μ -->
    <g transform="translate(277.699833 33.061937) scale(0.1 -0.1)">
     <defs>
      <path id="DejaVuSans-Bold-3bc" d="M 544 -1338 
L 544 3500 
L 1672 3500 
L 1672 1466 
Q 1672 1103 1828 926 
Q 1984 750 2303 750 
Q 2625 750 2781 926 
Q 2938 1103 2938 1466 
L 2938 3500 
L 4063 3500 
L 4063 1159 
Q 4063 938 4114 850 
Q 4166 763 4288 763 
Q 4344 763 4395 778 
Q 4447 794 4506 831 
L 4506 50 
Q 4341 -22 4195 -56 
Q 4050 -91 3909 -91 
Q 3631 -91 3454 26 
Q 3278 144 3169 403 
Q 3022 156 2811 32 
Q 2600 -91 2322 -91 
Q 2091 -91 1928 -17 
Q 1766 56 1672 206 
L 1672 -1338 
L 544 -1338 
z
" transform="scale(0.015625)"/>
     </defs>
     <use xlink:href="#DejaVuSans-Bold-3bc"/>
    </g>
   </g>
   <g id="text_16">
    <g id="patch_66">
     <path d="M 299.476049 38.152563 
L 314.193236 38.152563 
Q 317.193236 38.152563 317.193236 35.152563 
L 317.193236 25.474438 
Q 317.193236 22.474438 314.193236 22.474438 
L 299.476049 22.474438 
Q 296.476049 22.474438 296.476049 25.474438 
L 296.476049 35.152563 
Q 296.476049 38.152563 299.476049 38.152563 
z
" style="fill: #ffffff"/>
    </g>
    <!-- +σ -->
    <g transform="translate(299.476049 33.072875) scale(0.1 -0.1)">
     <defs>
      <path id="DejaVuSans-2b" d="M 2944 4013 
L 2944 2272 
L 4684 2272 
L 4684 1741 
L 2944 1741 
L 2944 0 
L 2419 0 
L 2419 1741 
L 678 1741 
L 678 2272 
L 2419 2272 
L 2419 4013 
L 2944 4013 
z
" transform="scale(0.015625)"/>
     </defs>
     <use xlink:href="#DejaVuSans-2b"/>
     <use xlink:href="#DejaVuSans-3c3" x="83.789062"/>
    </g>
   </g>
   <g id="text_17">
    <g id="patch_67">
     <path d="M 321.750702 38.152563 
L 342.83039 38.152563 
Q 345.83039 38.152563 345.83039 35.152563 
L 345.83039 25.474438 
Q 345.83039 22.474438 342.83039 22.474438 
L 321.750702 22.474438 
Q 318.750702 22.474438 318.750702 25.474438 
L 318.750702 35.152563 
Q 318.750702 38.152563 321.750702 38.152563 
z
" style="fill: #ffffff"/>
    </g>
    <!-- +2σ -->
    <g transform="translate(321.750702 33.072875) scale(0.1 -0.1)">
     <use xlink:href="#DejaVuSans-2b"/>
     <use xlink:href="#DejaVuSans-32" x="83.789062"/>
     <use xlink:href="#DejaVuSans-3c3" x="147.412109"/>
    </g>
   </g>
   <g id="text_18">
    <g id="patch_68">
     <path d="M 347.206606 38.152563 
L 368.286293 38.152563 
Q 371.286293 38.152563 371.286293 35.152563 
L 371.286293 25.474438 
Q 371.286293 22.474438 368.286293 22.474438 
L 347.206606 22.474438 
Q 344.206606 22.474438 344.206606 25.474438 
L 344.206606 35.152563 
Q 344.206606 38.152563 347.206606 38.152563 
z
" style="fill: #ffffff"/>
    </g>
    <!-- +3σ -->
    <g transform="translate(347.206606 33.072875) scale(0.1 -0.1)">
     <use xlink:href="#DejaVuSans-2b"/>
     <use xlink:href="#DejaVuSans-33" x="83.789062"/>
     <use xlink:href="#DejaVuSans-3c3" x="147.412109"/>
    </g>
   </g>
   <g id="text_19">
    <g id="patch_69">
     <path d="M 372.66251 38.152563 
L 393.742197 38.152563 
Q 396.742197 38.152563 396.742197 35.152563 
L 396.742197 25.474438 
Q 396.742197 22.474438 393.742197 22.474438 
L 372.66251 22.474438 
Q 369.66251 22.474438 369.66251 25.474438 
L 369.66251 35.152563 
Q 369.66251 38.152563 372.66251 38.152563 
z
" style="fill: #ffffff"/>
    </g>
    <!-- +4σ -->
    <g transform="translate(372.66251 33.072875) scale(0.1 -0.1)">
     <use xlink:href="#DejaVuSans-2b"/>
     <use xlink:href="#DejaVuSans-34" x="83.789062"/>
     <use xlink:href="#DejaVuSans-3c3" x="147.412109"/>
    </g>
   </g>
  </g>
  <g id="axes_2">
   <g id="patch_70">
    <path d="M 15.227289 265.496438 
L 394.732289 265.496438 
L 394.732289 158.736438 
L 15.227289 158.736438 
z
" style="fill: #ffffff"/>
   </g>
   <g id="matplotlib.axis_3">
    <g id="xtick_8">
     <g id="line2d_20">
      <g>
       <use xlink:href="#m8f1de1206a" x="22.522656" y="265.496438" style="stroke: #000000; stroke-width: 0.8"/>
      </g>
     </g>
     <g id="text_20">
      <!-- −1.00 -->
      <g transform="translate(7.2 280.094875) scale(0.1 -0.1)">
       <use xlink:href="#DejaVuSans-2212"/>
       <use xlink:href="#DejaVuSans-31" x="83.789062"/>
       <use xlink:href="#DejaVuSans-2e" x="147.412109"/>
       <use xlink:href="#DejaVuSans-30" x="179.199219"/>
       <use xlink:href="#DejaVuSans-30" x="242.822266"/>
      </g>
     </g>
    </g>
    <g id="xtick_9">
     <g id="line2d_21">
      <g>
       <use xlink:href="#m8f1de1206a" x="68.118701" y="265.496438" style="stroke: #000000; stroke-width: 0.8"/>
      </g>
     </g>
     <g id="text_21">
      <!-- −0.75 -->
      <g transform="translate(52.796045 280.094875) scale(0.1 -0.1)">
       <use xlink:href="#DejaVuSans-2212"/>
       <use xlink:href="#DejaVuSans-30" x="83.789062"/>
       <use xlink:href="#DejaVuSans-2e" x="147.412109"/>
       <use xlink:href="#DejaVuSans-37" x="179.199219"/>
       <use xlink:href="#DejaVuSans-35" x="242.822266"/>
      </g>
     </g>
    </g>
    <g id="xtick_10">
     <g id="line2d_22">
      <g>
       <use xlink:href="#m8f1de1206a" x="113.714746" y="265.496438" style="stroke: #000000; stroke-width: 0.8"/>
      </g>
     </g>
     <g id="text_22">
      <!-- −0.50 -->
      <g transform="translate(98.39209 280.094875) scale(0.1 -0.1)">
       <use xlink:href="#DejaVuSans-2212"/>
       <use xlink:href="#DejaVuSans-30" x="83.789062"/>
       <use xlink:href="#DejaVuSans-2e" x="147.412109"/>
       <use xlink:href="#DejaVuSans-35" x="179.199219"/>
       <use xlink:href="#DejaVuSans-30" x="242.822266"/>
      </g>
     </g>
    </g>
    <g id="xtick_11">
     <g id="line2d_23">
      <g>
       <use xlink:href="#m8f1de1206a" x="159.310791" y="265.496438" style="stroke: #000000; stroke-width: 0.8"/>
      </g>
     </g>
     <g id="text_23">
      <!-- −0.25 -->
      <g transform="translate(143.988134 280.094875) scale(0.1 -0.1)">
       <use xlink:href="#DejaVuSans-2212"/>
       <use xlink:href="#DejaVuSans-30" x="83.789062"/>
       <use xlink:href="#DejaVuSans-2e" x="147.412109"/>
       <use xlink:href="#DejaVuSans-32" x="179.199219"/>
       <use xlink:href="#DejaVuSans-35" x="242.822266"/>
      </g>
     </g>
    </g>
    <g id="xtick_12">
     <g id="line2d_24">
      <g>
       <use xlink:href="#m8f1de1206a" x="204.906835" y="265.496438" style="stroke: #000000; stroke-width: 0.8"/>
      </g>
     </g>
     <g id="text_24">
      <!-- 0.00 -->
      <g transform="translate(193.774023 280.094875) scale(0.1 -0.1)">
       <use xlink:href="#DejaVuSans-30"/>
       <use xlink:href="#DejaVuSans-2e" x="63.623047"/>
       <use xlink:href="#DejaVuSans-30" x="95.410156"/>
       <use xlink:href="#DejaVuSans-30" x="159.033203"/>
      </g>
     </g>
    </g>
    <g id="xtick_13">
     <g id="line2d_25">
      <g>
       <use xlink:href="#m8f1de1206a" x="250.50288" y="265.496438" style="stroke: #000000; stroke-width: 0.8"/>
      </g>
     </g>
     <g id="text_25">
      <!-- 0.25 -->
      <g transform="translate(239.370068 280.094875) scale(0.1 -0.1)">
       <use xlink:href="#DejaVuSans-30"/>
       <use xlink:href="#DejaVuSans-2e" x="63.623047"/>
       <use xlink:href="#DejaVuSans-32" x="95.410156"/>
       <use xlink:href="#DejaVuSans-35" x="159.033203"/>
      </g>
     </g>
    </g>
    <g id="xtick_14">
     <g id="line2d_26">
      <g>
       <use xlink:href="#m8f1de1206a" x="296.098925" y="265.496438" style="stroke: #000000; stroke-width: 0.8"/>
      </g>
     </g>
     <g id="text_26">
      <!-- 0.50 -->
      <g transform="translate(284.966112 280.094875) scale(0.1 -0.1)">
       <use xlink:href="#DejaVuSans-30"/>
       <use xlink:href="#DejaVuSans-2e" x="63.623047"/>
       <use xlink:href="#DejaVuSans-35" x="95.410156"/>
       <use xlink:href="#DejaVuSans-30" x="159.033203"/>
      </g>
     </g>
    </g>
    <g id="xtick_15">
     <g id="line2d_27">
      <g>
       <use xlink:href="#m8f1de1206a" x="341.69497" y="265.496438" style="stroke: #000000; stroke-width: 0.8"/>
      </g>
     </g>
     <g id="text_27">
      <!-- 0.75 -->
      <g transform="translate(330.562157 280.094875) scale(0.1 -0.1)">
       <use xlink:href="#DejaVuSans-30"/>
       <use xlink:href="#DejaVuSans-2e" x="63.623047"/>
       <use xlink:href="#DejaVuSans-37" x="95.410156"/>
       <use xlink:href="#DejaVuSans-35" x="159.033203"/>
      </g>
     </g>
    </g>
    <g id="xtick_16">
     <g id="line2d_28">
      <g>
       <use xlink:href="#m8f1de1206a" x="387.291015" y="265.496438" style="stroke: #000000; stroke-width: 0.8"/>
      </g>
     </g>
     <g id="text_28">
      <!-- 1.00 -->
      <g transform="translate(376.158202 280.094875) scale(0.1 -0.1)">
       <use xlink:href="#DejaVuSans-31"/>
       <use xlink:href="#DejaVuSans-2e" x="63.623047"/>
       <use xlink:href="#DejaVuSans-30" x="95.410156"/>
       <use xlink:href="#DejaVuSans-30" x="159.033203"/>
      </g>
     </g>
    </g>
   </g>
   <g id="matplotlib.axis_4"/>
   <g id="line2d_29">
    <path d="M 204.906835 265.496438 
L 204.906835 158.736438 
" clip-path="url(#p140a7b42bf)" style="fill: none; stroke: #ff0000; stroke-width: 1.5; stroke-linecap: square"/>
   </g>
   <g id="line2d_30">
    <path d="M 204.906835 265.496438 
L 204.906835 158.736438 
" clip-path="url(#p140a7b42bf)" style="fill: none; stroke: #ff0000; stroke-width: 1.5; stroke-linecap: square"/>
   </g>
   <g id="patch_71">
    <path d="M 15.227289 265.496438 
L 15.227289 158.736437 
" style="fill: none; stroke: #000000; stroke-width: 0.8; stroke-linejoin: miter; stroke-linecap: square"/>
   </g>
   <g id="patch_72">
    <path d="M 394.732289 265.496438 
L 394.732289 158.736437 
" style="fill: none; stroke: #000000; stroke-width: 0.8; stroke-linejoin: miter; stroke-linecap: square"/>
   </g>
   <g id="patch_73">
    <path d="M 15.227289 265.496438 
L 394.732289 265.496438 
" style="fill: none; stroke: #000000; stroke-width: 0.8; stroke-linejoin: miter; stroke-linecap: square"/>
   </g>
   <g id="patch_74">
    <path d="M 15.227289 158.736438 
L 394.732289 158.736438 
" style="fill: none; stroke: #000000; stroke-width: 0.8; stroke-linejoin: miter; stroke-linecap: square"/>
   </g>
   <g id="text_29">
    <g id="patch_75">
     <path d="M 203.906835 230.504719 
L 203.906835 193.728156 
Q 203.906835 193.728156 203.906835 193.728156 
L 194.22871 193.728156 
Q 194.22871 193.728156 194.22871 193.728156 
L 194.22871 230.504719 
Q 194.22871 230.504719 194.22871 230.504719 
L 203.906835 230.504719 
Q 203.906835 230.504719 203.906835 230.504719 
z
" style="fill: #ffffff"/>
    </g>
    <!-- min=0. -->
    <g transform="translate(201.827148 230.504719) rotate(-90) scale(0.1 -0.1)">
     <use xlink:href="#DejaVuSans-6d"/>
     <use xlink:href="#DejaVuSans-69" x="97.412109"/>
     <use xlink:href="#DejaVuSans-6e" x="125.195312"/>
     <use xlink:href="#DejaVuSans-3d" x="188.574219"/>
     <use xlink:href="#DejaVuSans-30" x="272.363281"/>
     <use xlink:href="#DejaVuSans-2e" x="335.986328"/>
    </g>
   </g>
   <g id="text_30">
    <g id="patch_76">
     <path d="M 216.58496 231.970344 
L 216.58496 192.262531 
Q 216.58496 192.262531 216.58496 192.262531 
L 206.906835 192.262531 
Q 206.906835 192.262531 206.906835 192.262531 
L 206.906835 231.970344 
Q 206.906835 231.970344 206.906835 231.970344 
L 216.58496 231.970344 
Q 216.58496 231.970344 216.58496 231.970344 
z
" style="fill: #ffffff"/>
    </g>
    <!-- max=0. -->
    <g transform="translate(214.505273 231.970344) rotate(-90) scale(0.1 -0.1)">
     <use xlink:href="#DejaVuSans-6d"/>
     <use xlink:href="#DejaVuSans-61" x="97.412109"/>
     <use xlink:href="#DejaVuSans-78" x="158.691406"/>
     <use xlink:href="#DejaVuSans-3d" x="217.871094"/>
     <use xlink:href="#DejaVuSans-30" x="301.660156"/>
     <use xlink:href="#DejaVuSans-2e" x="365.283203"/>
    </g>
   </g>
   <g id="text_31">
    <!-- array[100] all_zeros -->
    <g transform="translate(15.227289 153.398438) scale(0.1 -0.1)">
     <defs>
      <path id="DejaVuSans-5f" d="M 3263 -1063 
L 3263 -1509 
L -63 -1509 
L -63 -1063 
L 3263 -1063 
z
" transform="scale(0.015625)"/>
      <path id="DejaVuSans-7a" d="M 353 3500 
L 3084 3500 
L 3084 2975 
L 922 459 
L 3084 459 
L 3084 0 
L 275 0 
L 275 525 
L 2438 3041 
L 353 3041 
L 353 3500 
z
" transform="scale(0.015625)"/>
     </defs>
     <use xlink:href="#DejaVuSans-61"/>
     <use xlink:href="#DejaVuSans-72" x="61.279297"/>
     <use xlink:href="#DejaVuSans-72" x="100.642578"/>
     <use xlink:href="#DejaVuSans-61" x="141.755859"/>
     <use xlink:href="#DejaVuSans-79" x="203.035156"/>
     <use xlink:href="#DejaVuSans-5b" x="262.214844"/>
     <use xlink:href="#DejaVuSans-31" x="301.228516"/>
     <use xlink:href="#DejaVuSans-30" x="364.851562"/>
     <use xlink:href="#DejaVuSans-30" x="428.474609"/>
     <use xlink:href="#DejaVuSans-5d" x="492.097656"/>
     <use xlink:href="#DejaVuSans-20" x="531.111328"/>
     <use xlink:href="#DejaVuSans-61" x="562.898438"/>
     <use xlink:href="#DejaVuSans-6c" x="624.177734"/>
     <use xlink:href="#DejaVuSans-6c" x="651.960938"/>
     <use xlink:href="#DejaVuSans-5f" x="679.744141"/>
     <use xlink:href="#DejaVuSans-7a" x="729.744141"/>
     <use xlink:href="#DejaVuSans-65" x="782.234375"/>
     <use xlink:href="#DejaVuSans-72" x="843.757812"/>
     <use xlink:href="#DejaVuSans-6f" x="882.621094"/>
     <use xlink:href="#DejaVuSans-73" x="943.802734"/>
    </g>
   </g>
   <g id="patch_77">
    <path d="M 113.714746 265.496438 
L 131.953164 265.496438 
L 131.953164 265.496438 
L 113.714746 265.496438 
z
" clip-path="url(#p140a7b42bf)" style="fill: #00bfff"/>
   </g>
   <g id="patch_78">
    <path d="M 131.953164 265.496438 
L 150.191582 265.496438 
L 150.191582 265.496438 
L 131.953164 265.496438 
z
" clip-path="url(#p140a7b42bf)" style="fill: #00bfff"/>
   </g>
   <g id="patch_79">
    <path d="M 150.191582 265.496438 
L 168.43 265.496438 
L 168.43 265.496438 
L 150.191582 265.496438 
z
" clip-path="url(#p140a7b42bf)" style="fill: #00bfff"/>
   </g>
   <g id="patch_80">
    <path d="M 168.43 265.496438 
L 186.668417 265.496438 
L 186.668417 265.496438 
L 168.43 265.496438 
z
" clip-path="url(#p140a7b42bf)" style="fill: #00bfff"/>
   </g>
   <g id="patch_81">
    <path d="M 186.668417 265.496438 
L 204.906835 265.496438 
L 204.906835 265.496438 
L 186.668417 265.496438 
z
" clip-path="url(#p140a7b42bf)" style="fill: #00bfff"/>
   </g>
   <g id="patch_82">
    <path d="M 204.906835 265.496438 
L 223.145253 265.496438 
L 223.145253 187.283983 
L 204.906835 187.283983 
z
" clip-path="url(#p140a7b42bf)" style="fill: #00bfff"/>
   </g>
   <g id="patch_83">
    <path d="M 223.145253 265.496438 
L 241.383671 265.496438 
L 241.383671 265.496438 
L 223.145253 265.496438 
z
" clip-path="url(#p140a7b42bf)" style="fill: #00bfff"/>
   </g>
   <g id="patch_84">
    <path d="M 241.383671 265.496438 
L 259.622089 265.496438 
L 259.622089 265.496438 
L 241.383671 265.496438 
z
" clip-path="url(#p140a7b42bf)" style="fill: #00bfff"/>
   </g>
   <g id="patch_85">
    <path d="M 259.622089 265.496438 
L 277.860507 265.496438 
L 277.860507 265.496438 
L 259.622089 265.496438 
z
" clip-path="url(#p140a7b42bf)" style="fill: #00bfff"/>
   </g>
   <g id="patch_86">
    <path d="M 277.860507 265.496438 
L 296.098925 265.496438 
L 296.098925 265.496438 
L 277.860507 265.496438 
z
" clip-path="url(#p140a7b42bf)" style="fill: #00bfff"/>
   </g>
  </g>
 </g>
 <defs>
  <clipPath id="p3dabcd9bed">
   <rect x="15.227289" y="20.136437" width="379.505" height="106.76"/>
  </clipPath>
  <clipPath id="p140a7b42bf">
   <rect x="15.227289" y="158.736438" width="379.505" height="106.76"/>
  </clipPath>
 </defs>
</svg>
