<?xml version="1.0" encoding="utf-8" standalone="no"?>
<!DOCTYPE svg PUBLIC "-//W3C//DTD SVG 1.1//EN"
  "http://www.w3.org/Graphics/SVG/1.1/DTD/svg11.dtd">
<svg xmlns:xlink="http://www.w3.org/1999/xlink" width="872.39952pt" height="152.406273pt" viewBox="0 0 872.39952 152.406273" xmlns="http://www.w3.org/2000/svg" version="1.1">
 <metadata>
  <rdf:RDF xmlns:dc="http://purl.org/dc/elements/1.1/" xmlns:cc="http://creativecommons.org/ns#" xmlns:rdf="http://www.w3.org/1999/02/22-rdf-syntax-ns#">
   <cc:Work>
    <dc:type rdf:resource="http://purl.org/dc/dcmitype/StillImage"/>
    <dc:format>image/svg+xml</dc:format>
    <dc:creator>
     <cc:Agent>
      <dc:title>Matplotlib, https://matplotlib.org/</dc:title>
     </cc:Agent>
    </dc:creator>
   </cc:Work>
  </rdf:RDF>
 </metadata>
 <defs>
  <style type="text/css">*{stroke-linejoin: round; stroke-linecap: butt}</style>
 </defs>
 <g id="figure_1">
  <g id="patch_1">
   <path d="M 0 152.406273 
L 872.39952 152.406273 
L 872.39952 0 
L 0 0 
z
" style="fill: #ffffff"/>
  </g>
  <g id="axes_1">
   <g id="patch_2">
    <path d="M 10.7 128.528148 
L 865.19952 128.528148 
L 865.19952 20.214138 
L 10.7 20.214138 
z
" style="fill: #ffffff"/>
   </g>
   <g id="matplotlib.axis_1">
    <g id="xtick_1">
     <g id="line2d_1">
      <defs>
       <path id="m8f1de1206a" d="M 0 0 
L 0 3.5 
" style="stroke: #000000; stroke-width: 0.8"/>
      </defs>
      <g>
       <use xlink:href="#m8f1de1206a" x="58.730643" y="128.528148" style="stroke: #000000; stroke-width: 0.8"/>
      </g>
     </g>
     <g id="text_1">
      <!-- −1 -->
      <g transform="translate(51.359549 143.126585) scale(0.1 -0.1)">
       <defs>
        <path id="DejaVuSans-2212" d="M 678 2272 
L 4684 2272 
L 4684 1741 
L 678 1741 
L 678 2272 
z
" transform="scale(0.015625)"/>
        <path id="DejaVuSans-31" d="M 794 531 
L 1825 531 
L 1825 4091 
L 703 3866 
L 703 4441 
L 1819 4666 
L 2450 4666 
L 2450 531 
L 3481 531 
L 3481 0 
L 794 0 
L 794 531 
z
" transform="scale(0.015625)"/>
       </defs>
       <use xlink:href="#DejaVuSans-2212"/>
       <use xlink:href="#DejaVuSans-31" x="83.789062"/>
      </g>
     </g>
    </g>
    <g id="xtick_2">
     <g id="line2d_2">
      <g>
       <use xlink:href="#m8f1de1206a" x="155.413136" y="128.528148" style="stroke: #000000; stroke-width: 0.8"/>
      </g>
     </g>
     <g id="text_2">
      <!-- 0 -->
      <g transform="translate(152.231886 143.126585) scale(0.1 -0.1)">
       <defs>
        <path id="DejaVuSans-30" d="M 2034 4250 
Q 1547 4250 1301 3770 
Q 1056 3291 1056 2328 
Q 1056 1369 1301 889 
Q 1547 409 2034 409 
Q 2525 409 2770 889 
Q 3016 1369 3016 2328 
Q 3016 3291 2770 3770 
Q 2525 4250 2034 4250 
z
M 2034 4750 
Q 2819 4750 3233 4129 
Q 3647 3509 3647 2328 
Q 3647 1150 3233 529 
Q 2819 -91 2034 -91 
Q 1250 -91 836 529 
Q 422 1150 422 2328 
Q 422 3509 836 4129 
Q 1250 4750 2034 4750 
z
" transform="scale(0.015625)"/>
       </defs>
       <use xlink:href="#DejaVuSans-30"/>
      </g>
     </g>
    </g>
    <g id="xtick_3">
     <g id="line2d_3">
      <g>
       <use xlink:href="#m8f1de1206a" x="252.09563" y="128.528148" style="stroke: #000000; stroke-width: 0.8"/>
      </g>
     </g>
     <g id="text_3">
      <!-- 1 -->
      <g transform="translate(248.91438 143.126585) scale(0.1 -0.1)">
       <use xlink:href="#DejaVuSans-31"/>
      </g>
     </g>
    </g>
    <g id="xtick_4">
     <g id="line2d_4">
      <g>
       <use xlink:href="#m8f1de1206a" x="348.778123" y="128.528148" style="stroke: #000000; stroke-width: 0.8"/>
      </g>
     </g>
     <g id="text_4">
      <!-- 2 -->
      <g transform="translate(345.596873 143.126585) scale(0.1 -0.1)">
       <defs>
        <path id="DejaVuSans-32" d="M 1228 531 
L 3431 531 
L 3431 0 
L 469 0 
L 469 531 
Q 828 903 1448 1529 
Q 2069 2156 2228 2338 
Q 2531 2678 2651 2914 
Q 2772 3150 2772 3378 
Q 2772 3750 2511 3984 
Q 2250 4219 1831 4219 
Q 1534 4219 1204 4116 
Q 875 4013 500 3803 
L 500 4441 
Q 881 4594 1212 4672 
Q 1544 4750 1819 4750 
Q 2544 4750 2975 4387 
Q 3406 4025 3406 3419 
Q 3406 3131 3298 2873 
Q 3191 2616 2906 2266 
Q 2828 2175 2409 1742 
Q 1991 1309 1228 531 
z
" transform="scale(0.015625)"/>
       </defs>
       <use xlink:href="#DejaVuSans-32"/>
      </g>
     </g>
    </g>
    <g id="xtick_5">
     <g id="line2d_5">
      <g>
       <use xlink:href="#m8f1de1206a" x="445.460617" y="128.528148" style="stroke: #000000; stroke-width: 0.8"/>
      </g>
     </g>
     <g id="text_5">
      <!-- 3 -->
      <g transform="translate(442.279367 143.126585) scale(0.1 -0.1)">
       <defs>
        <path id="DejaVuSans-33" d="M 2597 2516 
Q 3050 2419 3304 2112 
Q 3559 1806 3559 1356 
Q 3559 666 3084 287 
Q 2609 -91 1734 -91 
Q 1441 -91 1130 -33 
Q 819 25 488 141 
L 488 750 
Q 750 597 1062 519 
Q 1375 441 1716 441 
Q 2309 441 2620 675 
Q 2931 909 2931 1356 
Q 2931 1769 2642 2001 
Q 2353 2234 1838 2234 
L 1294 2234 
L 1294 2753 
L 1863 2753 
Q 2328 2753 2575 2939 
Q 2822 3125 2822 3475 
Q 2822 3834 2567 4026 
Q 2313 4219 1838 4219 
Q 1578 4219 1281 4162 
Q 984 4106 628 3988 
L 628 4550 
Q 988 4650 1302 4700 
Q 1616 4750 1894 4750 
Q 2613 4750 3031 4423 
Q 3450 4097 3450 3541 
Q 3450 3153 3228 2886 
Q 3006 2619 2597 2516 
z
" transform="scale(0.015625)"/>
       </defs>
       <use xlink:href="#DejaVuSans-33"/>
      </g>
     </g>
    </g>
    <g id="xtick_6">
     <g id="line2d_6">
      <g>
       <use xlink:href="#m8f1de1206a" x="542.14311" y="128.528148" style="stroke: #000000; stroke-width: 0.8"/>
      </g>
     </g>
     <g id="text_6">
      <!-- 4 -->
      <g transform="translate(538.96186 143.126585) scale(0.1 -0.1)">
       <defs>
        <path id="DejaVuSans-34" d="M 2419 4116 
L 825 1625 
L 2419 1625 
L 2419 4116 
z
M 2253 4666 
L 3047 4666 
L 3047 1625 
L 3713 1625 
L 3713 1100 
L 3047 1100 
L 3047 0 
L 2419 0 
L 2419 1100 
L 313 1100 
L 313 1709 
L 2253 4666 
z
" transform="scale(0.015625)"/>
       </defs>
       <use xlink:href="#DejaVuSans-34"/>
      </g>
     </g>
    </g>
    <g id="xtick_7">
     <g id="line2d_7">
      <g>
       <use xlink:href="#m8f1de1206a" x="638.825604" y="128.528148" style="stroke: #000000; stroke-width: 0.8"/>
      </g>
     </g>
     <g id="text_7">
      <!-- 5 -->
      <g transform="translate(635.644354 143.126585) scale(0.1 -0.1)">
       <defs>
        <path id="DejaVuSans-35" d="M 691 4666 
L 3169 4666 
L 3169 4134 
L 1269 4134 
L 1269 2991 
Q 1406 3038 1543 3061 
Q 1681 3084 1819 3084 
Q 2600 3084 3056 2656 
Q 3513 2228 3513 1497 
Q 3513 744 3044 326 
Q 2575 -91 1722 -91 
Q 1428 -91 1123 -41 
Q 819 9 494 109 
L 494 744 
Q 775 591 1075 516 
Q 1375 441 1709 441 
Q 2250 441 2565 725 
Q 2881 1009 2881 1497 
Q 2881 1984 2565 2268 
Q 2250 2553 1709 2553 
Q 1456 2553 1204 2497 
Q 953 2441 691 2322 
L 691 4666 
z
" transform="scale(0.015625)"/>
       </defs>
       <use xlink:href="#DejaVuSans-35"/>
      </g>
     </g>
    </g>
    <g id="xtick_8">
     <g id="line2d_8">
      <g>
       <use xlink:href="#m8f1de1206a" x="735.508098" y="128.528148" style="stroke: #000000; stroke-width: 0.8"/>
      </g>
     </g>
     <g id="text_8">
      <!-- 6 -->
      <g transform="translate(732.326848 143.126585) scale(0.1 -0.1)">
       <defs>
        <path id="DejaVuSans-36" d="M 2113 2584 
Q 1688 2584 1439 2293 
Q 1191 2003 1191 1497 
Q 1191 994 1439 701 
Q 1688 409 2113 409 
Q 2538 409 2786 701 
Q 3034 994 3034 1497 
Q 3034 2003 2786 2293 
Q 2538 2584 2113 2584 
z
M 3366 4563 
L 3366 3988 
Q 3128 4100 2886 4159 
Q 2644 4219 2406 4219 
Q 1781 4219 1451 3797 
Q 1122 3375 1075 2522 
Q 1259 2794 1537 2939 
Q 1816 3084 2150 3084 
Q 2853 3084 3261 2657 
Q 3669 2231 3669 1497 
Q 3669 778 3244 343 
Q 2819 -91 2113 -91 
Q 1303 -91 875 529 
Q 447 1150 447 2328 
Q 447 3434 972 4092 
Q 1497 4750 2381 4750 
Q 2619 4750 2861 4703 
Q 3103 4656 3366 4563 
z
" transform="scale(0.015625)"/>
       </defs>
       <use xlink:href="#DejaVuSans-36"/>
      </g>
     </g>
    </g>
    <g id="xtick_9">
     <g id="line2d_9">
      <g>
       <use xlink:href="#m8f1de1206a" x="832.190591" y="128.528148" style="stroke: #000000; stroke-width: 0.8"/>
      </g>
     </g>
     <g id="text_9">
      <!-- 7 -->
      <g transform="translate(829.009341 143.126585) scale(0.1 -0.1)">
       <defs>
        <path id="DejaVuSans-37" d="M 525 4666 
L 3525 4666 
L 3525 4397 
L 1831 0 
L 1172 0 
L 2766 4134 
L 525 4134 
L 525 4666 
z
" transform="scale(0.015625)"/>
       </defs>
       <use xlink:href="#DejaVuSans-37"/>
      </g>
     </g>
    </g>
   </g>
   <g id="matplotlib.axis_2"/>
   <g id="line2d_10">
    <path d="M 59.080581 128.528148 
L 59.080581 20.214138 
" clip-path="url(#p2486563038)" style="fill: none; stroke: #000000; stroke-width: 1.5; stroke-linecap: square"/>
   </g>
   <g id="line2d_11">
    <path d="M 155.809052 128.528148 
L 155.809052 20.214138 
" clip-path="url(#p2486563038)" style="fill: none; stroke: #000000; stroke-width: 1.5; stroke-linecap: square"/>
   </g>
   <g id="line2d_12">
    <path d="M 252.537523 128.528148 
L 252.537523 20.214138 
" clip-path="url(#p2486563038)" style="fill: none; stroke: #000000; stroke-width: 1.5; stroke-linecap: square"/>
   </g>
   <g id="line2d_13">
    <path d="M 349.265995 128.528148 
L 349.265995 20.214138 
" clip-path="url(#p2486563038)" style="fill: none; stroke: #000000; stroke-width: 1.5; stroke-linecap: square"/>
   </g>
   <g id="line2d_14">
    <path d="M 445.994466 128.528148 
L 445.994466 20.214138 
" clip-path="url(#p2486563038)" style="fill: none; stroke: #000000; stroke-width: 1.5; stroke-linecap: square"/>
   </g>
   <g id="line2d_15">
    <path d="M 542.722937 128.528148 
L 542.722937 20.214138 
" clip-path="url(#p2486563038)" style="fill: none; stroke: #000000; stroke-width: 1.5; stroke-linecap: square"/>
   </g>
   <g id="line2d_16">
    <path d="M 639.451408 128.528148 
L 639.451408 20.214138 
" clip-path="url(#p2486563038)" style="fill: none; stroke: #000000; stroke-width: 1.5; stroke-linecap: square"/>
   </g>
   <g id="line2d_17">
    <path d="M 736.17988 128.528148 
L 736.17988 20.214138 
" clip-path="url(#p2486563038)" style="fill: none; stroke: #000000; stroke-width: 1.5; stroke-linecap: square"/>
   </g>
   <g id="line2d_18">
    <path d="M 832.908351 128.528148 
L 832.908351 20.214138 
" clip-path="url(#p2486563038)" style="fill: none; stroke: #000000; stroke-width: 1.5; stroke-linecap: square"/>
   </g>
   <g id="line2d_19">
    <path d="M 27.126365 128.528148 
L 27.126365 20.214138 
" clip-path="url(#p2486563038)" style="fill: none; stroke: #ff0000; stroke-width: 1.5; stroke-linecap: square"/>
   </g>
   <g id="line2d_20">
    <path d="M 848.444627 128.528148 
L 848.444627 20.214138 
" clip-path="url(#p2486563038)" style="fill: none; stroke: #ff0000; stroke-width: 1.5; stroke-linecap: square"/>
   </g>
   <g id="patch_3">
    <path d="M 10.7 128.528148 
L 10.7 20.214138 
" style="fill: none; stroke: #000000; stroke-width: 0.8; stroke-linejoin: miter; stroke-linecap: square"/>
   </g>
   <g id="patch_4">
    <path d="M 865.19952 128.528148 
L 865.19952 20.214138 
" style="fill: none; stroke: #000000; stroke-width: 0.8; stroke-linejoin: miter; stroke-linecap: square"/>
   </g>
   <g id="patch_5">
    <path d="M 10.7 128.528148 
L 865.19952 128.528148 
" style="fill: none; stroke: #000000; stroke-width: 0.8; stroke-linejoin: miter; stroke-linecap: square"/>
   </g>
   <g id="patch_6">
    <path d="M 10.7 20.214138 
L 865.19952 20.214138 
" style="fill: none; stroke: #000000; stroke-width: 0.8; stroke-linejoin: miter; stroke-linecap: square"/>
   </g>
   <g id="text_10">
    <g id="patch_7">
     <path d="M 26.126365 104.10708 
L 26.126365 44.635205 
Q 26.126365 44.635205 26.126365 44.635205 
L 16.44824 44.635205 
Q 16.44824 44.635205 16.44824 44.635205 
L 16.44824 104.10708 
Q 16.44824 104.10708 16.44824 104.10708 
L 26.126365 104.10708 
Q 26.126365 104.10708 26.126365 104.10708 
z
" style="fill: #ffffff"/>
    </g>
    <!-- min=-1.327 -->
    <g transform="translate(24.046678 104.10708) rotate(-90) scale(0.1 -0.1)">
     <defs>
      <path id="DejaVuSans-6d" d="M 3328 2828 
Q 3544 3216 3844 3400 
Q 4144 3584 4550 3584 
Q 5097 3584 5394 3201 
Q 5691 2819 5691 2113 
L 5691 0 
L 5113 0 
L 5113 2094 
Q 5113 2597 4934 2840 
Q 4756 3084 4391 3084 
Q 3944 3084 3684 2787 
Q 3425 2491 3425 1978 
L 3425 0 
L 2847 0 
L 2847 2094 
Q 2847 2600 2669 2842 
Q 2491 3084 2119 3084 
Q 1678 3084 1418 2786 
Q 1159 2488 1159 1978 
L 1159 0 
L 581 0 
L 581 3500 
L 1159 3500 
L 1159 2956 
Q 1356 3278 1631 3431 
Q 1906 3584 2284 3584 
Q 2666 3584 2933 3390 
Q 3200 3197 3328 2828 
z
" transform="scale(0.015625)"/>
      <path id="DejaVuSans-69" d="M 603 3500 
L 1178 3500 
L 1178 0 
L 603 0 
L 603 3500 
z
M 603 4863 
L 1178 4863 
L 1178 4134 
L 603 4134 
L 603 4863 
z
" transform="scale(0.015625)"/>
      <path id="DejaVuSans-6e" d="M 3513 2113 
L 3513 0 
L 2938 0 
L 2938 2094 
Q 2938 2591 2744 2837 
Q 2550 3084 2163 3084 
Q 1697 3084 1428 2787 
Q 1159 2491 1159 1978 
L 1159 0 
L 581 0 
L 581 3500 
L 1159 3500 
L 1159 2956 
Q 1366 3272 1645 3428 
Q 1925 3584 2291 3584 
Q 2894 3584 3203 3211 
Q 3513 2838 3513 2113 
z
" transform="scale(0.015625)"/>
      <path id="DejaVuSans-3d" d="M 678 2906 
L 4684 2906 
L 4684 2381 
L 678 2381 
L 678 2906 
z
M 678 1631 
L 4684 1631 
L 4684 1100 
L 678 1100 
L 678 1631 
z
" transform="scale(0.015625)"/>
      <path id="DejaVuSans-2d" d="M 313 2009 
L 1997 2009 
L 1997 1497 
L 313 1497 
L 313 2009 
z
" transform="scale(0.015625)"/>
      <path id="DejaVuSans-2e" d="M 684 794 
L 1344 794 
L 1344 0 
L 684 0 
L 684 794 
z
" transform="scale(0.015625)"/>
     </defs>
     <use xlink:href="#DejaVuSans-6d"/>
     <use xlink:href="#DejaVuSans-69" x="97.412109"/>
     <use xlink:href="#DejaVuSans-6e" x="125.195312"/>
     <use xlink:href="#DejaVuSans-3d" x="188.574219"/>
     <use xlink:href="#DejaVuSans-2d" x="272.363281"/>
     <use xlink:href="#DejaVuSans-31" x="308.447266"/>
     <use xlink:href="#DejaVuSans-2e" x="372.070312"/>
     <use xlink:href="#DejaVuSans-33" x="403.857422"/>
     <use xlink:href="#DejaVuSans-32" x="467.480469"/>
     <use xlink:href="#DejaVuSans-37" x="531.103516"/>
    </g>
   </g>
   <g id="text_11">
    <g id="patch_8">
     <path d="M 860.122752 103.768799 
L 860.122752 44.973487 
Q 860.122752 44.973487 860.122752 44.973487 
L 850.444627 44.973487 
Q 850.444627 44.973487 850.444627 44.973487 
L 850.444627 103.768799 
Q 850.444627 103.768799 850.444627 103.768799 
L 860.122752 103.768799 
Q 860.122752 103.768799 860.122752 103.768799 
z
" style="fill: #ffffff"/>
    </g>
    <!-- max=7.168 -->
    <g transform="translate(858.043065 103.768799) rotate(-90) scale(0.1 -0.1)">
     <defs>
      <path id="DejaVuSans-61" d="M 2194 1759 
Q 1497 1759 1228 1600 
Q 959 1441 959 1056 
Q 959 750 1161 570 
Q 1363 391 1709 391 
Q 2188 391 2477 730 
Q 2766 1069 2766 1631 
L 2766 1759 
L 2194 1759 
z
M 3341 1997 
L 3341 0 
L 2766 0 
L 2766 531 
Q 2569 213 2275 61 
Q 1981 -91 1556 -91 
Q 1019 -91 701 211 
Q 384 513 384 1019 
Q 384 1609 779 1909 
Q 1175 2209 1959 2209 
L 2766 2209 
L 2766 2266 
Q 2766 2663 2505 2880 
Q 2244 3097 1772 3097 
Q 1472 3097 1187 3025 
Q 903 2953 641 2809 
L 641 3341 
Q 956 3463 1253 3523 
Q 1550 3584 1831 3584 
Q 2591 3584 2966 3190 
Q 3341 2797 3341 1997 
z
" transform="scale(0.015625)"/>
      <path id="DejaVuSans-78" d="M 3513 3500 
L 2247 1797 
L 3578 0 
L 2900 0 
L 1881 1375 
L 863 0 
L 184 0 
L 1544 1831 
L 300 3500 
L 978 3500 
L 1906 2253 
L 2834 3500 
L 3513 3500 
z
" transform="scale(0.015625)"/>
      <path id="DejaVuSans-38" d="M 2034 2216 
Q 1584 2216 1326 1975 
Q 1069 1734 1069 1313 
Q 1069 891 1326 650 
Q 1584 409 2034 409 
Q 2484 409 2743 651 
Q 3003 894 3003 1313 
Q 3003 1734 2745 1975 
Q 2488 2216 2034 2216 
z
M 1403 2484 
Q 997 2584 770 2862 
Q 544 3141 544 3541 
Q 544 4100 942 4425 
Q 1341 4750 2034 4750 
Q 2731 4750 3128 4425 
Q 3525 4100 3525 3541 
Q 3525 3141 3298 2862 
Q 3072 2584 2669 2484 
Q 3125 2378 3379 2068 
Q 3634 1759 3634 1313 
Q 3634 634 3220 271 
Q 2806 -91 2034 -91 
Q 1263 -91 848 271 
Q 434 634 434 1313 
Q 434 1759 690 2068 
Q 947 2378 1403 2484 
z
M 1172 3481 
Q 1172 3119 1398 2916 
Q 1625 2713 2034 2713 
Q 2441 2713 2670 2916 
Q 2900 3119 2900 3481 
Q 2900 3844 2670 4047 
Q 2441 4250 2034 4250 
Q 1625 4250 1398 4047 
Q 1172 3844 1172 3481 
z
" transform="scale(0.015625)"/>
     </defs>
     <use xlink:href="#DejaVuSans-6d"/>
     <use xlink:href="#DejaVuSans-61" x="97.412109"/>
     <use xlink:href="#DejaVuSans-78" x="158.691406"/>
     <use xlink:href="#DejaVuSans-3d" x="217.871094"/>
     <use xlink:href="#DejaVuSans-37" x="301.660156"/>
     <use xlink:href="#DejaVuSans-2e" x="365.283203"/>
     <use xlink:href="#DejaVuSans-31" x="397.070312"/>
     <use xlink:href="#DejaVuSans-36" x="460.693359"/>
     <use xlink:href="#DejaVuSans-38" x="524.316406"/>
    </g>
   </g>
   <g id="text_12">
    <!-- 10000 samples (μ=3.006, σ=1.000) of array[100000] x∈[-1.327, 7.168] μ=3.005 σ=0.998 -->
    <g transform="translate(10.7 14.798437) scale(0.1 -0.1)">
     <defs>
      <path id="DejaVuSans-20" transform="scale(0.015625)"/>
      <path id="DejaVuSans-73" d="M 2834 3397 
L 2834 2853 
Q 2591 2978 2328 3040 
Q 2066 3103 1784 3103 
Q 1356 3103 1142 2972 
Q 928 2841 928 2578 
Q 928 2378 1081 2264 
Q 1234 2150 1697 2047 
L 1894 2003 
Q 2506 1872 2764 1633 
Q 3022 1394 3022 966 
Q 3022 478 2636 193 
Q 2250 -91 1575 -91 
Q 1294 -91 989 -36 
Q 684 19 347 128 
L 347 722 
Q 666 556 975 473 
Q 1284 391 1588 391 
Q 1994 391 2212 530 
Q 2431 669 2431 922 
Q 2431 1156 2273 1281 
Q 2116 1406 1581 1522 
L 1381 1569 
Q 847 1681 609 1914 
Q 372 2147 372 2553 
Q 372 3047 722 3315 
Q 1072 3584 1716 3584 
Q 2034 3584 2315 3537 
Q 2597 3491 2834 3397 
z
" transform="scale(0.015625)"/>
      <path id="DejaVuSans-70" d="M 1159 525 
L 1159 -1331 
L 581 -1331 
L 581 3500 
L 1159 3500 
L 1159 2969 
Q 1341 3281 1617 3432 
Q 1894 3584 2278 3584 
Q 2916 3584 3314 3078 
Q 3713 2572 3713 1747 
Q 3713 922 3314 415 
Q 2916 -91 2278 -91 
Q 1894 -91 1617 61 
Q 1341 213 1159 525 
z
M 3116 1747 
Q 3116 2381 2855 2742 
Q 2594 3103 2138 3103 
Q 1681 3103 1420 2742 
Q 1159 2381 1159 1747 
Q 1159 1113 1420 752 
Q 1681 391 2138 391 
Q 2594 391 2855 752 
Q 3116 1113 3116 1747 
z
" transform="scale(0.015625)"/>
      <path id="DejaVuSans-6c" d="M 603 4863 
L 1178 4863 
L 1178 0 
L 603 0 
L 603 4863 
z
" transform="scale(0.015625)"/>
      <path id="DejaVuSans-65" d="M 3597 1894 
L 3597 1613 
L 953 1613 
Q 991 1019 1311 708 
Q 1631 397 2203 397 
Q 2534 397 2845 478 
Q 3156 559 3463 722 
L 3463 178 
Q 3153 47 2828 -22 
Q 2503 -91 2169 -91 
Q 1331 -91 842 396 
Q 353 884 353 1716 
Q 353 2575 817 3079 
Q 1281 3584 2069 3584 
Q 2775 3584 3186 3129 
Q 3597 2675 3597 1894 
z
M 3022 2063 
Q 3016 2534 2758 2815 
Q 2500 3097 2075 3097 
Q 1594 3097 1305 2825 
Q 1016 2553 972 2059 
L 3022 2063 
z
" transform="scale(0.015625)"/>
      <path id="DejaVuSans-28" d="M 1984 4856 
Q 1566 4138 1362 3434 
Q 1159 2731 1159 2009 
Q 1159 1288 1364 580 
Q 1569 -128 1984 -844 
L 1484 -844 
Q 1016 -109 783 600 
Q 550 1309 550 2009 
Q 550 2706 781 3412 
Q 1013 4119 1484 4856 
L 1984 4856 
z
" transform="scale(0.015625)"/>
      <path id="DejaVuSans-3bc" d="M 544 -1331 
L 544 3500 
L 1119 3500 
L 1119 1325 
Q 1119 872 1334 640 
Q 1550 409 1972 409 
Q 2434 409 2667 671 
Q 2900 934 2900 1459 
L 2900 3500 
L 3475 3500 
L 3475 806 
Q 3475 619 3529 530 
Q 3584 441 3700 441 
Q 3728 441 3778 458 
Q 3828 475 3916 513 
L 3916 50 
Q 3788 -22 3673 -56 
Q 3559 -91 3450 -91 
Q 3234 -91 3106 31 
Q 2978 153 2931 403 
Q 2775 156 2548 32 
Q 2322 -91 2016 -91 
Q 1697 -91 1473 31 
Q 1250 153 1119 397 
L 1119 -1331 
L 544 -1331 
z
" transform="scale(0.015625)"/>
      <path id="DejaVuSans-2c" d="M 750 794 
L 1409 794 
L 1409 256 
L 897 -744 
L 494 -744 
L 750 256 
L 750 794 
z
" transform="scale(0.015625)"/>
      <path id="DejaVuSans-3c3" d="M 1959 3044 
Q 1484 3044 1228 2700 
Q 959 2341 959 1747 
Q 959 1119 1226 758 
Q 1494 397 1959 397 
Q 2419 397 2687 759 
Q 2956 1122 2956 1747 
Q 2956 2319 2688 2700 
Q 2441 3044 1959 3044 
z
M 1959 3500 
L 3869 3500 
L 3869 2925 
L 3225 2925 
Q 3566 2438 3566 1747 
Q 3566 888 3138 400 
Q 2709 -91 1959 -91 
Q 1206 -91 781 400 
Q 353 888 353 1747 
Q 353 2613 781 3097 
Q 1134 3500 1959 3500 
z
" transform="scale(0.015625)"/>
      <path id="DejaVuSans-29" d="M 513 4856 
L 1013 4856 
Q 1481 4119 1714 3412 
Q 1947 2706 1947 2009 
Q 1947 1309 1714 600 
Q 1481 -109 1013 -844 
L 513 -844 
Q 928 -128 1133 580 
Q 1338 1288 1338 2009 
Q 1338 2731 1133 3434 
Q 928 4138 513 4856 
z
" transform="scale(0.015625)"/>
      <path id="DejaVuSans-6f" d="M 1959 3097 
Q 1497 3097 1228 2736 
Q 959 2375 959 1747 
Q 959 1119 1226 758 
Q 1494 397 1959 397 
Q 2419 397 2687 759 
Q 2956 1122 2956 1747 
Q 2956 2369 2687 2733 
Q 2419 3097 1959 3097 
z
M 1959 3584 
Q 2709 3584 3137 3096 
Q 3566 2609 3566 1747 
Q 3566 888 3137 398 
Q 2709 -91 1959 -91 
Q 1206 -91 779 398 
Q 353 888 353 1747 
Q 353 2609 779 3096 
Q 1206 3584 1959 3584 
z
" transform="scale(0.015625)"/>
      <path id="DejaVuSans-66" d="M 2375 4863 
L 2375 4384 
L 1825 4384 
Q 1516 4384 1395 4259 
Q 1275 4134 1275 3809 
L 1275 3500 
L 2222 3500 
L 2222 3053 
L 1275 3053 
L 1275 0 
L 697 0 
L 697 3053 
L 147 3053 
L 147 3500 
L 697 3500 
L 697 3744 
Q 697 4328 969 4595 
Q 1241 4863 1831 4863 
L 2375 4863 
z
" transform="scale(0.015625)"/>
      <path id="DejaVuSans-72" d="M 2631 2963 
Q 2534 3019 2420 3045 
Q 2306 3072 2169 3072 
Q 1681 3072 1420 2755 
Q 1159 2438 1159 1844 
L 1159 0 
L 581 0 
L 581 3500 
L 1159 3500 
L 1159 2956 
Q 1341 3275 1631 3429 
Q 1922 3584 2338 3584 
Q 2397 3584 2469 3576 
Q 2541 3569 2628 3553 
L 2631 2963 
z
" transform="scale(0.015625)"/>
      <path id="DejaVuSans-79" d="M 2059 -325 
Q 1816 -950 1584 -1140 
Q 1353 -1331 966 -1331 
L 506 -1331 
L 506 -850 
L 844 -850 
Q 1081 -850 1212 -737 
Q 1344 -625 1503 -206 
L 1606 56 
L 191 3500 
L 800 3500 
L 1894 763 
L 2988 3500 
L 3597 3500 
L 2059 -325 
z
" transform="scale(0.015625)"/>
      <path id="DejaVuSans-5b" d="M 550 4863 
L 1875 4863 
L 1875 4416 
L 1125 4416 
L 1125 -397 
L 1875 -397 
L 1875 -844 
L 550 -844 
L 550 4863 
z
" transform="scale(0.015625)"/>
      <path id="DejaVuSans-5d" d="M 1947 4863 
L 1947 -844 
L 622 -844 
L 622 -397 
L 1369 -397 
L 1369 4416 
L 622 4416 
L 622 4863 
L 1947 4863 
z
" transform="scale(0.015625)"/>
      <path id="DejaVuSans-2208" d="M 1072 1959 
Q 1094 1728 1291 1353 
Q 1522 919 1959 675 
Q 2388 438 2850 434 
L 5028 434 
L 5028 -63 
L 2850 -63 
Q 2250 -63 1695 246 
Q 1141 556 844 1106 
Q 547 1656 547 2241 
Q 547 2819 844 3369 
Q 1141 3919 1695 4231 
Q 2250 4544 2850 4544 
L 5028 4544 
L 5028 4047 
L 2850 4047 
Q 2388 4044 1959 3803 
Q 1525 3556 1291 3125 
Q 1091 2750 1063 2459 
L 5028 2459 
L 5028 1959 
L 1072 1959 
z
" transform="scale(0.015625)"/>
      <path id="DejaVuSans-39" d="M 703 97 
L 703 672 
Q 941 559 1184 500 
Q 1428 441 1663 441 
Q 2288 441 2617 861 
Q 2947 1281 2994 2138 
Q 2813 1869 2534 1725 
Q 2256 1581 1919 1581 
Q 1219 1581 811 2004 
Q 403 2428 403 3163 
Q 403 3881 828 4315 
Q 1253 4750 1959 4750 
Q 2769 4750 3195 4129 
Q 3622 3509 3622 2328 
Q 3622 1225 3098 567 
Q 2575 -91 1691 -91 
Q 1453 -91 1209 -44 
Q 966 3 703 97 
z
M 1959 2075 
Q 2384 2075 2632 2365 
Q 2881 2656 2881 3163 
Q 2881 3666 2632 3958 
Q 2384 4250 1959 4250 
Q 1534 4250 1286 3958 
Q 1038 3666 1038 3163 
Q 1038 2656 1286 2365 
Q 1534 2075 1959 2075 
z
" transform="scale(0.015625)"/>
     </defs>
     <use xlink:href="#DejaVuSans-31"/>
     <use xlink:href="#DejaVuSans-30" x="63.623047"/>
     <use xlink:href="#DejaVuSans-30" x="127.246094"/>
     <use xlink:href="#DejaVuSans-30" x="190.869141"/>
     <use xlink:href="#DejaVuSans-30" x="254.492188"/>
     <use xlink:href="#DejaVuSans-20" x="318.115234"/>
     <use xlink:href="#DejaVuSans-73" x="349.902344"/>
     <use xlink:href="#DejaVuSans-61" x="402.001953"/>
     <use xlink:href="#DejaVuSans-6d" x="463.28125"/>
     <use xlink:href="#DejaVuSans-70" x="560.693359"/>
     <use xlink:href="#DejaVuSans-6c" x="624.169922"/>
     <use xlink:href="#DejaVuSans-65" x="651.953125"/>
     <use xlink:href="#DejaVuSans-73" x="713.476562"/>
     <use xlink:href="#DejaVuSans-20" x="765.576172"/>
     <use xlink:href="#DejaVuSans-28" x="797.363281"/>
     <use xlink:href="#DejaVuSans-3bc" x="836.376953"/>
     <use xlink:href="#DejaVuSans-3d" x="900"/>
     <use xlink:href="#DejaVuSans-33" x="983.789062"/>
     <use xlink:href="#DejaVuSans-2e" x="1047.412109"/>
     <use xlink:href="#DejaVuSans-30" x="1079.199219"/>
     <use xlink:href="#DejaVuSans-30" x="1142.822266"/>
     <use xlink:href="#DejaVuSans-36" x="1206.445312"/>
     <use xlink:href="#DejaVuSans-2c" x="1270.068359"/>
     <use xlink:href="#DejaVuSans-20" x="1301.855469"/>
     <use xlink:href="#DejaVuSans-3c3" x="1333.642578"/>
     <use xlink:href="#DejaVuSans-3d" x="1397.021484"/>
     <use xlink:href="#DejaVuSans-31" x="1480.810547"/>
     <use xlink:href="#DejaVuSans-2e" x="1544.433594"/>
     <use xlink:href="#DejaVuSans-30" x="1576.220703"/>
     <use xlink:href="#DejaVuSans-30" x="1639.84375"/>
     <use xlink:href="#DejaVuSans-30" x="1703.466797"/>
     <use xlink:href="#DejaVuSans-29" x="1767.089844"/>
     <use xlink:href="#DejaVuSans-20" x="1806.103516"/>
     <use xlink:href="#DejaVuSans-6f" x="1837.890625"/>
     <use xlink:href="#DejaVuSans-66" x="1899.072266"/>
     <use xlink:href="#DejaVuSans-20" x="1934.277344"/>
     <use xlink:href="#DejaVuSans-61" x="1966.064453"/>
     <use xlink:href="#DejaVuSans-72" x="2027.34375"/>
     <use xlink:href="#DejaVuSans-72" x="2066.707031"/>
     <use xlink:href="#DejaVuSans-61" x="2107.820312"/>
     <use xlink:href="#DejaVuSans-79" x="2169.099609"/>
     <use xlink:href="#DejaVuSans-5b" x="2228.279297"/>
     <use xlink:href="#DejaVuSans-31" x="2267.292969"/>
     <use xlink:href="#DejaVuSans-30" x="2330.916016"/>
     <use xlink:href="#DejaVuSans-30" x="2394.539062"/>
     <use xlink:href="#DejaVuSans-30" x="2458.162109"/>
     <use xlink:href="#DejaVuSans-30" x="2521.785156"/>
     <use xlink:href="#DejaVuSans-30" x="2585.408203"/>
     <use xlink:href="#DejaVuSans-5d" x="2649.03125"/>
     <use xlink:href="#DejaVuSans-20" x="2688.044922"/>
     <use xlink:href="#DejaVuSans-78" x="2719.832031"/>
     <use xlink:href="#DejaVuSans-2208" x="2779.011719"/>
     <use xlink:href="#DejaVuSans-5b" x="2866.121094"/>
     <use xlink:href="#DejaVuSans-2d" x="2905.134766"/>
     <use xlink:href="#DejaVuSans-31" x="2941.21875"/>
     <use xlink:href="#DejaVuSans-2e" x="3004.841797"/>
     <use xlink:href="#DejaVuSans-33" x="3036.628906"/>
     <use xlink:href="#DejaVuSans-32" x="3100.251953"/>
     <use xlink:href="#DejaVuSans-37" x="3163.875"/>
     <use xlink:href="#DejaVuSans-2c" x="3227.498047"/>
     <use xlink:href="#DejaVuSans-20" x="3259.285156"/>
     <use xlink:href="#DejaVuSans-37" x="3291.072266"/>
     <use xlink:href="#DejaVuSans-2e" x="3354.695312"/>
     <use xlink:href="#DejaVuSans-31" x="3386.482422"/>
     <use xlink:href="#DejaVuSans-36" x="3450.105469"/>
     <use xlink:href="#DejaVuSans-38" x="3513.728516"/>
     <use xlink:href="#DejaVuSans-5d" x="3577.351562"/>
     <use xlink:href="#DejaVuSans-20" x="3616.365234"/>
     <use xlink:href="#DejaVuSans-3bc" x="3648.152344"/>
     <use xlink:href="#DejaVuSans-3d" x="3711.775391"/>
     <use xlink:href="#DejaVuSans-33" x="3795.564453"/>
     <use xlink:href="#DejaVuSans-2e" x="3859.1875"/>
     <use xlink:href="#DejaVuSans-30" x="3890.974609"/>
     <use xlink:href="#DejaVuSans-30" x="3954.597656"/>
     <use xlink:href="#DejaVuSans-35" x="4018.220703"/>
     <use xlink:href="#DejaVuSans-20" x="4081.84375"/>
     <use xlink:href="#DejaVuSans-3c3" x="4113.630859"/>
     <use xlink:href="#DejaVuSans-3d" x="4177.009766"/>
     <use xlink:href="#DejaVuSans-30" x="4260.798828"/>
     <use xlink:href="#DejaVuSans-2e" x="4324.421875"/>
     <use xlink:href="#DejaVuSans-39" x="4356.208984"/>
     <use xlink:href="#DejaVuSans-39" x="4419.832031"/>
     <use xlink:href="#DejaVuSans-38" x="4483.455078"/>
    </g>
   </g>
   <g id="patch_9">
    <path d="M 94.966603 128.528148 
L 103.470279 128.528148 
L 103.470279 128.333182 
L 94.966603 128.333182 
z
" clip-path="url(#p2486563038)" style="fill: #00bfff"/>
   </g>
   <g id="patch_10">
    <path d="M 103.470279 128.528148 
L 111.973955 128.528148 
L 111.973955 128.138217 
L 103.470279 128.138217 
z
" clip-path="url(#p2486563038)" style="fill: #00bfff"/>
   </g>
   <g id="patch_11">
    <path d="M 111.973955 128.528148 
L 120.477631 128.528148 
L 120.477631 128.138217 
L 111.973955 128.138217 
z
" clip-path="url(#p2486563038)" style="fill: #00bfff"/>
   </g>
   <g id="patch_12">
    <path d="M 120.477631 128.528148 
L 128.981307 128.528148 
L 128.981307 128.528148 
L 120.477631 128.528148 
z
" clip-path="url(#p2486563038)" style="fill: #00bfff"/>
   </g>
   <g id="patch_13">
    <path d="M 128.981307 128.528148 
L 137.484983 128.528148 
L 137.484983 128.138217 
L 128.981307 128.138217 
z
" clip-path="url(#p2486563038)" style="fill: #00bfff"/>
   </g>
   <g id="patch_14">
    <path d="M 137.484983 128.528148 
L 145.988659 128.528148 
L 145.988659 127.943251 
L 137.484983 127.943251 
z
" clip-path="url(#p2486563038)" style="fill: #00bfff"/>
   </g>
   <g id="patch_15">
    <path d="M 145.988659 128.528148 
L 154.492335 128.528148 
L 154.492335 128.138217 
L 145.988659 128.138217 
z
" clip-path="url(#p2486563038)" style="fill: #00bfff"/>
   </g>
   <g id="patch_16">
    <path d="M 154.492335 128.528148 
L 162.996012 128.528148 
L 162.996012 127.748286 
L 154.492335 127.748286 
z
" clip-path="url(#p2486563038)" style="fill: #00bfff"/>
   </g>
   <g id="patch_17">
    <path d="M 162.996012 128.528148 
L 171.499688 128.528148 
L 171.499688 127.358355 
L 162.996012 127.358355 
z
" clip-path="url(#p2486563038)" style="fill: #00bfff"/>
   </g>
   <g id="patch_18">
    <path d="M 171.499688 128.528148 
L 180.003364 128.528148 
L 180.003364 125.993597 
L 171.499688 125.993597 
z
" clip-path="url(#p2486563038)" style="fill: #00bfff"/>
   </g>
   <g id="patch_19">
    <path d="M 180.003364 128.528148 
L 188.50704 128.528148 
L 188.50704 127.16339 
L 180.003364 127.16339 
z
" clip-path="url(#p2486563038)" style="fill: #00bfff"/>
   </g>
   <g id="patch_20">
    <path d="M 188.50704 128.528148 
L 197.010716 128.528148 
L 197.010716 125.798632 
L 188.50704 125.798632 
z
" clip-path="url(#p2486563038)" style="fill: #00bfff"/>
   </g>
   <g id="patch_21">
    <path d="M 197.010716 128.528148 
L 205.514392 128.528148 
L 205.514392 125.01877 
L 197.010716 125.01877 
z
" clip-path="url(#p2486563038)" style="fill: #00bfff"/>
   </g>
   <g id="patch_22">
    <path d="M 205.514392 128.528148 
L 214.018068 128.528148 
L 214.018068 125.01877 
L 205.514392 125.01877 
z
" clip-path="url(#p2486563038)" style="fill: #00bfff"/>
   </g>
   <g id="patch_23">
    <path d="M 214.018068 128.528148 
L 222.521744 128.528148 
L 222.521744 124.628839 
L 214.018068 124.628839 
z
" clip-path="url(#p2486563038)" style="fill: #00bfff"/>
   </g>
   <g id="patch_24">
    <path d="M 222.521744 128.528148 
L 231.02542 128.528148 
L 231.02542 124.238909 
L 222.521744 124.238909 
z
" clip-path="url(#p2486563038)" style="fill: #00bfff"/>
   </g>
   <g id="patch_25">
    <path d="M 231.02542 128.528148 
L 239.529097 128.528148 
L 239.529097 122.094289 
L 231.02542 122.094289 
z
" clip-path="url(#p2486563038)" style="fill: #00bfff"/>
   </g>
   <g id="patch_26">
    <path d="M 239.529097 128.528148 
L 248.032773 128.528148 
L 248.032773 121.119462 
L 239.529097 121.119462 
z
" clip-path="url(#p2486563038)" style="fill: #00bfff"/>
   </g>
   <g id="patch_27">
    <path d="M 248.032773 128.528148 
L 256.536449 128.528148 
L 256.536449 119.559739 
L 248.032773 119.559739 
z
" clip-path="url(#p2486563038)" style="fill: #00bfff"/>
   </g>
   <g id="patch_28">
    <path d="M 256.536449 128.528148 
L 265.040125 128.528148 
L 265.040125 119.949669 
L 256.536449 119.949669 
z
" clip-path="url(#p2486563038)" style="fill: #00bfff"/>
   </g>
   <g id="patch_29">
    <path d="M 265.040125 128.528148 
L 273.543801 128.528148 
L 273.543801 116.245327 
L 265.040125 116.245327 
z
" clip-path="url(#p2486563038)" style="fill: #00bfff"/>
   </g>
   <g id="patch_30">
    <path d="M 273.543801 128.528148 
L 282.047477 128.528148 
L 282.047477 111.371191 
L 273.543801 111.371191 
z
" clip-path="url(#p2486563038)" style="fill: #00bfff"/>
   </g>
   <g id="patch_31">
    <path d="M 282.047477 128.528148 
L 290.551153 128.528148 
L 290.551153 113.515811 
L 282.047477 113.515811 
z
" clip-path="url(#p2486563038)" style="fill: #00bfff"/>
   </g>
   <g id="patch_32">
    <path d="M 290.551153 128.528148 
L 299.054829 128.528148 
L 299.054829 110.201399 
L 290.551153 110.201399 
z
" clip-path="url(#p2486563038)" style="fill: #00bfff"/>
   </g>
   <g id="patch_33">
    <path d="M 299.054829 128.528148 
L 307.558505 128.528148 
L 307.558505 102.987679 
L 299.054829 102.987679 
z
" clip-path="url(#p2486563038)" style="fill: #00bfff"/>
   </g>
   <g id="patch_34">
    <path d="M 307.558505 128.528148 
L 316.062181 128.528148 
L 316.062181 100.453128 
L 307.558505 100.453128 
z
" clip-path="url(#p2486563038)" style="fill: #00bfff"/>
   </g>
   <g id="patch_35">
    <path d="M 316.062181 128.528148 
L 324.565858 128.528148 
L 324.565858 98.308509 
L 316.062181 98.308509 
z
" clip-path="url(#p2486563038)" style="fill: #00bfff"/>
   </g>
   <g id="patch_36">
    <path d="M 324.565858 128.528148 
L 333.069534 128.528148 
L 333.069534 94.799131 
L 324.565858 94.799131 
z
" clip-path="url(#p2486563038)" style="fill: #00bfff"/>
   </g>
   <g id="patch_37">
    <path d="M 333.069534 128.528148 
L 341.57321 128.528148 
L 341.57321 90.704858 
L 333.069534 90.704858 
z
" clip-path="url(#p2486563038)" style="fill: #00bfff"/>
   </g>
   <g id="patch_38">
    <path d="M 341.57321 128.528148 
L 350.076886 128.528148 
L 350.076886 84.66093 
L 341.57321 84.66093 
z
" clip-path="url(#p2486563038)" style="fill: #00bfff"/>
   </g>
   <g id="patch_39">
    <path d="M 350.076886 128.528148 
L 358.580562 128.528148 
L 358.580562 85.050861 
L 350.076886 85.050861 
z
" clip-path="url(#p2486563038)" style="fill: #00bfff"/>
   </g>
   <g id="patch_40">
    <path d="M 358.580562 128.528148 
L 367.084238 128.528148 
L 367.084238 86.415619 
L 358.580562 86.415619 
z
" clip-path="url(#p2486563038)" style="fill: #00bfff"/>
   </g>
   <g id="patch_41">
    <path d="M 367.084238 128.528148 
L 375.587914 128.528148 
L 375.587914 79.006933 
L 367.084238 79.006933 
z
" clip-path="url(#p2486563038)" style="fill: #00bfff"/>
   </g>
   <g id="patch_42">
    <path d="M 375.587914 128.528148 
L 384.09159 128.528148 
L 384.09159 73.547901 
L 375.587914 73.547901 
z
" clip-path="url(#p2486563038)" style="fill: #00bfff"/>
   </g>
   <g id="patch_43">
    <path d="M 384.09159 128.528148 
L 392.595266 128.528148 
L 392.595266 66.334181 
L 384.09159 66.334181 
z
" clip-path="url(#p2486563038)" style="fill: #00bfff"/>
   </g>
   <g id="patch_44">
    <path d="M 392.595266 128.528148 
L 401.098942 128.528148 
L 401.098942 71.793213 
L 392.595266 71.793213 
z
" clip-path="url(#p2486563038)" style="fill: #00bfff"/>
   </g>
   <g id="patch_45">
    <path d="M 401.098942 128.528148 
L 409.602619 128.528148 
L 409.602619 60.87515 
L 401.098942 60.87515 
z
" clip-path="url(#p2486563038)" style="fill: #00bfff"/>
   </g>
   <g id="patch_46">
    <path d="M 409.602619 128.528148 
L 418.106295 128.528148 
L 418.106295 73.157971 
L 409.602619 73.157971 
z
" clip-path="url(#p2486563038)" style="fill: #00bfff"/>
   </g>
   <g id="patch_47">
    <path d="M 418.106295 128.528148 
L 426.609971 128.528148 
L 426.609971 59.510392 
L 418.106295 59.510392 
z
" clip-path="url(#p2486563038)" style="fill: #00bfff"/>
   </g>
   <g id="patch_48">
    <path d="M 426.609971 128.528148 
L 435.113647 128.528148 
L 435.113647 63.4097 
L 426.609971 63.4097 
z
" clip-path="url(#p2486563038)" style="fill: #00bfff"/>
   </g>
   <g id="patch_49">
    <path d="M 435.113647 128.528148 
L 443.617323 128.528148 
L 443.617323 61.655011 
L 435.113647 61.655011 
z
" clip-path="url(#p2486563038)" style="fill: #00bfff"/>
   </g>
   <g id="patch_50">
    <path d="M 443.617323 128.528148 
L 452.120999 128.528148 
L 452.120999 63.604665 
L 443.617323 63.604665 
z
" clip-path="url(#p2486563038)" style="fill: #00bfff"/>
   </g>
   <g id="patch_51">
    <path d="M 452.120999 128.528148 
L 460.624675 128.528148 
L 460.624675 49.177225 
L 452.120999 49.177225 
z
" clip-path="url(#p2486563038)" style="fill: #00bfff"/>
   </g>
   <g id="patch_52">
    <path d="M 460.624675 128.528148 
L 469.128351 128.528148 
L 469.128351 61.655011 
L 460.624675 61.655011 
z
" clip-path="url(#p2486563038)" style="fill: #00bfff"/>
   </g>
   <g id="patch_53">
    <path d="M 469.128351 128.528148 
L 477.632027 128.528148 
L 477.632027 68.673766 
L 469.128351 68.673766 
z
" clip-path="url(#p2486563038)" style="fill: #00bfff"/>
   </g>
   <g id="patch_54">
    <path d="M 477.632027 128.528148 
L 486.135703 128.528148 
L 486.135703 68.283835 
L 477.632027 68.283835 
z
" clip-path="url(#p2486563038)" style="fill: #00bfff"/>
   </g>
   <g id="patch_55">
    <path d="M 486.135703 128.528148 
L 494.63938 128.528148 
L 494.63938 70.428455 
L 486.135703 70.428455 
z
" clip-path="url(#p2486563038)" style="fill: #00bfff"/>
   </g>
   <g id="patch_56">
    <path d="M 494.63938 128.528148 
L 503.143056 128.528148 
L 503.143056 64.579492 
L 494.63938 64.579492 
z
" clip-path="url(#p2486563038)" style="fill: #00bfff"/>
   </g>
   <g id="patch_57">
    <path d="M 503.143056 128.528148 
L 511.646732 128.528148 
L 511.646732 69.648593 
L 503.143056 69.648593 
z
" clip-path="url(#p2486563038)" style="fill: #00bfff"/>
   </g>
   <g id="patch_58">
    <path d="M 511.646732 128.528148 
L 520.150408 128.528148 
L 520.150408 78.032106 
L 511.646732 78.032106 
z
" clip-path="url(#p2486563038)" style="fill: #00bfff"/>
   </g>
   <g id="patch_59">
    <path d="M 520.150408 128.528148 
L 528.654084 128.528148 
L 528.654084 81.541483 
L 520.150408 81.541483 
z
" clip-path="url(#p2486563038)" style="fill: #00bfff"/>
   </g>
   <g id="patch_60">
    <path d="M 528.654084 128.528148 
L 537.15776 128.528148 
L 537.15776 82.126379 
L 528.654084 82.126379 
z
" clip-path="url(#p2486563038)" style="fill: #00bfff"/>
   </g>
   <g id="patch_61">
    <path d="M 537.15776 128.528148 
L 545.661436 128.528148 
L 545.661436 82.51631 
L 537.15776 82.51631 
z
" clip-path="url(#p2486563038)" style="fill: #00bfff"/>
   </g>
   <g id="patch_62">
    <path d="M 545.661436 128.528148 
L 554.165112 128.528148 
L 554.165112 92.264581 
L 545.661436 92.264581 
z
" clip-path="url(#p2486563038)" style="fill: #00bfff"/>
   </g>
   <g id="patch_63">
    <path d="M 554.165112 128.528148 
L 562.668788 128.528148 
L 562.668788 94.994097 
L 554.165112 94.994097 
z
" clip-path="url(#p2486563038)" style="fill: #00bfff"/>
   </g>
   <g id="patch_64">
    <path d="M 562.668788 128.528148 
L 571.172465 128.528148 
L 571.172465 90.899823 
L 562.668788 90.899823 
z
" clip-path="url(#p2486563038)" style="fill: #00bfff"/>
   </g>
   <g id="patch_65">
    <path d="M 571.172465 128.528148 
L 579.676141 128.528148 
L 579.676141 102.012852 
L 571.172465 102.012852 
z
" clip-path="url(#p2486563038)" style="fill: #00bfff"/>
   </g>
   <g id="patch_66">
    <path d="M 579.676141 128.528148 
L 588.179817 128.528148 
L 588.179817 104.157471 
L 579.676141 104.157471 
z
" clip-path="url(#p2486563038)" style="fill: #00bfff"/>
   </g>
   <g id="patch_67">
    <path d="M 588.179817 128.528148 
L 596.683493 128.528148 
L 596.683493 104.937333 
L 588.179817 104.937333 
z
" clip-path="url(#p2486563038)" style="fill: #00bfff"/>
   </g>
   <g id="patch_68">
    <path d="M 596.683493 128.528148 
L 605.187169 128.528148 
L 605.187169 106.107125 
L 596.683493 106.107125 
z
" clip-path="url(#p2486563038)" style="fill: #00bfff"/>
   </g>
   <g id="patch_69">
    <path d="M 605.187169 128.528148 
L 613.690845 128.528148 
L 613.690845 114.685603 
L 605.187169 114.685603 
z
" clip-path="url(#p2486563038)" style="fill: #00bfff"/>
   </g>
   <g id="patch_70">
    <path d="M 613.690845 128.528148 
L 622.194521 128.528148 
L 622.194521 114.100707 
L 613.690845 114.100707 
z
" clip-path="url(#p2486563038)" style="fill: #00bfff"/>
   </g>
   <g id="patch_71">
    <path d="M 622.194521 128.528148 
L 630.698197 128.528148 
L 630.698197 117.220154 
L 622.194521 117.220154 
z
" clip-path="url(#p2486563038)" style="fill: #00bfff"/>
   </g>
   <g id="patch_72">
    <path d="M 630.698197 128.528148 
L 639.201873 128.528148 
L 639.201873 119.754704 
L 630.698197 119.754704 
z
" clip-path="url(#p2486563038)" style="fill: #00bfff"/>
   </g>
   <g id="patch_73">
    <path d="M 639.201873 128.528148 
L 647.705549 128.528148 
L 647.705549 119.559739 
L 639.201873 119.559739 
z
" clip-path="url(#p2486563038)" style="fill: #00bfff"/>
   </g>
   <g id="patch_74">
    <path d="M 647.705549 128.528148 
L 656.209226 128.528148 
L 656.209226 122.679185 
L 647.705549 122.679185 
z
" clip-path="url(#p2486563038)" style="fill: #00bfff"/>
   </g>
   <g id="patch_75">
    <path d="M 656.209226 128.528148 
L 664.712902 128.528148 
L 664.712902 123.264081 
L 656.209226 123.264081 
z
" clip-path="url(#p2486563038)" style="fill: #00bfff"/>
   </g>
   <g id="patch_76">
    <path d="M 664.712902 128.528148 
L 673.216578 128.528148 
L 673.216578 124.433874 
L 664.712902 124.433874 
z
" clip-path="url(#p2486563038)" style="fill: #00bfff"/>
   </g>
   <g id="patch_77">
    <path d="M 673.216578 128.528148 
L 681.720254 128.528148 
L 681.720254 126.188563 
L 673.216578 126.188563 
z
" clip-path="url(#p2486563038)" style="fill: #00bfff"/>
   </g>
   <g id="patch_78">
    <path d="M 681.720254 128.528148 
L 690.22393 128.528148 
L 690.22393 125.798632 
L 681.720254 125.798632 
z
" clip-path="url(#p2486563038)" style="fill: #00bfff"/>
   </g>
   <g id="patch_79">
    <path d="M 690.22393 128.528148 
L 698.727606 128.528148 
L 698.727606 126.773459 
L 690.22393 126.773459 
z
" clip-path="url(#p2486563038)" style="fill: #00bfff"/>
   </g>
   <g id="patch_80">
    <path d="M 698.727606 128.528148 
L 707.231282 128.528148 
L 707.231282 125.01877 
L 698.727606 125.01877 
z
" clip-path="url(#p2486563038)" style="fill: #00bfff"/>
   </g>
   <g id="patch_81">
    <path d="M 707.231282 128.528148 
L 715.734958 128.528148 
L 715.734958 127.358355 
L 707.231282 127.358355 
z
" clip-path="url(#p2486563038)" style="fill: #00bfff"/>
   </g>
   <g id="patch_82">
    <path d="M 715.734958 128.528148 
L 724.238634 128.528148 
L 724.238634 126.578493 
L 715.734958 126.578493 
z
" clip-path="url(#p2486563038)" style="fill: #00bfff"/>
   </g>
   <g id="patch_83">
    <path d="M 724.238634 128.528148 
L 732.74231 128.528148 
L 732.74231 126.968424 
L 724.238634 126.968424 
z
" clip-path="url(#p2486563038)" style="fill: #00bfff"/>
   </g>
   <g id="patch_84">
    <path d="M 732.74231 128.528148 
L 741.245987 128.528148 
L 741.245987 127.358355 
L 732.74231 127.358355 
z
" clip-path="url(#p2486563038)" style="fill: #00bfff"/>
   </g>
   <g id="patch_85">
    <path d="M 741.245987 128.528148 
L 749.749663 128.528148 
L 749.749663 128.138217 
L 741.245987 128.138217 
z
" clip-path="url(#p2486563038)" style="fill: #00bfff"/>
   </g>
   <g id="patch_86">
    <path d="M 749.749663 128.528148 
L 758.253339 128.528148 
L 758.253339 128.333182 
L 749.749663 128.333182 
z
" clip-path="url(#p2486563038)" style="fill: #00bfff"/>
   </g>
   <g id="patch_87">
    <path d="M 758.253339 128.528148 
L 766.757015 128.528148 
L 766.757015 127.943251 
L 758.253339 127.943251 
z
" clip-path="url(#p2486563038)" style="fill: #00bfff"/>
   </g>
   <g id="patch_88">
    <path d="M 766.757015 128.528148 
L 775.260691 128.528148 
L 775.260691 128.138217 
L 766.757015 128.138217 
z
" clip-path="url(#p2486563038)" style="fill: #00bfff"/>
   </g>
   <g id="patch_89">
    <path d="M 775.260691 128.528148 
L 783.764367 128.528148 
L 783.764367 128.528148 
L 775.260691 128.528148 
z
" clip-path="url(#p2486563038)" style="fill: #00bfff"/>
   </g>
   <g id="patch_90">
    <path d="M 783.764367 128.528148 
L 792.268043 128.528148 
L 792.268043 128.528148 
L 783.764367 128.528148 
z
" clip-path="url(#p2486563038)" style="fill: #00bfff"/>
   </g>
   <g id="patch_91">
    <path d="M 792.268043 128.528148 
L 800.771719 128.528148 
L 800.771719 128.528148 
L 792.268043 128.528148 
z
" clip-path="url(#p2486563038)" style="fill: #00bfff"/>
   </g>
   <g id="patch_92">
    <path d="M 800.771719 128.528148 
L 809.275395 128.528148 
L 809.275395 128.528148 
L 800.771719 128.528148 
z
" clip-path="url(#p2486563038)" style="fill: #00bfff"/>
   </g>
   <g id="patch_93">
    <path d="M 809.275395 128.528148 
L 817.779072 128.528148 
L 817.779072 128.528148 
L 809.275395 128.528148 
z
" clip-path="url(#p2486563038)" style="fill: #00bfff"/>
   </g>
   <g id="patch_94">
    <path d="M 817.779072 128.528148 
L 826.282748 128.528148 
L 826.282748 128.528148 
L 817.779072 128.528148 
z
" clip-path="url(#p2486563038)" style="fill: #00bfff"/>
   </g>
   <g id="patch_95">
    <path d="M 826.282748 128.528148 
L 834.786424 128.528148 
L 834.786424 128.138217 
L 826.282748 128.138217 
z
" clip-path="url(#p2486563038)" style="fill: #00bfff"/>
   </g>
   <g id="line2d_21">
    <path d="M 10.7 128.52541 
L 19.331308 128.524074 
L 27.962617 128.522133 
L 36.593925 128.519337 
L 45.225233 128.515346 
L 53.856541 128.509693 
L 62.48785 128.501755 
L 71.119158 128.490702 
L 79.750466 128.475441 
L 88.381775 128.454549 
L 97.013083 128.426192 
L 105.644391 128.388028 
L 114.275699 128.337107 
L 122.907008 128.269745 
L 131.538316 128.181404 
L 140.169624 128.06655 
L 148.800933 127.918528 
L 157.432241 127.729423 
L 166.063549 127.489957 
L 174.694857 127.189398 
L 183.326166 126.815519 
L 191.957474 126.3546 
L 200.588782 125.791512 
L 209.220091 125.109874 
L 217.851399 124.292316 
L 226.482707 123.320849 
L 235.114015 122.17735 
L 243.745324 120.844172 
L 252.376632 119.304861 
L 261.00794 117.544986 
L 269.639248 115.553038 
L 278.270557 113.32139 
L 286.901865 110.847254 
L 295.533173 108.133615 
L 304.164482 105.190059 
L 312.79579 102.033462 
L 321.427098 98.688464 
L 330.058406 95.187683 
L 338.689715 91.571631 
L 347.321023 87.88827 
L 355.952331 84.192228 
L 364.58364 80.543642 
L 373.214948 77.006673 
L 381.846256 73.647715 
L 390.477564 70.533392 
L 399.108873 67.728383 
L 407.740181 65.293218 
L 416.371489 63.282109 
L 425.002798 61.740949 
L 433.634106 60.705572 
L 442.265414 60.200371 
L 450.896722 60.237336 
L 459.528031 60.815588 
L 468.159339 61.921412 
L 476.790647 63.528793 
L 485.421956 65.600441 
L 494.053264 68.089223 
L 502.684572 70.939945 
L 511.31588 74.091385 
L 519.947189 77.478467 
L 528.578497 81.034478 
L 537.209805 84.693209 
L 545.841114 88.39095 
L 554.472422 92.068233 
L 563.10373 95.671275 
L 571.735038 99.153087 
L 580.366347 102.474215 
L 588.997655 105.603125 
L 597.628963 108.516252 
L 606.260272 111.197745 
L 614.89158 113.638959 
L 623.522888 115.837745 
L 632.154196 117.797604 
L 640.785505 119.526748 
L 649.416813 121.037139 
L 658.048121 122.343535 
L 666.679429 123.462596 
L 675.310738 124.412076 
L 683.942046 125.210112 
L 692.573354 125.874635 
L 701.204663 126.4229 
L 709.835971 126.871129 
L 718.467279 127.23427 
L 727.098587 127.525839 
L 735.729896 127.757863 
L 744.361204 127.94087 
L 752.992512 128.083949 
L 761.623821 128.194834 
L 770.255129 128.280023 
L 778.886437 128.344903 
L 787.517745 128.393892 
L 796.149054 128.430564 
L 804.780362 128.457782 
L 813.41167 128.47781 
L 822.042979 128.492424 
L 830.674287 128.502996 
L 839.305595 128.51058 
L 847.936903 128.515974 
L 856.568212 128.519779 
L 865.19952 128.52244 
" clip-path="url(#p2486563038)" style="fill: none; stroke: #1f77b4; stroke-width: 1.5; stroke-linecap: square"/>
   </g>
   <g id="text_13">
    <g id="patch_96">
     <path d="M 50.926675 38.307963 
L 67.234487 38.307963 
Q 70.234487 38.307963 70.234487 35.307963 
L 70.234487 25.629838 
Q 70.234487 22.629838 67.234487 22.629838 
L 50.926675 22.629838 
Q 47.926675 22.629838 47.926675 25.629838 
L 47.926675 35.307963 
Q 47.926675 38.307963 50.926675 38.307963 
z
" style="fill: #ffffff"/>
    </g>
    <!-- -4σ -->
    <g transform="translate(50.926675 33.228276) scale(0.1 -0.1)">
     <use xlink:href="#DejaVuSans-2d"/>
     <use xlink:href="#DejaVuSans-34" x="36.083984"/>
     <use xlink:href="#DejaVuSans-3c3" x="99.707031"/>
    </g>
   </g>
   <g id="text_14">
    <g id="patch_97">
     <path d="M 147.655146 38.307963 
L 163.962958 38.307963 
Q 166.962958 38.307963 166.962958 35.307963 
L 166.962958 25.629838 
Q 166.962958 22.629838 163.962958 22.629838 
L 147.655146 22.629838 
Q 144.655146 22.629838 144.655146 25.629838 
L 144.655146 35.307963 
Q 144.655146 38.307963 147.655146 38.307963 
z
" style="fill: #ffffff"/>
    </g>
    <!-- -3σ -->
    <g transform="translate(147.655146 33.228276) scale(0.1 -0.1)">
     <use xlink:href="#DejaVuSans-2d"/>
     <use xlink:href="#DejaVuSans-33" x="36.083984"/>
     <use xlink:href="#DejaVuSans-3c3" x="99.707031"/>
    </g>
   </g>
   <g id="text_15">
    <g id="patch_98">
     <path d="M 244.383617 38.307963 
L 260.69143 38.307963 
Q 263.69143 38.307963 263.69143 35.307963 
L 263.69143 25.629838 
Q 263.69143 22.629838 260.69143 22.629838 
L 244.383617 22.629838 
Q 241.383617 22.629838 241.383617 25.629838 
L 241.383617 35.307963 
Q 241.383617 38.307963 244.383617 38.307963 
z
" style="fill: #ffffff"/>
    </g>
    <!-- -2σ -->
    <g transform="translate(244.383617 33.228276) scale(0.1 -0.1)">
     <use xlink:href="#DejaVuSans-2d"/>
     <use xlink:href="#DejaVuSans-32" x="36.083984"/>
     <use xlink:href="#DejaVuSans-3c3" x="99.707031"/>
    </g>
   </g>
   <g id="text_16">
    <g id="patch_99">
     <path d="M 344.293338 38.307963 
L 354.238651 38.307963 
Q 357.238651 38.307963 357.238651 35.307963 
L 357.238651 25.629838 
Q 357.238651 22.629838 354.238651 22.629838 
L 344.293338 22.629838 
Q 341.293338 22.629838 341.293338 25.629838 
L 341.293338 35.307963 
Q 341.293338 38.307963 344.293338 38.307963 
z
" style="fill: #ffffff"/>
    </g>
    <!-- -σ -->
    <g transform="translate(344.293338 33.228276) scale(0.1 -0.1)">
     <use xlink:href="#DejaVuSans-2d"/>
     <use xlink:href="#DejaVuSans-3c3" x="36.083984"/>
    </g>
   </g>
   <g id="text_17">
    <g id="patch_100">
     <path d="M 442.31556 38.307963 
L 449.673372 38.307963 
Q 452.673372 38.307963 452.673372 35.307963 
L 452.673372 25.629838 
Q 452.673372 22.629838 449.673372 22.629838 
L 442.31556 22.629838 
Q 439.31556 22.629838 439.31556 25.629838 
L 439.31556 35.307963 
Q 439.31556 38.307963 442.31556 38.307963 
z
" style="fill: #ffffff"/>
    </g>
    <!-- μ -->
    <g transform="translate(442.31556 33.217338) scale(0.1 -0.1)">
     <defs>
      <path id="DejaVuSans-Bold-3bc" d="M 544 -1338 
L 544 3500 
L 1672 3500 
L 1672 1466 
Q 1672 1103 1828 926 
Q 1984 750 2303 750 
Q 2625 750 2781 926 
Q 2938 1103 2938 1466 
L 2938 3500 
L 4063 3500 
L 4063 1159 
Q 4063 938 4114 850 
Q 4166 763 4288 763 
Q 4344 763 4395 778 
Q 4447 794 4506 831 
L 4506 50 
Q 4341 -22 4195 -56 
Q 4050 -91 3909 -91 
Q 3631 -91 3454 26 
Q 3278 144 3169 403 
Q 3022 156 2811 32 
Q 2600 -91 2322 -91 
Q 2091 -91 1928 -17 
Q 1766 56 1672 206 
L 1672 -1338 
L 544 -1338 
z
" transform="scale(0.015625)"/>
     </defs>
     <use xlink:href="#DejaVuSans-Bold-3bc"/>
    </g>
   </g>
   <g id="text_18">
    <g id="patch_101">
     <path d="M 535.364343 38.307963 
L 550.081531 38.307963 
Q 553.081531 38.307963 553.081531 35.307963 
L 553.081531 25.629838 
Q 553.081531 22.629838 550.081531 22.629838 
L 535.364343 22.629838 
Q 532.364343 22.629838 532.364343 25.629838 
L 532.364343 35.307963 
Q 532.364343 38.307963 535.364343 38.307963 
z
" style="fill: #ffffff"/>
    </g>
    <!-- +σ -->
    <g transform="translate(535.364343 33.228276) scale(0.1 -0.1)">
     <defs>
      <path id="DejaVuSans-2b" d="M 2944 4013 
L 2944 2272 
L 4684 2272 
L 4684 1741 
L 2944 1741 
L 2944 0 
L 2419 0 
L 2419 1741 
L 678 1741 
L 678 2272 
L 2419 2272 
L 2419 4013 
L 2944 4013 
z
" transform="scale(0.015625)"/>
     </defs>
     <use xlink:href="#DejaVuSans-2b"/>
     <use xlink:href="#DejaVuSans-3c3" x="83.789062"/>
    </g>
   </g>
   <g id="text_19">
    <g id="patch_102">
     <path d="M 628.911565 38.307963 
L 649.991252 38.307963 
Q 652.991252 38.307963 652.991252 35.307963 
L 652.991252 25.629838 
Q 652.991252 22.629838 649.991252 22.629838 
L 628.911565 22.629838 
Q 625.911565 22.629838 625.911565 25.629838 
L 625.911565 35.307963 
Q 625.911565 38.307963 628.911565 38.307963 
z
" style="fill: #ffffff"/>
    </g>
    <!-- +2σ -->
    <g transform="translate(628.911565 33.228276) scale(0.1 -0.1)">
     <use xlink:href="#DejaVuSans-2b"/>
     <use xlink:href="#DejaVuSans-32" x="83.789062"/>
     <use xlink:href="#DejaVuSans-3c3" x="147.412109"/>
    </g>
   </g>
   <g id="text_20">
    <g id="patch_103">
     <path d="M 725.640036 38.307963 
L 746.719723 38.307963 
Q 749.719723 38.307963 749.719723 35.307963 
L 749.719723 25.629838 
Q 749.719723 22.629838 746.719723 22.629838 
L 725.640036 22.629838 
Q 722.640036 22.629838 722.640036 25.629838 
L 722.640036 35.307963 
Q 722.640036 38.307963 725.640036 38.307963 
z
" style="fill: #ffffff"/>
    </g>
    <!-- +3σ -->
    <g transform="translate(725.640036 33.228276) scale(0.1 -0.1)">
     <use xlink:href="#DejaVuSans-2b"/>
     <use xlink:href="#DejaVuSans-33" x="83.789062"/>
     <use xlink:href="#DejaVuSans-3c3" x="147.412109"/>
    </g>
   </g>
   <g id="text_21">
    <g id="patch_104">
     <path d="M 822.368507 38.307963 
L 843.448195 38.307963 
Q 846.448195 38.307963 846.448195 35.307963 
L 846.448195 25.629838 
Q 846.448195 22.629838 843.448195 22.629838 
L 822.368507 22.629838 
Q 819.368507 22.629838 819.368507 25.629838 
L 819.368507 35.307963 
Q 819.368507 38.307963 822.368507 38.307963 
z
" style="fill: #ffffff"/>
    </g>
    <!-- +4σ -->
    <g transform="translate(822.368507 33.228276) scale(0.1 -0.1)">
     <use xlink:href="#DejaVuSans-2b"/>
     <use xlink:href="#DejaVuSans-34" x="83.789062"/>
     <use xlink:href="#DejaVuSans-3c3" x="147.412109"/>
    </g>
   </g>
  </g>
 </g>
 <defs>
  <clipPath id="p2486563038">
   <rect x="10.7" y="20.214138" width="854.49952" height="108.31401"/>
  </clipPath>
 </defs>
</svg>
